<svg width="30" height="30" viewBox="0 0 30 30" fill="none" xmlns="http://www.w3.org/2000/svg">
<path fill-rule="evenodd" clip-rule="evenodd" d="M27.3831 17.9242C27.4178 17.7568 27.4828 17.6057 27.5738 17.4751C27.6691 17.3404 27.7904 17.2219 27.9334 17.1321C28.072 17.0423 28.2323 16.977 28.4057 16.9402C28.5703 16.9076 28.7436 16.9035 28.9213 16.9361C29.0989 16.9688 29.2592 17.0301 29.3979 17.1158C29.5408 17.2056 29.6665 17.3199 29.7618 17.4547C29.8571 17.5853 29.9265 17.7364 29.9655 17.8997C30.0001 18.0549 30.0044 18.2182 29.9698 18.3856C29.9308 18.5816 29.8875 18.7776 29.8398 18.9695C29.7921 19.1654 29.7402 19.3614 29.6795 19.5533C29.6188 19.7534 29.5582 19.9453 29.4975 20.129C29.4369 20.3046 29.3675 20.4924 29.2852 20.6965C29.2072 20.8966 29.1292 21.0844 29.0556 21.2518C28.9819 21.4192 28.8953 21.603 28.7956 21.803C28.709 21.9827 28.6136 22.1623 28.5096 22.342C28.41 22.5175 28.3103 22.6931 28.202 22.8687L28.1977 22.8768C27.6951 23.6975 27.1145 24.4569 26.4733 25.147C25.8147 25.8574 25.0911 26.4903 24.3199 27.0496C23.5313 27.6212 22.6908 28.1112 21.8069 28.5236C20.9143 28.94 19.9785 29.2667 19.0252 29.5116C18.0764 29.7525 17.0972 29.9036 16.1093 29.9689C15.1344 30.0302 14.1509 30.0016 13.163 29.8832C12.1968 29.7648 11.2393 29.5566 10.2991 29.2585C9.3762 28.9645 8.47498 28.5848 7.6041 28.1194L7.50445 28.0663C6.63356 27.5886 5.832 27.0415 5.10843 26.4413C4.3632 25.8247 3.69595 25.1429 3.10237 24.4161C2.50445 23.6771 1.98451 22.885 1.55124 22.0521C1.11363 21.211 0.762677 20.3372 0.511377 19.4472C0.255744 18.553 0.0954325 17.6302 0.0261084 16.6993C-0.038883 15.7807 -0.00855369 14.8538 0.117096 13.9229C0.242746 13.0165 0.463717 12.1142 0.780008 11.2282C1.09197 10.3585 1.49491 9.50925 1.98885 8.69266L2.01484 8.64775C2.04084 8.60284 2.04951 8.59059 2.05817 8.57834C2.5651 7.76583 3.13703 7.01865 3.76961 6.34088C4.42386 5.63862 5.14743 5.00984 5.91866 4.45048C6.70289 3.88703 7.54344 3.39707 8.42732 2.98878C9.31987 2.5764 10.2471 2.24568 11.1916 2.00887C12.1448 1.76798 13.1284 1.61283 14.1206 1.55158C15.0998 1.49034 16.092 1.51892 17.0798 1.64141C18.0504 1.76389 19.0166 1.97212 19.9568 2.27426C20.8753 2.56824 21.7765 2.95203 22.6561 3.42974L22.6691 3.4379C22.8207 3.52365 22.9464 3.6298 23.0504 3.75637C23.1544 3.88703 23.2324 4.03402 23.2757 4.18508C23.319 4.34024 23.332 4.50356 23.3103 4.66687C23.2887 4.82611 23.2324 4.98534 23.1457 5.12825C23.059 5.27523 22.9421 5.39772 22.8077 5.49163C22.6691 5.5937 22.5088 5.6672 22.3441 5.70803C22.1795 5.74886 22.0062 5.7611 21.8329 5.74069C21.6639 5.72027 21.4949 5.6672 21.3433 5.58554C20.624 5.19357 19.8745 4.87919 19.1119 4.63421C18.3277 4.38515 17.5348 4.20958 16.7376 4.11159C15.923 4.00952 15.1041 3.9891 14.2895 4.0381C13.475 4.08709 12.6648 4.21775 11.8719 4.41373C11.079 4.61379 10.3121 4.88735 9.57984 5.22624C8.85193 5.56512 8.15436 5.96933 7.50011 6.44296C6.85886 6.90433 6.26528 7.43103 5.72368 8.01489C5.19509 8.58651 4.71848 9.2112 4.30254 9.88897L4.26354 9.9543C3.86493 10.6117 3.54431 11.2935 3.29301 11.9917C3.02871 12.7307 2.8424 13.4779 2.73841 14.2251C2.6301 14.9927 2.60843 15.7643 2.66042 16.5319C2.71242 17.2995 2.85107 18.063 3.05904 18.8102C3.27134 19.5574 3.56164 20.2801 3.92126 20.9701C4.28088 21.656 4.70982 22.3134 5.21242 22.9299C5.70202 23.5342 6.26094 24.0936 6.8762 24.6039C7.47845 25.102 8.14136 25.5512 8.86926 25.9472C9.5885 26.3392 10.3337 26.6536 11.0963 26.8985C11.8805 27.1476 12.6734 27.3232 13.4707 27.4212C14.2852 27.5232 15.1041 27.5437 15.9187 27.4947C16.7332 27.4457 17.5434 27.315 18.3363 27.119C19.1292 26.919 19.8961 26.6454 20.6327 26.3065C21.3606 25.9676 22.0582 25.5634 22.7124 25.0898C23.3537 24.6284 23.9473 24.1058 24.4889 23.5219C25.0174 22.9544 25.4941 22.3256 25.9143 21.6438C26.001 21.505 26.0833 21.3621 26.1613 21.2192C26.2306 21.0967 26.3086 20.9415 26.4039 20.7619C26.4689 20.6353 26.5382 20.4801 26.6162 20.3046C26.6856 20.1453 26.7505 19.9943 26.8069 19.8514C26.8632 19.7044 26.9195 19.5533 26.9759 19.3941C27.0322 19.2348 27.0798 19.0756 27.1275 18.9164C27.1795 18.7408 27.2228 18.5775 27.2575 18.4346C27.3095 18.2549 27.3485 18.0916 27.3831 17.9242ZM24.3459 15.9277H20.8927C20.923 16.189 20.9967 16.3809 21.118 16.5115C21.2826 16.6952 21.5036 16.7851 21.7679 16.7851C21.9369 16.7851 22.0972 16.7442 22.2488 16.6667C22.3441 16.6177 22.4438 16.5278 22.5478 16.4013L24.2462 16.5483C23.9862 16.9729 23.6743 17.2791 23.306 17.4628C22.9377 17.6466 22.4135 17.7405 21.7246 17.7405C21.131 17.7405 20.663 17.6629 20.3164 17.5037C19.9741 17.3444 19.6925 17.0954 19.4672 16.7483C19.2419 16.4054 19.1292 16.0011 19.1292 15.5316C19.1292 14.8702 19.3545 14.3353 19.8051 13.9229C20.2557 13.5146 20.8753 13.3064 21.6726 13.3064C22.3138 13.3064 22.8251 13.4003 23.1977 13.584C23.5703 13.7678 23.8519 14.0332 24.0469 14.3802C24.2419 14.7273 24.3372 15.1805 24.3372 15.7398V15.9277H24.3459ZM22.5911 15.1478C22.5564 14.8334 22.4655 14.6089 22.3225 14.4741C22.1752 14.3394 21.9845 14.27 21.7505 14.27C21.4776 14.27 21.2566 14.372 21.092 14.5762C20.988 14.7028 20.923 14.8947 20.8927 15.1478H22.5911ZM16.9022 13.4044H18.5183V17.4057L18.5226 17.5935C18.5226 17.8589 18.462 18.112 18.3407 18.3529C18.2194 18.5938 18.0634 18.7898 17.8641 18.9368C17.6648 19.0838 17.4135 19.194 17.1058 19.2593C16.7982 19.3247 16.4473 19.3614 16.053 19.3614C15.1518 19.3614 14.5278 19.2348 14.1899 18.9776C13.8519 18.7245 13.683 18.3815 13.683 17.9528C13.683 17.8997 13.6873 17.8262 13.6916 17.7364L15.3641 17.9161C15.4074 18.063 15.4724 18.1651 15.559 18.2182C15.6847 18.2998 15.845 18.3407 16.0356 18.3407C16.2826 18.3407 16.4689 18.2794 16.5902 18.1529C16.7116 18.0263 16.7722 17.8099 16.7722 17.4996V16.8586C16.6032 17.0464 16.4343 17.1852 16.2653 17.2709C16.001 17.4016 15.715 17.471 15.4074 17.471C14.8051 17.471 14.3199 17.222 13.9516 16.7279C13.6916 16.3768 13.5573 15.9113 13.5573 15.3356C13.5573 14.6742 13.7263 14.172 14.0642 13.8249C14.4022 13.4779 14.8441 13.3064 15.3944 13.3064C15.7453 13.3064 16.0313 13.3636 16.2609 13.4738C16.4862 13.584 16.6986 13.7719 16.8979 14.0291V13.4044H16.9022ZM15.2817 15.4581C15.2817 15.7643 15.3511 15.9889 15.4897 16.14C15.6284 16.287 15.8103 16.3604 16.0356 16.3604C16.2479 16.3604 16.4299 16.2829 16.5729 16.1318C16.7202 15.9807 16.7895 15.748 16.7895 15.4418C16.7895 15.1315 16.7116 14.8988 16.5599 14.7354C16.4083 14.5721 16.222 14.4905 16.001 14.4905C15.78 14.4905 15.6067 14.5639 15.4767 14.715C15.3467 14.862 15.2817 15.1111 15.2817 15.4581ZM11.17 16.6748H8.98625L8.68729 17.6384H6.72888L9.05991 11.7875H11.1526L13.488 17.6384H11.4819L11.17 16.6748ZM10.767 15.4132L10.0824 13.3105L9.40219 15.4132H10.767ZM21.3216 9.71748C21.1483 9.77056 20.975 9.78689 20.8103 9.77465C20.637 9.7624 20.4681 9.7134 20.3164 9.63991C20.1648 9.56641 20.0261 9.46434 19.9135 9.33777C19.8051 9.21528 19.7185 9.07646 19.6622 8.91723C19.6058 8.75391 19.5885 8.59059 19.6015 8.43544C19.6145 8.26804 19.6665 8.1088 19.7445 7.9659C19.8225 7.82299 19.9308 7.69234 20.0651 7.59027C20.1951 7.48819 20.3424 7.40653 20.5114 7.35346L25.4681 5.8591L23.2367 1.82106C23.1544 1.66999 23.1067 1.51483 23.0937 1.3556C23.0807 1.19228 23.098 1.02896 23.15 0.873811C23.1977 0.718659 23.2843 0.571672 23.397 0.445101C23.5053 0.322612 23.6396 0.216455 23.7999 0.138879C23.9603 0.0613033 24.1249 0.0163908 24.2939 0.00414199C24.4672 -0.00810686 24.6405 0.00822494 24.8051 0.0572204C24.9698 0.106216 25.1258 0.183792 25.2601 0.289949C25.3901 0.392022 25.4984 0.518594 25.5807 0.669663L28.5356 6.01425C28.5486 6.04283 28.5616 6.07957 28.579 6.10407L28.6006 6.16123L28.618 6.21431C28.67 6.37355 28.6873 6.53278 28.6743 6.68793C28.6613 6.85533 28.6093 7.01457 28.5313 7.15747C28.4533 7.30038 28.345 7.43103 28.2107 7.53311C28.0807 7.63518 27.9334 7.71684 27.7644 7.76992L21.3216 9.71748Z" fill="#EB4A41" style="fill:#EB4A41;fill:color(display-p3 0.9216 0.2902 0.2549);fill-opacity:1;"/>
</svg>
