<svg width="40" height="40" viewBox="0 0 40 40" fill="none" xmlns="http://www.w3.org/2000/svg">
<circle cx="20" cy="20" r="20" fill="#F04242" fill-opacity="0.1" style="fill:#F04242;fill:color(display-p3 0.9400 0.2600 0.2600);fill-opacity:0.1;"/>
<g clip-path="url(#clip0_126_522)">
<path d="M26.1682 9.31033H23.6383C23.4963 9.31038 23.3588 9.25884 23.2503 9.16486C23.1419 9.07088 23.0693 8.94053 23.0457 8.79694L22.9143 7.99606C22.8906 7.85247 22.8181 7.72212 22.7096 7.62814C22.6012 7.53416 22.4637 7.48262 22.3217 7.48267H17.6783C17.5363 7.48262 17.3989 7.53416 17.2904 7.62814C17.1819 7.72212 17.1094 7.85247 17.0857 7.99606L16.9544 8.79694C16.9307 8.94053 16.8582 9.07088 16.7497 9.16486C16.6412 9.25884 16.5038 9.31038 16.3618 9.31033H13.8318C13.1944 9.31033 12.5832 9.56996 12.1325 10.0321C11.6818 10.4942 11.4286 11.121 11.4286 11.7746V26.0674C11.4286 26.7209 11.6818 27.3477 12.1325 27.8099C12.5832 28.272 13.1944 28.5316 13.8318 28.5316C14.0336 28.5316 14.2272 28.6139 14.3699 28.7602C14.5126 28.9066 14.5928 29.105 14.5928 29.312V29.9383C14.5928 30.3468 14.7511 30.7386 15.0327 31.0274C15.3144 31.3162 15.6965 31.4785 16.0948 31.4785C16.4932 31.4785 16.8752 31.3162 17.1569 31.0274C17.4386 30.7386 17.5968 30.3468 17.5968 29.9383V29.312C17.5968 29.105 17.677 28.9066 17.8197 28.7602C17.9624 28.6139 18.156 28.5316 18.3578 28.5316H21.6422C21.844 28.5316 22.0376 28.6139 22.1803 28.7602C22.323 28.9066 22.4032 29.105 22.4032 29.312V29.9383C22.4032 30.3468 22.5615 30.7386 22.8431 31.0274C23.1248 31.3162 23.5069 31.4785 23.9052 31.4785C24.3036 31.4785 24.6856 31.3162 24.9673 31.0274C25.249 30.7386 25.4072 30.3468 25.4072 29.9383V29.312C25.4072 29.105 25.4874 28.9066 25.6301 28.7602C25.7728 28.6139 25.9664 28.5316 26.1682 28.5316C26.8056 28.5316 27.4169 28.272 27.8676 27.8099C28.3183 27.3477 28.5714 26.7209 28.5714 26.0674V11.7746C28.5714 11.121 28.3183 10.4942 27.8676 10.0321C27.4169 9.56996 26.8056 9.31033 26.1682 9.31033ZM21.5267 10.0946H18.458C18.4296 10.0946 18.4017 10.0885 18.3758 10.0766C18.35 10.0647 18.3269 10.0474 18.3081 10.0257C18.2893 10.004 18.2752 9.97845 18.2667 9.95075C18.2582 9.92305 18.2556 9.89383 18.2589 9.865L18.3468 9.10231C18.3526 9.05236 18.376 9.0063 18.4126 8.97288C18.4493 8.93945 18.4966 8.92099 18.5457 8.92098H21.4522C21.5018 8.92098 21.5497 8.93989 21.5865 8.97404C21.6233 9.00819 21.6465 9.05515 21.6514 9.1058L21.7259 9.86849C21.7287 9.89706 21.7257 9.92593 21.717 9.95322C21.7082 9.9805 21.694 10.0056 21.6753 10.0269C21.6565 10.0482 21.6335 10.0653 21.608 10.0769C21.5824 10.0886 21.5547 10.0946 21.5267 10.0946Z" fill="#EB4A41" style="fill:#EB4A41;fill:color(display-p3 0.9216 0.2902 0.2549);fill-opacity:1;"/>
<path d="M17.1726 7.99545L17.0392 8.79636C17.0151 8.93995 16.9415 9.0703 16.8314 9.16429C16.7212 9.25827 16.5817 9.30981 16.4375 9.30976H13.8687C13.2215 9.30976 12.6009 9.5694 12.1433 10.0316C11.6857 10.4937 11.4286 11.1205 11.4286 11.7741V26.0672C11.4286 26.7208 11.6857 27.3476 12.1433 27.8098C12.6009 28.2719 13.2215 28.5316 13.8687 28.5316C14.0736 28.5316 14.2701 28.6138 14.4151 28.7601C14.56 28.9065 14.6414 29.105 14.6414 29.3119V29.9383C14.6414 30.3468 14.802 30.7385 15.0881 31.0274C15.3741 31.3162 15.762 31.4785 16.1664 31.4785C16.5709 31.4785 16.9588 31.3162 17.2448 31.0274C17.5308 30.7385 17.6915 30.3468 17.6915 29.9383V29.3119C17.6915 29.105 17.7729 28.9065 17.9178 28.7601C18.0627 28.6138 18.2593 28.5316 18.4642 28.5316H19.999V10.0938H18.5659C18.5371 10.0939 18.5087 10.0877 18.4825 10.0759C18.4562 10.064 18.4328 10.0466 18.4137 10.0249C18.3946 10.0032 18.3803 9.97769 18.3717 9.94999C18.363 9.92229 18.3603 9.89307 18.3637 9.86424L18.453 9.10153C18.4588 9.05157 18.4826 9.00552 18.5198 8.97209C18.557 8.93867 18.6051 8.9202 18.6549 8.92019H20V7.48267H17.7742C17.6301 7.48259 17.4907 7.53405 17.3805 7.62791C17.2704 7.72177 17.1967 7.85198 17.1726 7.99545Z" fill="#EB4A41" style="fill:#EB4A41;fill:color(display-p3 0.9216 0.2902 0.2549);fill-opacity:1;"/>
<path d="M13.1429 25.118V15.0495C13.1429 14.777 13.2369 14.5122 13.41 14.2977C13.5831 14.0832 13.8252 13.9312 14.0977 13.8661L15.0535 13.6378C16.0283 13.4049 17.0499 13.433 18.0096 13.7191L18.5305 13.8742C19.4614 14.1518 20.4511 14.1868 21.4003 13.9758L22.4609 13.7398C23.2138 13.5724 23.9943 13.5593 24.7528 13.7012L25.8399 13.9043C26.126 13.9578 26.384 14.1064 26.5696 14.3245C26.7553 14.5427 26.8569 14.8169 26.8572 15.0999V25.118C26.8572 25.4412 26.725 25.7512 26.4898 25.9797C26.2545 26.2082 25.9355 26.3366 25.6028 26.3366H14.3972C14.0646 26.3366 13.7455 26.2082 13.5103 25.9797C13.275 25.7512 13.1429 25.4412 13.1429 25.118Z" fill="#F7CECD" style="fill:#F7CECD;fill:color(display-p3 0.9686 0.8078 0.8039);fill-opacity:1;"/>
<path d="M21.7143 20.9879C21.7143 21.4968 21.5337 21.9849 21.2122 22.3448C20.8907 22.7046 20.4546 22.9068 20 22.9068C19.5453 22.9068 19.1093 22.7046 18.7878 22.3448C18.4663 21.9849 18.2857 21.4968 18.2857 20.9879C18.2857 20.1997 19.2342 18.6609 19.7201 17.9243C19.7525 17.8754 19.7947 17.8356 19.8432 17.8082C19.8918 17.7809 19.9454 17.7666 19.9998 17.7666C20.0542 17.7666 20.1078 17.7809 20.1564 17.8082C20.205 17.8356 20.2471 17.8754 20.2795 17.9243C20.7659 18.6609 21.7143 20.1997 21.7143 20.9879Z" fill="#EB4A41" style="fill:#EB4A41;fill:color(display-p3 0.9216 0.2902 0.2549);fill-opacity:1;"/>
</g>
<defs>
<clipPath id="clip0_126_522">
<rect width="24" height="23.9958" fill="white" style="fill:white;fill-opacity:1;" transform="translate(8 7.48267)"/>
</clipPath>
</defs>
</svg>
