<svg width="30" height="30" viewBox="0 0 30 30" fill="none" xmlns="http://www.w3.org/2000/svg">
<path d="M15 28.932C14.6132 28.9321 14.2358 28.8131 13.919 28.5912C13.6022 28.3692 13.3614 28.0552 13.2293 27.6917C13.0972 27.3281 13.0802 26.9327 13.1806 26.5592C13.281 26.1857 13.494 25.8521 13.7906 25.6039L13.6735 23.5008C12.3183 23.2907 11.0334 22.7582 9.92697 21.9481L8.35665 23.3543C8.3908 23.7398 8.30549 24.1264 8.11229 24.4616C7.9191 24.7969 7.6274 25.0645 7.27681 25.2283C6.92621 25.392 6.53372 25.4438 6.15265 25.3767C5.77157 25.3096 5.42038 25.1269 5.14678 24.8533C4.87317 24.5797 4.69042 24.2285 4.62333 23.8474C4.55624 23.4663 4.60808 23.0738 4.7718 22.7233C4.93552 22.3727 5.20318 22.081 5.53844 21.8878C5.87369 21.6946 6.26029 21.6093 6.64572 21.6434L8.05197 20.0731C7.6497 19.5233 7.31422 18.9276 7.05259 18.2986C7.01085 18.1982 7.01074 18.0852 7.05227 17.9846C7.09381 17.8841 7.17359 17.8041 7.27408 17.7624C7.37456 17.7206 7.48751 17.7205 7.58807 17.7621C7.68864 17.8036 7.76859 17.8834 7.81033 17.9839C8.08777 18.6499 8.45662 19.274 8.90626 19.8382C8.96644 19.914 8.99789 20.0086 8.99506 20.1053C8.99223 20.202 8.9553 20.2946 8.89079 20.3668L7.11142 22.355C7.06275 22.4093 7.00044 22.4498 6.93093 22.472C6.86142 22.4943 6.78723 22.4975 6.71603 22.4815C6.49101 22.4306 6.25554 22.4542 6.04508 22.5487C5.83463 22.6433 5.66059 22.8036 5.54919 23.0057C5.43778 23.2077 5.39504 23.4404 5.4274 23.6689C5.45976 23.8973 5.56546 24.109 5.7286 24.2722C5.89174 24.4353 6.10346 24.541 6.33189 24.5734C6.56032 24.6057 6.79308 24.563 6.99511 24.4516C7.19714 24.3402 7.35749 24.1661 7.45202 23.9557C7.54656 23.7452 7.57014 23.5098 7.51923 23.2847C7.50322 23.2135 7.50651 23.1393 7.52876 23.0698C7.55101 23.0003 7.59141 22.938 7.6458 22.8893L9.63282 21.11C9.70487 21.0452 9.79753 21.008 9.89436 21.0051C9.99119 21.0021 10.0859 21.0335 10.1618 21.0938C11.2987 21.999 12.6673 22.5662 14.1113 22.7307C14.2075 22.7416 14.2968 22.7862 14.3633 22.8567C14.4298 22.9271 14.4692 23.0188 14.4745 23.1155L14.6222 25.7787C14.6261 25.8516 14.6106 25.9242 14.5772 25.989C14.5438 26.0539 14.4937 26.1087 14.4321 26.1479C14.2369 26.271 14.087 26.4542 14.005 26.6699C13.923 26.8856 13.9133 27.1221 13.9773 27.3438C14.0414 27.5655 14.1758 27.7604 14.3603 27.8991C14.5447 28.0378 14.7692 28.1128 15 28.1128C15.2308 28.1128 15.4553 28.0378 15.6398 27.8991C15.8242 27.7604 15.9586 27.5655 16.0227 27.3438C16.0868 27.1221 16.0771 26.8856 15.995 26.6699C15.913 26.4542 15.7631 26.271 15.5679 26.1479C15.5063 26.1087 15.4563 26.0539 15.4229 25.989C15.3895 25.9242 15.3739 25.8516 15.3778 25.7787L15.5255 23.1155C15.5308 23.0188 15.5703 22.9271 15.6367 22.8567C15.7032 22.7862 15.7925 22.7416 15.8888 22.7307C17.3327 22.5662 18.7013 21.999 19.8382 21.0938C19.914 21.0336 20.0086 21.0022 20.1053 21.005C20.202 21.0078 20.2946 21.0448 20.3667 21.1093L22.3549 22.8886C22.4093 22.9373 22.4497 22.9996 22.472 23.0691C22.4942 23.1386 22.4975 23.2128 22.4815 23.284C22.4306 23.5091 22.4542 23.7445 22.5487 23.955C22.6432 24.1654 22.8036 24.3395 23.0056 24.4509C23.2076 24.5623 23.4404 24.605 23.6688 24.5727C23.8973 24.5403 24.109 24.4346 24.2721 24.2715C24.4353 24.1083 24.541 23.8966 24.5733 23.6682C24.6057 23.4397 24.5629 23.207 24.4515 23.005C24.3401 22.8029 24.1661 22.6426 23.9556 22.548C23.7452 22.4535 23.5097 22.4299 23.2847 22.4808C23.2135 22.497 23.1393 22.4937 23.0697 22.4715C23.0002 22.4492 22.9379 22.4087 22.8893 22.3543L21.1099 20.3672C21.0452 20.2952 21.0081 20.2025 21.0051 20.1057C21.0022 20.0089 21.0336 19.9141 21.0938 19.8382C21.999 18.7013 22.5662 17.3327 22.7306 15.8888C22.7416 15.7925 22.7862 15.7033 22.8566 15.6368C22.9271 15.5703 23.0188 15.5309 23.1155 15.5255L25.7787 15.3779C25.8515 15.3741 25.9241 15.3897 25.9889 15.4231C26.0537 15.4565 26.1086 15.5065 26.1478 15.5679C26.2709 15.7631 26.4541 15.913 26.6699 15.9951C26.8856 16.0771 27.1221 16.0868 27.3438 16.0227C27.5655 15.9586 27.7604 15.8243 27.8991 15.6398C28.0378 15.4554 28.1128 15.2308 28.1128 15C28.1128 14.7693 28.0378 14.5447 27.8991 14.3603C27.7604 14.1758 27.5655 14.0414 27.3438 13.9774C27.1221 13.9133 26.8856 13.923 26.6699 14.005C26.4541 14.0871 26.2709 14.237 26.1478 14.4322C26.1083 14.4934 26.0535 14.5432 25.9887 14.5766C25.9239 14.6099 25.8515 14.6257 25.7787 14.6222L23.1155 14.4746C23.0188 14.4692 22.9271 14.4298 22.8566 14.3633C22.7862 14.2968 22.7416 14.2075 22.7306 14.1113C22.5662 12.6674 21.999 11.2988 21.0938 10.1618C21.0336 10.0861 21.0021 9.99147 21.005 9.89476C21.0078 9.79804 21.0447 9.70545 21.1092 9.63333L22.8886 7.64512C22.9372 7.59062 22.9995 7.55013 23.069 7.52787C23.1386 7.50561 23.2128 7.5024 23.284 7.51856C23.509 7.56948 23.7445 7.54591 23.9549 7.4514C24.1654 7.35689 24.3394 7.19655 24.4508 6.99454C24.5623 6.79253 24.605 6.55979 24.5727 6.33136C24.5404 6.10294 24.4347 5.8912 24.2716 5.72805C24.1085 5.5649 23.8968 5.45916 23.6684 5.42676C23.44 5.39437 23.2072 5.43706 23.0052 5.54843C22.8031 5.65979 22.6427 5.83379 22.5482 6.04422C22.4536 6.25464 22.4299 6.4901 22.4808 6.71512C22.4969 6.78633 22.4936 6.86053 22.4713 6.93005C22.4491 6.99957 22.4087 7.06187 22.3542 7.11051L20.3672 8.88989C20.2952 8.95474 20.2026 8.99197 20.1057 8.99497C20.0089 8.99797 19.9141 8.96656 19.8382 8.9063C18.7013 8.00107 17.3327 7.43385 15.8888 7.26942C15.7925 7.2585 15.7032 7.21387 15.6367 7.14343C15.5703 7.07299 15.5308 6.98129 15.5255 6.88458L15.3778 4.22137C15.3739 4.14851 15.3895 4.07593 15.4229 4.01106C15.4563 3.94619 15.5063 3.89137 15.5679 3.85223C15.7631 3.72912 15.913 3.54591 15.995 3.3302C16.0771 3.11449 16.0868 2.87797 16.0227 2.65626C15.9586 2.43456 15.8242 2.23968 15.6398 2.10099C15.4553 1.96229 15.2308 1.8873 15 1.8873C14.7692 1.8873 14.5447 1.96229 14.3603 2.10099C14.1758 2.23968 14.0414 2.43456 13.9773 2.65626C13.9133 2.87797 13.923 3.11449 14.005 3.3302C14.087 3.54591 14.2369 3.72912 14.4321 3.85223C14.4937 3.89137 14.5438 3.94619 14.5772 4.01106C14.6106 4.07593 14.6261 4.14851 14.6222 4.22137L14.4745 6.88458C14.4692 6.98129 14.4298 7.07299 14.3633 7.14343C14.2968 7.21387 14.2075 7.2585 14.1113 7.26942C12.6673 7.43385 11.2987 8.00107 10.1618 8.9063C10.0859 8.96651 9.99115 8.9979 9.89432 8.9949C9.79748 8.99189 9.70484 8.95469 9.63282 8.88989L7.64462 7.11051C7.5902 7.06187 7.54977 6.99957 7.52751 6.93005C7.50526 6.86053 7.502 6.78633 7.51806 6.71512C7.56892 6.4901 7.54528 6.25464 7.4507 6.04422C7.35613 5.83379 7.19574 5.65979 6.9937 5.54843C6.79166 5.43706 6.5589 5.39437 6.33049 5.42676C6.10207 5.45916 5.89037 5.5649 5.72726 5.72805C5.56416 5.8912 5.45848 6.10294 5.42615 6.33136C5.39382 6.55979 5.43659 6.79253 5.54801 6.99454C5.65943 7.19655 5.83348 7.35689 6.04393 7.4514C6.25438 7.54591 6.48985 7.56948 6.71486 7.51856C6.78606 7.50227 6.86032 7.50543 6.92989 7.52769C6.99945 7.54996 7.06174 7.59052 7.11025 7.64512L8.89009 9.63286C8.95482 9.70492 8.99195 9.79757 8.99491 9.89439C8.99787 9.99121 8.96647 10.086 8.90626 10.1618C8.00104 11.2988 7.43382 12.6674 7.26939 14.1113C7.25847 14.2075 7.21383 14.2968 7.1434 14.3633C7.07296 14.4298 6.98126 14.4692 6.88454 14.4746L4.22134 14.6222C4.14854 14.6257 4.07611 14.61 4.01131 14.5766C3.94652 14.5433 3.89164 14.4934 3.8522 14.4322C3.72909 14.237 3.54588 14.0871 3.33017 14.005C3.11446 13.923 2.87794 13.9133 2.65623 13.9774C2.43453 14.0414 2.23965 14.1758 2.10095 14.3603C1.96226 14.5447 1.88727 14.7693 1.88727 15C1.88727 15.2308 1.96226 15.4554 2.10095 15.6398C2.23965 15.8243 2.43453 15.9586 2.65623 16.0227C2.87794 16.0868 3.11446 16.0771 3.33017 15.9951C3.54588 15.913 3.72909 15.7631 3.8522 15.5679C3.8914 15.5064 3.94622 15.4564 4.01108 15.423C4.07593 15.3896 4.14849 15.374 4.22134 15.3779L6.88454 15.5255C6.93832 15.5285 6.99099 15.542 7.03953 15.5653C7.08808 15.5887 7.13155 15.6213 7.16746 15.6615C7.20338 15.7016 7.23103 15.7484 7.24884 15.7993C7.26665 15.8501 7.27427 15.9039 7.27126 15.9577C7.2642 16.0659 7.21501 16.167 7.13426 16.2393C7.05351 16.3117 6.94762 16.3495 6.83931 16.3447L4.39689 16.2094C4.14855 16.5063 3.81483 16.7195 3.44108 16.8201C3.06733 16.9207 2.67168 16.9038 2.30787 16.7717C1.94406 16.6396 1.62975 16.3987 1.40762 16.0817C1.1855 15.7648 1.06635 15.3871 1.06635 15C1.06635 14.613 1.1855 14.2353 1.40762 13.9184C1.62975 13.6014 1.94406 13.3605 2.30787 13.2284C2.67168 13.0963 3.06733 13.0794 3.44108 13.18C3.81483 13.2806 4.14855 13.4938 4.39689 13.7907L6.49994 13.6735C6.71002 12.3183 7.24254 11.0335 8.05267 9.927L6.64642 8.35669C6.26099 8.39083 5.8744 8.30552 5.53914 8.11233C5.20389 7.91913 4.93622 7.62743 4.7725 7.27684C4.60878 6.92625 4.55695 6.53376 4.62403 6.15268C4.69112 5.77161 4.87388 5.42041 5.14748 5.14681C5.42109 4.8732 5.77228 4.69045 6.15335 4.62336C6.53443 4.55628 6.92692 4.60811 7.27751 4.77183C7.6281 4.93555 7.91981 5.20322 8.113 5.53847C8.30619 5.87373 8.3915 6.26032 8.35736 6.64575L9.92767 8.052C11.0341 7.24187 12.319 6.70935 13.6742 6.49926L13.7913 4.39622C13.4945 4.14787 13.2812 3.81416 13.1807 3.44041C13.0801 3.06666 13.097 2.67101 13.2291 2.3072C13.3612 1.94339 13.6021 1.62907 13.919 1.40695C14.236 1.18483 14.6137 1.06567 15.0007 1.06567C15.3878 1.06567 15.7654 1.18483 16.0824 1.40695C16.3994 1.62907 16.6403 1.94339 16.7724 2.3072C16.9045 2.67101 16.9214 3.06666 16.8208 3.44041C16.7202 3.81416 16.507 4.14787 16.2101 4.39622L16.3273 6.49926C17.6824 6.70935 18.9673 7.24187 20.0738 8.052L21.6441 6.64575C21.6099 6.26032 21.6952 5.87373 21.8884 5.53847C22.0816 5.20322 22.3733 4.93555 22.7239 4.77183C23.0745 4.60811 23.467 4.55628 23.8481 4.62336C24.2292 4.69045 24.5803 4.8732 24.854 5.14681C25.1276 5.42041 25.3103 5.77161 25.3774 6.15268C25.4445 6.53376 25.3926 6.92625 25.2289 7.27684C25.0652 7.62743 24.7975 7.91913 24.4623 8.11233C24.127 8.30552 23.7404 8.39083 23.355 8.35669L21.9488 9.927C22.7589 11.0335 23.2914 12.3183 23.5015 13.6735L25.6045 13.7907C25.8529 13.4938 26.1866 13.2806 26.5604 13.18C26.9341 13.0794 27.3298 13.0963 27.6936 13.2284C28.0574 13.3605 28.3717 13.6014 28.5938 13.9184C28.8159 14.2353 28.9351 14.613 28.9351 15C28.9351 15.3871 28.8159 15.7648 28.5938 16.0817C28.3717 16.3987 28.0574 16.6396 27.6936 16.7717C27.3298 16.9038 26.9341 16.9207 26.5604 16.8201C26.1866 16.7195 25.8529 16.5063 25.6045 16.2094L23.5015 16.3266C23.2914 17.6818 22.7589 18.9666 21.9488 20.0731L23.355 21.6434C23.7404 21.6093 24.127 21.6946 24.4623 21.8878C24.7975 22.081 25.0652 22.3727 25.2289 22.7233C25.3926 23.0738 25.4445 23.4663 25.3774 23.8474C25.3103 24.2285 25.1276 24.5797 24.854 24.8533C24.5803 25.1269 24.2292 25.3096 23.8481 25.3767C23.467 25.4438 23.0745 25.392 22.7239 25.2283C22.3733 25.0645 22.0816 24.7969 21.8884 24.4616C21.6952 24.1264 21.6099 23.7398 21.6441 23.3543L20.0738 21.9481C18.9673 22.7582 17.6824 23.2907 16.3273 23.5008L16.2101 25.6039C16.5067 25.8521 16.7197 26.1857 16.8201 26.5592C16.9205 26.9327 16.9036 27.3281 16.7715 27.6917C16.6394 28.0552 16.3985 28.3692 16.0817 28.5912C15.7649 28.8131 15.3875 28.9321 15.0007 28.932H15Z" fill="#F04242" style="fill:#F04242;fill:color(display-p3 0.9400 0.2600 0.2600);fill-opacity:1;"/>
<path d="M12.5194 14.3559C12.0392 14.3559 11.5698 14.2135 11.1705 13.9467C10.7713 13.68 10.4601 13.3008 10.2763 12.8571C10.0925 12.4135 10.0445 11.9253 10.1381 11.4544C10.2318 10.9834 10.4631 10.5508 10.8026 10.2112C11.1422 9.87169 11.5748 9.64045 12.0457 9.54677C12.5167 9.45309 13.0049 9.50117 13.4485 9.68494C13.8921 9.8687 14.2713 10.1799 14.5381 10.5792C14.8049 10.9784 14.9473 11.4478 14.9473 11.928C14.9465 12.5717 14.6905 13.1888 14.2353 13.644C13.7802 14.0991 13.1631 14.3552 12.5194 14.3559ZM12.5194 10.3204C12.2014 10.3204 11.8906 10.4147 11.6263 10.5914C11.3619 10.768 11.1558 11.0191 11.0342 11.3128C10.9125 11.6066 10.8807 11.9298 10.9427 12.2416C11.0047 12.5535 11.1578 12.8399 11.3827 13.0647C11.6075 13.2896 11.8939 13.4427 12.2058 13.5047C12.5176 13.5667 12.8408 13.5349 13.1346 13.4132C13.4283 13.2915 13.6794 13.0855 13.856 12.8211C14.0327 12.5568 14.127 12.246 14.127 11.928C14.1265 11.5018 13.957 11.0931 13.6556 10.7918C13.3542 10.4904 12.9456 10.3209 12.5194 10.3204ZM12.1212 20.3165C11.7404 20.3165 11.3682 20.2036 11.0516 19.9921C10.735 19.7805 10.4882 19.4798 10.3425 19.128C10.1968 18.7763 10.1587 18.3892 10.233 18.0157C10.3073 17.6423 10.4907 17.2992 10.76 17.03C11.0292 16.7608 11.3723 16.5774 11.7457 16.5032C12.1192 16.4289 12.5063 16.4671 12.8581 16.6128C13.2098 16.7586 13.5105 17.0054 13.722 17.322C13.9335 17.6386 14.0464 18.0108 14.0463 18.3916C14.0457 18.902 13.8427 19.3913 13.4818 19.7521C13.1209 20.113 12.6316 20.316 12.1212 20.3165ZM12.1212 17.2868C11.9027 17.2868 11.6891 17.3516 11.5074 17.473C11.3257 17.5944 11.1841 17.7669 11.1004 17.9688C11.0168 18.1707 10.9949 18.3928 11.0376 18.6072C11.0802 18.8215 11.1854 19.0183 11.3399 19.1729C11.4945 19.3274 11.6913 19.4326 11.9056 19.4752C12.12 19.5179 12.3421 19.496 12.544 19.4124C12.7459 19.3287 12.9184 19.1871 13.0398 19.0054C13.1612 18.8237 13.226 18.6101 13.226 18.3916C13.2257 18.0987 13.1091 17.8179 12.902 17.6108C12.6949 17.4037 12.4141 17.2871 12.1212 17.2868ZM20.625 14.6732C20.5535 14.6733 20.4832 14.6547 20.4211 14.6192C20.359 14.5836 20.3073 14.5325 20.2711 14.4707C20.1366 14.2414 19.9594 14.04 19.7491 13.8773C19.7051 13.8448 19.6681 13.8039 19.6401 13.7568C19.6122 13.7098 19.5939 13.6577 19.5864 13.6035C19.5789 13.5493 19.5823 13.4942 19.5964 13.4413C19.6105 13.3885 19.6351 13.339 19.6686 13.2957C19.7021 13.2525 19.7439 13.2164 19.7916 13.1896C19.8393 13.1627 19.8918 13.1457 19.9461 13.1395C20.0005 13.1332 20.0555 13.1379 20.108 13.1533C20.1605 13.1686 20.2094 13.1943 20.2519 13.2288C20.5446 13.4554 20.7912 13.7359 20.9784 14.0552C21.0149 14.1175 21.0343 14.1884 21.0347 14.2606C21.035 14.3328 21.0164 14.4038 20.9805 14.4665C20.9447 14.5291 20.8929 14.5813 20.8305 14.6176C20.7681 14.6539 20.6972 14.6731 20.625 14.6732ZM18.4746 18.4249C17.7597 18.4247 17.07 18.1606 16.5378 17.6834C16.0055 17.2061 15.6682 16.5491 15.5904 15.8385C15.5126 15.1278 15.6998 14.4134 16.1162 13.8323C16.5326 13.2511 17.1488 12.8441 17.8467 12.6893C17.8993 12.6777 17.9537 12.6765 18.0067 12.6859C18.0598 12.6953 18.1104 12.7151 18.1558 12.7441C18.2012 12.7731 18.2405 12.8107 18.2713 12.8549C18.3022 12.8991 18.324 12.9489 18.3356 13.0015C18.3472 13.0541 18.3484 13.1084 18.339 13.1615C18.3295 13.2145 18.3098 13.2652 18.2808 13.3106C18.2518 13.356 18.2142 13.3952 18.17 13.4261C18.1258 13.4569 18.076 13.4788 18.0234 13.4904C17.6715 13.5686 17.3458 13.737 17.0785 13.9789C16.8111 14.2209 16.6111 14.5281 16.4982 14.8706C16.3852 15.213 16.3632 15.5789 16.4342 15.9325C16.5051 16.286 16.6667 16.615 16.9031 16.8874C17.1395 17.1597 17.4425 17.366 17.7825 17.486C18.1226 17.606 18.4879 17.6356 18.8429 17.5719C19.1978 17.5083 19.5301 17.3535 19.8073 17.1229C20.0844 16.8922 20.2969 16.5935 20.4239 16.256C20.4421 16.2045 20.4703 16.1572 20.507 16.1168C20.5436 16.0764 20.588 16.0437 20.6374 16.0207C20.6868 15.9976 20.7404 15.9847 20.7949 15.9826C20.8494 15.9805 20.9038 15.9893 20.9549 16.0084C21.006 16.0276 21.0527 16.0568 21.0923 16.0942C21.132 16.1317 21.1638 16.1767 21.1859 16.2266C21.2079 16.2765 21.2198 16.3303 21.2208 16.3848C21.2218 16.4394 21.2119 16.4936 21.1917 16.5443C20.9823 17.0958 20.6104 17.5709 20.1253 17.9066C19.6402 18.2424 19.0646 18.4231 18.4746 18.4249Z" fill="#F04242" style="fill:#F04242;fill:color(display-p3 0.9400 0.2600 0.2600);fill-opacity:1;"/>
</svg>
