<svg width="26" height="26" viewBox="0 0 26 26" fill="none" xmlns="http://www.w3.org/2000/svg">
<path d="M13 25.2851C6.22599 25.2851 0.714905 19.774 0.714905 13C0.714905 6.22605 6.22599 0.714966 13 0.714966C19.774 0.714966 25.285 6.22605 25.285 13C25.285 19.774 19.774 25.2851 13 25.2851ZM13 1.58453C6.70548 1.58453 1.58447 6.70547 1.58447 13C1.58447 19.2946 6.70548 24.4155 13 24.4155C19.2945 24.4155 24.4155 19.2946 24.4155 13C24.4155 6.70547 19.2945 1.58453 13 1.58453Z" fill="#F04242" style="fill:#F04242;fill:color(display-p3 0.9400 0.2600 0.2600);fill-opacity:1;"/>
<path d="M13.0001 22.6015C7.70578 22.6015 3.39868 18.2943 3.39868 13C3.39868 7.70573 7.70578 3.39856 13.0001 3.39856C18.2943 3.39856 22.6014 7.70573 22.6014 13C22.6014 18.2943 18.2943 22.6015 13.0001 22.6015ZM13.0001 4.26812C8.18535 4.26812 4.26825 8.18523 4.26825 13C4.26825 17.8148 8.18535 21.7319 13.0001 21.7319C17.8148 21.7319 21.7319 17.8148 21.7319 13C21.7319 8.18523 17.8148 4.26812 13.0001 4.26812Z" fill="#F04242" style="fill:#F04242;fill:color(display-p3 0.9400 0.2600 0.2600);fill-opacity:1;"/>
<path d="M13.4299 16.4411L13.42 16.441C13.3343 16.4391 13.251 16.4118 13.1807 16.3627C13.1104 16.3136 13.0563 16.2448 13.025 16.1649L11.0238 11.0559L9.70078 13.666C9.66446 13.7377 9.60899 13.7979 9.54053 13.8399C9.47207 13.882 9.39329 13.9042 9.31295 13.9042H3.90585C3.79054 13.9042 3.67995 13.8584 3.59841 13.7769C3.51688 13.6953 3.47107 13.5847 3.47107 13.4694C3.47107 13.3541 3.51688 13.2435 3.59841 13.162C3.67995 13.0804 3.79054 13.0346 3.90585 13.0346H9.04592L10.6869 9.79732C10.7249 9.72249 10.7836 9.66023 10.8561 9.61805C10.9286 9.57587 11.0118 9.55556 11.0956 9.55958C11.1794 9.5636 11.2602 9.59178 11.3284 9.64071C11.3965 9.68964 11.449 9.75724 11.4796 9.83536L13.4553 14.8795L15.2113 10.9324C15.2453 10.856 15.3006 10.7911 15.3705 10.7453C15.4405 10.6995 15.5221 10.6749 15.6057 10.6743H15.6085C15.6916 10.6743 15.773 10.6982 15.843 10.743C15.913 10.7878 15.9687 10.8518 16.0035 10.9272L16.9741 13.0347H22.0941C22.2094 13.0347 22.32 13.0805 22.4015 13.1621C22.4831 13.2436 22.5289 13.3542 22.5289 13.4695C22.5289 13.5848 22.4831 13.6954 22.4015 13.7769C22.32 13.8585 22.2094 13.9043 22.0941 13.9043H16.6956C16.6125 13.9043 16.5311 13.8804 16.4612 13.8356C16.3912 13.7908 16.3355 13.7269 16.3007 13.6514L15.6154 12.1634L13.8271 16.1833C13.7928 16.26 13.7371 16.3252 13.6666 16.3709C13.5962 16.4167 13.5139 16.4411 13.4299 16.4411Z" fill="#F04242" style="fill:#F04242;fill:color(display-p3 0.9400 0.2600 0.2600);fill-opacity:1;"/>
</svg>
