<svg width="30" height="30" viewBox="0 0 30 30" fill="none" xmlns="http://www.w3.org/2000/svg">
<path d="M7.14286 0C3.20619 0 0 3.20619 0 7.14286V22.8571C0 26.7938 3.20619 30 7.14286 30H22.8571C26.7938 30 30 26.7938 30 22.8571V7.14286C30 3.20619 26.7938 0 22.8571 0H7.14286ZM7.14286 1.42857H22.8571C26.0219 1.42857 28.5714 3.9781 28.5714 7.14286V22.8571C28.5714 26.0219 26.0219 28.5714 22.8571 28.5714H7.14286C3.9781 28.5714 1.42857 26.0219 1.42857 22.8571V7.14286C1.42857 3.9781 3.9781 1.42857 7.14286 1.42857ZM14.6094 5.13393C12.8962 5.24658 11.4286 6.55201 11.4286 8.68862C11.4286 11.6586 13.7606 14.9647 17.8627 17.0661C18.0806 17.1776 18.3473 17.1776 18.5658 17.0661C22.668 14.9654 25 11.6593 25 8.68862C25 5.27004 21.2425 3.97811 18.7347 6.29883C18.4397 6.5724 17.9889 6.5724 17.6939 6.29883C16.7532 5.42856 15.6373 5.06634 14.6094 5.13393Z" fill="#F04242" style="fill:#F04242;fill:color(display-p3 0.9400 0.2600 0.2600);fill-opacity:1;"/>
</svg>
