<svg width="40" height="40" viewBox="0 0 40 40" fill="none" xmlns="http://www.w3.org/2000/svg">
<circle cx="20" cy="20" r="20" fill="#F04242" fill-opacity="0.1" style="fill:#F04242;fill:color(display-p3 0.9400 0.2600 0.2600);fill-opacity:0.1;"/>
<g clip-path="url(#clip0_126_558)">
<path d="M20 32C26.6274 32 32 26.6274 32 20C32 13.3726 26.6274 8 20 8C13.3726 8 8 13.3726 8 20C8 26.6274 13.3726 32 20 32Z" fill="#F7CECD" style="fill:#F7CECD;fill:color(display-p3 0.9686 0.8078 0.8039);fill-opacity:1;"/>
<path d="M27.1742 21.2754L20.8386 27.6106C20.7285 27.7208 20.5978 27.8083 20.4539 27.8679C20.31 27.9276 20.1558 27.9583 20 27.9583C19.8442 27.9583 19.69 27.9276 19.5461 27.8679C19.4022 27.8083 19.2715 27.7208 19.1614 27.6106L13.9063 22.3535L12.8281 21.2754C12.4048 20.8806 12.0653 20.4046 11.8299 19.8757C11.5945 19.3469 11.4679 18.7761 11.4578 18.1973C11.4477 17.6185 11.5542 17.0436 11.7709 16.5069C11.9877 15.9702 12.3103 15.4825 12.7196 15.0731C13.1288 14.6637 13.6162 14.3409 14.1529 14.1239C14.6895 13.9068 15.2644 13.8001 15.8432 13.81C16.4219 13.8198 16.9928 13.9461 17.5217 14.1813C18.0507 14.4165 18.5269 14.7557 18.9219 15.1789L20 16.257L21.0781 15.1789C21.8942 14.4081 22.9786 13.9858 24.1009 14.0018C25.2233 14.0178 26.2953 14.4708 27.089 15.2646C27.8827 16.0584 28.3356 17.1303 28.3515 18.2527C28.3674 19.3751 27.9451 20.4595 27.1742 21.2754Z" fill="#EB4A41" style="fill:#EB4A41;fill:color(display-p3 0.9216 0.2902 0.2549);fill-opacity:1;"/>
<path d="M26.9399 17.02C27.2995 16.5348 26.9409 15.6594 26.1387 15.0648C25.3366 14.4701 24.3947 14.3814 24.0351 14.8666C23.6754 15.3518 24.0341 16.2272 24.8362 16.8218C25.6383 17.4164 26.5802 17.5052 26.9399 17.02Z" fill="white" style="fill:white;fill-opacity:1;"/>
<path d="M27.3779 19.7128C27.7553 19.6567 27.9861 19.1054 27.8934 18.4813C27.8007 17.8573 27.4196 17.3968 27.0421 17.4529C26.6647 17.509 26.4339 18.0603 26.5266 18.6844C26.6193 19.3084 27.0004 19.7689 27.3779 19.7128Z" fill="white" style="fill:white;fill-opacity:1;"/>
</g>
<defs>
<clipPath id="clip0_126_558">
<rect width="24" height="24" fill="white" style="fill:white;fill-opacity:1;" transform="translate(8 8)"/>
</clipPath>
</defs>
</svg>
