<svg width="30" height="30" viewBox="0 0 30 30" fill="none" xmlns="http://www.w3.org/2000/svg">
<g clip-path="url(#clip0_126_359)">
<path d="M15 30C23.2843 30 30 23.2843 30 15C30 6.71573 23.2843 0 15 0C6.71573 0 0 6.71573 0 15C0 23.2843 6.71573 30 15 30Z" fill="#F04242" fill-opacity="0.3" style="fill:#F04242;fill:color(display-p3 0.9400 0.2600 0.2600);fill-opacity:0.3;"/>
<path d="M19.6816 10.4982C19.6653 10.4819 19.6523 10.4625 19.6434 10.4411C19.6345 10.4197 19.6299 10.3968 19.6299 10.3737C19.6299 10.3506 19.6345 10.3276 19.6434 10.3063C19.6523 10.2849 19.6653 10.2655 19.6816 10.2492L23.9426 5.98883C23.9759 5.95778 24.02 5.94087 24.0655 5.94168C24.1111 5.94248 24.1545 5.96093 24.1867 5.99314C24.2189 6.02534 24.2374 6.06879 24.2382 6.11433C24.239 6.15987 24.2221 6.20394 24.191 6.23727L19.9307 10.4982C19.9143 10.5146 19.8949 10.5276 19.8736 10.5365C19.8522 10.5453 19.8293 10.5499 19.8062 10.5499C19.783 10.5499 19.7601 10.5453 19.7387 10.5365C19.7174 10.5276 19.698 10.5146 19.6816 10.4982Z" fill="white" style="fill:white;fill-opacity:1;"/>
<path d="M19.3225 11.6168L18.5607 10.855L19.8334 9.94099C19.8888 9.90131 19.9565 9.88259 20.0244 9.88817C20.0924 9.89375 20.1561 9.92327 20.2043 9.97145C20.2526 10.0196 20.2822 10.0834 20.2876 10.1514C20.2931 10.2194 20.2742 10.2871 20.2342 10.3424L19.3225 11.6168Z" fill="#363636" style="fill:#363636;fill:color(display-p3 0.2125 0.2125 0.2125);fill-opacity:1;"/>
<path d="M7.0295 24.3064L5.86934 23.1469L7.67168 20.9297L9.24551 22.5041L7.0295 24.3064Z" fill="black" style="fill:black;fill-opacity:1;"/>
<path d="M8.27753 21.5364L8.64006 21.8989L6.6306 23.9084L6.26807 23.5458L8.27753 21.5364Z" fill="black" style="fill:black;fill-opacity:1;"/>
<path d="M18.9422 12.563L19.6061 11.8997C19.6368 11.8685 19.6541 11.8264 19.6541 11.7825C19.6541 11.7387 19.6368 11.6966 19.6061 11.6654L18.5232 10.582C18.492 10.5512 18.4499 10.5339 18.4061 10.5339C18.3622 10.5339 18.3201 10.5512 18.2889 10.582L17.6262 11.2452C17.5135 11.1327 17.3607 11.0694 17.2014 11.0694C17.0421 11.0694 16.8893 11.1327 16.7766 11.2452L7.75313 20.2687L9.90762 22.4232L18.9311 13.3997C19.0414 13.2891 19.1042 13.1398 19.1063 12.9836C19.1084 12.8274 19.0495 12.6765 18.9422 12.563Z" fill="white" style="fill:white;fill-opacity:1;"/>
<path d="M15.3226 12.6987L17.477 14.8532L16.5655 15.7647L14.4111 13.6102L15.3226 12.6987Z" fill="#363636" style="fill:#363636;fill:color(display-p3 0.2125 0.2125 0.2125);fill-opacity:1;"/>
<path d="M17.5549 11.5472L18.6288 12.6211C18.6763 12.6686 18.714 12.725 18.7396 12.787C18.7653 12.8491 18.7784 12.9157 18.7783 12.9828C18.7782 13.05 18.7648 13.1165 18.739 13.1785C18.7131 13.2405 18.6752 13.2967 18.6276 13.3441L17.2964 14.6753L15.5007 12.8796L16.8319 11.5484C16.8792 11.5007 16.9355 11.4629 16.9975 11.437C17.0595 11.4112 17.126 11.3978 17.1932 11.3977C17.2603 11.3976 17.3269 11.4107 17.3889 11.4364C17.451 11.462 17.5074 11.4997 17.5549 11.5472Z" fill="#EB4A41" style="fill:#EB4A41;fill:color(display-p3 0.9216 0.2902 0.2549);fill-opacity:1;"/>
<path d="M10.7335 22.9289L7.24662 19.442C7.08828 19.2836 6.83164 19.2835 6.67341 19.4418C6.51518 19.6 6.51527 19.8566 6.67362 20.015L10.1605 23.5019C10.3189 23.6603 10.5755 23.6603 10.7338 23.5021C10.892 23.3439 10.8919 23.0872 10.7335 22.9289Z" fill="#363636" style="fill:#363636;fill:color(display-p3 0.2125 0.2125 0.2125);fill-opacity:1;"/>
<path d="M7.91294 24.6171L5.55835 22.2625C5.40001 22.1042 5.14337 22.1041 4.98514 22.2623C4.82691 22.4206 4.827 22.6772 4.98535 22.8355L7.33993 25.1901C7.49828 25.3485 7.75491 25.3486 7.91314 25.1903C8.07137 25.0321 8.07128 24.7755 7.91294 24.6171Z" fill="#363636" style="fill:#363636;fill:color(display-p3 0.2125 0.2125 0.2125);fill-opacity:1;"/>
<path d="M13.8975 14.1238L14.8678 15.0941C14.9241 15.1504 14.9557 15.2267 14.9557 15.3062C14.9557 15.3858 14.9241 15.4621 14.8678 15.5184C14.8116 15.5746 14.7352 15.6062 14.6557 15.6062C14.5761 15.6062 14.4998 15.5746 14.4436 15.5184L13.4732 14.548L13.8975 14.1238Z" fill="#363636" style="fill:#363636;fill:color(display-p3 0.2125 0.2125 0.2125);fill-opacity:1;"/>
<path d="M13.1881 14.8333L13.5672 15.2124C13.6234 15.2686 13.6551 15.3449 13.6551 15.4245C13.6551 15.5041 13.6234 15.5804 13.5672 15.6366C13.5109 15.6929 13.4346 15.7245 13.3551 15.7245C13.2755 15.7245 13.1992 15.6929 13.1429 15.6366L12.7638 15.2575L13.1881 14.8333Z" fill="#363636" style="fill:#363636;fill:color(display-p3 0.2125 0.2125 0.2125);fill-opacity:1;"/>
<path d="M12.427 15.5945L13.3973 16.5648C13.4536 16.6211 13.4852 16.6974 13.4852 16.777C13.4852 16.8565 13.4536 16.9328 13.3973 16.9891C13.3695 17.0171 13.3364 17.0394 13.3 17.0546C13.2635 17.0698 13.2244 17.0777 13.185 17.0778C13.1455 17.0779 13.1063 17.0701 13.0698 17.0551C13.0333 17.04 13.0002 17.0178 12.9722 16.9899L12.0019 16.0196L12.427 15.5945Z" fill="#363636" style="fill:#363636;fill:color(display-p3 0.2125 0.2125 0.2125);fill-opacity:1;"/>
<path d="M11.7176 16.304L12.0967 16.6831C12.1529 16.7393 12.1845 16.8156 12.1845 16.8952C12.1845 16.9748 12.1529 17.0511 12.0967 17.1073C12.0404 17.1636 11.9641 17.1952 11.8845 17.1952C11.805 17.1952 11.7287 17.1636 11.6724 17.1073L11.2933 16.7282L11.7176 16.304Z" fill="#363636" style="fill:#363636;fill:color(display-p3 0.2125 0.2125 0.2125);fill-opacity:1;"/>
<path d="M10.956 17.0654L11.9268 18.0362C11.9831 18.0924 12.0147 18.1687 12.0147 18.2483C12.0147 18.3279 11.9831 18.4042 11.9268 18.4604C11.8989 18.4883 11.8659 18.5104 11.8295 18.5255C11.7931 18.5406 11.7541 18.5483 11.7147 18.5483C11.6753 18.5483 11.6363 18.5406 11.5999 18.5255C11.5635 18.5104 11.5304 18.4883 11.5025 18.4604L10.5318 17.4897L10.956 17.0654Z" fill="#363636" style="fill:#363636;fill:color(display-p3 0.2125 0.2125 0.2125);fill-opacity:1;"/>
<path d="M10.2456 17.7747L10.6247 18.1538C10.681 18.21 10.7126 18.2863 10.7126 18.3659C10.7126 18.4455 10.681 18.5218 10.6247 18.578C10.5685 18.6343 10.4922 18.6659 10.4126 18.6659C10.333 18.6659 10.2567 18.6343 10.2005 18.578L9.82137 18.1989L10.2456 17.7747Z" fill="#363636" style="fill:#363636;fill:color(display-p3 0.2125 0.2125 0.2125);fill-opacity:1;"/>
<path d="M9.48457 18.5366L10.4549 19.507C10.5112 19.5632 10.5428 19.6395 10.5428 19.7191C10.5428 19.7987 10.5112 19.875 10.4549 19.9312C10.3987 19.9875 10.3223 20.0191 10.2428 20.0191C10.1632 20.0191 10.0869 19.9875 10.0306 19.9312L9.06031 18.9609L9.48457 18.5366Z" fill="#363636" style="fill:#363636;fill:color(display-p3 0.2125 0.2125 0.2125);fill-opacity:1;"/>
<path d="M8.77556 19.2456L9.15466 19.6247C9.21092 19.681 9.24253 19.7573 9.24253 19.8368C9.24253 19.9164 9.21092 19.9927 9.15466 20.049C9.0984 20.1052 9.02209 20.1368 8.94253 20.1368C8.86296 20.1368 8.78666 20.1052 8.7304 20.049L8.35129 19.6699L8.77556 19.2456Z" fill="#363636" style="fill:#363636;fill:color(display-p3 0.2125 0.2125 0.2125);fill-opacity:1;"/>
<path d="M19.4013 11.695L18.4849 10.7785C18.4348 10.7284 18.3535 10.7284 18.3034 10.7785L17.858 11.2239C17.8079 11.274 17.8079 11.3552 17.858 11.4053L18.7745 12.3218C18.8246 12.3719 18.9058 12.3719 18.956 12.3218L19.4013 11.8764C19.4515 11.8263 19.4515 11.7451 19.4013 11.695Z" fill="#EB4A41" style="fill:#EB4A41;fill:color(display-p3 0.9216 0.2902 0.2549);fill-opacity:1;"/>
</g>
<defs>
<clipPath id="clip0_126_359">
<rect width="30" height="30" fill="white" style="fill:white;fill-opacity:1;"/>
</clipPath>
</defs>
</svg>
