<svg width="29" height="30" viewBox="0 0 29 30" fill="none" xmlns="http://www.w3.org/2000/svg">
<path d="M3.16121 9.10999H1.83525C1.33801 9.10999 0.923645 9.50266 0.923645 9.97386V10.9948" stroke="#F04242" style="stroke:#F04242;stroke:color(display-p3 0.9400 0.2600 0.2600);stroke-opacity:1;" stroke-miterlimit="10"/>
<path d="M28.6862 13.1152V9.97386C28.6862 9.50266 28.2719 9.10999 27.7746 9.10999H26.863" stroke="#F04242" style="stroke:#F04242;stroke:color(display-p3 0.9400 0.2600 0.2600);stroke-opacity:1;" stroke-miterlimit="10"/>
<path d="M4 10.8947V1H26V13" stroke="#F04242" style="stroke:#F04242;stroke:color(display-p3 0.9400 0.2600 0.2600);stroke-opacity:1;" stroke-miterlimit="10"/>
<path d="M8.33149 12.5C8.35092 12.5 8.36541 12.5001 8.37994 12.5006L11.1269 14.7615C11.3539 14.9667 11.6181 14.9634 11.7478 14.9618C11.7582 14.9617 11.7677 14.9615 11.7762 14.9615H28.4917L26.7412 29.4786L26.7386 29.5H2.2566C2.25532 29.4979 2.25394 29.4955 2.25246 29.4928L0.506584 12.5H8.33149Z" stroke="#F04242" style="stroke:#F04242;stroke:color(display-p3 0.9400 0.2600 0.2600);stroke-opacity:1;"/>
<path d="M19.07 22.8535C19.07 24.9813 17.2418 26.7514 14.9292 26.7514C12.6165 26.7514 10.7883 24.9813 10.7883 22.8535C10.7883 20.7257 12.6165 18.9556 14.9292 18.9556C17.2418 18.9556 19.07 20.7257 19.07 22.8535Z" stroke="#F04242" style="stroke:#F04242;stroke:color(display-p3 0.9400 0.2600 0.2600);stroke-opacity:1;"/>
<path d="M17.4155 21.8325H16.0067V20.4974H13.9348V21.8325H12.4431V23.7959H13.9348V25.2095H16.0067V23.7959H17.4155V21.8325Z" fill="#F04242" style="fill:#F04242;fill:color(display-p3 0.9400 0.2600 0.2600);fill-opacity:1;"/>
<path d="M14.6808 2.74878H23.1338" stroke="#F04242" style="stroke:#F04242;stroke:color(display-p3 0.9400 0.2600 0.2600);stroke-opacity:1;" stroke-miterlimit="10"/>
<path d="M14.6808 5.10474H23.1338" stroke="#F04242" style="stroke:#F04242;stroke:color(display-p3 0.9400 0.2600 0.2600);stroke-opacity:1;" stroke-miterlimit="10"/>
<path d="M14.6808 7.46082H23.1338" stroke="#F04242" style="stroke:#F04242;stroke:color(display-p3 0.9400 0.2600 0.2600);stroke-opacity:1;" stroke-miterlimit="10"/>
<path d="M6.31055 9.89539H23.1338" stroke="#F04242" style="stroke:#F04242;stroke:color(display-p3 0.9400 0.2600 0.2600);stroke-opacity:1;" stroke-miterlimit="10"/>
<path d="M10.7856 12.2515H23.1337" stroke="#F04242" style="stroke:#F04242;stroke:color(display-p3 0.9400 0.2600 0.2600);stroke-opacity:1;" stroke-miterlimit="10"/>
<path d="M9.95696 8.71735C11.742 8.71735 13.189 7.34607 13.189 5.65451C13.189 3.96295 11.742 2.59167 9.95696 2.59167C8.17195 2.59167 6.72491 3.96295 6.72491 5.65451C6.72491 7.34607 8.17195 8.71735 9.95696 8.71735Z" stroke="#F04242" style="stroke:#F04242;stroke:color(display-p3 0.9400 0.2600 0.2600);stroke-opacity:1;" stroke-miterlimit="10"/>
<path d="M9.87426 5.34034C10.332 5.34034 10.703 4.98873 10.703 4.555C10.703 4.12126 10.332 3.76965 9.87426 3.76965C9.41657 3.76965 9.04553 4.12126 9.04553 4.555C9.04553 4.98873 9.41657 5.34034 9.87426 5.34034Z" stroke="#F04242" style="stroke:#F04242;stroke:color(display-p3 0.9400 0.2600 0.2600);stroke-opacity:1;" stroke-miterlimit="10"/>
<path d="M8.63104 7.93198V7.22518C8.63104 6.51837 9.21115 5.96863 9.95701 5.96863C10.7029 5.96863 11.283 6.51837 11.283 7.22518V7.93198" stroke="#F04242" style="stroke:#F04242;stroke:color(display-p3 0.9400 0.2600 0.2600);stroke-opacity:1;" stroke-miterlimit="10"/>
</svg>
