<svg width="30" height="30" viewBox="0 0 30 30" fill="none" xmlns="http://www.w3.org/2000/svg">
<path d="M28.9404 8.87439H2.75253C2.17242 8.87439 1.75806 9.26706 1.75806 9.8168V16.1781C1.75806 16.7278 2.17242 17.1205 2.75253 17.1205H28.9404C29.5205 17.1205 29.9349 16.7278 29.9349 16.1781V9.8168C29.9349 9.26706 29.5205 8.87439 28.9404 8.87439Z" fill="#FBFBFB" style="fill:#FBFBFB;fill:color(display-p3 0.9843 0.9843 0.9843);fill-opacity:1;"/>
<path d="M4.16121 9.10999H2.83525C2.33801 9.10999 1.92365 9.50266 1.92365 9.97386V10.9948" stroke="#F04242" style="stroke:#F04242;stroke:color(display-p3 0.9400 0.2600 0.2600);stroke-opacity:1;" stroke-miterlimit="10"/>
<path d="M29.6862 13.1152V9.97386C29.6862 9.50266 29.2719 9.10999 28.7746 9.10999H27.863" stroke="#F04242" style="stroke:#F04242;stroke:color(display-p3 0.9400 0.2600 0.2600);stroke-opacity:1;" stroke-miterlimit="10"/>
<path d="M4.4928 0H27.3657V16.1781H4.4928V0Z" fill="#FBFBFB" style="fill:#FBFBFB;fill:color(display-p3 0.9843 0.9843 0.9843);fill-opacity:1;"/>
<path d="M4.90729 11.0733V0H26.9515V13.4294" stroke="#F04242" style="stroke:#F04242;stroke:color(display-p3 0.9400 0.2600 0.2600);stroke-opacity:1;" stroke-miterlimit="10"/>
<path d="M28.3602 29.9999H3.00111C2.75249 29.9999 2.58674 29.8429 2.50387 29.6073L0.680664 12.0941C0.680664 11.8585 0.84641 11.6229 1.1779 11.6229H9.29945C9.38232 11.6229 9.54807 11.6229 9.63094 11.7015L12.5315 14.0575C12.6144 14.136 12.6972 14.136 12.863 14.136H30.1834C30.432 14.136 30.6807 14.3716 30.6807 14.6072L28.8575 29.5287C28.8575 29.8429 28.6088 29.9999 28.3602 29.9999Z" fill="#F04242" style="fill:#F04242;fill:color(display-p3 0.9400 0.2600 0.2600);fill-opacity:1;"/>
<path d="M15.9292 27.2514C18.4922 27.2514 20.57 25.2824 20.57 22.8535C20.57 20.4246 18.4922 18.4556 15.9292 18.4556C13.3661 18.4556 11.2883 20.4246 11.2883 22.8535C11.2883 25.2824 13.3661 27.2514 15.9292 27.2514Z" fill="#FBFBFB" style="fill:#FBFBFB;fill:color(display-p3 0.9843 0.9843 0.9843);fill-opacity:1;"/>
<path d="M18.4155 21.8325H17.0067V20.4974H14.9348V21.8325H13.4431V23.7959H14.9348V25.2095H17.0067V23.7959H18.4155V21.8325Z" fill="#F04242" style="fill:#F04242;fill:color(display-p3 0.9400 0.2600 0.2600);fill-opacity:1;"/>
<path d="M15.6808 2.74878H24.1338" stroke="#F04242" style="stroke:#F04242;stroke:color(display-p3 0.9400 0.2600 0.2600);stroke-opacity:1;" stroke-miterlimit="10"/>
<path d="M15.6808 5.10474H24.1338" stroke="#F04242" style="stroke:#F04242;stroke:color(display-p3 0.9400 0.2600 0.2600);stroke-opacity:1;" stroke-miterlimit="10"/>
<path d="M15.6808 7.46082H24.1338" stroke="#F04242" style="stroke:#F04242;stroke:color(display-p3 0.9400 0.2600 0.2600);stroke-opacity:1;" stroke-miterlimit="10"/>
<path d="M7.31055 9.89539H24.1338" stroke="#F04242" style="stroke:#F04242;stroke:color(display-p3 0.9400 0.2600 0.2600);stroke-opacity:1;" stroke-miterlimit="10"/>
<path d="M11.7856 12.2515H24.1337" stroke="#F04242" style="stroke:#F04242;stroke:color(display-p3 0.9400 0.2600 0.2600);stroke-opacity:1;" stroke-miterlimit="10"/>
<path d="M10.957 8.71735C12.742 8.71735 14.189 7.34607 14.189 5.65451C14.189 3.96295 12.742 2.59167 10.957 2.59167C9.17195 2.59167 7.72491 3.96295 7.72491 5.65451C7.72491 7.34607 9.17195 8.71735 10.957 8.71735Z" stroke="#F04242" style="stroke:#F04242;stroke:color(display-p3 0.9400 0.2600 0.2600);stroke-opacity:1;" stroke-miterlimit="10"/>
<path d="M10.8743 5.34034C11.332 5.34034 11.703 4.98873 11.703 4.555C11.703 4.12126 11.332 3.76965 10.8743 3.76965C10.4166 3.76965 10.0455 4.12126 10.0455 4.555C10.0455 4.98873 10.4166 5.34034 10.8743 5.34034Z" stroke="#F04242" style="stroke:#F04242;stroke:color(display-p3 0.9400 0.2600 0.2600);stroke-opacity:1;" stroke-miterlimit="10"/>
<path d="M9.63104 7.93198V7.22518C9.63104 6.51837 10.2112 5.96863 10.957 5.96863C11.7029 5.96863 12.283 6.51837 12.283 7.22518V7.93198" stroke="#F04242" style="stroke:#F04242;stroke:color(display-p3 0.9400 0.2600 0.2600);stroke-opacity:1;" stroke-miterlimit="10"/>
</svg>
