<svg width="40" height="40" viewBox="0 0 40 40" fill="none" xmlns="http://www.w3.org/2000/svg">
<circle cx="20" cy="20" r="20" fill="#F04242" fill-opacity="0.1" style="fill:#F04242;fill:color(display-p3 0.9400 0.2600 0.2600);fill-opacity:0.1;"/>
<g clip-path="url(#clip0_126_542)">
<path d="M20 32C26.6274 32 32 26.6274 32 20C32 13.3726 26.6274 8 20 8C13.3726 8 8 13.3726 8 20C8 26.6274 13.3726 32 20 32Z" fill="#F7CECD" style="fill:#F7CECD;fill:color(display-p3 0.9686 0.8078 0.8039);fill-opacity:1;"/>
<path d="M26.4102 24.5116C27.6891 24.5116 28.7258 23.4748 28.7258 22.196C28.7258 20.9171 27.6891 19.8804 26.4102 19.8804C25.1313 19.8804 24.0946 20.9171 24.0946 22.196C24.0946 23.4748 25.1313 24.5116 26.4102 24.5116Z" fill="#EB4A41" style="fill:#EB4A41;fill:color(display-p3 0.9216 0.2902 0.2549);fill-opacity:1;"/>
<path d="M26.4102 23.165C26.9454 23.165 27.3793 22.7311 27.3793 22.1959C27.3793 21.6607 26.9454 21.2268 26.4102 21.2268C25.875 21.2268 25.4411 21.6607 25.4411 22.1959C25.4411 22.7311 25.875 23.165 26.4102 23.165Z" fill="#EB4A41" style="fill:#EB4A41;fill:color(display-p3 0.9216 0.2902 0.2549);fill-opacity:1;"/>
<path d="M13.8793 14.5306H14.4207C15.0482 14.5306 15.557 14.0219 15.557 13.3943C15.557 12.7668 15.0483 12.2581 14.4207 12.2581H13.8793C13.2518 12.2581 12.743 12.7668 12.743 13.3943C12.743 14.0219 13.2518 14.5306 13.8793 14.5306ZM22.0997 14.5306H21.5583C20.9308 14.5306 20.4221 14.0219 20.4221 13.3943C20.4221 12.7668 20.9308 12.2581 21.5583 12.2581H22.0997C22.7272 12.2581 23.236 12.7668 23.236 13.3943C23.236 14.0219 22.7272 14.5306 22.0997 14.5306Z" fill="#EE969F" style="fill:#EE969F;fill:color(display-p3 0.9333 0.5882 0.6235);fill-opacity:1;"/>
<path d="M14.4207 14.8784H13.8793C13.061 14.8784 12.3952 14.2126 12.3952 13.3943C12.3952 12.5759 13.0609 11.9102 13.8793 11.9102H14.4207C15.239 11.9102 15.9048 12.5759 15.9048 13.3943C15.9048 14.2126 15.239 14.8784 14.4207 14.8784ZM13.8793 12.6059C13.4445 12.6059 13.0909 12.9595 13.0909 13.3943C13.0909 13.8291 13.4445 14.1828 13.8793 14.1828H14.4207C14.8554 14.1828 15.2091 13.8291 15.2091 13.3943C15.2091 12.9595 14.8554 12.6059 14.4207 12.6059H13.8793ZM22.0997 14.8784H21.5584C20.7401 14.8784 20.0743 14.2126 20.0743 13.3943C20.0743 12.5759 20.7401 11.9102 21.5584 11.9102H22.0997C22.918 11.9102 23.5838 12.5759 23.5838 13.3943C23.5838 14.2126 22.918 14.8784 22.0997 14.8784ZM21.5584 12.6059C21.1237 12.6059 20.77 12.9595 20.77 13.3943C20.77 13.8291 21.1237 14.1828 21.5584 14.1828H22.0997C22.5345 14.1828 22.8882 13.8291 22.8882 13.3943C22.8882 12.9595 22.5345 12.6059 22.0997 12.6059H21.5584Z" fill="#EB4A41" style="fill:#EB4A41;fill:color(display-p3 0.9216 0.2902 0.2549);fill-opacity:1;"/>
<path d="M21.0023 21.7371H17.967C17.8747 21.7371 17.7862 21.7005 17.721 21.6352C17.6558 21.57 17.6191 21.4815 17.6191 21.3893C17.6191 21.297 17.6558 21.2086 17.721 21.1433C17.7862 21.0781 17.8747 21.0415 17.967 21.0415H21.0023C21.208 21.0416 21.4092 20.9814 21.5809 20.8682C21.7527 20.7551 21.8875 20.5941 21.9686 20.4051L24.2023 15.2092C24.3446 14.8783 24.3125 14.5161 24.1144 14.2153C23.9164 13.9146 23.5962 13.742 23.2361 13.742C23.1438 13.742 23.0553 13.7054 22.9901 13.6402C22.9249 13.5749 22.8882 13.4865 22.8882 13.3942C22.8882 13.302 22.9249 13.2135 22.9901 13.1483C23.0553 13.083 23.1438 13.0464 23.2361 13.0464C23.8256 13.0464 24.3712 13.3403 24.6954 13.8326C25.0197 14.325 25.0743 14.9423 24.8415 15.484L22.6077 20.6798C22.473 20.9938 22.249 21.2613 21.9637 21.4493C21.6783 21.6372 21.344 21.7373 21.0023 21.7371Z" fill="#EB4A41" style="fill:#EB4A41;fill:color(display-p3 0.9216 0.2902 0.2549);fill-opacity:1;"/>
<path d="M17.9669 21.7371H14.909C14.5673 21.7373 14.2331 21.6372 13.9477 21.4493C13.6623 21.2613 13.4384 20.9938 13.3036 20.6798L11.0699 15.484C10.9552 15.2182 10.9085 14.9281 10.934 14.6398C10.9595 14.3515 11.0564 14.0741 11.216 13.8326C11.3748 13.5907 11.5914 13.3922 11.8462 13.2549C12.101 13.1176 12.3859 13.046 12.6753 13.0464C12.7676 13.0464 12.8561 13.083 12.9213 13.1483C12.9865 13.2135 13.0232 13.302 13.0232 13.3942C13.0232 13.4865 12.9865 13.5749 12.9213 13.6402C12.8561 13.7054 12.7676 13.742 12.6753 13.742C12.3152 13.742 11.995 13.9146 11.797 14.2153C11.5989 14.5161 11.5668 14.8784 11.7091 15.2092L13.9428 20.4051C14.0239 20.594 14.1587 20.7551 14.3304 20.8682C14.5022 20.9813 14.7034 21.0416 14.909 21.0415H17.9669C18.0584 21.0426 18.1457 21.0798 18.21 21.1449C18.2742 21.21 18.3103 21.2978 18.3103 21.3893C18.3103 21.4807 18.2742 21.5685 18.21 21.6336C18.1457 21.6987 18.0584 21.7359 17.9669 21.7371Z" fill="#EB4A41" style="fill:#EB4A41;fill:color(display-p3 0.9216 0.2902 0.2549);fill-opacity:1;"/>
<path d="M22.1999 30.2927C19.6865 30.2927 17.6418 28.2479 17.6418 25.7345L17.6191 21.3911C17.6189 21.3454 17.6277 21.3002 17.6449 21.2579C17.6622 21.2156 17.6876 21.1771 17.7197 21.1446C17.7519 21.1122 17.7901 21.0864 17.8322 21.0687C17.8743 21.051 17.9195 21.0417 17.9652 21.0415H17.967C18.059 21.0415 18.1472 21.0779 18.2123 21.1428C18.2775 21.2076 18.3144 21.2956 18.3149 21.3875L18.3375 25.7328C18.3375 27.8645 20.0702 29.5972 22.2 29.5972C24.3298 29.5972 26.0624 27.8645 26.0624 25.7347V24.5116C26.0624 24.4194 26.0991 24.3309 26.1643 24.2657C26.2296 24.2005 26.318 24.1638 26.4103 24.1638C26.5025 24.1638 26.591 24.2005 26.6562 24.2657C26.7215 24.3309 26.7581 24.4194 26.7581 24.5116V25.7347C26.758 28.2479 24.7133 30.2927 22.1999 30.2927Z" fill="#EB4A41" style="fill:#EB4A41;fill:color(display-p3 0.9216 0.2902 0.2549);fill-opacity:1;"/>
<path d="M26.4102 24.8593C24.9416 24.8593 23.7468 23.6645 23.7468 22.1959C23.7468 20.7273 24.9415 19.5325 26.4102 19.5325C27.8788 19.5325 29.0736 20.7273 29.0736 22.1959C29.0736 23.6645 27.8788 24.8593 26.4102 24.8593ZM26.4102 20.2281C25.3251 20.2281 24.4424 21.1109 24.4424 22.1959C24.4424 23.2809 25.3251 24.1637 26.4102 24.1637C27.4952 24.1637 28.378 23.2809 28.378 22.1959C28.378 21.1108 27.4952 20.2281 26.4102 20.2281Z" fill="#EB4A41" style="fill:#EB4A41;fill:color(display-p3 0.9216 0.2902 0.2549);fill-opacity:1;"/>
<path d="M26.4102 23.5128C25.684 23.5128 25.0933 22.922 25.0933 22.1959C25.0933 21.4697 25.684 20.8789 26.4102 20.8789C27.1363 20.8789 27.7271 21.4697 27.7271 22.1959C27.7271 22.922 27.1364 23.5128 26.4102 23.5128ZM26.4102 21.5746C26.0676 21.5746 25.7889 21.8533 25.7889 22.1959C25.7889 22.5385 26.0676 22.8172 26.4102 22.8172C26.7527 22.8172 27.0315 22.5384 27.0315 22.1959C27.0315 21.8533 26.7528 21.5746 26.4102 21.5746Z" fill="#EB4A41" style="fill:#EB4A41;fill:color(display-p3 0.9216 0.2902 0.2549);fill-opacity:1;"/>
<path d="M19.5732 22.6583H16.3607C15.6599 22.6583 15.0917 22.0902 15.0917 21.3893C15.0917 20.6885 15.6599 20.1204 16.3607 20.1204H19.5732C20.2741 20.1204 20.8422 20.6885 20.8422 21.3893C20.8422 22.0902 20.2741 22.6583 19.5732 22.6583Z" fill="#EE969F" style="fill:#EE969F;fill:color(display-p3 0.9333 0.5882 0.6235);fill-opacity:1;"/>
<path d="M19.5732 23.006H16.3607C15.4692 23.006 14.7439 22.2808 14.7439 21.3893C14.7439 20.4978 15.4692 19.7725 16.3607 19.7725H19.5732C20.4647 19.7725 21.19 20.4977 21.19 21.3893C21.19 22.2808 20.4647 23.006 19.5732 23.006ZM16.3607 20.4681C15.8528 20.4681 15.4395 20.8813 15.4395 21.3893C15.4395 21.8972 15.8528 22.3104 16.3607 22.3104H19.5732C20.0812 22.3104 20.4944 21.8972 20.4944 21.3893C20.4944 20.8813 20.0812 20.4681 19.5732 20.4681H16.3607Z" fill="#EB4A41" style="fill:#EB4A41;fill:color(display-p3 0.9216 0.2902 0.2549);fill-opacity:1;"/>
</g>
<defs>
<clipPath id="clip0_126_542">
<rect width="24" height="24" fill="white" style="fill:white;fill-opacity:1;" transform="translate(8 8)"/>
</clipPath>
</defs>
</svg>
