<svg width="30" height="30" viewBox="0 0 30 30" fill="none" xmlns="http://www.w3.org/2000/svg">
<path d="M15 0.074707C6.72327 0.074707 0 6.7939 0 15.0747C0 23.3515 6.72327 30.0747 15 30.0747C23.281 30.0747 30 23.3515 30 15.0747C30 6.7939 23.2807 0.074707 15 0.074707ZM27.8085 14.1386C27.8085 14.4494 27.9336 14.7602 27.9336 15.0749C27.9336 22.2702 22.1266 28.0975 14.9271 28.0975C7.73178 28.0975 1.94082 22.2702 1.94082 15.0749C1.94082 7.87549 7.78635 2.05217 14.9817 2.05217C21.5838 2.05217 26.9359 6.94317 27.7955 13.3114L27.6071 13.3236C27.5909 13.3236 27.3261 13.3601 27.3261 13.3601V13.3561C26.8437 13.3279 26.2155 13.2632 25.8806 13.1624C24.8958 12.8556 23.9343 11.9557 23.0385 11.0721C22.1426 10.1882 21.537 9.29229 19.6072 9.27231V9.27631C18.6425 9.2521 17.2351 10.2933 16.1978 11.294C15.1646 12.2907 14.3781 13.2714 13.228 13.4854C12.9416 13.5338 12.4373 13.4691 11.9208 13.3563L11.8463 13.1384C11.8463 13.1384 13.8045 11.4959 13.9579 10.3781C14.1112 9.26032 12.9152 7.58141 12.9152 7.58141C12.9152 7.58141 14.0809 7.55719 15.1018 6.4796C16.3286 5.1841 11.2456 5.1841 11.2456 5.1841C11.2456 5.1841 10.8347 5.08724 10.742 5.41823C10.4071 6.61689 11.3881 7.98879 10.3067 8.91311C9.22927 9.8372 9.87511 9.32473 8.89858 9.57486C7.91806 9.82498 4.87135 12.1172 7.37735 17.9083C10.1054 24.2037 15.4685 21.5767 15.4685 21.5767C15.4685 21.5767 15.7268 22.1336 17.7203 23.5986C19.7138 25.0676 23.8057 23.7721 24.3868 19.898C24.972 16.0239 20.767 15.9593 19.3991 16.6011C18.7372 15.8667 17.3813 15.9795 16.8124 16.5082C16.1668 17.1095 16.1021 18.1467 15.5896 18.3888C15.0771 18.6309 14.6251 16.4396 14.6251 16.4396C14.6251 16.4396 18.8946 14.6438 18.6686 13.3403C18.5557 12.6946 17.006 12.9005 15.4725 13.2757C16.0497 12.8358 16.5622 12.3071 17.0707 11.8189C18.0916 10.8302 19.0359 10.0149 20.194 10.0311C21.203 10.0431 22.014 10.7293 22.8898 11.593C23.7655 12.4567 24.5684 13.4776 25.8519 13.8812C26.3361 14.0345 26.8442 14.1031 27.8089 14.1273V14.1386H27.8085ZM28.0952 13.3798H28.0992V13.3838L28.0952 13.3798Z" fill="#F04242" style="fill:#F04242;fill:color(display-p3 0.9400 0.2600 0.2600);fill-opacity:1;"/>
</svg>
