<svg width="40" height="40" viewBox="0 0 40 40" fill="none" xmlns="http://www.w3.org/2000/svg">
<circle cx="20" cy="20" r="20" fill="#F04242" fill-opacity="0.1" style="fill:#F04242;fill:color(display-p3 0.9400 0.2600 0.2600);fill-opacity:0.1;"/>
<path d="M26.375 29.3943H10.4011C10.4011 27.4681 10.3052 27.8517 14.3945 25.3979H22.3815C26.4948 27.8677 26.375 27.4601 26.375 29.3943Z" fill="#F7CECD" style="fill:#F7CECD;fill:color(display-p3 0.9686 0.8078 0.8039);fill-opacity:1;"/>
<path d="M25.6242 30.9939H15.6325C15.3202 30.981 15.0243 30.8503 14.8043 30.6282C14.5842 30.406 14.4563 30.1088 14.4462 29.7961C14.4361 29.4835 14.5445 29.1786 14.7498 28.9426C14.955 28.7067 15.2418 28.5572 15.5527 28.5241L25.5284 27.9007C25.7393 27.8804 25.9522 27.9036 26.1538 27.9689C26.3555 28.0343 26.5416 28.1403 26.7006 28.2805C26.8597 28.4206 26.9883 28.5919 27.0785 28.7838C27.1688 28.9757 27.2187 29.1841 27.2253 29.3961C27.2319 29.6081 27.1949 29.8192 27.1167 30.0163C27.0385 30.2134 26.9207 30.3924 26.7707 30.5421C26.6206 30.6919 26.4414 30.8092 26.2443 30.8869C26.0471 30.9646 25.836 31.001 25.6242 30.9939Z" fill="#EB4A41" style="fill:#EB4A41;fill:color(display-p3 0.9216 0.2902 0.2549);fill-opacity:1;"/>
<path d="M21.1435 30.9939H11.1519C10.9401 31.001 10.729 30.9646 10.5318 30.8869C10.3346 30.8092 10.1555 30.6919 10.0054 30.5421C9.85534 30.3924 9.73757 30.2134 9.65938 30.0163C9.58118 29.8192 9.54422 29.6081 9.55079 29.3961C9.55736 29.1841 9.60731 28.9757 9.69756 28.7838C9.78781 28.5919 9.91644 28.4206 10.0755 28.2805C10.2345 28.1403 10.4206 28.0343 10.6223 27.9689C10.8239 27.9036 11.0367 27.8804 11.2477 27.9007L21.2234 28.5241C21.5342 28.5572 21.8211 28.7067 22.0263 28.9426C22.2315 29.1786 22.34 29.4835 22.3299 29.7961C22.3198 30.1088 22.1918 30.406 21.9718 30.6282C21.7518 30.8503 21.4559 30.981 21.1435 30.9939Z" fill="#EB4A41" style="fill:#EB4A41;fill:color(display-p3 0.9216 0.2902 0.2549);fill-opacity:1;"/>
<path d="M21.1435 30.995H15.9919V28.1966L21.2234 28.5244C21.5342 28.5575 21.821 28.707 22.0263 28.9431C22.2315 29.1791 22.3399 29.4841 22.3298 29.7968C22.3197 30.1096 22.1918 30.4069 21.9717 30.6292C21.7517 30.8514 21.4558 30.9821 21.1435 30.995ZM21.5828 11.8057C21.5828 12.6539 21.2462 13.4674 20.647 14.0672C20.0479 14.667 19.2353 15.0039 18.388 15.0039C17.5407 15.0039 16.7281 14.667 16.1289 14.0672C15.5298 13.4674 15.1932 12.6539 15.1932 11.8057V10.2066C15.1927 9.57368 15.3798 8.95485 15.7308 8.42844C16.0818 7.90204 16.581 7.49172 17.1651 7.24945C17.7491 7.00718 18.3919 6.94384 19.012 7.06745C19.632 7.19106 20.2015 7.49607 20.6483 7.94386C21.7665 9.07922 21.5828 10.2066 21.5828 11.8057ZM28.771 26.5735C28.7916 26.7268 28.7791 26.8828 28.7342 27.0309C28.6893 27.1789 28.6132 27.3156 28.5109 27.4316C28.4087 27.5476 28.2827 27.6403 28.1415 27.7033C28.0004 27.7663 27.8473 27.7982 27.6928 27.7968C26.9979 27.7968 27.0059 27.5889 24.2744 24.1668C23.8591 23.6711 23.7952 23.3673 22.3815 19.8012V25.3981H14.3945V19.8012C12.3898 24.8065 13.452 22.9995 9.9298 27.389C9.79088 27.5654 9.60047 27.6939 9.3851 27.7568C9.16974 27.8197 8.94014 27.8138 8.7283 27.7399C8.51646 27.6659 8.33292 27.5277 8.20326 27.3444C8.07361 27.1612 8.00428 26.942 8.00495 26.7174C7.97714 26.4298 8.06317 26.1427 8.24455 25.9178C11.1997 22.1999 11.1997 22.2959 11.2876 21.8881C12.9329 16.0833 12.23 16.715 16.7906 15.8035C20.6243 15.8035 19.3225 15.6676 22.5492 16.3152C24.3383 16.675 24.4421 18.2261 25.1529 20.7047C25.5044 21.9521 25.5124 22.12 25.7759 22.4478C28.5394 25.9178 28.771 26.0298 28.771 26.5735Z" fill="#F7CECD" style="fill:#F7CECD;fill:color(display-p3 0.9686 0.8078 0.8039);fill-opacity:1;"/>
<path d="M25.153 20.7047L22.9646 21.2563L22.3815 19.8012V25.398H14.3946V19.8012L13.8115 21.2563L11.6231 20.7047C12.893 16.2831 12.3339 16.7069 16.7907 15.8034C20.6244 15.8034 19.3225 15.6675 22.5493 16.3151C24.3383 16.6749 24.4422 18.202 25.153 20.7047Z" fill="#EB4A41" style="fill:#EB4A41;fill:color(display-p3 0.9216 0.2902 0.2549);fill-opacity:1;"/>
<path d="M19.9854 15.8033C19.5616 16.2271 18.9871 16.4651 18.388 16.4651C17.789 16.4651 17.2145 16.2271 16.7906 15.8033V12.6051H19.9854V15.8033ZM28.5075 14.9478C27.8954 15.0461 27.2688 14.9987 26.6784 14.8094C26.0881 14.6201 25.5506 14.2942 25.1095 13.8581C24.6684 13.422 24.3362 12.888 24.1398 12.2994C23.9434 11.7108 23.8882 11.0842 23.9789 10.4702C24.5891 10.3823 25.2114 10.437 25.797 10.63C26.3826 10.823 26.9156 11.1492 27.3543 11.5829C27.7929 12.0166 28.1253 12.546 28.3254 13.1298C28.5254 13.7136 28.5878 14.3358 28.5075 14.9478Z" fill="#F7CECD" style="fill:#F7CECD;fill:color(display-p3 0.9686 0.8078 0.8039);fill-opacity:1;"/>
<path d="M27.4373 14.9462C27.357 14.3345 27.4193 13.7125 27.6194 13.1289C27.8195 12.5453 28.1519 12.016 28.5905 11.5825C29.0292 11.1489 29.5622 10.8229 30.1478 10.6299C30.7333 10.437 31.3556 10.3823 31.9659 10.4702C32.0461 11.082 31.9838 11.704 31.7837 12.2875C31.5836 12.8711 31.2512 13.4004 30.8126 13.834C30.374 14.2675 29.841 14.5935 29.2554 14.7865C28.6698 14.9795 28.0475 15.0341 27.4373 14.9462Z" fill="#F7CECD" style="fill:#F7CECD;fill:color(display-p3 0.9686 0.8078 0.8039);fill-opacity:1;"/>
<path d="M29.5698 11.8056C29.534 12.4193 29.374 13.0193 29.0994 13.5691C28.8248 14.1189 28.4414 14.607 27.9724 15.0039C27.5035 14.607 27.12 14.1189 26.8454 13.5691C26.5708 13.0193 26.4108 12.4193 26.375 11.8056C26.4108 11.192 26.5708 10.592 26.8454 10.0422C27.12 9.49242 27.5035 9.00426 27.9724 8.60743C28.4414 9.00426 28.8248 9.49242 29.0994 10.0422C29.374 10.592 29.534 11.192 29.5698 11.8056ZM21.5828 11.0061C20.8437 11.0239 20.1087 10.8914 19.4223 10.6165C18.7359 10.3417 18.1123 9.93017 17.5894 9.40698C17.3914 9.87992 17.0585 10.2839 16.6323 10.5683C16.2061 10.8528 15.7055 11.005 15.1933 11.0061V10.3904C15.1543 9.74182 15.3135 9.0967 15.6499 8.54096C15.9862 7.98521 16.4837 7.54522 17.0761 7.27954C17.6684 7.01387 18.3276 6.93512 18.9657 7.05379C19.6039 7.17245 20.1908 7.4829 20.6484 7.9438C21.0212 8.35291 21.2985 8.83994 21.4601 9.36958C21.6218 9.89923 21.6637 10.4582 21.5828 11.0061Z" fill="#EB4A41" style="fill:#EB4A41;fill:color(display-p3 0.9216 0.2902 0.2549);fill-opacity:1;"/>
</svg>
