<svg width="30" height="31" viewBox="0 0 30 31" fill="none" xmlns="http://www.w3.org/2000/svg">
<g clip-path="url(#clip0_126_1697)">
<path d="M12.705 4.07128L11.5425 1.57051C10.998 0.420154 10.0068 0.420154 9.67032 1.13287L8.29983 4.04002C6.71976 7.28104 4.7553 10.311 2.45077 13.0616C0.808523 15.051 -0.0622785 17.587 0.00346886 20.1888C0.138071 25.5404 4.84913 30.4232 10.0864 30.6295C12.1616 30.7146 14.2149 30.1685 15.9862 29.0603C17.7575 27.9521 19.1671 26.3317 20.0365 24.4043C20.9058 22.4769 21.1959 20.3292 20.8699 18.2332C20.544 16.1372 19.6166 14.1872 18.2053 12.6302C15.9658 10.0724 14.112 7.18772 12.705 4.07128Z" fill="#F04242" style="fill:#F04242;fill:color(display-p3 0.9400 0.2600 0.2600);fill-opacity:1;"/>
<path d="M29.5 23.1393C29.5 27.0045 26.3661 30.138 22.5 30.138C18.6339 30.138 15.5 27.0045 15.5 23.1393C15.5 19.2741 18.6339 16.1406 22.5 16.1406C26.3661 16.1406 29.5 19.2741 29.5 23.1393Z" fill="#F04242" stroke="#FBFBFB" style="fill:#F04242;fill:color(display-p3 0.9400 0.2600 0.2600);fill-opacity:1;stroke:#FBFBFB;stroke:color(display-p3 0.9843 0.9843 0.9843);stroke-opacity:1;"/>
<path d="M6.4606 15.0556C6.22216 15.052 5.98953 14.9845 5.78917 14.8606C5.58881 14.7368 5.42875 14.5616 5.32717 14.355C5.2256 14.1483 5.18659 13.9186 5.21458 13.6917C5.24257 13.4649 5.33644 13.2502 5.48552 13.0719C6.24112 12.2283 6.88343 11.2974 7.39745 10.3009C7.55015 10.0187 7.81178 9.80466 8.1267 9.7043C8.44163 9.60393 8.78502 9.62517 9.08385 9.76349C9.38268 9.90182 9.61339 10.1463 9.72691 10.445C9.84044 10.7437 9.82783 11.073 9.69177 11.363C9.08142 12.5401 8.31918 13.6392 7.42294 14.6344C7.30338 14.7665 7.15558 14.8725 6.98956 14.9452C6.82353 15.0178 6.64314 15.0555 6.4606 15.0556ZM4.27462 18.2843C3.93657 18.2843 3.61237 18.1557 3.37333 17.9268C3.13429 17.6979 3 17.3874 3 17.0636C2.99973 16.7413 3.13261 16.4319 3.36964 16.203C3.61481 15.9851 3.93694 15.864 4.27144 15.864C4.60593 15.864 4.92807 15.9851 5.17323 16.203C5.41026 16.4319 5.54314 16.7413 5.54287 17.0636C5.54287 17.3874 5.40858 17.6979 5.16955 17.9268C4.93051 18.1557 4.6063 18.2843 4.26825 18.2843H4.27462ZM25 25.6391H23.7254V21.2568H22.1066V25.6391H20.832V20.6464L21.4693 20.036H24.3627L25 20.6464V25.6391Z" fill="#FBFBFB" style="fill:#FBFBFB;fill:color(display-p3 0.9843 0.9843 0.9843);fill-opacity:1;"/>
<path d="M21 24.6392H24V25.6407H21V24.6392Z" fill="#FBFBFB" style="fill:#FBFBFB;fill:color(display-p3 0.9843 0.9843 0.9843);fill-opacity:1;"/>
</g>
<defs>
<clipPath id="clip0_126_1697">
<rect width="30" height="29.9948" fill="white" style="fill:white;fill-opacity:1;" transform="translate(0 0.643311)"/>
</clipPath>
</defs>
</svg>
