<svg width="30" height="31" viewBox="0 0 30 31" fill="none" xmlns="http://www.w3.org/2000/svg">
<g clip-path="url(#clip0_126_1687)">
<path d="M13.0452 4.06444L11.8516 1.59235C11.3113 0.440795 10.2748 0.440795 9.92926 1.15426L8.52205 4.06444C6.89754 7.2999 4.88053 10.3245 2.51628 13.0704C0.831484 15.0602 -0.0625546 17.5964 0.00340596 20.1987C0.141614 25.556 4.9789 30.4438 10.3564 30.6503C12.4873 30.7356 14.5956 30.1889 16.4143 29.0795C18.2331 27.9702 19.6804 26.3481 20.5731 24.4187C21.4658 22.4892 21.7637 20.3393 21.429 18.2411C21.0942 16.1429 20.142 14.1909 18.6929 12.6323C16.3917 10.0731 14.488 7.18518 13.0452 4.06444Z" fill="#F04242" style="fill:#F04242;fill:color(display-p3 0.9400 0.2600 0.2600);fill-opacity:1;"/>
<path d="M29.5 23.1603C29.5 27.0255 26.3661 30.159 22.5 30.159C18.6339 30.159 15.5 27.0255 15.5 23.1603C15.5 19.2951 18.6339 16.1616 22.5 16.1616C26.3661 16.1616 29.5 19.2951 29.5 23.1603Z" fill="#F04242" stroke="#FBFBFB" style="fill:#F04242;fill:color(display-p3 0.9400 0.2600 0.2600);fill-opacity:1;stroke:#FBFBFB;stroke:color(display-p3 0.9843 0.9843 0.9843);stroke-opacity:1;"/>
<path d="M6.22604 15.151C5.99305 15.1457 5.76615 15.0761 5.57068 14.9502C5.37521 14.8243 5.21886 14.6469 5.11909 14.438C5.01933 14.229 4.98006 13.9967 5.00569 13.7668C5.03131 13.537 5.12082 13.3188 5.26421 13.1365C6.00954 12.2744 6.64311 11.3232 7.15015 10.3049C7.21904 10.1528 7.31796 10.016 7.44107 9.90248C7.56418 9.78898 7.70897 9.70112 7.86689 9.64409C8.02481 9.58706 8.19265 9.56201 8.36049 9.57044C8.52833 9.57887 8.69276 9.6206 8.84407 9.69315C8.99538 9.76571 9.13049 9.86763 9.24142 9.99288C9.35235 10.1181 9.43684 10.2642 9.48991 10.4224C9.54297 10.5806 9.56353 10.7477 9.55036 10.914C9.5372 11.0802 9.49058 11.2421 9.41327 11.3901C8.81121 12.593 8.05934 13.7161 7.17529 14.7332C7.0562 14.8659 6.90989 14.9718 6.74618 15.0439C6.58247 15.116 6.40513 15.1525 6.22604 15.151ZM4.06979 18.4504C3.73634 18.4504 3.41654 18.319 3.18075 18.0851C2.94496 17.8511 2.8125 17.5339 2.8125 17.203C2.81224 16.8736 2.94331 16.5575 3.17711 16.3236C3.41895 16.1009 3.7367 15.9772 4.06665 15.9772C4.39659 15.9772 4.71434 16.1009 4.95618 16.3236C5.18998 16.5575 5.32106 16.8736 5.32079 17.203C5.32079 17.5339 5.18833 17.8511 4.95254 18.0851C4.71675 18.319 4.39696 18.4504 4.0635 18.4504H4.06979ZM23.7464 25.9723H20.8986L20.27 25.3486V20.8641L20.8986 20.2404H23.7464L24.375 20.8641V25.3486L23.7464 25.9723ZM21.5272 24.7249H23.1177V21.4878H21.5272V24.7249Z" fill="#FBFBFB" style="fill:#FBFBFB;fill:color(display-p3 0.9843 0.9843 0.9843);fill-opacity:1;"/>
<path d="M21.0938 22.6917H23.9063V23.6308H21.0938V22.6917Z" fill="#FBFBFB" style="fill:#FBFBFB;fill:color(display-p3 0.9843 0.9843 0.9843);fill-opacity:1;"/>
<path d="M23.6706 23.1479L24.5993 22.2194L25.528 23.1479L24.5993 24.0765L23.6706 23.1479Z" fill="#F04242" style="fill:#F04242;fill:color(display-p3 0.9400 0.2600 0.2600);fill-opacity:1;"/>
</g>
<defs>
<clipPath id="clip0_126_1687">
<rect width="30" height="29.9948" fill="white" style="fill:white;fill-opacity:1;" transform="translate(0 0.664185)"/>
</clipPath>
</defs>
</svg>
