<svg width="31" height="30" viewBox="0 0 31 30" fill="none" xmlns="http://www.w3.org/2000/svg">
<g clip-path="url(#clip0_126_1706)">
<path d="M12.7743 3.42857L11.6088 0.927359C11.0629 -0.223195 10.0692 -0.223195 9.7318 0.489649L8.35775 3.3973C6.77357 6.63888 4.80402 9.66936 2.4935 12.4204C0.846985 14.4101 -0.0260786 16.9466 0.0398396 19.5488C0.174791 24.9014 4.89809 29.785 10.1489 29.9914C12.2296 30.0765 14.2882 29.5303 16.0641 28.4219C17.8399 27.3135 19.2532 25.6928 20.1249 23.7651C20.9965 21.8374 21.2873 19.6893 20.9605 17.5929C20.6337 15.4966 19.7039 13.5462 18.2889 11.9889C16.0436 9.43072 14.185 6.54554 12.7743 3.42857Z" fill="#F04242" style="fill:#F04242;fill:color(display-p3 0.9400 0.2600 0.2600);fill-opacity:1;"/>
<path d="M29.6143 22.5C29.6143 26.3648 26.4728 29.5 22.5948 29.5C18.7168 29.5 15.5753 26.3648 15.5753 22.5C15.5753 18.6352 18.7168 15.5 22.5948 15.5C26.4728 15.5 29.6143 18.6352 29.6143 22.5Z" fill="#F04242" stroke="#FBFBFB" style="fill:#F04242;fill:color(display-p3 0.9400 0.2600 0.2600);fill-opacity:1;stroke:#FBFBFB;stroke:color(display-p3 0.9843 0.9843 0.9843);stroke-opacity:1;"/>
<path d="M6.51375 14.4147C6.27469 14.4111 6.04146 14.3436 5.84058 14.2197C5.63969 14.0958 5.47921 13.9206 5.37738 13.7139C5.27554 13.5073 5.23643 13.2774 5.26449 13.0506C5.29256 12.8238 5.38667 12.609 5.53613 12.4307C6.2937 11.5869 6.93767 10.6559 7.45303 9.65922C7.60613 9.37694 7.86843 9.16285 8.18418 9.06246C8.49992 8.96208 8.8442 8.98332 9.14381 9.12167C9.44342 9.26002 9.67472 9.50456 9.78855 9.80331C9.90237 10.1021 9.88973 10.4314 9.75331 10.7214C9.14137 11.8987 8.37716 12.998 7.47859 13.9935C7.35872 14.1256 7.21054 14.2316 7.04408 14.3042C6.87762 14.3769 6.69677 14.4146 6.51375 14.4147ZM4.32209 17.644C3.98316 17.644 3.65812 17.5154 3.41846 17.2864C3.1788 17.0574 3.04416 16.7469 3.04416 16.4231C3.04389 16.1007 3.17711 15.7912 3.41476 15.5623C3.66056 15.3444 3.98353 15.2232 4.3189 15.2232C4.65426 15.2232 4.97723 15.3444 5.22304 15.5623C5.46068 15.7912 5.59391 16.1007 5.59364 16.4231C5.59364 16.7469 5.459 17.0574 5.21934 17.2864C4.97968 17.5154 4.65463 17.644 4.3157 17.644H4.32209ZM25.1013 25H23.8234V20.6169H22.2004V25H20.9225V20.0065L21.5614 19.396H24.4623L25.1013 20.0065V25Z" fill="#F04242" style="fill:#F04242;fill:color(display-p3 0.9400 0.2600 0.2600);fill-opacity:1;"/>
<path d="M20 22H25V23H20V22Z" fill="#FBFBFB" style="fill:#FBFBFB;fill:color(display-p3 0.9843 0.9843 0.9843);fill-opacity:1;"/>
<path d="M23 20L23 25L22 25L22 20L23 20Z" fill="#FBFBFB" style="fill:#FBFBFB;fill:color(display-p3 0.9843 0.9843 0.9843);fill-opacity:1;"/>
</g>
<defs>
<clipPath id="clip0_126_1706">
<rect width="30.0779" height="30" fill="white" style="fill:white;fill-opacity:1;" transform="translate(0.0363617)"/>
</clipPath>
</defs>
</svg>
