<svg width="31" height="30" viewBox="0 0 31 30" fill="none" xmlns="http://www.w3.org/2000/svg">
<g clip-path="url(#clip0_126_1716)">
<path d="M12.738 3.42857L11.5725 0.927359C11.0265 -0.223195 10.0328 -0.223195 9.69543 0.489649L8.32138 3.3973C6.73721 6.63888 4.76766 9.66936 2.45714 12.4204C0.810623 14.4101 -0.0624403 16.9466 0.00347787 19.5488C0.138429 24.9014 4.86172 29.785 10.1126 29.9914C12.1932 30.0765 14.2518 29.5303 16.0277 28.4219C17.8036 27.3135 19.2168 25.6928 20.0885 23.7651C20.9601 21.8374 21.251 19.6893 20.9242 17.5929C20.5973 15.4966 19.6676 13.5462 18.2526 11.9889C16.0072 9.43072 14.1486 6.54554 12.738 3.42857Z" fill="#F04242" style="fill:#F04242;fill:color(display-p3 0.9400 0.2600 0.2600);fill-opacity:1;"/>
<path d="M29.5779 22.5C29.5779 26.3648 26.4364 29.5 22.5584 29.5C18.6804 29.5 15.5389 26.3648 15.5389 22.5C15.5389 18.6352 18.6804 15.5 22.5584 15.5C26.4364 15.5 29.5779 18.6352 29.5779 22.5Z" fill="#F04242" stroke="#FBFBFB" style="fill:#F04242;fill:color(display-p3 0.9400 0.2600 0.2600);fill-opacity:1;stroke:#FBFBFB;stroke:color(display-p3 0.9843 0.9843 0.9843);stroke-opacity:1;"/>
<path d="M20 22H25V23H20V22Z" fill="#FBFBFB" style="fill:#FBFBFB;fill:color(display-p3 0.9843 0.9843 0.9843);fill-opacity:1;"/>
</g>
<defs>
<clipPath id="clip0_126_1716">
<rect width="30.0779" height="30" fill="white" style="fill:white;fill-opacity:1;"/>
</clipPath>
</defs>
</svg>
