<svg width="250" height="250" viewBox="0 0 250 250" fill="none" xmlns="http://www.w3.org/2000/svg">
<path d="M224.95 199.245H208.39V199.37H224.95V199.245Z" fill="#EBEBEB" style="fill:#EBEBEB;fill:color(display-p3 0.9216 0.9216 0.9216);fill-opacity:1;"/>
<path d="M165.61 200.605H161.265V200.73H165.61V200.605Z" fill="#EBEBEB" style="fill:#EBEBEB;fill:color(display-p3 0.9216 0.9216 0.9216);fill-opacity:1;"/>
<path d="M207.89 194.605H198.295V194.73H207.89V194.605Z" fill="#EBEBEB" style="fill:#EBEBEB;fill:color(display-p3 0.9216 0.9216 0.9216);fill-opacity:1;"/>
<path d="M47.825 195.445H26.23V195.57H47.825V195.445Z" fill="#EBEBEB" style="fill:#EBEBEB;fill:color(display-p3 0.9216 0.9216 0.9216);fill-opacity:1;"/>
<path d="M55.445 195.445H52.28V195.57H55.445V195.445Z" fill="#EBEBEB" style="fill:#EBEBEB;fill:color(display-p3 0.9216 0.9216 0.9216);fill-opacity:1;"/>
<path d="M112.575 197.555H65.735V197.68H112.575V197.555Z" fill="#EBEBEB" style="fill:#EBEBEB;fill:color(display-p3 0.9216 0.9216 0.9216);fill-opacity:1;"/>
<path d="M118.5 168.9H21.96C21.2028 168.9 20.4766 168.599 19.9412 168.064C19.4058 167.528 19.105 166.802 19.105 166.045V30.33C19.1116 29.5771 19.4153 28.8574 19.95 28.3274C20.4847 27.7973 21.2071 27.5 21.96 27.5H118.5C119.257 27.5 119.983 27.8008 120.519 28.3362C121.054 28.8716 121.355 29.5978 121.355 30.355V166.045C121.355 166.802 121.054 167.528 120.519 168.064C119.983 168.599 119.257 168.9 118.5 168.9ZM21.96 27.6C21.2364 27.6013 20.5428 27.8894 20.0311 28.4011C19.5194 28.9127 19.2313 29.6064 19.23 30.33V166.045C19.2313 166.769 19.5194 167.462 20.0311 167.974C20.5428 168.486 21.2364 168.774 21.96 168.775H118.5C119.224 168.774 119.917 168.486 120.429 167.974C120.941 167.462 121.229 166.769 121.23 166.045V30.33C121.229 29.6064 120.941 28.9127 120.429 28.4011C119.917 27.8894 119.224 27.6013 118.5 27.6H21.96Z" fill="#EBEBEB" style="fill:#EBEBEB;fill:color(display-p3 0.9216 0.9216 0.9216);fill-opacity:1;"/>
<path d="M226.655 168.9H130.105C129.348 168.899 128.623 168.597 128.088 168.062C127.553 167.527 127.251 166.802 127.25 166.045V30.33C127.258 29.5776 127.562 28.8585 128.096 28.3288C128.631 27.7991 129.353 27.5013 130.105 27.5H226.655C227.406 27.5026 228.126 27.8011 228.659 28.3309C229.191 28.8606 229.493 29.5789 229.5 30.33V166.045C229.5 166.8 229.201 167.525 228.667 168.06C228.134 168.595 227.41 168.897 226.655 168.9ZM130.105 27.6C129.381 27.6013 128.688 27.8894 128.176 28.4011C127.664 28.9127 127.376 29.6064 127.375 30.33V166.045C127.376 166.769 127.664 167.462 128.176 167.974C128.688 168.486 129.381 168.774 130.105 168.775H226.655C227.379 168.774 228.072 168.486 228.584 167.974C229.096 167.462 229.384 166.769 229.385 166.045V30.33C229.384 29.6064 229.096 28.9127 228.584 28.4011C228.072 27.8894 227.379 27.6013 226.655 27.6H130.105Z" fill="#EBEBEB" style="fill:#EBEBEB;fill:color(display-p3 0.9216 0.9216 0.9216);fill-opacity:1;"/>
<path d="M250 191.2H0V191.325H250V191.2Z" fill="#EBEBEB" style="fill:#EBEBEB;fill:color(display-p3 0.9216 0.9216 0.9216);fill-opacity:1;"/>
<path d="M108.295 52.665H107.395V122.85H108.295V52.665Z" fill="#E0E0E0" style="fill:#E0E0E0;fill:color(display-p3 0.8784 0.8784 0.8784);fill-opacity:1;"/>
<path d="M164.32 52.665H163.42V122.85H164.32V52.665Z" fill="#E0E0E0" style="fill:#E0E0E0;fill:color(display-p3 0.8784 0.8784 0.8784);fill-opacity:1;"/>
<path d="M167.845 57.0799H103.87L102.52 53.9299H169.195L167.845 57.0799Z" fill="#EBEBEB" style="fill:#EBEBEB;fill:color(display-p3 0.9216 0.9216 0.9216);fill-opacity:1;"/>
<path d="M167.845 61.4049H103.87L102.52 58.2549H169.195L167.845 61.4049Z" fill="#EBEBEB" style="fill:#EBEBEB;fill:color(display-p3 0.9216 0.9216 0.9216);fill-opacity:1;"/>
<path d="M167.845 65.7301H103.87L102.52 62.5801H169.195L167.845 65.7301Z" fill="#EBEBEB" style="fill:#EBEBEB;fill:color(display-p3 0.9216 0.9216 0.9216);fill-opacity:1;"/>
<path d="M167.845 70.055H103.87L102.52 66.905H169.195L167.845 70.055Z" fill="#EBEBEB" style="fill:#EBEBEB;fill:color(display-p3 0.9216 0.9216 0.9216);fill-opacity:1;"/>
<path d="M167.845 74.38H103.87L102.52 71.23H169.195L167.845 74.38Z" fill="#EBEBEB" style="fill:#EBEBEB;fill:color(display-p3 0.9216 0.9216 0.9216);fill-opacity:1;"/>
<path d="M167.845 78.7049H103.87L102.52 75.5549H169.195L167.845 78.7049Z" fill="#EBEBEB" style="fill:#EBEBEB;fill:color(display-p3 0.9216 0.9216 0.9216);fill-opacity:1;"/>
<path d="M167.845 83.0299H103.87L102.52 79.8799H169.195L167.845 83.0299Z" fill="#EBEBEB" style="fill:#EBEBEB;fill:color(display-p3 0.9216 0.9216 0.9216);fill-opacity:1;"/>
<path d="M167.845 87.3551H103.87L102.52 84.2051H169.195L167.845 87.3551Z" fill="#EBEBEB" style="fill:#EBEBEB;fill:color(display-p3 0.9216 0.9216 0.9216);fill-opacity:1;"/>
<path d="M167.845 91.675H103.87L102.52 88.53H169.195L167.845 91.675Z" fill="#EBEBEB" style="fill:#EBEBEB;fill:color(display-p3 0.9216 0.9216 0.9216);fill-opacity:1;"/>
<path d="M167.845 96.0001H103.87L102.52 92.8501H169.195L167.845 96.0001Z" fill="#EBEBEB" style="fill:#EBEBEB;fill:color(display-p3 0.9216 0.9216 0.9216);fill-opacity:1;"/>
<path d="M167.845 100.325H103.87L102.52 97.175H169.195L167.845 100.325Z" fill="#EBEBEB" style="fill:#EBEBEB;fill:color(display-p3 0.9216 0.9216 0.9216);fill-opacity:1;"/>
<path d="M167.845 104.65H103.87L102.52 101.5H169.195L167.845 104.65Z" fill="#EBEBEB" style="fill:#EBEBEB;fill:color(display-p3 0.9216 0.9216 0.9216);fill-opacity:1;"/>
<path d="M167.845 108.975H103.87L102.52 105.825H169.195L167.845 108.975Z" fill="#EBEBEB" style="fill:#EBEBEB;fill:color(display-p3 0.9216 0.9216 0.9216);fill-opacity:1;"/>
<path d="M167.845 113.3H103.87L102.52 110.15H169.195L167.845 113.3Z" fill="#EBEBEB" style="fill:#EBEBEB;fill:color(display-p3 0.9216 0.9216 0.9216);fill-opacity:1;"/>
<path d="M167.845 117.625H103.87L102.52 114.475H169.195L167.845 117.625Z" fill="#EBEBEB" style="fill:#EBEBEB;fill:color(display-p3 0.9216 0.9216 0.9216);fill-opacity:1;"/>
<path d="M167.845 121.95H103.87L102.52 118.8H169.195L167.845 121.95Z" fill="#EBEBEB" style="fill:#EBEBEB;fill:color(display-p3 0.9216 0.9216 0.9216);fill-opacity:1;"/>
<path d="M169.195 121.95H102.52V123.75H169.195V121.95Z" fill="#E0E0E0" style="fill:#E0E0E0;fill:color(display-p3 0.8784 0.8784 0.8784);fill-opacity:1;"/>
<path d="M171.52 49.9851H100.195V54.1851H171.52V49.9851Z" fill="#E0E0E0" style="fill:#E0E0E0;fill:color(display-p3 0.8784 0.8784 0.8784);fill-opacity:1;"/>
<path d="M100.925 92.2649C100.733 92.2649 100.548 92.1886 100.412 92.0526C100.276 91.9166 100.2 91.7322 100.2 91.5399V67.0399C100.2 66.8477 100.276 66.6633 100.412 66.5273C100.548 66.3913 100.733 66.3149 100.925 66.3149C101.117 66.3149 101.302 66.3913 101.438 66.5273C101.574 66.6633 101.65 66.8477 101.65 67.0399V91.5399C101.65 91.7322 101.574 91.9166 101.438 92.0526C101.302 92.1886 101.117 92.2649 100.925 92.2649Z" fill="#E0E0E0" style="fill:#E0E0E0;fill:color(display-p3 0.8784 0.8784 0.8784);fill-opacity:1;"/>
<path d="M101.19 53.345H100.665V67.895H101.19V53.345Z" fill="#E0E0E0" style="fill:#E0E0E0;fill:color(display-p3 0.8784 0.8784 0.8784);fill-opacity:1;"/>
<path d="M198.45 130.175H196.95V112.225C196.975 110.306 196.263 108.45 194.961 107.04C193.658 105.63 191.865 104.773 189.95 104.645C187.995 104.547 186.082 105.23 184.63 106.542C183.179 107.855 182.308 109.69 182.21 111.645C182.207 111.739 182.168 111.829 182.101 111.895C182.034 111.961 181.944 111.999 181.85 112H181.075C181.026 112 180.978 111.99 180.933 111.971C180.888 111.952 180.847 111.925 180.813 111.89C180.779 111.855 180.753 111.813 180.735 111.768C180.717 111.722 180.709 111.674 180.71 111.625C180.808 109.365 181.764 107.227 183.383 105.648C185.002 104.069 187.163 103.166 189.425 103.125C194.39 103.04 198.425 107.27 198.425 112.235L198.45 130.175Z" fill="#F0F0F0" style="fill:#F0F0F0;fill:color(display-p3 0.9412 0.9412 0.9412);fill-opacity:1;"/>
<path d="M216.69 132.135H206.03V191.18H216.69V132.135Z" fill="#E6E6E6" style="fill:#E6E6E6;fill:color(display-p3 0.9020 0.9020 0.9020);fill-opacity:1;"/>
<path d="M208.94 132.135H93.44V191.18H208.94V132.135Z" fill="#F5F5F5" style="fill:#F5F5F5;fill:color(display-p3 0.9608 0.9608 0.9608);fill-opacity:1;"/>
<path d="M208.94 144.43H93.44V145.43H121.815V191.18H122.815V145.43H150.42V191.18H151.42V145.43H179.02V191.18H180.02V145.43H208.94V144.43Z" fill="#E0E0E0" style="fill:#E0E0E0;fill:color(display-p3 0.8784 0.8784 0.8784);fill-opacity:1;"/>
<path d="M118.94 170.68C118.675 170.68 118.42 170.575 118.233 170.387C118.045 170.2 117.94 169.945 117.94 169.68V165.18C117.94 164.915 118.045 164.66 118.233 164.473C118.42 164.285 118.675 164.18 118.94 164.18C119.205 164.18 119.46 164.285 119.647 164.473C119.835 164.66 119.94 164.915 119.94 165.18V169.68C119.94 169.945 119.835 170.2 119.647 170.387C119.46 170.575 119.205 170.68 118.94 170.68Z" fill="#E6E6E6" style="fill:#E6E6E6;fill:color(display-p3 0.9020 0.9020 0.9020);fill-opacity:1;"/>
<path d="M125.69 170.68C125.425 170.68 125.17 170.575 124.983 170.387C124.795 170.2 124.69 169.945 124.69 169.68V165.18C124.69 164.915 124.795 164.66 124.983 164.473C125.17 164.285 125.425 164.18 125.69 164.18C125.955 164.18 126.21 164.285 126.397 164.473C126.585 164.66 126.69 164.915 126.69 165.18V169.68C126.69 169.945 126.585 170.2 126.397 170.387C126.21 170.575 125.955 170.68 125.69 170.68Z" fill="#E6E6E6" style="fill:#E6E6E6;fill:color(display-p3 0.9020 0.9020 0.9020);fill-opacity:1;"/>
<path d="M176.145 170.68C175.88 170.68 175.625 170.575 175.438 170.387C175.25 170.2 175.145 169.945 175.145 169.68V165.18C175.145 164.915 175.25 164.66 175.438 164.473C175.625 164.285 175.88 164.18 176.145 164.18C176.41 164.18 176.665 164.285 176.852 164.473C177.04 164.66 177.145 164.915 177.145 165.18V169.68C177.145 169.945 177.04 170.2 176.852 170.387C176.665 170.575 176.41 170.68 176.145 170.68Z" fill="#E6E6E6" style="fill:#E6E6E6;fill:color(display-p3 0.9020 0.9020 0.9020);fill-opacity:1;"/>
<path d="M182.895 170.68C182.63 170.68 182.375 170.575 182.188 170.387C182 170.2 181.895 169.945 181.895 169.68V165.18C181.895 164.915 182 164.66 182.188 164.473C182.375 164.285 182.63 164.18 182.895 164.18C183.16 164.18 183.415 164.285 183.602 164.473C183.79 164.66 183.895 164.915 183.895 165.18V169.68C183.895 169.945 183.79 170.2 183.602 170.387C183.415 170.575 183.16 170.68 182.895 170.68Z" fill="#E6E6E6" style="fill:#E6E6E6;fill:color(display-p3 0.9020 0.9020 0.9020);fill-opacity:1;"/>
<path d="M219.19 130.84H205.94V133.425H219.19V130.84Z" fill="#E0E0E0" style="fill:#E0E0E0;fill:color(display-p3 0.8784 0.8784 0.8784);fill-opacity:1;"/>
<path d="M209.94 130.84H90.94V133.425H209.94V130.84Z" fill="#EBEBEB" style="fill:#EBEBEB;fill:color(display-p3 0.9216 0.9216 0.9216);fill-opacity:1;"/>
<path d="M212.24 131.135H172.795C172.54 131.135 172.296 131.034 172.116 130.854C171.936 130.674 171.835 130.43 171.835 130.175C171.835 129.92 171.936 129.676 172.116 129.496C172.296 129.316 172.54 129.215 172.795 129.215H212.24C212.495 129.215 212.739 129.316 212.919 129.496C213.099 129.676 213.2 129.92 213.2 130.175C213.2 130.43 213.099 130.674 212.919 130.854C212.739 131.034 212.495 131.135 212.24 131.135Z" fill="#E6E6E6" style="fill:#E6E6E6;fill:color(display-p3 0.9020 0.9020 0.9020);fill-opacity:1;"/>
<path d="M202.22 127.6H200.725V129.5H202.22V127.6Z" fill="#E0E0E0" style="fill:#E0E0E0;fill:color(display-p3 0.8784 0.8784 0.8784);fill-opacity:1;"/>
<path d="M202.865 128.075H200.08L200.625 124.75H202.32L202.865 128.075Z" fill="#F0F0F0" style="fill:#F0F0F0;fill:color(display-p3 0.9412 0.9412 0.9412);fill-opacity:1;"/>
<path d="M194.66 127.6H193.165V129.5H194.66V127.6Z" fill="#E0E0E0" style="fill:#E0E0E0;fill:color(display-p3 0.8784 0.8784 0.8784);fill-opacity:1;"/>
<path d="M195.3 128.075H192.52L193.06 124.75H194.76L195.3 128.075Z" fill="#F0F0F0" style="fill:#F0F0F0;fill:color(display-p3 0.9412 0.9412 0.9412);fill-opacity:1;"/>
<path d="M85.575 63.375H47.945V97.075H85.575V63.375Z" fill="#F5F5F5" style="fill:#F5F5F5;fill:color(display-p3 0.9608 0.9608 0.9608);fill-opacity:1;"/>
<path d="M85.58 64.4549H47.945C47.8034 64.4549 47.6632 64.427 47.5325 64.3726C47.4017 64.3183 47.283 64.2387 47.1831 64.1383C47.0832 64.0379 47.0041 63.9188 46.9504 63.7878C46.8967 63.6568 46.8693 63.5165 46.87 63.3749C46.87 63.0894 46.9831 62.8154 47.1846 62.613C47.386 62.4106 47.6594 62.2962 47.945 62.2949H85.58C85.8656 62.2962 86.139 62.4106 86.3405 62.613C86.5419 62.8154 86.655 63.0894 86.655 63.3749C86.6557 63.5165 86.6283 63.6568 86.5746 63.7878C86.5209 63.9188 86.4418 64.0379 86.3419 64.1383C86.242 64.2387 86.1233 64.3183 85.9926 64.3726C85.8618 64.427 85.7216 64.4549 85.58 64.4549Z" fill="#EBEBEB" style="fill:#EBEBEB;fill:color(display-p3 0.9216 0.9216 0.9216);fill-opacity:1;"/>
<path d="M85.58 98.155H47.945C47.6594 98.1537 47.386 98.0393 47.1846 97.8369C46.9831 97.6345 46.87 97.3606 46.87 97.075C46.8713 96.7903 46.985 96.5176 47.1863 96.3163C47.3876 96.115 47.6603 96.0013 47.945 96H85.58C85.8656 96.0013 86.139 96.1157 86.3404 96.3181C86.5419 96.5205 86.655 96.7944 86.655 97.08C86.6537 97.3647 86.54 97.6374 86.3387 97.8387C86.1374 98.04 85.8647 98.1537 85.58 98.155Z" fill="#EBEBEB" style="fill:#EBEBEB;fill:color(display-p3 0.9216 0.9216 0.9216);fill-opacity:1;"/>
<path d="M74.395 155.805H53.27V159.055H74.395V155.805Z" fill="#E0E0E0" style="fill:#E0E0E0;fill:color(display-p3 0.8784 0.8784 0.8784);fill-opacity:1;"/>
<path d="M53.655 157.68H73.38C73.8136 157.68 74.2295 157.852 74.5361 158.159C74.8427 158.466 75.015 158.881 75.015 159.315V191.18H52V159.315C52 159.099 52.0429 158.884 52.1263 158.685C52.2098 158.485 52.332 158.304 52.4859 158.152C52.6399 158 52.8225 157.88 53.0232 157.799C53.2239 157.718 53.4386 157.677 53.655 157.68Z" fill="#F0F0F0" style="fill:#F0F0F0;fill:color(display-p3 0.9412 0.9412 0.9412);fill-opacity:1;"/>
<path d="M73.215 151.805H53.825C52.8281 151.805 52.02 152.613 52.02 153.61V155C52.02 155.997 52.8281 156.805 53.825 156.805H73.215C74.2119 156.805 75.02 155.997 75.02 155V153.61C75.02 152.613 74.2119 151.805 73.215 151.805Z" fill="#F0F0F0" style="fill:#F0F0F0;fill:color(display-p3 0.9412 0.9412 0.9412);fill-opacity:1;"/>
<path d="M58.77 191.18H48.02V189.68L58.77 188.68V191.18Z" fill="#E0E0E0" style="fill:#E0E0E0;fill:color(display-p3 0.8784 0.8784 0.8784);fill-opacity:1;"/>
<path d="M122.59 211.855C176.131 211.855 219.535 209.321 219.535 206.195C219.535 203.069 176.131 200.535 122.59 200.535C69.0487 200.535 25.645 203.069 25.645 206.195C25.645 209.321 69.0487 211.855 122.59 211.855Z" fill="#F5F5F5" style="fill:#F5F5F5;fill:color(display-p3 0.9608 0.9608 0.9608);fill-opacity:1;"/>
<path d="M127.42 161.385C127.42 161.385 127.42 172.54 137.03 177.885C146.64 183.23 177.98 160.465 177.425 161.385C176.87 162.305 127.42 161.385 127.42 161.385Z" fill="#283237" style="fill:#283237;fill:color(display-p3 0.1569 0.1961 0.2157);fill-opacity:1;"/>
<path opacity="0.2" d="M127.42 161.385C127.42 161.385 127.42 172.54 137.03 177.885C146.64 183.23 177.98 160.465 177.425 161.385C176.87 162.305 127.42 161.385 127.42 161.385Z" fill="white" style="fill:white;fill-opacity:1;"/>
<path d="M137.33 113.27C129.525 113.525 121.115 113.77 113.33 114.03C111.665 111.935 110.818 109.306 110.947 106.633C111.076 103.96 112.171 101.425 114.03 99.5001C114.838 98.67 115.804 98.0089 116.87 97.5551C120.795 95.8351 126.005 96.6251 129.645 99.0101C133.52 101.555 135.925 106.01 136.915 110.615C137.104 111.491 137.243 112.378 137.33 113.27Z" fill="#EB4A41" style="fill:#EB4A41;fill:color(display-p3 0.9216 0.2902 0.2549);fill-opacity:1;"/>
<path opacity="0.5" d="M137.33 113.27C129.525 113.525 121.115 113.77 113.33 114.03C111.665 111.935 110.818 109.306 110.947 106.633C111.076 103.96 112.171 101.425 114.03 99.5001C114.838 98.67 115.804 98.0089 116.87 97.5551C120.795 95.8351 126.005 96.6251 129.645 99.0101C133.52 101.555 135.925 106.01 136.915 110.615C137.104 111.491 137.243 112.378 137.33 113.27Z" fill="white" style="fill:white;fill-opacity:1;"/>
<path opacity="0.5" d="M136.915 110.61L116.875 111.245C115.327 109.298 114.484 106.885 114.484 104.397C114.484 101.91 115.327 99.4965 116.875 97.55C120.8 95.83 126.01 96.62 129.65 99.005C133.5 101.55 135.925 106 136.915 110.61Z" fill="white" style="fill:white;fill-opacity:1;"/>
<path d="M186.065 158.615C186.064 160.058 185.489 161.442 184.468 162.462C183.447 163.482 182.063 164.055 180.62 164.055H132.855L108.075 118C107.633 117.188 107.401 116.279 107.4 115.355C107.404 114.878 107.466 114.403 107.585 113.94C107.85 112.924 108.397 112.002 109.162 111.283C109.927 110.563 110.879 110.073 111.91 109.87C112.268 109.795 112.634 109.758 113 109.76H137.5C139.354 109.762 141.167 110.297 142.725 111.303C144.282 112.308 145.516 113.741 146.28 115.43L153.78 132.045L163.965 152.415C163.965 152.415 175.53 152.805 180.9 152.415C186.27 152.025 186.065 158.615 186.065 158.615Z" fill="#EB4A41" style="fill:#EB4A41;fill:color(display-p3 0.9216 0.2902 0.2549);fill-opacity:1;"/>
<path opacity="0.5" d="M186.065 158.615C186.064 160.058 185.489 161.442 184.468 162.462C183.447 163.482 182.063 164.055 180.62 164.055H132.855L108.075 118C107.633 117.188 107.401 116.279 107.4 115.355C107.404 114.878 107.466 114.403 107.585 113.94C107.85 112.924 108.397 112.002 109.162 111.283C109.927 110.563 110.879 110.073 111.91 109.87C112.268 109.795 112.634 109.758 113 109.76H137.5C139.354 109.762 141.167 110.297 142.725 111.303C144.282 112.308 145.516 113.741 146.28 115.43L153.78 132.045L163.965 152.415C163.965 152.415 175.53 152.805 180.9 152.415C186.27 152.025 186.065 158.615 186.065 158.615Z" fill="white" style="fill:white;fill-opacity:1;"/>
<path opacity="0.5" d="M159.04 158.615C159.04 160.058 158.467 161.442 157.447 162.462C156.426 163.482 155.043 164.055 153.6 164.055H132.855L108.075 118C107.633 117.188 107.401 116.279 107.4 115.355C107.404 114.878 107.466 114.403 107.585 113.94C107.85 112.924 108.397 112.003 109.162 111.283C109.927 110.563 110.879 110.073 111.91 109.87C113.5 110.111 115.004 110.746 116.285 111.717C117.566 112.688 118.584 113.965 119.245 115.43L126.745 132.045L136.93 152.415C136.93 152.415 148.49 152.805 153.86 152.415C159.23 152.025 159.04 158.615 159.04 158.615Z" fill="white" style="fill:white;fill-opacity:1;"/>
<path d="M192.565 164.5H132.655C131.861 164.5 131.076 164.344 130.342 164.04C129.609 163.736 128.943 163.291 128.382 162.729C127.821 162.168 127.377 161.501 127.073 160.768C126.77 160.035 126.614 159.249 126.615 158.455C126.615 156.853 127.251 155.317 128.384 154.184C129.517 153.051 131.053 152.415 132.655 152.415H192.565C193.359 152.414 194.145 152.57 194.878 152.873C195.611 153.177 196.278 153.621 196.839 154.182C197.401 154.743 197.846 155.409 198.15 156.142C198.454 156.876 198.61 157.661 198.61 158.455C198.61 160.058 197.973 161.596 196.839 162.73C195.706 163.863 194.168 164.5 192.565 164.5Z" fill="#EB4A41" style="fill:#EB4A41;fill:color(display-p3 0.9216 0.2902 0.2549);fill-opacity:1;"/>
<path opacity="0.5" d="M198.605 158.455C198.605 160.057 197.969 161.594 196.836 162.728C195.704 163.861 194.167 164.499 192.565 164.5H132.655C131.053 164.5 129.517 163.864 128.384 162.731C127.251 161.598 126.615 160.062 126.615 158.46C126.615 156.858 127.251 155.322 128.384 154.189C129.517 153.056 131.053 152.42 132.655 152.42H192.565C194.166 152.42 195.702 153.056 196.834 154.187C197.967 155.319 198.604 156.854 198.605 158.455Z" fill="white" style="fill:white;fill-opacity:1;"/>
<path d="M223.63 179.13L203.86 154.785C203.248 154.031 202.46 153.44 201.565 153.063C200.671 152.687 199.697 152.536 198.73 152.625H173.61C172.09 152.495 170.579 152.959 169.395 153.92C168.179 154.907 167.405 156.336 167.243 157.893C167.081 159.451 167.544 161.009 168.53 162.225L188.305 186.575C188.857 187.255 189.553 187.804 190.344 188.181C191.134 188.558 191.999 188.754 192.875 188.755H219C220.121 188.766 221.222 188.458 222.174 187.867C223.126 187.276 223.89 186.426 224.377 185.417C224.865 184.407 225.054 183.28 224.925 182.167C224.795 181.054 224.351 180 223.645 179.13H223.63Z" fill="#EB4A41" style="fill:#EB4A41;fill:color(display-p3 0.9216 0.2902 0.2549);fill-opacity:1;"/>
<path opacity="0.2" d="M196.605 187.435C196.004 187.924 195.312 188.289 194.569 188.51C193.827 188.731 193.048 188.804 192.277 188.724C191.506 188.644 190.759 188.413 190.077 188.045C189.396 187.676 188.793 187.176 188.305 186.575L168.53 162.225C167.544 161.009 167.081 159.451 167.243 157.893C167.405 156.336 168.179 154.907 169.395 153.92C169.996 153.431 170.688 153.066 171.431 152.844C172.174 152.623 172.953 152.551 173.724 152.631C174.495 152.711 175.243 152.943 175.924 153.313C176.606 153.682 177.207 154.183 177.695 154.785L197.47 179.13C197.959 179.732 198.325 180.424 198.546 181.168C198.767 181.911 198.84 182.69 198.759 183.462C198.679 184.233 198.447 184.981 198.078 185.663C197.708 186.345 197.208 186.947 196.605 187.435Z" fill="white" style="fill:white;fill-opacity:1;"/>
<path opacity="0.5" d="M223.63 179.13L203.86 154.785C203.248 154.031 202.46 153.44 201.565 153.063C200.671 152.687 199.697 152.536 198.73 152.625H173.61C172.09 152.495 170.579 152.959 169.395 153.92C168.179 154.907 167.405 156.336 167.243 157.893C167.081 159.451 167.544 161.009 168.53 162.225L188.305 186.575C188.857 187.255 189.553 187.804 190.344 188.181C191.134 188.558 191.999 188.754 192.875 188.755H219C220.121 188.766 221.222 188.458 222.174 187.867C223.126 187.276 223.89 186.426 224.377 185.417C224.865 184.407 225.054 183.28 224.925 182.167C224.795 181.054 224.351 180 223.645 179.13H223.63Z" fill="white" style="fill:white;fill-opacity:1;"/>
<path d="M112.865 202.57H108.67V206.765H112.865V202.57Z" fill="#283237" style="fill:#283237;fill:color(display-p3 0.1569 0.1961 0.2157);fill-opacity:1;"/>
<path d="M155.255 202.57H151.06V206.765H155.255V202.57Z" fill="#283237" style="fill:#283237;fill:color(display-p3 0.1569 0.1961 0.2157);fill-opacity:1;"/>
<path d="M150.655 202.57H146.46V206.765H150.655V202.57Z" fill="#283237" style="fill:#283237;fill:color(display-p3 0.1569 0.1961 0.2157);fill-opacity:1;"/>
<path d="M193.045 202.57H188.85V206.765H193.045V202.57Z" fill="#283237" style="fill:#283237;fill:color(display-p3 0.1569 0.1961 0.2157);fill-opacity:1;"/>
<path d="M177.625 202.57H114L126.74 176.885H177.625V202.57Z" fill="#283237" style="fill:#283237;fill:color(display-p3 0.1569 0.1961 0.2157);fill-opacity:1;"/>
<path opacity="0.2" d="M177.625 202.57H114L126.74 176.885H177.625V202.57Z" fill="white" style="fill:white;fill-opacity:1;"/>
<path opacity="0.2" d="M151.09 202.57H114L126.74 176.885H151.09V202.57Z" fill="white" style="fill:white;fill-opacity:1;"/>
<path d="M196.23 199.715H107.005L104.67 205.01H198.565L196.23 199.715Z" fill="#283237" style="fill:#283237;fill:color(display-p3 0.1569 0.1961 0.2157);fill-opacity:1;"/>
<path opacity="0.2" d="M157.345 199.715H107.005L104.67 205.01H156.565L157.345 199.715Z" fill="white" style="fill:white;fill-opacity:1;"/>
<path d="M170.405 134.08H135.755C134.156 134.08 132.86 135.376 132.86 136.975V138.065C132.86 139.664 134.156 140.96 135.755 140.96H170.405C172.004 140.96 173.3 139.664 173.3 138.065V136.975C173.3 135.376 172.004 134.08 170.405 134.08Z" fill="#EB4A41" style="fill:#EB4A41;fill:color(display-p3 0.9216 0.2902 0.2549);fill-opacity:1;"/>
<path opacity="0.5" d="M170.405 134.08H135.755C134.156 134.08 132.86 135.376 132.86 136.975V138.065C132.86 139.664 134.156 140.96 135.755 140.96H170.405C172.004 140.96 173.3 139.664 173.3 138.065V136.975C173.3 135.376 172.004 134.08 170.405 134.08Z" fill="white" style="fill:white;fill-opacity:1;"/>
<path opacity="0.5" d="M173.295 137.5C173.295 136.588 172.933 135.713 172.287 135.068C171.642 134.422 170.767 134.06 169.855 134.06H136.3C135.388 134.06 134.513 134.422 133.868 135.068C133.222 135.713 132.86 136.588 132.86 137.5H173.295Z" fill="white" style="fill:white;fill-opacity:1;"/>
<path d="M153.605 134.725C150.361 136.74 146.816 138.225 143.105 139.125L135.105 141.06C134.425 139.51 132.135 136.34 127.685 127.735C127.145 126.851 126.664 125.932 126.245 124.985C125.31 122.956 124.59 120.834 124.095 118.655C123.804 117.391 123.602 116.108 123.49 114.815C123.492 114.803 123.492 114.792 123.49 114.78C123.355 114.506 123.276 114.207 123.258 113.902C123.24 113.597 123.282 113.292 123.384 113.003C123.486 112.715 123.644 112.45 123.849 112.223C124.054 111.997 124.303 111.814 124.58 111.685H124.62C125.72 111.135 127.12 110.48 128.51 109.93C131.172 108.866 133.89 107.945 136.65 107.17C137.581 106.946 138.524 106.779 139.475 106.67C140.128 106.567 140.797 106.628 141.421 106.849C142.044 107.07 142.602 107.443 143.045 107.935C145 110 149.295 118.14 153.605 134.725Z" fill="#283237" style="fill:#283237;fill:color(display-p3 0.1569 0.1961 0.2157);fill-opacity:1;"/>
<g opacity="0.7">
<path d="M150.335 123.685C148.38 124.09 146.255 124.435 144.64 124.685C144.375 123.77 143.97 122.865 143.64 121.98L149 120C149.437 121.133 149.882 122.362 150.335 123.685Z" fill="white" style="fill:white;fill-opacity:1;"/>
</g>
<path d="M134.5 110.335C130.545 111.925 128.255 110.005 128.255 110.005C129.425 107.635 127.125 103.095 125.63 100.68L128.42 101.745L132.22 103.195C132.268 103.622 132.342 104.046 132.44 104.465C132.507 104.766 132.601 105.061 132.72 105.345V105.39C133.22 106.575 134.22 107.39 136.27 107.19C136.28 107.2 137.855 108.965 134.5 110.335Z" fill="#A76056" style="fill:#A76056;fill:color(display-p3 0.6549 0.3765 0.3373);fill-opacity:1;"/>
<path d="M131.12 96.95C131.12 96.95 132.805 97.805 133.195 95.745C131.515 94.645 131.985 94.155 131.325 92.97C130.992 92.2588 130.472 91.651 129.822 91.2109C129.171 90.7708 128.414 90.5148 127.63 90.47L126.45 91.22C122.645 94.62 131.12 96.95 131.12 96.95Z" fill="#283237" style="fill:#283237;fill:color(display-p3 0.1569 0.1961 0.2157);fill-opacity:1;"/>
<path d="M121.96 97.415C121.567 96.1625 121.687 94.8052 122.295 93.6415C122.903 92.4779 123.948 91.6033 125.2 91.21C128.98 89.925 133.155 93.665 134.83 96.665C135.278 97.4348 135.507 98.3122 135.492 99.2026C135.478 100.093 135.221 100.963 134.748 101.717C134.276 102.472 133.606 103.084 132.812 103.486C132.017 103.888 131.128 104.066 130.24 104C127.495 103.825 126.04 102.175 123.325 99.575C122.691 98.9854 122.22 98.2411 121.96 97.415Z" fill="#A76056" style="fill:#A76056;fill:color(display-p3 0.6549 0.3765 0.3373);fill-opacity:1;"/>
<path d="M133.5 97.8101C132.303 98.2506 131.155 98.8153 130.075 99.4951C130.435 99.8827 130.923 100.127 131.449 100.182C131.975 100.237 132.503 100.1 132.935 99.7951C133.262 99.6269 133.51 99.3379 133.626 98.9895C133.743 98.6412 133.719 98.2611 133.56 97.9301L133.5 97.8101Z" fill="#283237" style="fill:#283237;fill:color(display-p3 0.1569 0.1961 0.2157);fill-opacity:1;"/>
<path d="M132.025 99.465C132.49 99.1588 133.047 99.0244 133.6 99.085C133.467 99.3825 133.238 99.6271 132.95 99.78C132.488 100.089 131.932 100.224 131.38 100.16C131.51 99.8617 131.737 99.6166 132.025 99.465Z" fill="#EC6259" style="fill:#EC6259;fill:color(display-p3 0.9255 0.3843 0.3490);fill-opacity:1;"/>
<path d="M133.395 97.855C133.425 97.9644 133.426 98.08 133.397 98.1898C133.368 98.2997 133.31 98.3998 133.23 98.48C132.506 98.8935 131.747 99.24 130.96 99.515C130.836 99.5685 130.7 99.5883 130.565 99.5725C130.431 99.5567 130.303 99.5058 130.195 99.425C131.214 98.8103 132.285 98.285 133.395 97.855Z" fill="white" style="fill:white;fill-opacity:1;"/>
<path d="M126.925 103L123.25 101C123.679 99.4012 124.363 97.8818 125.275 96.5L125.465 96.595L126.925 103Z" fill="#A76056" style="fill:#A76056;fill:color(display-p3 0.6549 0.3765 0.3373);fill-opacity:1;"/>
<path opacity="0.2" d="M126.925 103L123.25 101C123.679 99.4012 124.363 97.8818 125.275 96.5L125.465 96.595L126.925 103Z" fill="black" style="fill:black;fill-opacity:1;"/>
<path d="M125.275 96.53C124.363 97.9118 123.679 99.4312 123.25 101.03L120.955 99.78L122.75 95.24L125.275 96.53Z" fill="#283237" style="fill:#283237;fill:color(display-p3 0.1569 0.1961 0.2157);fill-opacity:1;"/>
<path d="M132.17 97.3299C132.395 97.2176 132.593 97.0573 132.749 96.8603C132.905 96.6633 133.017 96.4345 133.075 96.1899C132.078 95.9985 131.111 95.674 130.2 95.2249L132.17 97.3299Z" fill="#90312A" style="fill:#90312A;fill:color(display-p3 0.5647 0.1922 0.1647);fill-opacity:1;"/>
<path d="M123.81 100.315C124.53 99.7051 125.985 100.17 126.765 100.685C127.64 101.26 127.84 102.185 126.88 102.505C126.096 102.731 125.258 102.676 124.51 102.35C123.57 101.945 123.095 100.925 123.81 100.315Z" fill="#A76056" style="fill:#A76056;fill:color(display-p3 0.6549 0.3765 0.3373);fill-opacity:1;"/>
<path d="M128.34 96.3049C128.49 96.1799 128.805 96.2749 128.99 96.4799C129.175 96.6849 129.22 96.9799 129.07 97.1049C128.92 97.2299 128.65 97.1399 128.425 96.9349C128.2 96.7299 128.185 96.4349 128.34 96.3049Z" fill="#283237" style="fill:#283237;fill:color(display-p3 0.1569 0.1961 0.2157);fill-opacity:1;"/>
<path d="M130.815 93.935C130.97 93.805 131.255 93.88 131.465 94.105C131.675 94.33 131.72 94.605 131.565 94.745C131.41 94.885 131.125 94.795 130.915 94.57C130.705 94.345 130.665 94.06 130.815 93.935Z" fill="#283237" style="fill:#283237;fill:color(display-p3 0.1569 0.1961 0.2157);fill-opacity:1;"/>
<path d="M129.58 93.3249C129.609 93.3297 129.638 93.3277 129.666 93.3191C129.694 93.3104 129.719 93.2952 129.74 93.2749C129.89 93.1005 130.076 92.9618 130.287 92.8692C130.497 92.7767 130.725 92.7324 130.955 92.7399C130.977 92.7434 131 92.7425 131.022 92.7371C131.044 92.7316 131.065 92.7219 131.083 92.7084C131.101 92.6949 131.116 92.6779 131.128 92.6584C131.139 92.6389 131.147 92.6173 131.15 92.5949C131.154 92.5481 131.141 92.5014 131.112 92.4642C131.083 92.4271 131.041 92.4023 130.995 92.3949C130.712 92.3807 130.429 92.432 130.169 92.5447C129.909 92.6574 129.678 92.8286 129.495 93.0449C129.462 93.0793 129.444 93.1249 129.444 93.1724C129.444 93.2199 129.462 93.2655 129.495 93.2999C129.521 93.3138 129.55 93.3223 129.58 93.3249Z" fill="#283237" style="fill:#283237;fill:color(display-p3 0.1569 0.1961 0.2157);fill-opacity:1;"/>
<path d="M127.22 96.4649C127.246 96.4518 127.269 96.4328 127.286 96.4094C127.304 96.3859 127.315 96.3587 127.32 96.3299C127.328 96.1 127.388 95.8749 127.496 95.672C127.605 95.4691 127.758 95.2939 127.945 95.1599C127.965 95.1495 127.984 95.1349 127.998 95.1172C128.013 95.0994 128.023 95.0788 128.029 95.0567C128.036 95.0346 128.037 95.0114 128.034 94.9887C128.03 94.966 128.022 94.9443 128.01 94.9249C127.985 94.8848 127.946 94.856 127.9 94.8448C127.854 94.8335 127.806 94.8408 127.765 94.8649C127.53 95.0281 127.335 95.2434 127.196 95.494C127.058 95.7446 126.978 96.0237 126.965 96.3099C126.964 96.3335 126.967 96.3572 126.975 96.3795C126.983 96.4019 126.995 96.4225 127.011 96.4401C127.026 96.4578 127.045 96.4722 127.067 96.4824C127.088 96.4926 127.111 96.4986 127.135 96.4999C127.166 96.4955 127.195 96.4835 127.22 96.4649Z" fill="#283237" style="fill:#283237;fill:color(display-p3 0.1569 0.1961 0.2157);fill-opacity:1;"/>
<path d="M213.965 164.265L213.1 167.24L209.325 165.145L208.26 164.555L207.525 164.145L209.775 161.11L210.23 161.455L211.235 162.21L213.965 164.265Z" fill="#A76056" style="fill:#A76056;fill:color(display-p3 0.6549 0.3765 0.3373);fill-opacity:1;"/>
<path d="M220.675 162.435C219.63 163.75 218.62 164.9 217.86 165.845C216.62 167.385 216.22 168.025 215.27 169.26C215.156 169.402 214.991 169.495 214.81 169.518C214.629 169.541 214.447 169.494 214.3 169.385L211.8 167.105C211.75 167.054 211.721 166.985 211.721 166.913C211.721 166.841 211.75 166.771 211.8 166.72L213.8 163.855C214.17 163.547 214.589 163.304 215.04 163.135C216.4 162.785 217.44 162.75 219.935 160.66C220.07 160.566 220.235 160.526 220.397 160.548C220.56 160.569 220.709 160.65 220.815 160.775C221.13 161.095 221.265 161.705 220.675 162.435Z" fill="#283237" style="fill:#283237;fill:color(display-p3 0.1569 0.1961 0.2157);fill-opacity:1;"/>
<path opacity="0.2" d="M211.055 162.07L209.095 165.03L208.26 164.555L210.23 161.455L211.055 162.07Z" fill="black" style="fill:black;fill-opacity:1;"/>
<path d="M210.545 160.955L207.89 165.145C207.89 165.145 193 159.435 179.97 147.285L180.01 147.07C172.61 148.93 150.94 149.255 147.46 145.57C145.63 143.54 144.345 141.385 144.025 138.73L147.46 137.59C149.27 136.855 152.4 135.745 153.425 134.515C153.425 134.515 173.135 135.72 181.245 139.545C189.745 142.675 210.545 160.955 210.545 160.955Z" fill="#EB4A41" style="fill:#EB4A41;fill:color(display-p3 0.9216 0.2902 0.2549);fill-opacity:1;"/>
<g opacity="0.1">
<path d="M210.545 160.955L207.89 165.145C207.89 165.145 193 159.435 179.97 147.285L180.01 147.07C172.61 148.93 150.94 149.255 147.46 145.57C145.63 143.54 144.345 141.385 144.025 138.73L147.46 137.59C149.27 136.855 152.4 135.745 153.425 134.515C153.425 134.515 173.135 135.72 181.245 139.545C189.745 142.675 210.545 160.955 210.545 160.955Z" fill="black" style="fill:black;fill-opacity:1;"/>
</g>
<path d="M209.945 168.89L208.255 171.52L204.425 169.61L203.095 168.94L205.105 165.615V165.61L209.945 168.89Z" fill="#A76056" style="fill:#A76056;fill:color(display-p3 0.6549 0.3765 0.3373);fill-opacity:1;"/>
<path opacity="0.2" d="M206.415 166.495L204.46 169.53L204.425 169.61L203.095 168.94L205.105 165.615L206.415 166.495Z" fill="black" style="fill:black;fill-opacity:1;"/>
<path d="M205.795 165.19L205.635 165.475L203.05 169.635L177.28 153.5C169.645 155.9 143.6 156.14 139.735 152.5C139.448 152.222 139.176 151.928 138.92 151.62C138.64 151.305 138.385 150.975 138.145 150.645C138.144 150.635 138.144 150.625 138.145 150.615C137.131 148.938 136.38 147.115 135.92 145.21C135.543 143.79 135.257 142.347 135.065 140.89C142.39 139.44 151.205 137.105 153.44 134.5L157.84 141.2C165.25 141.92 176.495 143.7 179.42 144.875C188.5 147.65 205.795 165.19 205.795 165.19Z" fill="#EB4A41" style="fill:#EB4A41;fill:color(display-p3 0.9216 0.2902 0.2549);fill-opacity:1;"/>
<path d="M138.92 151.625C138.645 151.309 138.391 150.975 138.16 150.625C138.385 151 138.64 151.31 138.92 151.625Z" fill="#EB4A41" style="fill:#EB4A41;fill:color(display-p3 0.9216 0.2902 0.2549);fill-opacity:1;"/>
<path d="M216.5 166.11C216.31 166.38 216.115 166.64 215.935 166.9L215.91 166.935L215.34 167.7L215.085 168.04C214.955 168.22 214.815 168.415 214.665 168.61L214.365 169.01L213.765 169.84C212.565 171.535 212.185 172.23 211.265 173.58C211.155 173.735 210.99 173.841 210.803 173.876C210.617 173.912 210.424 173.874 210.265 173.77L207.95 171.885L207.52 171.535C207.491 171.511 207.467 171.481 207.449 171.448C207.432 171.414 207.421 171.378 207.418 171.34C207.414 171.302 207.419 171.264 207.43 171.228C207.442 171.192 207.46 171.159 207.485 171.13L209.395 168.005C209.766 167.662 210.19 167.382 210.65 167.175C212.055 166.725 213.15 166.625 215.625 164.285C216.145 163.765 217.5 164.675 216.5 166.11Z" fill="#283237" style="fill:#283237;fill:color(display-p3 0.1569 0.1961 0.2157);fill-opacity:1;"/>
<path d="M138.13 150.61C136.985 149.004 136.208 147.166 135.855 145.225H135.905C136.365 147.124 137.116 148.94 138.13 150.61Z" fill="#EB4A41" style="fill:#EB4A41;fill:color(display-p3 0.9216 0.2902 0.2549);fill-opacity:1;"/>
<path d="M139.8 134.08H105.15C103.551 134.08 102.255 135.376 102.255 136.975V138.065C102.255 139.664 103.551 140.96 105.15 140.96H139.8C141.399 140.96 142.695 139.664 142.695 138.065V136.975C142.695 135.376 141.399 134.08 139.8 134.08Z" fill="#EB4A41" style="fill:#EB4A41;fill:color(display-p3 0.9216 0.2902 0.2549);fill-opacity:1;"/>
<path opacity="0.5" d="M139.8 134.08H105.15C103.551 134.08 102.255 135.376 102.255 136.975V138.065C102.255 139.664 103.551 140.96 105.15 140.96H139.8C141.399 140.96 142.695 139.664 142.695 138.065V136.975C142.695 135.376 141.399 134.08 139.8 134.08Z" fill="white" style="fill:white;fill-opacity:1;"/>
<path opacity="0.5" d="M142.695 137.5C142.695 136.588 142.333 135.713 141.687 135.068C141.042 134.422 140.167 134.06 139.255 134.06H105.7C105.248 134.059 104.8 134.148 104.382 134.32C103.964 134.493 103.584 134.746 103.264 135.066C102.944 135.385 102.691 135.765 102.517 136.182C102.344 136.6 102.255 137.048 102.255 137.5H142.695Z" fill="white" style="fill:white;fill-opacity:1;"/>
<path d="M135.5 134.61C130.765 135.025 127.87 134.82 123.15 134.8C119.06 134.8 118.48 134.8 118.48 133.48C118.48 131.98 118.83 129.405 118.83 127.92C120.67 128.035 122.305 128.235 124.12 127.92L123.9 130.295C129.045 130.165 130.775 131.69 135.5 132.245V134.61Z" fill="#A76056" style="fill:#A76056;fill:color(display-p3 0.6549 0.3765 0.3373);fill-opacity:1;"/>
<path opacity="0.2" d="M127 126.5C125.7 124.031 124.732 121.402 124.12 118.68L125.12 118.09L127 126.5Z" fill="black" style="fill:black;fill-opacity:1;"/>
<path d="M124.04 112.045C122.17 112.385 120.695 113.925 119.945 115.67C119.195 117.415 118.585 127.29 118.56 126.9H117.92L117.47 130.285C119.875 130.215 122.93 129.995 125.33 129.925C125.33 129.925 125.435 127.785 125.33 126.74L124.695 126.795L126.025 117.87C126.249 116.436 126.132 114.97 125.685 113.59C125.62 113.373 125.531 113.163 125.42 112.965C125.115 112.5 124.615 111.94 124.04 112.045Z" fill="#283237" style="fill:#283237;fill:color(display-p3 0.1569 0.1961 0.2157);fill-opacity:1;"/>
<path d="M145.4 132.07C145.4 132.559 145.255 133.037 144.983 133.443C144.712 133.849 144.326 134.166 143.874 134.353C143.422 134.539 142.926 134.588 142.446 134.492C141.967 134.397 141.527 134.161 141.182 133.815C140.836 133.469 140.602 133.028 140.507 132.549C140.412 132.069 140.462 131.573 140.649 131.121C140.837 130.67 141.155 130.285 141.561 130.014C141.968 129.743 142.446 129.599 142.935 129.6C143.589 129.601 144.216 129.862 144.678 130.325C145.14 130.788 145.4 131.416 145.4 132.07Z" fill="#EB4A41" style="fill:#EB4A41;fill:color(display-p3 0.9216 0.2902 0.2549);fill-opacity:1;"/>
<path d="M142.705 136.04C143.415 135.972 144.112 135.803 144.775 135.54C144.916 135.478 145.044 135.388 145.149 135.276C145.255 135.164 145.338 135.032 145.391 134.887C145.445 134.742 145.469 134.588 145.462 134.434C145.455 134.28 145.417 134.129 145.35 133.99C145.255 133.78 145.155 133.57 145.035 133.36C144.385 133.68 143.595 134.045 142.915 133.785C141.595 133.285 140.825 132.12 139.415 132.09L135.205 132.29C135.012 133.032 134.992 133.809 135.145 134.56C137.555 135.505 140.116 136.006 142.705 136.04Z" fill="#A76056" style="fill:#A76056;fill:color(display-p3 0.6549 0.3765 0.3373);fill-opacity:1;"/>
<path d="M143.295 124.44L140.37 126.305C140.37 126.305 137.255 127.805 136.245 127.05C135.813 126.512 135.458 125.916 135.19 125.28C135.097 125.097 135.063 124.89 135.091 124.687C135.12 124.484 135.21 124.295 135.35 124.145L137.35 122.4C137.786 122.027 138.341 121.822 138.915 121.82H142.66L143.295 124.44Z" fill="#A76056" style="fill:#A76056;fill:color(display-p3 0.6549 0.3765 0.3373);fill-opacity:1;"/>
<path d="M155.7 121.75C155.668 121.8 155.629 121.845 155.585 121.885C155.538 121.933 155.486 121.977 155.43 122.015C155.37 122.065 155.307 122.11 155.24 122.15C154.907 122.35 154.555 122.518 154.19 122.65C154.09 122.69 153.98 122.735 153.865 122.77C153.75 122.805 153.64 122.855 153.515 122.89C153.275 122.965 153.015 123.045 152.755 123.115L152.49 123.185L151.74 123.38H151.66C151.235 123.48 150.79 123.58 150.34 123.675C150.288 123.69 150.234 123.7 150.18 123.705C148.68 124.02 147.05 124.295 145.68 124.505C145.495 124.535 145.31 124.565 145.14 124.585L144.64 124.66C144.375 123.74 143.315 122.04 142.985 121.16L148.35 119.205L149.555 118.765C149.555 118.765 148.235 116.67 147.815 116.095C147.395 115.52 147.06 115.06 146.68 114.535C145.05 111.135 143.88 108.755 142.56 107.66C141.93 107.068 141.113 106.715 140.25 106.66C140.25 106.66 143.08 106.02 144.03 106.31C144.975 106.647 145.845 107.167 146.59 107.84C149.411 110.09 151.873 112.758 153.89 115.75C153.925 115.805 153.975 115.875 154.02 115.955C154.205 116.235 154.385 116.52 154.555 116.805C155.425 118.225 156.54 120.55 155.7 121.75Z" fill="#283237" style="fill:#283237;fill:color(display-p3 0.1569 0.1961 0.2157);fill-opacity:1;"/>
<path opacity="0.2" d="M148.685 117.39L147.22 115.35C146.72 114.235 146.275 113.245 145.84 112.375L146.415 112.925C147.646 114.12 148.445 115.691 148.685 117.39Z" fill="black" style="fill:black;fill-opacity:1;"/>
<path d="M146.075 125.64C145.082 125.326 144.032 125.234 143 125.37C142.45 123.82 141.852 122.288 141.205 120.775C142.154 120.351 143.169 120.09 144.205 120.005C144.81 121.845 145.81 123.73 146.075 125.64Z" fill="#283237" style="fill:#283237;fill:color(display-p3 0.1569 0.1961 0.2157);fill-opacity:1;"/>
<path opacity="0.1" d="M146.075 125.64C145.082 125.326 144.032 125.234 143 125.37C142.45 123.82 141.852 122.288 141.205 120.775C142.154 120.351 143.169 120.09 144.205 120.005C144.81 121.845 145.81 123.73 146.075 125.64Z" fill="white" style="fill:white;fill-opacity:1;"/>
<path d="M121.16 99.92C120.2 99.255 119.765 98.045 119.63 96.885C119.495 95.725 120.735 95.5 120.595 94.34C120.455 93.18 119.995 91.97 119.025 91.34C119.86 91.565 120.92 91.385 121.675 91.805C121.15 90.9224 120.316 90.2666 119.335 89.965C120.696 89.8635 122.064 90.0143 123.37 90.41C123.28 89.41 122.37 88.085 121.775 87.265L125.07 89.265C125.395 88.5081 125.435 87.6586 125.18 86.875C126.21 87.985 128.45 90.335 128.45 90.335L128.95 91.255C126.95 91.455 127.375 92.525 127.375 92.525C127.375 92.525 122.805 92.855 121.16 99.92Z" fill="#283237" style="fill:#283237;fill:color(display-p3 0.1569 0.1961 0.2157);fill-opacity:1;"/>
<path opacity="0.1" d="M117.92 126.91L125.34 126.75L125.33 129.935L117.47 130.295L117.92 126.91Z" fill="white" style="fill:white;fill-opacity:1;"/>
<path d="M56.255 200.07L59.835 201.975L60.175 196.295L56.495 196.09L56.255 200.07Z" fill="#EA9B90" style="fill:#EA9B90;fill:color(display-p3 0.9176 0.6078 0.5647);fill-opacity:1;"/>
<path d="M60 201.07L56.205 199.365C56.1382 199.335 56.0634 199.329 55.9926 199.347C55.9219 199.365 55.8593 199.407 55.815 199.465L53.815 202.18C53.7303 202.299 53.696 202.447 53.7194 202.591C53.7428 202.735 53.822 202.864 53.94 202.95L54.045 203.01C55.38 203.58 56.045 203.79 57.735 204.54C58.735 205 61.38 206.305 62.805 206.94C64.23 207.575 65.035 206.255 64.51 205.865C62.15 204.12 60.98 202.65 60.48 201.525C60.3844 201.317 60.2125 201.154 60 201.07Z" fill="#283237" style="fill:#283237;fill:color(display-p3 0.1569 0.1961 0.2157);fill-opacity:1;"/>
<path opacity="0.2" d="M60.175 196.3L60.11 198.15L56.43 197.93L56.495 196.09L60.175 196.3Z" fill="black" style="fill:black;fill-opacity:1;"/>
<path d="M66.11 116.235C66.855 120.67 65.54 142.235 64.11 151.77C62.23 164.41 60.8 197.53 60.8 197.53L55.885 197.15C55.885 197.15 54.385 162.42 55.565 152.265C55.22 139.165 54.2 116.265 54.2 116.265L66.11 116.235Z" fill="#EB4A41" style="fill:#EB4A41;fill:color(display-p3 0.9216 0.2902 0.2549);fill-opacity:1;"/>
<path opacity="0.1" d="M66.11 116.235C66.855 120.67 65.54 142.235 64.11 151.77C62.23 164.41 60.8 197.53 60.8 197.53L55.885 197.15C55.885 197.15 54.385 162.42 55.565 152.265C55.22 139.165 54.2 116.265 54.2 116.265L66.11 116.235Z" fill="black" style="fill:black;fill-opacity:1;"/>
<path opacity="0.2" d="M54.795 130.54C54.675 127.22 57.075 124.315 57.915 130.59C58.445 134.59 57.09 141.54 55.385 146.44C55.22 141.305 55 135.59 54.795 130.54Z" fill="black" style="fill:black;fill-opacity:1;"/>
<path d="M29.32 191.325L32.11 193.1L34.62 189.06L31.83 187.285L29.32 191.325Z" fill="#EA9B90" style="fill:#EA9B90;fill:color(display-p3 0.9176 0.6078 0.5647);fill-opacity:1;"/>
<path d="M32.54 193.035L29.47 190.21C29.4188 190.161 29.3508 190.134 29.28 190.134C29.2092 190.134 29.1412 190.161 29.09 190.21L26.59 192.425C26.5309 192.484 26.484 192.553 26.4519 192.63C26.4199 192.707 26.4034 192.789 26.4034 192.872C26.4034 192.956 26.4199 193.038 26.4519 193.115C26.484 193.192 26.5309 193.261 26.59 193.32C27.67 194.29 28.24 194.695 29.59 195.945C30.42 196.705 31.415 197.79 32.56 198.85C33.705 199.91 34.75 198.78 34.365 198.235C32.63 195.78 32.99 194.93 32.8 193.635C32.7787 193.413 32.6877 193.203 32.54 193.035Z" fill="#283237" style="fill:#283237;fill:color(display-p3 0.1569 0.1961 0.2157);fill-opacity:1;"/>
<path opacity="0.2" d="M34.62 189.065L33.49 190.875L30.665 189.01L31.825 187.285L34.62 189.065Z" fill="black" style="fill:black;fill-opacity:1;"/>
<path d="M58.775 121.33C58.775 121.33 54.135 149.33 51.445 159.915C49.5 167.535 34.6 190.215 34.6 190.215L30.79 187.945C30.79 187.945 35.915 169.1 44.055 159.135C44.555 147.3 43.555 127.79 48.245 121.37L58.775 121.33Z" fill="#EB4A41" style="fill:#EB4A41;fill:color(display-p3 0.9216 0.2902 0.2549);fill-opacity:1;"/>
<path opacity="0.1" d="M58.775 121.33C58.775 121.33 54.135 149.33 51.445 159.915C49.5 167.535 34.6 190.215 34.6 190.215L30.79 187.945C30.79 187.945 35.915 169.1 44.055 159.135C44.555 147.3 43.555 127.79 48.245 121.37L58.775 121.33Z" fill="black" style="fill:black;fill-opacity:1;"/>
<path d="M65.81 97.8101C67.49 96.1101 69.065 94.3601 70.605 92.5451C72.145 90.7301 73.64 88.8851 75.04 86.9251L75.305 86.5601L75.59 86.1351C75.775 85.8501 75.945 85.5651 76.09 85.2801C76.4 84.7051 76.66 84.1151 76.925 83.5601C77.4065 82.4313 77.8288 81.2781 78.19 80.1051C78.8856 77.8135 79.412 75.4739 79.765 73.1051C79.8313 72.8452 79.7916 72.5696 79.6547 72.339C79.5178 72.1083 79.2949 71.9414 79.035 71.8751C78.7751 71.8088 78.4995 71.8485 78.2688 71.9854C78.0381 72.1223 77.8713 72.3452 77.805 72.6051C77.025 74.7601 76.19 76.9401 75.305 79.0151C74.855 80.0601 74.365 81.0751 73.845 82.0401C73.585 82.5401 73.31 82.9801 73.025 83.4151C72.885 83.6351 72.735 83.8401 72.59 84.0401L72.365 84.3251L72.105 84.6501C70.655 86.4101 69.105 88.1501 67.605 89.8601C66.105 91.5701 64.47 93.2801 62.905 94.9501C62.7107 95.1428 62.5569 95.3725 62.4527 95.6255C62.3486 95.8786 62.2961 96.1499 62.2985 96.4236C62.3009 96.6972 62.358 96.9676 62.4666 97.2189C62.5751 97.4701 62.7328 97.697 62.9305 97.8863C63.1281 98.0756 63.3616 98.2234 63.6173 98.321C63.8729 98.4186 64.1456 98.464 64.4191 98.4546C64.6926 98.4452 64.9614 98.3811 65.2097 98.2661C65.4581 98.1511 65.6809 97.9876 65.865 97.7851L65.81 97.8101Z" fill="#EA9B90" style="fill:#EA9B90;fill:color(display-p3 0.9176 0.6078 0.5647);fill-opacity:1;"/>
<path d="M77.835 73.3402L77.545 70.0452L81.075 71.5002C81.075 71.5002 80.68 73.4552 79.21 74.2252L77.835 73.3402Z" fill="#EA9B90" style="fill:#EA9B90;fill:color(display-p3 0.9176 0.6078 0.5647);fill-opacity:1;"/>
<path d="M64.225 92.0001C63.79 91.4051 70.36 86.3101 70.36 86.3101L71.5 93.6401C71.5 93.6401 70.19 96.3451 68.285 97.8201C66.38 99.2951 63.435 94.3501 64.225 92.0001Z" fill="#EB4A41" style="fill:#EB4A41;fill:color(display-p3 0.9216 0.2902 0.2549);fill-opacity:1;"/>
<path d="M80.165 68.0301L81.45 69.0301C81.5936 69.1398 81.697 69.2939 81.744 69.4684C81.791 69.6429 81.7791 69.8281 81.71 69.9951L81.075 71.4951L77.545 70.0401L79.02 68.1701C79.1539 68.0007 79.3493 67.8909 79.5637 67.8647C79.7781 67.8385 79.9942 67.8979 80.165 68.0301Z" fill="#EA9B90" style="fill:#EA9B90;fill:color(display-p3 0.9176 0.6078 0.5647);fill-opacity:1;"/>
<path d="M68.385 94.4002C68.445 101.795 67.01 107.56 66.385 112.645C66.305 113.29 66.18 115.425 66.81 119.875C67.2387 123.527 67.4824 127.199 67.54 130.875L44.305 129.41C45.07 119.445 49.965 113.41 49.96 112.04C49.96 107.91 49.51 103.685 47.71 95.5952C47.512 94.6994 47.6778 93.7617 48.1709 92.9882C48.6641 92.2146 49.4443 91.6686 50.34 91.4702C50.4436 91.4446 50.5488 91.4262 50.655 91.4152C51.655 91.2852 52.71 91.1702 53.805 91.1152C56.2612 90.9302 58.7274 90.9202 61.185 91.0852C62.915 91.2352 64.77 91.5252 66.095 91.7452C66.7268 91.8503 67.3019 92.1734 67.7202 92.6585C68.1386 93.1435 68.3738 93.7598 68.385 94.4002Z" fill="#EB4A41" style="fill:#EB4A41;fill:color(display-p3 0.9216 0.2902 0.2549);fill-opacity:1;"/>
<path d="M64.5 100.9H64.2L63.805 99.71C63.7875 99.6572 63.7829 99.601 63.7915 99.546C63.8 99.4911 63.8216 99.4389 63.8543 99.394C63.8871 99.349 63.9301 99.3125 63.9798 99.2874C64.0294 99.2624 64.0844 99.2496 64.14 99.25H64.56C64.6156 99.2496 64.6706 99.2624 64.7202 99.2874C64.7699 99.3125 64.8129 99.349 64.8457 99.394C64.8784 99.4389 64.9 99.4911 64.9086 99.546C64.9171 99.601 64.9125 99.6572 64.895 99.71L64.5 100.9Z" fill="#283237" style="fill:#283237;fill:color(display-p3 0.1569 0.1961 0.2157);fill-opacity:1;"/>
<path d="M64.36 99.68C64.8156 99.68 65.185 99.3107 65.185 98.855C65.185 98.3994 64.8156 98.03 64.36 98.03C63.9044 98.03 63.535 98.3994 63.535 98.855C63.535 99.3107 63.9044 99.68 64.36 99.68Z" fill="#EB4A41" style="fill:#EB4A41;fill:color(display-p3 0.9216 0.2902 0.2549);fill-opacity:1;"/>
<path opacity="0.5" d="M64.36 99.365C64.6416 99.365 64.87 99.1366 64.87 98.855C64.87 98.5733 64.6416 98.345 64.36 98.345C64.0783 98.345 63.85 98.5733 63.85 98.855C63.85 99.1366 64.0783 99.365 64.36 99.365Z" fill="white" style="fill:white;fill-opacity:1;"/>
<path d="M66.63 100.36H62.095C61.7498 100.36 61.47 100.64 61.47 100.985V103.35C61.47 103.695 61.7498 103.975 62.095 103.975H66.63C66.9752 103.975 67.255 103.695 67.255 103.35V100.985C67.255 100.64 66.9752 100.36 66.63 100.36Z" fill="#EB4A41" style="fill:#EB4A41;fill:color(display-p3 0.9216 0.2902 0.2549);fill-opacity:1;"/>
<path opacity="0.8" d="M66.63 100.36H62.095C61.7498 100.36 61.47 100.64 61.47 100.985V103.35C61.47 103.695 61.7498 103.975 62.095 103.975H66.63C66.9752 103.975 67.255 103.695 67.255 103.35V100.985C67.255 100.64 66.9752 100.36 66.63 100.36Z" fill="white" style="fill:white;fill-opacity:1;"/>
<path d="M66.575 100.56H62.14C61.8804 100.56 61.67 100.77 61.67 101.03V103.295C61.67 103.555 61.8804 103.765 62.14 103.765H66.575C66.8346 103.765 67.045 103.555 67.045 103.295V101.03C67.045 100.77 66.8346 100.56 66.575 100.56Z" fill="#EB4A41" style="fill:#EB4A41;fill:color(display-p3 0.9216 0.2902 0.2549);fill-opacity:1;"/>
<path opacity="0.5" d="M66.575 100.56H62.14C61.8804 100.56 61.67 100.77 61.67 101.03V103.295C61.67 103.555 61.8804 103.765 62.14 103.765H66.575C66.8346 103.765 67.045 103.555 67.045 103.295V101.03C67.045 100.77 66.8346 100.56 66.575 100.56Z" fill="white" style="fill:white;fill-opacity:1;"/>
<path d="M63.535 101.035H62.235V102.505H63.535V101.035Z" fill="#EB4A41" style="fill:#EB4A41;fill:color(display-p3 0.9216 0.2902 0.2549);fill-opacity:1;"/>
<path d="M64.085 101.545C64.0545 101.545 64.0253 101.533 64.0037 101.511C63.9821 101.49 63.97 101.461 63.97 101.43C63.97 101.4 63.9821 101.37 64.0037 101.349C64.0253 101.327 64.0545 101.315 64.085 101.315H66.5C66.5305 101.315 66.5597 101.327 66.5813 101.349C66.6029 101.37 66.615 101.4 66.615 101.43C66.615 101.461 66.6029 101.49 66.5813 101.511C66.5597 101.533 66.5305 101.545 66.5 101.545H64.085Z" fill="white" style="fill:white;fill-opacity:1;"/>
<path d="M64.085 103C64.0545 103 64.0253 102.988 64.0037 102.966C63.9821 102.945 63.97 102.916 63.97 102.885C63.97 102.855 63.9821 102.825 64.0037 102.804C64.0253 102.782 64.0545 102.77 64.085 102.77H66.5C66.5305 102.77 66.5597 102.782 66.5813 102.804C66.6029 102.825 66.615 102.855 66.615 102.885C66.615 102.916 66.6029 102.945 66.5813 102.966C66.5597 102.988 66.5305 103 66.5 103H64.085Z" fill="white" style="fill:white;fill-opacity:1;"/>
<path d="M64.085 102.28C64.0545 102.28 64.0253 102.268 64.0037 102.246C63.9821 102.225 63.97 102.196 63.97 102.165C63.97 102.135 63.9821 102.105 64.0037 102.084C64.0253 102.062 64.0545 102.05 64.085 102.05H66.5C66.5305 102.05 66.5597 102.062 66.5813 102.084C66.6029 102.105 66.615 102.135 66.615 102.165C66.615 102.196 66.6029 102.225 66.5813 102.246C66.5597 102.268 66.5305 102.28 66.5 102.28H64.085Z" fill="white" style="fill:white;fill-opacity:1;"/>
<path opacity="0.4" d="M61.16 91.105C61.16 91.105 63.775 93 60.9 97.605C58.6399 95.3305 56.2669 93.1711 53.79 91.135L61.16 91.105Z" fill="white" style="fill:white;fill-opacity:1;"/>
<path d="M51.835 117.175H51.395C51.31 117.175 51.24 117.13 51.245 117.075L51.445 115.185C51.445 115.13 51.53 115.085 51.615 115.085H52.06C52.145 115.085 52.21 115.125 52.205 115.185L52.01 117.07C52 117.13 51.925 117.175 51.835 117.175Z" fill="#EB4A41" style="fill:#EB4A41;fill:color(display-p3 0.9216 0.2902 0.2549);fill-opacity:1;"/>
<path d="M64.955 117.13H64.51C64.425 117.13 64.355 117.085 64.36 117.03L64.56 115.14C64.56 115.085 64.645 115.04 64.73 115.04H65.175C65.26 115.04 65.33 115.085 65.32 115.14L65.125 117.03C65.115 117.08 65.04 117.125 64.955 117.13Z" fill="#EB4A41" style="fill:#EB4A41;fill:color(display-p3 0.9216 0.2902 0.2549);fill-opacity:1;"/>
<path d="M58.395 117.15H57.955C57.865 117.15 57.8 117.105 57.805 117.05L58.005 115.16C58.005 115.105 58.085 115.06 58.175 115.06H58.615C58.7 115.06 58.765 115.105 58.76 115.16L58.565 117.05C58.5512 117.083 58.5272 117.11 58.4966 117.128C58.4659 117.146 58.4303 117.154 58.395 117.15Z" fill="#EB4A41" style="fill:#EB4A41;fill:color(display-p3 0.9216 0.2902 0.2549);fill-opacity:1;"/>
<path d="M46.07 96.165C45.305 97.99 44.62 99.805 43.975 101.665C43.66 102.59 43.345 103.515 43.075 104.5C42.7705 105.502 42.5283 106.523 42.35 107.555C42.2969 107.874 42.2635 108.197 42.25 108.52C42.2401 108.771 42.2551 109.022 42.295 109.27C42.295 109.365 42.34 109.465 42.37 109.56L42.415 109.735C42.4405 109.812 42.4723 109.888 42.51 109.96L42.57 110.08V110.135V110.175L42.625 110.255C42.93 110.685 43.2 111.13 43.54 111.535C44.1853 112.376 44.9013 113.161 45.68 113.88C46.477 114.602 47.3544 115.229 48.295 115.75C48.7749 116.016 49.2768 116.24 49.795 116.42C50.055 116.51 50.325 116.595 50.595 116.665L51.02 116.75C51.18 116.78 51.295 116.795 51.52 116.82L51.81 114.82C51.7443 114.78 51.6758 114.745 51.605 114.715L51.335 114.58C51.155 114.485 50.975 114.38 50.8 114.27C50.448 114.032 50.1091 113.775 49.785 113.5C49.1258 112.941 48.5183 112.323 47.97 111.655C47.705 111.3 47.425 110.975 47.18 110.59C46.935 110.205 46.68 109.87 46.455 109.505C46.23 109.14 46.015 108.73 45.785 108.345V108.27V108.23V108.265V108.345C45.785 108.395 45.835 108.46 45.845 108.49C45.8477 108.52 45.8477 108.55 45.845 108.58L45.875 108.695C45.875 108.76 45.875 108.785 45.875 108.695C45.8913 108.534 45.9214 108.375 45.965 108.22C46.1823 107.358 46.4426 106.506 46.745 105.67C47.05 104.795 47.37 103.9 47.705 103.015C48.375 101.24 49.07 99.44 49.755 97.675L46.07 96.165Z" fill="#EA9B90" style="fill:#EA9B90;fill:color(display-p3 0.9176 0.6078 0.5647);fill-opacity:1;"/>
<path d="M56.385 113.05L55.02 112.605C54.9215 112.571 54.8174 112.558 54.7136 112.565C54.6098 112.572 54.5084 112.599 54.4154 112.646C54.3223 112.692 54.2395 112.757 54.1716 112.836C54.1037 112.915 54.0522 113.006 54.02 113.105C53.9749 113.241 53.9687 113.388 54.0023 113.527C54.0359 113.667 54.1078 113.794 54.21 113.895L50.32 125.895C50.2474 126.122 50.2677 126.369 50.3763 126.582C50.4849 126.795 50.6732 126.956 50.9 127.03L51.235 127.14C51.4624 127.213 51.7093 127.192 51.9219 127.084C52.1345 126.975 52.2956 126.787 52.37 126.56L56.26 114.56C56.4009 114.536 56.5325 114.473 56.6408 114.38C56.7491 114.287 56.83 114.166 56.875 114.03C56.9385 113.835 56.9227 113.623 56.831 113.44C56.7393 113.256 56.5791 113.116 56.385 113.05Z" fill="#EB4A41" style="fill:#EB4A41;fill:color(display-p3 0.9216 0.2902 0.2549);fill-opacity:1;"/>
<path opacity="0.6" d="M56.385 113.05L55.02 112.605C54.9215 112.571 54.8174 112.558 54.7136 112.565C54.6098 112.572 54.5084 112.599 54.4154 112.646C54.3223 112.692 54.2395 112.757 54.1716 112.836C54.1037 112.915 54.0522 113.006 54.02 113.105C53.9749 113.241 53.9687 113.388 54.0023 113.527C54.0359 113.667 54.1078 113.794 54.21 113.895L50.32 125.895C50.2474 126.122 50.2677 126.369 50.3763 126.582C50.4849 126.795 50.6732 126.956 50.9 127.03L51.235 127.14C51.4624 127.213 51.7093 127.192 51.9219 127.084C52.1345 126.975 52.2956 126.787 52.37 126.56L56.26 114.56C56.4009 114.536 56.5325 114.473 56.6408 114.38C56.7491 114.287 56.83 114.166 56.875 114.03C56.9385 113.835 56.9227 113.623 56.831 113.44C56.7393 113.256 56.5791 113.116 56.385 113.05Z" fill="white" style="fill:white;fill-opacity:1;"/>
<path d="M54.5 112.62C54.8094 112.891 55.18 113.083 55.58 113.18C55.9607 113.339 56.3746 113.4 56.785 113.36C56.6891 113.214 56.5463 113.104 56.38 113.05L55.015 112.605C54.8465 112.552 54.6652 112.558 54.5 112.62Z" fill="#EB4A41" style="fill:#EB4A41;fill:color(display-p3 0.9216 0.2902 0.2549);fill-opacity:1;"/>
<path d="M53.42 119.88C53.065 119.765 52.81 119.585 52.84 119.47L50.71 126.045C50.6898 126.108 50.6822 126.174 50.6876 126.239C50.693 126.305 50.7114 126.369 50.7416 126.428C50.7718 126.486 50.8132 126.538 50.8636 126.581C50.9139 126.623 50.9722 126.655 51.035 126.675L51.37 126.78C51.496 126.821 51.6331 126.81 51.7512 126.75C51.8693 126.69 51.9588 126.586 52 126.46L54.13 119.885C54.085 120 53.77 120 53.42 119.88Z" fill="#EB4A41" style="fill:#EB4A41;fill:color(display-p3 0.9216 0.2902 0.2549);fill-opacity:1;"/>
<path d="M54.13 119.885C54.095 120 53.775 119.995 53.42 119.885C53.065 119.775 52.8 119.585 52.84 119.47C52.88 119.355 53.195 119.355 53.55 119.47C53.905 119.585 54.17 119.77 54.13 119.885Z" fill="#EB4A41" style="fill:#EB4A41;fill:color(display-p3 0.9216 0.2902 0.2549);fill-opacity:1;"/>
<path opacity="0.3" d="M54.13 119.885C54.095 120 53.775 119.995 53.42 119.885C53.065 119.775 52.8 119.585 52.84 119.47C52.88 119.355 53.195 119.355 53.55 119.47C53.905 119.585 54.17 119.77 54.13 119.885Z" fill="black" style="fill:black;fill-opacity:1;"/>
<g opacity="0.8">
<path d="M54.56 114.115C53.2733 118.092 51.9867 122.067 50.7 126.04C50.6925 126.088 50.7024 126.138 50.7279 126.179C50.7535 126.221 50.7929 126.252 50.8393 126.267C50.8856 126.282 50.9358 126.28 50.9808 126.261C51.0258 126.243 51.0628 126.209 51.085 126.165C52.3683 122.188 53.655 118.213 54.945 114.24C54.9525 114.192 54.9426 114.143 54.9171 114.101C54.8915 114.06 54.8521 114.029 54.8057 114.014C54.7594 113.999 54.7092 114.001 54.6642 114.019C54.6192 114.038 54.5822 114.072 54.56 114.115Z" fill="white" style="fill:white;fill-opacity:1;"/>
</g>
<path d="M50.37 116.63L54 118L54.58 114.5C54.58 114.5 52.465 114 51.17 115L50.37 116.63Z" fill="#EA9B90" style="fill:#EA9B90;fill:color(display-p3 0.9176 0.6078 0.5647);fill-opacity:1;"/>
<path d="M56.185 117.725L56.685 116.46C56.7778 116.217 56.7723 115.947 56.6696 115.708C56.5669 115.47 56.3751 115.28 56.135 115.18L54.57 114.53L54 118L55 118.31C55.2349 118.373 55.4848 118.349 55.7029 118.241C55.921 118.133 56.0924 117.95 56.185 117.725Z" fill="#EA9B90" style="fill:#EA9B90;fill:color(display-p3 0.9176 0.6078 0.5647);fill-opacity:1;"/>
<path d="M54.08 93.41C55.08 97.695 48.335 104.91 48.335 104.91L42.86 99C42.86 99 45.5 93.605 48.86 91.96C51.195 90.82 53.64 91.5 54.08 93.41Z" fill="#EB4A41" style="fill:#EB4A41;fill:color(display-p3 0.9216 0.2902 0.2549);fill-opacity:1;"/>
<path d="M54.5 82.8252C55 85.1952 55.46 89.5402 53.805 91.1302C56.3469 92.1814 58.6816 93.6763 60.7 95.5452C62.555 92.2702 61.2 91.1002 61.2 91.1002C58.555 90.4802 58.61 88.5152 59.065 86.6702L54.5 82.8252Z" fill="#EA9B90" style="fill:#EA9B90;fill:color(display-p3 0.9176 0.6078 0.5647);fill-opacity:1;"/>
<path opacity="0.2" d="M55 83.2451C55.0393 84.656 55.3803 86.042 56 87.3101C56.435 88.1851 57.62 88.5701 58.82 88.6601C58.7912 87.9858 58.8671 87.3112 59.045 86.6601L55 83.2451Z" fill="black" style="fill:black;fill-opacity:1;"/>
<path d="M57.72 71.8852C57.61 71.6002 57.935 71.3352 58.22 71.2602C58.6299 71.1565 59.0626 71.1918 59.4502 71.3605C59.8379 71.5292 60.1587 71.8217 60.3622 72.1922C60.5658 72.5628 60.6407 72.9904 60.5751 73.408C60.5096 73.8257 60.3073 74.2098 60 74.5002C60.1 74.2702 60.565 74.0002 60.785 74.1102C60.9938 74.252 61.1432 74.4655 61.205 74.7102C61.2916 74.9152 61.3176 75.1408 61.28 75.3602C61.262 75.4709 61.2099 75.5732 61.131 75.6529C61.0522 75.7327 60.9505 75.7859 60.84 75.8052C61.3514 76.2416 61.7321 76.8109 61.94 77.4502C62.0239 77.7763 62.0051 78.1204 61.886 78.4354C61.767 78.7504 61.5536 79.021 61.275 79.2102C61.86 79.6452 62.405 80.2402 62.345 80.9652C62.31 81.3309 62.1842 81.6821 61.979 81.9868C61.7738 82.2916 61.4957 82.5402 61.17 82.7102C61.495 83.3302 62.1 84.0152 61.805 84.6452C61.435 85.4302 60.255 85.6852 60.09 86.5352C60.415 86.6202 60.755 86.6402 61.09 86.7252C61.1963 86.9431 61.2457 87.1845 61.2334 87.4267C61.2212 87.6689 61.1478 87.904 61.02 88.1102C60.85 88.3202 60.52 88.1852 60.25 88.1752C60.116 88.154 59.9788 88.1661 59.8506 88.2106C59.7224 88.2551 59.6071 88.3305 59.515 88.4302C59.4711 88.5062 59.448 88.5924 59.448 88.6802C59.448 88.768 59.4711 88.8542 59.515 88.9302C59.9091 89.1306 60.3358 89.2593 60.775 89.3102C60.4411 89.3878 60.0951 89.3985 59.7571 89.3419C59.419 89.2853 59.0954 89.1623 58.805 88.9802C58.5186 88.8088 58.278 88.5705 58.1038 88.2857C57.9297 88.001 57.8271 87.6782 57.805 87.3452C57.805 86.4302 58.5 85.6852 59.165 85.0502C59.295 84.9252 59.48 84.6902 59.32 84.6052C59.2368 84.5707 59.1476 84.5529 59.0575 84.5529C58.9674 84.5529 58.8782 84.5707 58.795 84.6052C58.6284 84.6779 58.4452 84.7038 58.265 84.6802C57.9662 84.3574 57.7123 83.9958 57.51 83.6052C57.285 83.2184 57.2221 82.7582 57.335 82.3252C57.4483 82.0256 57.618 81.7507 57.835 81.5152C57.9919 81.2973 58.1867 81.1093 58.41 80.9602C58.67 80.8102 59.02 80.7152 59.095 80.4252C59.1125 80.3017 59.0867 80.1759 59.022 80.0693C58.9573 79.9626 58.8576 79.8817 58.74 79.8402C58.5032 79.7603 58.2549 79.7197 58.005 79.7202C57.7524 79.7193 57.5094 79.6228 57.325 79.4502C57.115 79.2102 56.875 78.7452 57.005 78.4502C57.0941 78.305 57.2114 78.1792 57.35 78.0802C57.8495 77.565 58.1958 76.921 58.35 76.2202C58.3718 76.1519 58.3718 76.0785 58.35 76.0102C58.3 75.8502 58.07 75.8352 57.93 75.9252C57.8072 76.0338 57.6904 76.149 57.58 76.2702C57.455 76.3752 57.24 76.4202 57.14 76.2702C56.875 75.9252 54.465 74.8452 56.485 72.5402C56.655 72.3452 56.695 72.0652 56.895 71.9002C57.0172 71.8202 57.1594 71.7764 57.3053 71.7738C57.4513 71.7711 57.595 71.8097 57.72 71.8852Z" fill="#283237" style="fill:#283237;fill:color(display-p3 0.1569 0.1961 0.2157);fill-opacity:1;"/>
<path d="M50.695 79.8702C51.86 83.6702 52.245 85.3001 54.695 86.8201C58.33 89.1001 62.74 86.8551 62.755 82.8201C62.755 79.1601 60.86 73.5652 56.755 72.9252C55.8432 72.7777 54.9088 72.8659 54.0408 73.1815C53.1727 73.497 52.3997 74.0293 51.7954 74.7278C51.1911 75.4264 50.7755 76.2678 50.5882 77.1723C50.4008 78.0767 50.4479 79.014 50.725 79.8951L50.695 79.8702Z" fill="#EA9B90" style="fill:#EA9B90;fill:color(display-p3 0.9176 0.6078 0.5647);fill-opacity:1;"/>
<path d="M49.23 73.2001C49.275 72.8951 48.895 72.7001 48.59 72.7001C48.1653 72.6895 47.7493 72.8208 47.4076 73.0731C47.0659 73.3255 46.8181 73.6846 46.7034 74.0936C46.5887 74.5026 46.6136 74.9382 46.7741 75.3314C46.9347 75.7247 47.2218 76.0532 47.59 76.2651C47.44 76.0601 46.925 75.8901 46.74 76.0601C46.5696 76.2463 46.4719 76.4877 46.465 76.7401C46.4289 76.9611 46.4548 77.1879 46.54 77.3951C46.5854 77.497 46.6599 77.5832 46.7543 77.6428C46.8486 77.7024 46.9584 77.7328 47.07 77.7301C46.6738 78.2717 46.4334 78.9115 46.375 79.5801C46.3693 79.917 46.4675 80.2475 46.6563 80.5266C46.845 80.8057 47.1152 81.0199 47.43 81.1401C46.96 81.7001 46.565 82.4001 46.79 83.0951C46.9074 83.4427 47.1098 83.7556 47.3787 84.0053C47.6476 84.255 47.9746 84.4337 48.33 84.5251C48.155 85.2001 47.72 86.0251 48.155 86.5551C48.695 87.2351 49.9 87.2101 50.255 88.0001C49.96 88.1551 49.635 88.2551 49.34 88.4101C49.2834 88.6461 49.2891 88.8928 49.3566 89.126C49.4241 89.3592 49.551 89.5708 49.725 89.7401C49.935 89.9101 50.225 89.7001 50.485 89.6301C50.6109 89.579 50.7473 89.5595 50.8825 89.5735C51.0176 89.5874 51.1472 89.6343 51.26 89.7101C51.326 89.7731 51.3735 89.8531 51.3973 89.9412C51.4211 90.0294 51.4203 90.1223 51.395 90.2101C51.34 90.3851 50.47 90.7901 50.255 90.8701C50.9484 90.8666 51.6121 90.5878 52.1 90.0951C52.339 89.8635 52.5181 89.5773 52.6218 89.2611C52.7255 88.9449 52.7506 88.6082 52.695 88.2801C52.5 87.3851 51.635 86.8201 50.845 86.3551C50.69 86.2651 50.455 86.0801 50.59 85.9601C50.7367 85.8612 50.9148 85.8202 51.09 85.8451C51.2673 85.8808 51.4512 85.8652 51.62 85.8001C51.8426 85.4186 52.0109 85.008 52.12 84.5801C52.1857 84.3685 52.2089 84.1461 52.1883 83.9256C52.1677 83.705 52.1037 83.4908 52 83.2951C51.8186 83.0269 51.5858 82.7975 51.315 82.6201C51.1099 82.4465 50.8765 82.3094 50.625 82.2151C50.34 82.1301 49.975 82.1201 49.84 81.8551C49.7934 81.7385 49.7889 81.6093 49.8272 81.4898C49.8655 81.3703 49.9443 81.2678 50.05 81.2001C50.2637 81.0696 50.4965 80.9734 50.74 80.9151C50.9851 80.8572 51.1994 80.709 51.34 80.5001C51.436 80.3451 51.4937 80.1695 51.5085 79.9878C51.5233 79.8061 51.4947 79.6235 51.425 79.4551C51.3043 79.3332 51.1596 79.2379 51 79.1751C50.4063 78.7792 49.9311 78.2297 49.625 77.5851C49.5834 77.5263 49.5592 77.457 49.555 77.3851C49.555 77.2201 49.79 77.1501 49.945 77.2051C50.0907 77.2822 50.231 77.369 50.365 77.4651C50.515 77.5401 50.73 77.5301 50.8 77.3801C50.975 76.9901 53.075 75.3801 50.58 73.6001C50.375 73.4501 50.265 73.1851 50.04 73.0751C49.9069 73.0175 49.7603 72.9987 49.617 73.0208C49.4737 73.0429 49.3395 73.1051 49.23 73.2001Z" fill="#283237" style="fill:#283237;fill:color(display-p3 0.1569 0.1961 0.2157);fill-opacity:1;"/>
<path d="M53.19 72.1151C55.735 69.7801 58.54 70.7201 60.01 71.4851C60.7491 71.8745 61.3982 72.4148 61.915 73.0712C62.4318 73.7276 62.8049 74.4853 63.01 75.2951C63.165 75.9301 63.01 77.4001 61.775 77.7951C61.4313 77.0556 60.9493 76.3886 60.355 75.8301C59.435 75.1001 57.715 75.0251 57.03 75.2301C56.3666 76.8026 55.4643 78.2631 54.355 79.5601C53.265 80.7651 51.66 81.6201 50.055 81.3951C49.3042 80.4715 48.8176 79.3619 48.6468 78.184C48.4761 77.0061 48.6275 75.8039 49.085 74.7051C50.07 72.5451 53.19 72.1151 53.19 72.1151Z" fill="#283237" style="fill:#283237;fill:color(display-p3 0.1569 0.1961 0.2157);fill-opacity:1;"/>
<path d="M49.835 82C49.9441 82.3666 50.1255 82.7077 50.3685 83.0031C50.6115 83.2985 50.9113 83.5422 51.25 83.72C52.15 84.18 52.81 83.43 52.75 82.47C52.68 81.605 52.125 80.32 51.135 80.25C50.9205 80.2399 50.7068 80.2831 50.5131 80.3758C50.3194 80.4685 50.1516 80.6077 50.0248 80.7811C49.898 80.9544 49.8162 81.1564 49.7865 81.3691C49.7569 81.5818 49.7804 81.7986 49.855 82H49.835Z" fill="#EA9B90" style="fill:#EA9B90;fill:color(display-p3 0.9176 0.6078 0.5647);fill-opacity:1;"/>
<path d="M56.6 79.655C56.675 79.97 56.9 80.185 57.1 80.155C57.3 80.125 57.405 79.8101 57.335 79.5001C57.265 79.1901 57.03 78.9701 56.835 79.0001C56.64 79.0301 56.525 79.34 56.6 79.655Z" fill="#283237" style="fill:#283237;fill:color(display-p3 0.1569 0.1961 0.2157);fill-opacity:1;"/>
<path d="M60.15 78.8151C60.22 79.1301 60.445 79.3451 60.65 79.3151C60.855 79.2851 60.96 78.9751 60.885 78.6551C60.81 78.3351 60.585 78.1301 60.385 78.1551C60.185 78.1801 60.07 78.5001 60.15 78.8151Z" fill="#283237" style="fill:#283237;fill:color(display-p3 0.1569 0.1961 0.2157);fill-opacity:1;"/>
<path d="M60.3 78.195L61 77.8C61 77.8 60.755 78.5 60.3 78.195Z" fill="#283237" style="fill:#283237;fill:color(display-p3 0.1569 0.1961 0.2157);fill-opacity:1;"/>
<path d="M59.35 79.5752C59.7992 80.2241 60.3341 80.8094 60.94 81.3152C60.8107 81.4724 60.6481 81.5989 60.4639 81.6853C60.2797 81.7718 60.0785 81.8162 59.875 81.8152L59.35 79.5752Z" fill="#EC6259" style="fill:#EC6259;fill:color(display-p3 0.9255 0.3843 0.3490);fill-opacity:1;"/>
<path d="M59.095 83.0002C59.1107 82.9865 59.1215 82.968 59.1257 82.9475C59.1299 82.9271 59.1272 82.9059 59.1181 82.8871C59.109 82.8683 59.094 82.8531 59.0753 82.8437C59.0567 82.8343 59.0355 82.8313 59.015 82.8352C58.6298 82.9494 58.2232 82.9713 57.828 82.8992C57.4328 82.8271 57.0601 82.663 56.74 82.4202C56.721 82.4079 56.6982 82.4029 56.6758 82.4059C56.6533 82.4089 56.6327 82.4199 56.6177 82.4368C56.6026 82.4536 56.594 82.4753 56.5936 82.498C56.5931 82.5206 56.6007 82.5427 56.615 82.5602C56.957 82.8288 57.3589 83.0105 57.7865 83.0898C58.2141 83.169 58.6545 83.1434 59.07 83.0152L59.095 83.0002Z" fill="#283237" style="fill:#283237;fill:color(display-p3 0.1569 0.1961 0.2157);fill-opacity:1;"/>
<path d="M55.5 78.64C55.5268 78.62 55.5489 78.5944 55.565 78.5651C55.6537 78.3451 55.7933 78.1492 55.9723 77.9936C56.1514 77.8381 56.3648 77.7272 56.595 77.67C56.6203 77.6669 56.6447 77.6587 56.6668 77.6459C56.6889 77.6331 56.7081 77.616 56.7235 77.5956C56.7388 77.5752 56.7498 77.5519 56.756 77.5272C56.7621 77.5024 56.7632 77.4767 56.7591 77.4515C56.7551 77.4263 56.7461 77.4022 56.7325 77.3806C56.719 77.359 56.7012 77.3403 56.6803 77.3257C56.6594 77.3111 56.6357 77.3009 56.6108 77.2956C56.5858 77.2903 56.56 77.2901 56.535 77.295C56.2419 77.3618 55.969 77.4979 55.7393 77.6919C55.5096 77.8859 55.3298 78.1322 55.215 78.4101C55.2052 78.4333 55.2002 78.4583 55.2002 78.4836C55.2002 78.5088 55.2053 78.5338 55.215 78.5571C55.2248 78.5804 55.2391 78.6014 55.2572 78.6191C55.2752 78.6368 55.2965 78.6507 55.32 78.6601C55.3491 78.6729 55.3811 78.6778 55.4127 78.6743C55.4443 78.6708 55.4744 78.659 55.5 78.64Z" fill="#283237" style="fill:#283237;fill:color(display-p3 0.1569 0.1961 0.2157);fill-opacity:1;"/>
<path d="M61.16 77.285H61.185C61.2028 77.2674 61.217 77.2463 61.2267 77.2232C61.2363 77.2 61.2413 77.1751 61.2413 77.15C61.2413 77.1249 61.2363 77.1001 61.2267 77.0769C61.217 77.0537 61.2028 77.0327 61.185 77.015C60.9712 76.8101 60.7125 76.6582 60.4294 76.5714C60.1463 76.4845 59.8469 76.4652 59.555 76.515C59.507 76.5269 59.4654 76.5571 59.4393 76.5991C59.4131 76.6411 59.4044 76.6917 59.415 76.74C59.4209 76.7643 59.4315 76.7873 59.4462 76.8075C59.461 76.8277 59.4795 76.8448 59.5009 76.8578C59.5223 76.8708 59.546 76.8795 59.5707 76.8833C59.5955 76.8871 59.6207 76.886 59.645 76.88C59.8794 76.84 60.12 76.8563 60.347 76.9276C60.5739 76.9989 60.7806 77.1231 60.95 77.29C60.9811 77.3113 61.0181 77.3222 61.0558 77.3213C61.0935 77.3204 61.1299 77.3077 61.16 77.285Z" fill="#283237" style="fill:#283237;fill:color(display-p3 0.1569 0.1961 0.2157);fill-opacity:1;"/>
<path d="M56.75 79.0401L57.455 78.6401C57.455 78.6401 57.21 79.3251 56.75 79.0401Z" fill="#283237" style="fill:#283237;fill:color(display-p3 0.1569 0.1961 0.2157);fill-opacity:1;"/>
<path d="M95 192.765C94.8011 192.765 94.6103 192.686 94.4697 192.545C94.329 192.405 94.25 192.214 94.25 192.015V50.0649C94.25 49.866 94.329 49.6753 94.4697 49.5346C94.6103 49.394 94.8011 49.3149 95 49.3149C95.1989 49.3149 95.3897 49.394 95.5303 49.5346C95.671 49.6753 95.75 49.866 95.75 50.0649V192C95.752 192.1 95.7341 192.199 95.6973 192.292C95.6605 192.384 95.6055 192.469 95.5357 192.54C95.4659 192.611 95.3825 192.668 95.2905 192.706C95.1985 192.745 95.0998 192.765 95 192.765Z" fill="#283237" style="fill:#283237;fill:color(display-p3 0.1569 0.1961 0.2157);fill-opacity:1;"/>
<path d="M112.87 58.4351H77.275C77.0761 58.4351 76.8853 58.356 76.7447 58.2154C76.604 58.0747 76.525 57.884 76.525 57.6851C76.525 57.4861 76.604 57.2954 76.7447 57.1547C76.8853 57.0141 77.0761 56.9351 77.275 56.9351H112.87C113.069 56.9351 113.26 57.0141 113.4 57.1547C113.541 57.2954 113.62 57.4861 113.62 57.6851C113.62 57.884 113.541 58.0747 113.4 58.2154C113.26 58.356 113.069 58.4351 112.87 58.4351Z" fill="#283237" style="fill:#283237;fill:color(display-p3 0.1569 0.1961 0.2157);fill-opacity:1;"/>
<path d="M85 200.195L93.36 199.37V185.87H96.675V199.37L105.07 200.195C105.472 200.235 105.844 200.423 106.115 200.722C106.386 201.022 106.536 201.411 106.535 201.815V203.07H83.5V201.815C83.5 201.406 83.6546 201.011 83.9326 200.711C84.2107 200.411 84.5919 200.226 85 200.195Z" fill="#283237" style="fill:#283237;fill:color(display-p3 0.1569 0.1961 0.2157);fill-opacity:1;"/>
<path opacity="0.2" d="M85 200.195L93.36 199.37V185.87H96.675V199.37L105.07 200.195C105.472 200.235 105.844 200.423 106.115 200.722C106.386 201.022 106.536 201.411 106.535 201.815V203.07H83.5V201.815C83.5 201.406 83.6546 201.011 83.9326 200.711C84.2107 200.411 84.5919 200.226 85 200.195Z" fill="white" style="fill:white;fill-opacity:1;"/>
<path d="M103.47 204.625C103.469 205.054 103.595 205.474 103.833 205.832C104.071 206.189 104.41 206.468 104.806 206.633C105.203 206.798 105.639 206.842 106.06 206.759C106.482 206.676 106.869 206.469 107.173 206.166C107.477 205.863 107.684 205.476 107.768 205.055C107.852 204.634 107.809 204.198 107.645 203.801C107.481 203.404 107.203 203.065 106.846 202.826C106.489 202.587 106.069 202.46 105.64 202.46C105.355 202.459 105.073 202.515 104.81 202.623C104.547 202.732 104.307 202.891 104.106 203.092C103.904 203.293 103.744 203.532 103.635 203.795C103.526 204.058 103.47 204.34 103.47 204.625Z" fill="#283237" style="fill:#283237;fill:color(display-p3 0.1569 0.1961 0.2157);fill-opacity:1;"/>
<path d="M86.57 204.625C86.571 205.055 86.4444 205.475 86.2063 205.832C85.9683 206.19 85.6294 206.469 85.2327 206.634C84.836 206.799 84.3993 206.842 83.9779 206.759C83.5565 206.675 83.1693 206.468 82.8656 206.164C82.5618 205.861 82.355 205.473 82.2714 205.052C82.1879 204.631 82.2313 204.194 82.3961 203.797C82.561 203.401 82.8399 203.062 83.1975 202.824C83.5551 202.586 83.9754 202.459 84.405 202.46C84.6893 202.46 84.9708 202.516 85.2335 202.625C85.4962 202.734 85.7348 202.893 85.9359 203.094C86.1369 203.295 86.2964 203.534 86.4052 203.796C86.514 204.059 86.57 204.341 86.57 204.625Z" fill="#283237" style="fill:#283237;fill:color(display-p3 0.1569 0.1961 0.2157);fill-opacity:1;"/>
<path d="M90.325 78.0299C89.73 79.1749 88.825 80.1799 88.61 80.1799C88.535 80.1799 88.44 80.3899 88.345 80.6799C88.2141 81.0637 87.9651 81.3961 87.6337 81.6296C87.3023 81.8632 86.9054 81.9858 86.5 81.9799H82.295C81.8896 81.9858 81.4927 81.8632 81.1613 81.6296C80.8299 81.3961 80.5809 81.0637 80.45 80.6799C80.36 80.4049 80.265 80.1799 80.185 80.1799C79.96 80.1799 79.065 79.1799 78.47 78.0299C77.875 76.8799 78.545 72.5849 78.845 70.9349C79.145 69.2849 77.875 65.7049 78.845 64.2699C79.675 63.0399 89.12 63.0399 89.95 64.2699C90.92 65.7049 89.655 69.2699 89.95 70.9349C90.245 72.5999 90.92 76.8849 90.325 78.0299Z" fill="#EB4A41" style="fill:#EB4A41;fill:color(display-p3 0.9216 0.2902 0.2549);fill-opacity:1;"/>
<path opacity="0.5" d="M90.325 78.0299C89.73 79.1749 88.825 80.1799 88.61 80.1799C88.535 80.1799 88.44 80.3899 88.345 80.6799C88.2141 81.0637 87.9651 81.3961 87.6337 81.6296C87.3023 81.8632 86.9054 81.9858 86.5 81.9799H82.295C81.8896 81.9858 81.4927 81.8632 81.1613 81.6296C80.8299 81.3961 80.5809 81.0637 80.45 80.6799C80.36 80.4049 80.265 80.1799 80.185 80.1799C79.96 80.1799 79.065 79.1799 78.47 78.0299C77.875 76.8799 78.545 72.5849 78.845 70.9349C79.145 69.2849 77.875 65.7049 78.845 64.2699C79.675 63.0399 89.12 63.0399 89.95 64.2699C90.92 65.7049 89.655 69.2699 89.95 70.9349C90.245 72.5999 90.92 76.8849 90.325 78.0299Z" fill="white" style="fill:white;fill-opacity:1;"/>
<path d="M86 61.6299H82.755L81.755 63.5099H87L86 61.6299ZM84.45 62.9999C83.625 62.9999 82.95 62.7899 82.95 62.5399C82.95 62.2899 83.62 62.0799 84.45 62.0799C85.28 62.0799 85.95 62.2849 85.95 62.5399C85.95 62.7949 85.275 62.9999 84.45 62.9999Z" fill="#EB4A41" style="fill:#EB4A41;fill:color(display-p3 0.9216 0.2902 0.2549);fill-opacity:1;"/>
<path d="M79.68 70.9399C79.94 69.4399 78.835 66.2049 79.68 64.9049C80.405 63.7899 88.62 63.7899 89.35 64.9049C90.19 66.2049 89.09 69.4449 89.35 70.9399C89.61 72.4349 90.19 76.3249 89.67 77.3649C89.15 78.4049 88.375 79.3099 88.17 79.3099C88.105 79.3099 88.02 79.5049 87.94 79.7549C87.8571 80.0222 87.7083 80.2644 87.5074 80.4592C87.3065 80.6541 87.0598 80.7953 86.79 80.8699L86.84 83.4649C86.84 83.5762 86.7957 83.6831 86.717 83.7618C86.6382 83.8406 86.5314 83.8849 86.42 83.8849C86.3081 83.8849 86.2008 83.8408 86.1212 83.7621C86.0417 83.6835 85.9963 83.5767 85.995 83.4649L85.96 81.4349C85.96 81.3022 85.9073 81.1751 85.8135 81.0813C85.7198 80.9875 85.5926 80.9349 85.46 80.9349H85.415C85.2824 80.9349 85.1552 80.9875 85.0614 81.0813C84.9677 81.1751 84.915 81.3022 84.915 81.4349L84.95 83.4349C84.95 83.5462 84.9057 83.6531 84.827 83.7318C84.7482 83.8106 84.6414 83.8549 84.53 83.8549C84.4186 83.8549 84.3118 83.8106 84.233 83.7318C84.1542 83.6531 84.11 83.5462 84.11 83.4349L84.07 81.4049C84.07 81.2722 84.0173 81.1451 83.9235 81.0513C83.8298 80.9575 83.7026 80.9049 83.57 80.9049H83.3C83.1674 80.9049 83.0402 80.9575 82.9464 81.0513C82.8527 81.1451 82.8 81.2722 82.8 81.4049L82.84 83.4049C82.8286 83.509 82.7792 83.6053 82.7013 83.6752C82.6233 83.7451 82.5222 83.7838 82.4175 83.7838C82.3127 83.7838 82.2117 83.7451 82.1337 83.6752C82.0557 83.6053 82.0063 83.509 81.995 83.4049L81.945 80.6799C81.7489 80.5758 81.5754 80.4339 81.4346 80.2622C81.2938 80.0905 81.1886 79.8926 81.125 79.6799C81.045 79.4299 80.96 79.2349 80.895 79.2349C80.7 79.2349 79.92 78.3249 79.395 77.2899C78.87 76.2549 79.455 72.3549 79.715 70.8649" fill="white" style="fill:white;fill-opacity:1;"/>
<path d="M88.145 68.4998C88.145 68.8298 87.885 68.9998 87.38 68.9998H86.38V67.0898H87.31C87.81 67.0898 88.035 67.2898 88.035 67.5898C88.0372 67.6769 88.0143 67.7628 87.9691 67.8372C87.9239 67.9117 87.8583 67.9716 87.78 68.0098C87.8865 68.0397 87.98 68.104 88.0461 68.1926C88.1121 68.2813 88.1469 68.3893 88.145 68.4998ZM86.835 67.4448V67.8948H87.275C87.49 67.8948 87.605 67.8148 87.605 67.6648C87.605 67.5148 87.49 67.4448 87.275 67.4448H86.835ZM87.7 68.4448C87.7 68.2848 87.58 68.2098 87.35 68.2098H86.85V68.6798H87.35C87.58 68.6798 87.7 68.6098 87.7 68.4448Z" fill="black" style="fill:black;fill-opacity:1;"/>
<path d="M89.35 70.94C89.605 72.44 90.19 76.325 89.67 77.365C89.15 78.405 88.375 79.31 88.17 79.31C88.105 79.31 88.02 79.505 87.94 79.755C87.8571 80.0223 87.7083 80.2645 87.5074 80.4594C87.3065 80.6542 87.0598 80.7954 86.79 80.87L86.84 83.465C86.84 83.5764 86.7957 83.6832 86.717 83.762C86.6382 83.8407 86.5314 83.885 86.42 83.885C86.3081 83.885 86.2008 83.8409 86.1212 83.7623C86.0417 83.6837 85.9963 83.5768 85.995 83.465L85.96 81.435C85.96 81.3024 85.9073 81.1752 85.8135 81.0814C85.7198 80.9877 85.5926 80.935 85.46 80.935H85.415C85.2824 80.935 85.1552 80.9877 85.0614 81.0814C84.9677 81.1752 84.915 81.3024 84.915 81.435L84.95 83.435C84.95 83.5464 84.9057 83.6532 84.827 83.732C84.7482 83.8107 84.6414 83.855 84.53 83.855C84.4186 83.855 84.3118 83.8107 84.233 83.732C84.1542 83.6532 84.11 83.5464 84.11 83.435L84.07 81.405C84.07 81.2724 84.0173 81.1452 83.9235 81.0514C83.8298 80.9577 83.7026 80.905 83.57 80.905H83.3C83.1674 80.905 83.0402 80.9577 82.9464 81.0514C82.8527 81.1452 82.8 81.2724 82.8 81.405L82.84 83.405C82.8286 83.5091 82.7792 83.6054 82.7013 83.6753C82.6233 83.7453 82.5222 83.784 82.4175 83.784C82.3127 83.784 82.2117 83.7453 82.1337 83.6753C82.0557 83.6054 82.0063 83.5091 81.995 83.405L81.945 80.68C81.7489 80.576 81.5754 80.434 81.4346 80.2623C81.2938 80.0906 81.1886 79.8927 81.125 79.68C81.045 79.43 80.96 79.235 80.895 79.235C80.7 79.235 79.92 78.325 79.395 77.29C78.87 76.255 79.455 72.355 79.715 70.865C81.1988 71.672 82.861 72.0947 84.55 72.0947C86.239 72.0947 87.9012 71.672 89.385 70.865L89.35 70.94Z" fill="#EB4A41" style="fill:#EB4A41;fill:color(display-p3 0.9216 0.2902 0.2549);fill-opacity:1;"/>
<path opacity="0.2" d="M81.66 82.8149H83.09V83.6899C83.0887 83.8363 83.0296 83.9762 82.9257 84.0792C82.8217 84.1822 82.6813 84.2399 82.535 84.2399H82.21C82.0641 84.2399 81.9242 84.182 81.8211 84.0788C81.7179 83.9757 81.66 83.8358 81.66 83.6899V82.8149Z" fill="white" style="fill:white;fill-opacity:1;"/>
<path opacity="0.2" d="M85.72 82.8149H87.145V83.6899C87.145 83.8358 87.0871 83.9757 86.9839 84.0788C86.8808 84.182 86.7409 84.2399 86.595 84.2399H86.27C86.1241 84.2399 85.9842 84.182 85.8811 84.0788C85.7779 83.9757 85.72 83.8358 85.72 83.6899V82.8149Z" fill="white" style="fill:white;fill-opacity:1;"/>
<path d="M86.06 63.2251C85.5525 63.2237 85.0662 63.0216 84.7073 62.6627C84.3485 62.3039 84.1463 61.8175 84.145 61.3101V57.6851C84.145 57.6188 84.1713 57.5552 84.2182 57.5083C84.2651 57.4614 84.3287 57.4351 84.395 57.4351C84.4613 57.4351 84.5249 57.4614 84.5718 57.5083C84.6187 57.5552 84.645 57.6188 84.645 57.6851V61.3101C84.645 61.6853 84.7941 62.0452 85.0594 62.3106C85.3248 62.576 85.6847 62.7251 86.06 62.7251C86.4353 62.7251 86.7952 62.576 87.0605 62.3106C87.3259 62.0452 87.475 61.6853 87.475 61.3101V60.8601C87.475 60.7938 87.5013 60.7302 87.5482 60.6833C87.5951 60.6364 87.6587 60.6101 87.725 60.6101C87.7913 60.6101 87.8549 60.6364 87.9018 60.6833C87.9487 60.7302 87.975 60.7938 87.975 60.8601V61.3101C87.9737 61.8175 87.7715 62.3039 87.4126 62.6627C87.0538 63.0216 86.5675 63.2237 86.06 63.2251Z" fill="#EB4A41" style="fill:#EB4A41;fill:color(display-p3 0.9216 0.2902 0.2549);fill-opacity:1;"/>
<path d="M124.115 131.06H117.115C112.804 131.061 108.535 130.213 104.552 128.564C100.569 126.915 96.9496 124.497 93.9013 121.449C90.8529 118.4 88.4351 114.781 86.786 110.798C85.1368 106.815 84.2887 102.546 84.29 98.235V83.615H84.79V98.235C84.7887 102.48 85.6239 106.684 87.2479 110.607C88.8719 114.529 91.2529 118.093 94.2548 121.095C97.2567 124.097 100.821 126.478 104.743 128.102C108.666 129.726 112.87 130.561 117.115 130.56H124.115V131.06Z" fill="#EB4A41" style="fill:#EB4A41;fill:color(display-p3 0.9216 0.2902 0.2549);fill-opacity:1;"/>
<path d="M125.99 131.265H122.22L122.5 130.355H126.215L125.99 131.265Z" fill="white" style="fill:white;fill-opacity:1;"/>
<path d="M125.6 129.89C124.835 130.15 123.995 131.445 123.915 132.105H123.065C123.065 131.36 123.95 130.105 124.755 129.89H125.6Z" fill="#EB4A41" style="fill:#EB4A41;fill:color(display-p3 0.9216 0.2902 0.2549);fill-opacity:1;"/>
</svg>
