<svg width="250" height="250" viewBox="0 0 250 250" fill="none" xmlns="http://www.w3.org/2000/svg">
<path d="M182.605 176.86H182.5C178.435 176.8 175.29 174.325 174.5 170.55C174.15 169.387 174.126 168.15 174.431 166.974C174.735 165.798 175.355 164.728 176.225 163.88C178.19 161.91 181.175 161.06 183.645 161.765C185.785 162.375 187.27 164.05 187.84 166.485C188.085 167.352 188.086 168.269 187.842 169.137C187.599 170.004 187.12 170.787 186.46 171.4C185.767 172.091 184.906 172.589 183.962 172.846C183.017 173.103 182.023 173.109 181.075 172.865C179.575 172.395 178.575 171.165 178.195 169.395C178.04 168.866 178.02 168.306 178.137 167.767C178.254 167.228 178.504 166.727 178.865 166.31C179.263 165.862 179.76 165.513 180.316 165.291C180.873 165.069 181.473 164.979 182.07 165.03C182.631 165.127 183.153 165.384 183.571 165.771C183.989 166.158 184.285 166.658 184.425 167.21C184.521 167.673 184.461 168.155 184.254 168.581C184.048 169.006 183.708 169.352 183.285 169.565C183.002 169.742 182.665 169.814 182.334 169.767C182.002 169.721 181.698 169.559 181.475 169.31C181.294 169.147 181.175 168.926 181.141 168.684C181.106 168.443 181.157 168.197 181.285 167.99C181.353 167.875 181.463 167.792 181.592 167.759C181.721 167.725 181.858 167.745 181.973 167.812C182.087 167.88 182.17 167.99 182.204 168.119C182.237 168.248 182.218 168.385 182.15 168.5C182.195 168.58 182.266 168.643 182.35 168.68C182.408 168.707 182.472 168.718 182.536 168.713C182.6 168.708 182.662 168.686 182.715 168.65C182.949 168.549 183.142 168.371 183.262 168.145C183.382 167.92 183.422 167.661 183.375 167.41C183.281 167.071 183.095 166.764 182.839 166.524C182.582 166.283 182.264 166.117 181.92 166.045C181.492 166.012 181.061 166.078 180.663 166.24C180.265 166.401 179.909 166.653 179.625 166.975C179.372 167.267 179.198 167.62 179.121 168C179.044 168.379 179.066 168.772 179.185 169.14C179.475 170.565 180.22 171.495 181.355 171.845C182.123 172.031 182.927 172.017 183.688 171.804C184.45 171.592 185.144 171.187 185.705 170.63C186.232 170.145 186.614 169.523 186.808 168.833C187.001 168.143 186.998 167.413 186.8 166.725C186.18 164.075 184.57 163.105 183.33 162.75C181.245 162.155 178.615 162.915 176.935 164.595C176.188 165.318 175.658 166.235 175.405 167.243C175.151 168.251 175.184 169.31 175.5 170.3C176.35 174.3 179.675 175.775 182.5 175.8C185.625 175.845 189.42 174.07 190.38 170.085C190.413 169.952 190.496 169.838 190.613 169.767C190.73 169.696 190.87 169.675 191.003 169.707C191.135 169.74 191.249 169.824 191.32 169.94C191.391 170.057 191.413 170.197 191.38 170.33C190.305 174.835 186.1 176.86 182.605 176.86Z" fill="#EBEBEB" style="fill:#EBEBEB;fill:color(display-p3 0.9216 0.9216 0.9216);fill-opacity:1;"/>
<path d="M41.5 188.2L41.575 188.3C43.995 191.565 43.935 195.565 41.42 198.49C40.708 199.475 39.7393 200.245 38.6195 200.716C37.4997 201.188 36.2719 201.343 35.07 201.165C33.7308 200.993 32.4588 200.478 31.3776 199.67C30.2965 198.861 29.4429 197.786 28.9 196.55C28.09 194.485 28.52 192.28 30.11 190.35C30.6511 189.63 31.3805 189.074 32.2178 188.742C33.0551 188.41 33.9677 188.316 34.855 188.47C35.8237 188.601 36.7414 188.983 37.5175 189.578C38.2935 190.172 38.901 190.959 39.28 191.86C39.82 193.335 39.465 194.895 38.28 196.255C37.953 196.699 37.52 197.055 37.0205 197.289C36.5209 197.523 35.9707 197.628 35.42 197.595C34.8231 197.55 34.2448 197.367 33.7311 197.06C33.2173 196.752 32.7821 196.33 32.46 195.825C32.1963 195.32 32.0844 194.75 32.1376 194.183C32.1908 193.616 32.407 193.077 32.76 192.63C33.0706 192.273 33.4901 192.028 33.9537 191.933C34.4172 191.838 34.8992 191.899 35.325 192.105C35.6374 192.224 35.8982 192.449 36.0626 192.74C36.2269 193.032 36.2843 193.371 36.225 193.7C36.203 193.943 36.0972 194.171 35.9257 194.344C35.7542 194.517 35.5277 194.625 35.285 194.65C35.2161 194.656 35.1467 194.647 35.0814 194.624C35.016 194.601 34.9561 194.565 34.9053 194.519C34.8546 194.472 34.8141 194.415 34.7865 194.351C34.7589 194.288 34.7448 194.219 34.745 194.15C34.7346 194.024 34.7722 193.899 34.85 193.8C34.9279 193.701 35.0405 193.635 35.165 193.615C35.2022 193.532 35.211 193.439 35.19 193.35C35.1765 193.287 35.1461 193.228 35.1021 193.181C35.0581 193.133 35.0021 193.098 34.94 193.08C34.7181 192.954 34.4598 192.908 34.2079 192.949C33.9561 192.99 33.7257 193.115 33.555 193.305C33.3402 193.587 33.2077 193.924 33.1724 194.277C33.1371 194.63 33.2003 194.986 33.355 195.305C33.5924 195.664 33.9095 195.963 34.2816 196.179C34.6537 196.395 35.0707 196.522 35.5 196.55C35.8877 196.574 36.2751 196.499 36.6253 196.331C36.9755 196.163 37.2766 195.908 37.5 195.59C38.46 194.49 38.74 193.335 38.33 192.22C38.0087 191.493 37.5055 190.86 36.8688 190.384C36.2321 189.908 35.4835 189.603 34.695 189.5C33.9901 189.375 33.2643 189.45 32.5992 189.715C31.9341 189.979 31.3561 190.425 30.93 191C29.2 193.1 29.4 194.965 29.875 196.165C30.67 198.165 32.875 199.815 35.22 200.13C36.244 200.288 37.2917 200.157 38.2455 199.753C39.1994 199.348 40.0216 198.686 40.62 197.84C43.295 194.725 42.435 191.195 40.75 188.92C38.89 186.42 35.18 184.47 31.43 186.125C31.3034 186.181 31.1596 186.185 31.0302 186.135C30.9008 186.086 30.7964 185.987 30.74 185.86C30.6837 185.733 30.6799 185.59 30.7296 185.46C30.7793 185.331 30.8784 185.226 31.005 185.17C35.235 183.305 39.39 185.42 41.5 188.2Z" fill="#EBEBEB" style="fill:#EBEBEB;fill:color(display-p3 0.9216 0.9216 0.9216);fill-opacity:1;"/>
<path d="M205.135 52.4999L205.05 52.6199C202.28 56.4849 197.8 57.8499 193.64 56.1199C192.287 55.6805 191.08 54.877 190.154 53.7975C189.227 52.718 188.615 51.4041 188.385 49.9999C187.805 46.7999 188.98 43.3649 191.31 41.4599C193.31 39.8149 195.93 39.5049 198.65 40.5849C199.646 40.9288 200.528 41.5413 201.197 42.3549C201.867 43.1685 202.299 44.1514 202.445 45.1949C202.83 47.5549 201.945 50.0299 200.255 51.3449C198.805 52.4749 196.94 52.6349 195 51.7949C194.392 51.5869 193.844 51.2307 193.408 50.7585C192.972 50.2863 192.66 49.7128 192.5 49.0899C192.337 48.4084 192.334 47.6982 192.492 47.0153C192.65 46.3324 192.964 45.6956 193.41 45.1549C193.879 44.681 194.475 44.3528 195.126 44.21C195.777 44.0671 196.456 44.1157 197.08 44.3499C197.591 44.5657 198.015 44.945 198.287 45.4284C198.558 45.9117 198.661 46.4716 198.58 47.0199C198.561 47.4109 198.404 47.7826 198.138 48.0697C197.872 48.3569 197.513 48.541 197.125 48.5899C196.847 48.6523 196.556 48.6161 196.301 48.4875C196.047 48.3589 195.845 48.1459 195.73 47.8849C195.676 47.7399 195.679 47.5795 195.738 47.4366C195.798 47.2936 195.91 47.1786 196.051 47.1149C196.192 47.0513 196.352 47.0438 196.499 47.094C196.645 47.1441 196.767 47.2481 196.84 47.3849C196.947 47.3948 197.053 47.3703 197.145 47.3149C197.211 47.2782 197.265 47.2245 197.303 47.1594C197.341 47.0943 197.361 47.0202 197.36 46.9449C197.42 46.6525 197.378 46.3484 197.242 46.0829C197.106 45.8174 196.883 45.6064 196.61 45.4849C196.221 45.3501 195.802 45.3254 195.4 45.4137C194.997 45.5019 194.627 45.6996 194.33 45.9849C194.012 46.374 193.788 46.8316 193.676 47.3217C193.564 47.8118 193.567 48.3212 193.685 48.8099C193.799 49.2477 194.023 49.6492 194.335 49.9764C194.647 50.3036 195.038 50.5457 195.47 50.6799C197.035 51.3549 198.425 51.2549 199.525 50.3999C200.855 49.3649 201.565 47.3149 201.26 45.3999C201.149 44.5715 200.81 43.7902 200.28 43.1437C199.75 42.4973 199.051 42.0112 198.26 41.7399C195.305 40.5649 193.295 41.4599 192.125 42.4149C190.16 44.0249 189.125 47.0599 189.625 49.7949C189.82 50.9923 190.344 52.1118 191.139 53.0283C191.933 53.9449 192.967 54.6223 194.125 54.9849C198.555 56.8499 202.175 54.6299 204.125 51.9349C206.255 48.9699 207.09 44.1399 203.9 40.5499C203.847 40.4899 203.806 40.4199 203.78 40.344C203.754 40.2682 203.743 40.1879 203.748 40.1078C203.752 40.0277 203.773 39.9494 203.808 39.8773C203.843 39.8051 203.892 39.7406 203.952 39.6874C204.013 39.6343 204.083 39.5934 204.158 39.5673C204.234 39.5411 204.315 39.5302 204.395 39.5351C204.475 39.5399 204.553 39.5605 204.625 39.5957C204.697 39.6308 204.762 39.6799 204.815 39.7399C208.335 43.7449 207.47 49.1349 205.135 52.4999Z" fill="#EBEBEB" style="fill:#EBEBEB;fill:color(display-p3 0.9216 0.9216 0.9216);fill-opacity:1;"/>
<path d="M221.54 128L221.49 127.94C219.9 126.07 219.775 123.66 221.175 121.795C221.564 121.172 222.116 120.668 222.773 120.338C223.429 120.008 224.163 119.865 224.895 119.925C225.71 119.975 226.498 120.235 227.183 120.679C227.868 121.123 228.427 121.736 228.805 122.46C229.08 123.075 229.178 123.755 229.09 124.423C229.002 125.091 228.73 125.722 228.305 126.245C228.008 126.701 227.591 127.066 227.099 127.3C226.608 127.533 226.061 127.627 225.52 127.57C224.931 127.529 224.363 127.335 223.871 127.008C223.379 126.681 222.981 126.232 222.715 125.705C222.53 125.261 222.472 124.773 222.549 124.298C222.626 123.823 222.834 123.378 223.15 123.015C223.329 122.735 223.575 122.505 223.866 122.344C224.157 122.184 224.483 122.098 224.815 122.095C225.177 122.097 225.534 122.184 225.857 122.348C226.18 122.512 226.46 122.749 226.675 123.04C226.853 123.335 226.942 123.674 226.932 124.018C226.923 124.362 226.814 124.696 226.62 124.98C226.449 125.202 226.21 125.363 225.939 125.438C225.669 125.513 225.381 125.498 225.12 125.395C224.927 125.336 224.76 125.212 224.649 125.042C224.539 124.873 224.491 124.671 224.515 124.47C224.518 124.323 224.572 124.182 224.667 124.07C224.763 123.959 224.895 123.884 225.04 123.86C225.122 123.845 225.207 123.863 225.276 123.91C225.345 123.957 225.392 124.03 225.408 124.112C225.423 124.195 225.405 124.28 225.357 124.348C225.31 124.417 225.237 124.465 225.155 124.48C225.139 124.532 225.139 124.588 225.155 124.64C225.166 124.677 225.186 124.711 225.214 124.739C225.243 124.766 225.277 124.785 225.315 124.795C225.454 124.861 225.612 124.877 225.762 124.842C225.911 124.806 226.045 124.721 226.14 124.6C226.258 124.424 226.324 124.218 226.332 124.006C226.34 123.794 226.289 123.584 226.185 123.4C226.03 123.192 225.829 123.022 225.597 122.905C225.365 122.788 225.11 122.726 224.85 122.725C224.616 122.726 224.387 122.788 224.184 122.903C223.981 123.019 223.811 123.185 223.69 123.385C223.44 123.66 223.274 123.999 223.209 124.365C223.144 124.73 223.185 125.106 223.325 125.45C223.545 125.874 223.87 126.235 224.269 126.498C224.668 126.76 225.128 126.916 225.605 126.95C226.035 126.998 226.47 126.925 226.861 126.739C227.252 126.552 227.582 126.26 227.815 125.895C228.179 125.464 228.412 124.939 228.489 124.38C228.565 123.821 228.48 123.252 228.245 122.74C227.912 122.119 227.427 121.594 226.835 121.214C226.242 120.833 225.563 120.61 224.86 120.565C224.237 120.513 223.611 120.635 223.053 120.917C222.495 121.2 222.027 121.632 221.7 122.165C220.2 124.165 220.875 126.24 221.98 127.545C223.2 128.98 225.515 130 227.71 128.855C227.747 128.83 227.788 128.814 227.832 128.806C227.876 128.798 227.92 128.8 227.963 128.811C228.006 128.822 228.046 128.842 228.081 128.869C228.116 128.897 228.144 128.931 228.165 128.971C228.185 129.01 228.197 129.053 228.2 129.097C228.203 129.141 228.196 129.186 228.181 129.227C228.165 129.269 228.141 129.306 228.11 129.338C228.079 129.369 228.041 129.394 228 129.41C225.5 130.695 222.93 129.59 221.54 128Z" fill="#EBEBEB" style="fill:#EBEBEB;fill:color(display-p3 0.9216 0.9216 0.9216);fill-opacity:1;"/>
<path d="M44.89 85.4199C44.89 85.4749 44.935 85.5249 44.96 85.5749C47.27 90.5749 46.085 95.8649 41.96 99.0499C40.7432 100.158 39.2459 100.911 37.6309 101.228C36.0159 101.544 34.345 101.412 32.8 100.845C29.22 99.5999 26.44 96.4499 25.855 92.9999C25.355 90.0349 26.525 87.2349 29.165 85.1149C30.0842 84.3062 31.2097 83.7682 32.4163 83.5608C33.623 83.3533 34.8635 83.4846 36 83.9399C38.595 84.9049 40.58 87.2049 40.935 89.6599C41.245 91.7699 40.34 93.7399 38.385 95.2099C37.8305 95.7111 37.1592 96.0653 36.4324 96.24C35.7057 96.4147 34.9467 96.4044 34.225 96.2099C33.4447 95.9868 32.7274 95.5844 32.1301 95.0349C31.5329 94.4854 31.0723 93.804 30.785 93.0449C30.5756 92.3022 30.5855 91.5148 30.8135 90.7775C31.0415 90.0403 31.4779 89.3848 32.07 88.8899C33.07 88.0949 34.385 88.0999 35.615 88.8899C35.9973 89.1338 36.2819 89.5042 36.4189 89.9364C36.556 90.3687 36.5369 90.8353 36.365 91.2549C36.2694 91.5695 36.0676 91.8411 35.7941 92.0235C35.5205 92.2059 35.1922 92.2877 34.865 92.2549C34.6813 92.222 34.5179 92.1179 34.4103 91.9654C34.3027 91.8129 34.2595 91.6241 34.29 91.4399C34.3165 91.2731 34.4025 91.1214 34.5321 91.013C34.6617 90.9046 34.8261 90.8466 34.995 90.8499C35.0649 90.7486 35.1016 90.628 35.1 90.5049C35.099 90.4172 35.0749 90.3313 35.0301 90.2558C34.9854 90.1803 34.9215 90.1179 34.845 90.0749C34.125 89.5999 33.485 89.5749 32.945 89.9899C32.5868 90.3048 32.3216 90.7116 32.1779 91.1663C32.0343 91.6211 32.0177 92.1065 32.13 92.5699C32.3435 93.1144 32.6804 93.6018 33.1142 93.994C33.548 94.3861 34.0669 94.6723 34.63 94.8299C35.1307 94.9617 35.6566 94.9644 36.1585 94.8376C36.6605 94.7108 37.122 94.4587 37.5 94.1049C39.075 92.9199 39.77 91.4599 39.535 89.8649C39.255 87.9349 37.6 86.0449 35.505 85.2699C34.6047 84.908 33.6212 84.8048 32.6654 84.9717C31.7096 85.1387 30.8193 85.5693 30.095 86.2149C27.22 88.5199 26.975 91.0549 27.27 92.7799C27.77 95.6749 30.23 98.4449 33.27 99.5099C34.5851 100.001 36.0109 100.116 37.3876 99.8419C38.7644 99.5681 40.0377 98.9165 41.065 97.9599C45.47 94.5699 45.31 89.6499 43.7 86.1699C41.93 82.3299 37.545 78.7299 32.11 79.8849C32.0194 79.9043 31.9259 79.9056 31.8347 79.8889C31.7436 79.8721 31.6567 79.8375 31.5789 79.7871C31.5011 79.7368 31.4341 79.6716 31.3815 79.5953C31.3289 79.519 31.2919 79.4331 31.2725 79.3424C31.2532 79.2518 31.2518 79.1583 31.2686 79.0672C31.2854 78.976 31.3199 78.8891 31.3703 78.8113C31.4207 78.7336 31.4859 78.6665 31.5622 78.6139C31.6385 78.5613 31.7244 78.5243 31.815 78.5049C37.91 77.1949 42.84 81.1499 44.89 85.4199Z" fill="#EBEBEB" style="fill:#EBEBEB;fill:color(display-p3 0.9216 0.9216 0.9216);fill-opacity:1;"/>
<path d="M201.32 91.335L205.32 87.605L201.835 80.845L208.57 84.575L213.05 80.395L211.995 85.83L218.355 89.66L211.16 90.13L209.11 96.875L206.985 90.64L201.32 91.335Z" fill="#E0E0E0" style="fill:#E0E0E0;fill:color(display-p3 0.8784 0.8784 0.8784);fill-opacity:1;"/>
<path d="M38.81 46.6699L43.38 42.4049L39.4 34.6799L47.095 38.9449L52.215 34.1699L51.005 40.3749L58.275 44.7499L50.05 45.2899L47.71 52.9999L45.285 45.8749L38.81 46.6699Z" fill="#E0E0E0" style="fill:#E0E0E0;fill:color(display-p3 0.8784 0.8784 0.8784);fill-opacity:1;"/>
<path d="M205.745 191.415L208.105 189.215L206.045 185.22L210.025 187.425L212.67 184.96L212.045 188.165L215.8 190.425L211.55 190.705L210.345 194.69L209.09 191.005L205.745 191.415Z" fill="#E0E0E0" style="fill:#E0E0E0;fill:color(display-p3 0.8784 0.8784 0.8784);fill-opacity:1;"/>
<path d="M61.47 175.38L63.83 173.175L61.775 169.185L65.75 171.385L68.395 168.92L67.775 172.125L71.53 174.385L67.28 174.665L66.07 178.65L64.815 174.97L61.47 175.38Z" fill="#E0E0E0" style="fill:#E0E0E0;fill:color(display-p3 0.8784 0.8784 0.8784);fill-opacity:1;"/>
<path d="M17.825 130.665L20.19 128.465L18.13 124.47L22.105 126.675L24.75 124.205L24.13 127.415L27.885 129.675L23.635 129.95L22.425 133.935L21.17 130.255L17.825 130.665Z" fill="#E0E0E0" style="fill:#E0E0E0;fill:color(display-p3 0.8784 0.8784 0.8784);fill-opacity:1;"/>
<path d="M123.325 225.965C152.149 225.965 175.515 213.682 175.515 198.53C175.515 183.378 152.149 171.095 123.325 171.095C94.5013 171.095 71.135 183.378 71.135 198.53C71.135 213.682 94.5013 225.965 123.325 225.965Z" fill="#E0E0E0" style="fill:#E0E0E0;fill:color(display-p3 0.8784 0.8784 0.8784);fill-opacity:1;"/>
<path d="M140.065 103.295C156.215 104.495 164.565 109.065 183.815 120.945C197.07 129.14 213.98 155.395 213.98 155.395C213.98 155.395 208.645 159.955 190.24 152.395C170.89 144.475 146.1 132.635 146.1 132.635L140.065 103.295Z" fill="#495963" style="fill:#495963;fill:color(display-p3 0.2863 0.3490 0.3882);fill-opacity:1;"/>
<path d="M169.795 84.1553C169.795 84.1553 169.035 84.0053 168.465 82.6553C167.895 81.3053 167.76 80.2803 167.15 78.7603C166.54 77.2403 165.15 74.7903 163.6 74.9053C162.05 75.0203 162.19 78.5303 162.855 81.2353C163.52 83.9403 163.905 85.5353 162.88 89.0503C161.855 92.5653 162.215 96.6453 165.005 99.5503L169.795 84.1553Z" fill="#E49D80" style="fill:#E49D80;fill:color(display-p3 0.8941 0.6157 0.5020);fill-opacity:1;"/>
<path d="M182.92 129.095C187.655 139.34 188.465 141.79 190.645 145.595C192.825 149.4 194.755 151.245 198.205 153.095C202.06 155.155 204.85 156.095 209.06 156.47C210.293 156.658 211.553 156.566 212.745 156.2C215.66 155.11 216.145 152.165 216.09 148.885C215.975 142.265 214.59 136.885 211.62 131.99C210.225 129.67 209.455 128.67 204.805 123.05C201.02 118.48 198.035 115.275 192.855 108.5C188.155 102.355 183.895 96.3102 182.145 92.5002C180.395 88.6902 179.7 85.9752 179.765 83.5952C179.86 79.9702 180.43 79.9402 178.265 76.2502C176.765 73.8352 175.965 70.5002 175.125 68.4852C174.25 66.5076 173.104 64.6616 171.72 63.0002C170.28 61.1552 168.87 58.6102 168.04 58.5402C167.21 58.4702 166.14 59.6502 166.64 61.2802C166.64 61.2802 165.32 60.3352 164.14 59.2802C162.96 58.2252 161.945 56.8252 160.67 56.8702C159.395 56.9152 159.32 58.9352 160.095 60.1302C160.87 61.3252 161.405 61.9752 161.405 61.9752C161.405 61.9752 160.37 62.8202 162.04 64.8852C162.729 65.7153 163.524 66.4516 164.405 67.0752C165.29 68.7702 165.605 69.6402 166.905 70.8802C167.905 72.4452 168.56 73.8052 169.725 74.9902C169.635 76.3402 169.015 78.0852 169.615 80.2252C170.215 82.3652 170.7 82.7752 168.875 86.0202C167.65 88.2102 165.285 90.9702 164.335 93.7902C163.385 96.6102 163.76 98.5752 165.835 100.915C167.615 102.915 170.585 103.915 173.035 108.28C174.965 111.76 177.12 116.54 182.92 129.095Z" fill="#F5C0AB" style="fill:#F5C0AB;fill:color(display-p3 0.9608 0.7529 0.6706);fill-opacity:1;"/>
<path d="M171.5 72.9602C171.442 72.6293 171.402 72.2955 171.38 71.9602C171.362 71.6271 171.362 71.2933 171.38 70.9602C171.391 70.643 171.426 70.3271 171.485 70.0152L171.515 69.8502L171.38 69.6952C170.824 69.08 170.373 68.3773 170.045 67.6152C169.878 67.2373 169.737 66.848 169.625 66.4502C169.522 66.0554 169.444 65.6547 169.39 65.2502V65.0952L169.315 65.0102C168.815 64.4452 168.34 63.8402 167.885 63.2202C167.423 62.5902 167.016 61.921 166.67 61.2202C166.798 61.9448 167.046 62.6428 167.405 63.2852C167.84 63.9894 168.33 64.6582 168.87 65.2852C168.891 65.7092 168.957 66.1297 169.065 66.5402C169.171 66.9885 169.32 67.4255 169.51 67.8452C169.833 68.6283 170.309 69.3389 170.91 69.9352C170.87 70.2671 170.846 70.6009 170.84 70.9352C170.84 71.2786 170.869 71.6214 170.925 71.9602C171.094 72.6335 171.384 73.2704 171.78 73.8402C171.655 73.6052 171.56 73.2852 171.5 72.9602Z" fill="#E49D80" style="fill:#E49D80;fill:color(display-p3 0.8941 0.6157 0.5020);fill-opacity:1;"/>
<path d="M169.395 72.0002C169.146 71.5307 168.923 71.0483 168.725 70.5552C168.529 70.0653 168.363 69.5644 168.225 69.0552C168.104 68.5629 168.027 68.061 167.995 67.5552V67.2752L167.735 67.1652C166.902 66.8089 166.142 66.3002 165.495 65.6652C164.834 65.0227 164.262 64.2946 163.795 63.5002L163.725 63.3852H163.65C163.244 63.228 162.85 63.0425 162.47 62.8302C162.084 62.6084 161.72 62.3488 161.385 62.0552C161.612 62.4022 161.894 62.7096 162.22 62.9652C162.615 63.2515 163.037 63.4993 163.48 63.7052C163.658 64.1486 163.872 64.5767 164.12 64.9852C164.383 65.3487 164.677 65.6883 165 66.0002C165.351 66.3732 165.739 66.7083 166.16 67.0002C166.548 67.2621 166.962 67.4833 167.395 67.6602C167.448 68.2227 167.548 68.7796 167.695 69.3252C167.844 69.8724 168.043 70.4047 168.29 70.9152C168.508 71.3696 168.773 71.8002 169.08 72.2002C169.427 72.6304 169.812 73.0287 170.23 73.3902C169.935 72.9102 169.635 72.4602 169.395 72.0002Z" fill="#E49D80" style="fill:#E49D80;fill:color(display-p3 0.8941 0.6157 0.5020);fill-opacity:1;"/>
<path d="M171.125 77.7202C171.358 78.6932 171.358 79.7073 171.125 80.6802C170.903 81.6514 170.528 82.5813 170.015 83.4352C170.1 82.9352 170.23 82.4752 170.35 82.0002C170.47 81.5252 170.585 81.0602 170.685 80.5902C170.894 79.6441 171.041 78.6854 171.125 77.7202Z" fill="#E49D80" style="fill:#E49D80;fill:color(display-p3 0.8941 0.6157 0.5020);fill-opacity:1;"/>
<path d="M165.695 90.7251C165.562 92.4875 165.818 94.2576 166.445 95.9101C166.769 96.7139 167.205 97.4679 167.74 98.1501C168.302 98.8575 168.912 99.5258 169.565 100.15C168.686 99.7945 167.885 99.2714 167.205 98.6101C166.178 97.6087 165.483 96.3157 165.214 94.9063C164.946 93.4968 165.117 92.039 165.705 90.7301L165.695 90.7251Z" fill="#E49D80" style="fill:#E49D80;fill:color(display-p3 0.8941 0.6157 0.5020);fill-opacity:1;"/>
<path d="M159.77 174.435C160.185 165.435 159.995 155.245 159.995 155.245C159.995 155.245 168.03 150.425 167.905 138.175C167.83 131.21 165.215 126.175 155.81 116.625C150.69 111.43 140.065 103.295 140.065 103.295L131.18 102.095L101.84 102.695L91.13 104.605C88.335 106.035 79.865 122.855 82.09 142.105C82.795 148.17 87.385 159.27 88.945 167.85C88.19 181.92 84.75 184.16 80.21 195.6C80.21 200.765 87.445 207.355 95.165 210.715C110.015 217.18 133.61 217.335 149.305 211.33C158.22 207.92 165.87 202.1 165.85 196.935C165.85 196.94 161.72 183.84 159.77 174.435Z" fill="#EB4A41" style="fill:#EB4A41;fill:color(display-p3 0.9216 0.2902 0.2549);fill-opacity:1;"/>
<path opacity="0.2" d="M134.6 158.04C124.75 164.5 104.87 160.5 99.945 148.445C99.035 160.635 121.96 173.385 134.6 158.04Z" fill="black" style="fill:black;fill-opacity:1;"/>
<path d="M97.43 42.1752C99.094 40.1237 101.372 38.6603 103.93 38.0002C106.365 37.3902 107.86 37.4202 110.18 36.4452C112.39 35.5202 114.29 33.9452 116.49 33.0002C119.955 31.5002 123.95 31.7652 127.395 33.1852C130.84 34.6052 132.965 37.7752 136.61 38.6452C138.51 39.1002 140.48 39.2002 142.37 39.7052C143.98 40.1149 145.492 40.8421 146.816 41.8441C148.141 42.8461 149.253 44.1028 150.085 45.5402C150.893 46.9874 151.331 48.6113 151.361 50.2683C151.392 51.9252 151.014 53.5642 150.26 55.0402C149.8 55.8902 149.185 56.7052 149.095 57.6652C148.93 59.4552 150.57 60.8252 151.365 62.4352C152.73 65.1952 151.395 68.7302 148.955 70.6002C146.515 72.4702 143.275 72.9652 140.2 72.8652C139.635 77.4302 137.035 81.5452 133.75 84.7702C131.492 86.9206 129.025 88.8401 126.385 90.5002C123.96 92.0752 121.73 92.8552 119.065 93.9002C116.4 94.9452 111.745 96.8502 109.175 94.7552C108.14 93.9102 107.515 92.6752 106.855 91.5102C104.435 87.2652 101.165 83.5852 98.105 79.7752C95.045 75.9652 92.105 71.9202 90.605 67.2752C89.9325 64.9637 89.6702 62.5522 89.83 60.1502C89.955 57.8102 90.285 55.1802 91.24 53.3002C92.595 50.6402 93.94 49.4052 95.655 48.8552C94.945 45.3902 96.435 43.4602 97.43 42.1752Z" fill="#283237" style="fill:#283237;fill:color(display-p3 0.1569 0.1961 0.2157);fill-opacity:1;"/>
<path d="M141.085 50.5652C139.15 48.7002 137.13 48.1752 134.55 49.1702C133.175 49.7002 131.485 51.1702 129.05 51.1702C126.08 51.1702 124.755 49.7352 121.625 48.9252C119.794 48.3963 117.831 48.5747 116.125 49.4252C112.505 51.1402 111.42 55.4252 111.955 59.1352C111.994 59.9891 111.834 60.8404 111.487 61.6215C111.14 62.4027 110.615 63.0921 109.955 63.6352C109.653 63.8655 109.378 64.1288 109.135 64.4202C108.395 65.4602 109.39 67.7352 109.21 69.0052C109.083 69.8606 108.771 70.678 108.295 71.4002C108.134 71.6942 107.908 71.9484 107.636 72.1439C107.363 72.3395 107.05 72.4715 106.72 72.5302C105.72 72.6002 104.99 71.5852 104.49 70.6952C103.915 69.6652 103.46 68.3902 102.49 67.6952C101.669 67.1289 100.728 66.7624 99.74 66.6252C98.7455 66.4973 97.7349 66.5945 96.783 66.9095C95.831 67.2245 94.962 67.7493 94.24 68.4452C91.24 71.3452 91.505 78.3752 95.43 81.9102C100.325 86.3252 105.365 83.0652 105.43 82.1102C105.43 82.1102 105.43 94.9302 105.43 96.5652C105.46 99.1152 105.22 101.185 101.875 102.65C107.575 113.33 119.875 121.965 129.445 120.68C139.18 119.375 136.845 106.68 131.215 102.05C130.63 101.88 128.68 101.775 128.625 99.5502C128.575 97.2002 128.625 98.0502 128.625 98.0502C133.72 98.2902 135.87 97.9452 138.725 96.3102C142.98 93.8752 146.68 89.1302 146.68 73.7552C146.68 68.1052 144.525 66.4302 144.87 63.9052C145.335 60.4852 145.145 56.8402 143.535 53.7252C143.14 53.0752 143 52.4302 141.085 50.5652Z" fill="#F5C0AB" style="fill:#F5C0AB;fill:color(display-p3 0.9608 0.7529 0.6706);fill-opacity:1;"/>
<path opacity="0.3" d="M143.5 53.7652C143.14 53.0752 143 52.4302 141.085 50.5652C139.17 48.7002 137.13 48.1752 134.55 49.1702C133.175 49.7002 131.485 51.1702 129.05 51.1702C126.08 51.1702 124.755 49.7352 121.625 48.9252C119.794 48.3963 117.831 48.5747 116.125 49.4252C112.505 51.1402 111.42 55.4252 111.955 59.1352C111.996 59.8695 111.884 60.6043 111.625 61.2929C111.367 61.9815 110.969 62.6088 110.455 63.1352C117.008 63.8299 123.604 64.0105 130.185 63.6752C135.222 63.4782 140.219 62.6946 145.075 61.3402C145.196 58.7228 144.655 56.1172 143.5 53.7652Z" fill="#EB4A41" style="fill:#EB4A41;fill:color(display-p3 0.9216 0.2902 0.2549);fill-opacity:1;"/>
<path d="M113.585 94.7651C111.127 93.3809 109.114 91.3259 107.78 88.8401C108.007 90.3605 108.538 91.8195 109.343 93.1297C110.147 94.4399 111.207 95.5744 112.46 96.4651C118.21 100.465 126.96 100.81 128.91 100.845C128.699 100.459 128.589 100.025 128.59 99.5851C128.59 98.7151 128.565 98.2851 128.59 98.0851C123.405 97.7501 117.535 96.8451 113.585 94.7651Z" fill="#E49D80" style="fill:#E49D80;fill:color(display-p3 0.8941 0.6157 0.5020);fill-opacity:1;"/>
<path d="M136.99 74.8502L129.215 78.2052L128.14 63.2302L136.99 74.8502Z" fill="#E49D80" style="fill:#E49D80;fill:color(display-p3 0.8941 0.6157 0.5020);fill-opacity:1;"/>
<path d="M135.115 57.6252L140.065 60.5452C139.891 60.8777 139.652 61.1713 139.361 61.4079C139.07 61.6444 138.733 61.8191 138.373 61.9212C138.012 62.0232 137.634 62.0505 137.262 62.0013C136.89 61.9522 136.532 61.8276 136.21 61.6352C135.545 61.2376 135.06 60.5981 134.855 59.8506C134.651 59.1031 134.744 58.3057 135.115 57.6252Z" fill="#283237" style="fill:#283237;fill:color(display-p3 0.1569 0.1961 0.2157);fill-opacity:1;"/>
<path d="M122.455 58.2351L117.87 61.8201C118.089 62.1283 118.368 62.3889 118.69 62.5862C119.012 62.7835 119.371 62.9134 119.745 62.9681C120.119 63.0228 120.5 63.0011 120.865 62.9043C121.23 62.8075 121.572 62.6377 121.87 62.4051C122.483 61.917 122.885 61.2125 122.994 60.4367C123.103 59.6609 122.91 58.873 122.455 58.2351Z" fill="#283237" style="fill:#283237;fill:color(display-p3 0.1569 0.1961 0.2157);fill-opacity:1;"/>
<path d="M124.68 57.8253C124.589 57.4593 124.418 57.1179 124.18 56.8253C123.923 56.5042 123.592 56.2514 123.214 56.0892C122.836 55.927 122.425 55.8604 122.015 55.8953C121.991 55.8989 121.968 55.908 121.948 55.9217C121.927 55.9353 121.91 55.9534 121.898 55.9744C121.885 55.9955 121.878 56.019 121.876 56.0434C121.873 56.0678 121.877 56.0923 121.885 56.1153C121.905 56.1685 121.94 56.2146 121.987 56.2476C122.033 56.2805 122.088 56.2989 122.145 56.3003C122.45 56.3254 122.747 56.4151 123.015 56.5634C123.283 56.7116 123.516 56.9151 123.7 57.1603C123.864 57.3894 123.98 57.6497 124.04 57.9253C124.083 58.2669 124.103 58.611 124.1 58.9553C124.1 59.1503 124.465 59.2503 124.56 59.0653C124.669 58.857 124.726 58.6253 124.725 58.3903C124.73 58.2009 124.715 58.0115 124.68 57.8253Z" fill="#A76A6A" style="fill:#A76A6A;fill:color(display-p3 0.6549 0.4157 0.4157);fill-opacity:1;"/>
<path d="M134.705 55.8903C134.669 55.8503 134.624 55.8201 134.573 55.8026C134.522 55.7851 134.468 55.7809 134.415 55.7903C134.12 55.8822 133.856 56.0555 133.655 56.2903C133.476 56.472 133.324 56.6793 133.205 56.9053C133.014 57.2607 132.926 57.6624 132.95 58.0653C132.95 58.2103 132.99 58.4553 133.17 58.4903C133.35 58.5253 133.42 58.3303 133.455 58.1953C133.49 58.0603 133.51 57.9303 133.54 57.7953C133.59 57.5631 133.672 57.3392 133.785 57.1303C133.888 56.9471 134.016 56.7788 134.165 56.6303C134.33 56.4653 134.54 56.3453 134.71 56.1853C134.732 56.1671 134.749 56.1443 134.761 56.1186C134.772 56.0929 134.778 56.0649 134.778 56.0366C134.777 56.0083 134.771 55.9805 134.758 55.9552C134.745 55.9299 134.727 55.9077 134.705 55.8903Z" fill="#A76A6A" style="fill:#A76A6A;fill:color(display-p3 0.6549 0.4157 0.4157);fill-opacity:1;"/>
<path d="M139.245 72.2501C139.017 72.249 138.789 72.2255 138.565 72.1801C138.27 72.1228 137.984 72.0252 137.715 71.8901C137.447 71.7608 137.199 71.5923 136.98 71.3901C136.76 71.1995 136.568 70.979 136.41 70.7351C136.249 70.4992 136.123 70.2416 136.035 69.9701C135.856 69.4437 135.822 68.8792 135.935 68.3351C135.99 68.0713 136.079 67.8159 136.2 67.5751C136.321 67.3408 136.47 67.1225 136.645 66.9251C136.819 66.7336 137.018 66.5656 137.235 66.4251C137.447 66.2889 137.676 66.1798 137.915 66.1001C138.15 66.0271 138.394 65.9835 138.64 65.9701C138.882 65.9572 139.124 65.979 139.36 66.0351C139.592 66.0827 139.816 66.1635 140.025 66.2751C140.229 66.3836 140.418 66.5162 140.59 66.6701C140.753 66.8184 140.898 66.9863 141.02 67.1701C141.135 67.3578 141.226 67.5594 141.29 67.7701C141.355 67.9756 141.391 68.1895 141.395 68.4051C141.401 68.6137 141.379 68.8221 141.33 69.0251C141.235 69.419 141.039 69.7811 140.76 70.0751C140.626 70.2135 140.475 70.3344 140.31 70.4351C140.153 70.5276 139.985 70.6014 139.81 70.6551C139.634 70.7052 139.453 70.7304 139.27 70.7301C139.093 70.7313 138.916 70.7094 138.745 70.6651C138.579 70.6192 138.419 70.5519 138.27 70.4651C138.126 70.3812 137.993 70.2787 137.875 70.1601C137.765 70.0436 137.669 69.9144 137.59 69.7751C137.513 69.6407 137.456 69.4958 137.42 69.3451C137.383 69.198 137.367 69.0466 137.37 68.8951C137.376 68.7511 137.4 68.6084 137.44 68.4701C137.484 68.3363 137.544 68.2086 137.62 68.0901C137.694 67.9766 137.781 67.8725 137.88 67.7801C137.978 67.696 138.085 67.6238 138.2 67.5651C138.311 67.5112 138.429 67.4725 138.55 67.4501C138.668 67.435 138.787 67.435 138.905 67.4501C139.02 67.4624 139.132 67.4893 139.24 67.5301C139.341 67.5679 139.436 67.6219 139.52 67.6901C139.605 67.7504 139.68 67.8248 139.74 67.9101C139.8 67.9879 139.849 68.0737 139.885 68.1651C139.916 68.2537 139.935 68.3463 139.94 68.4401C139.952 68.528 139.952 68.6172 139.94 68.7051C139.92 68.7868 139.89 68.8657 139.85 68.9401C139.807 69.0088 139.757 69.0725 139.7 69.1301C139.643 69.1804 139.579 69.2225 139.51 69.2551C139.442 69.2864 139.369 69.3066 139.295 69.3151C139.227 69.326 139.158 69.326 139.09 69.3151C139.023 69.299 138.961 69.2701 138.905 69.2301C138.849 69.1917 138.801 69.1424 138.765 69.0851C138.733 69.0275 138.711 68.9649 138.7 68.9001C138.694 68.8271 138.704 68.7537 138.73 68.6851C138.748 68.6411 138.773 68.6005 138.805 68.5651C138.829 68.5345 138.859 68.5089 138.893 68.4898C138.926 68.4707 138.964 68.4585 139.002 68.4539C139.041 68.4492 139.08 68.4522 139.117 68.4627C139.155 68.4732 139.19 68.491 139.22 68.5151C139.273 68.5604 139.31 68.6218 139.325 68.6901C139.337 68.666 139.347 68.6409 139.355 68.6151C139.357 68.5834 139.357 68.5517 139.355 68.5201C139.353 68.4823 139.344 68.4452 139.33 68.4101C139.316 68.3689 139.296 68.3301 139.27 68.2951C139.24 68.255 139.205 68.2196 139.165 68.1901C139.122 68.1568 139.075 68.1298 139.025 68.1101C138.969 68.0896 138.91 68.0762 138.85 68.0701C138.785 68.0599 138.72 68.0599 138.655 68.0701C138.585 68.0811 138.518 68.103 138.455 68.1351C138.387 68.1697 138.324 68.2116 138.265 68.2601C138.204 68.3144 138.15 68.3766 138.105 68.4451C138.059 68.5206 138.022 68.6011 137.995 68.6851C137.971 68.7733 137.956 68.8638 137.95 68.9551C137.95 69.0542 137.96 69.153 137.98 69.2501C138.034 69.4556 138.141 69.6435 138.29 69.7951C138.368 69.8776 138.457 69.9483 138.555 70.0051C138.66 70.0661 138.773 70.1131 138.89 70.1451C139.011 70.1776 139.135 70.1927 139.26 70.1901C139.39 70.1897 139.52 70.1712 139.645 70.1351C139.777 70.0995 139.903 70.0457 140.02 69.9751C140.141 69.9025 140.251 69.8152 140.35 69.7151C140.451 69.6082 140.539 69.4889 140.61 69.3601C140.682 69.2255 140.737 69.0828 140.775 68.9351C140.81 68.781 140.825 68.623 140.82 68.4651C140.817 68.2958 140.792 68.1277 140.745 67.9651C140.695 67.8035 140.624 67.6489 140.535 67.5051C140.44 67.3597 140.33 67.2256 140.205 67.1051C140.072 66.984 139.924 66.8799 139.765 66.7951C139.429 66.6259 139.056 66.545 138.68 66.5601C138.485 66.5694 138.291 66.6047 138.105 66.6651C137.912 66.7233 137.728 66.8092 137.56 66.9201C137.388 67.0341 137.23 67.1684 137.09 67.3201C136.952 67.4715 136.832 67.6395 136.735 67.8201C136.635 68.0121 136.562 68.2175 136.52 68.4301C136.427 68.8742 136.454 69.3352 136.6 69.7651C136.673 69.9878 136.776 70.1996 136.905 70.3951C137.037 70.5935 137.195 70.7735 137.375 70.9301C137.558 71.092 137.762 71.2298 137.98 71.3401C138.206 71.4489 138.444 71.5296 138.69 71.5801C138.94 71.6298 139.196 71.645 139.45 71.6251C139.711 71.6109 139.968 71.5604 140.215 71.4751C140.466 71.3872 140.704 71.2679 140.925 71.1201C141.152 70.9686 141.357 70.787 141.535 70.5801C141.717 70.3696 141.87 70.1359 141.99 69.8851C142.115 69.6318 142.204 69.3626 142.255 69.0851C142.309 68.8018 142.326 68.5127 142.305 68.2251C142.281 67.9321 142.22 67.6432 142.125 67.3651C142.023 67.0843 141.887 66.8173 141.72 66.5701C141.548 66.3189 141.343 66.0919 141.11 65.8951C140.875 65.6949 140.614 65.5268 140.335 65.3951C140.05 65.2604 139.75 65.1629 139.44 65.1051C139.124 65.0454 138.801 65.0302 138.48 65.0601C138.154 65.086 137.833 65.1549 137.525 65.2651C137.214 65.3776 136.918 65.5288 136.645 65.7151C136.37 65.9108 136.12 66.1392 135.9 66.3951C135.875 66.4243 135.845 66.4484 135.811 66.4659C135.777 66.4835 135.74 66.4942 135.702 66.4975C135.664 66.5007 135.626 66.4964 135.589 66.4849C135.553 66.4733 135.519 66.4547 135.49 66.4301C135.461 66.4054 135.437 66.3753 135.419 66.3414C135.402 66.3074 135.391 66.2704 135.388 66.2323C135.384 66.1942 135.389 66.1559 135.4 66.1195C135.412 66.0831 135.43 66.0493 135.455 66.0201C135.706 65.7232 135.995 65.4609 136.315 65.2401C136.624 65.0214 136.96 64.8448 137.315 64.7151C137.669 64.5856 138.039 64.5049 138.415 64.4751C139.155 64.4146 139.898 64.549 140.57 64.8651C140.906 65.036 141.219 65.2494 141.5 65.5001C141.77 65.7316 142.009 65.9972 142.21 66.2901C142.407 66.579 142.566 66.8914 142.685 67.2201C142.907 67.8624 142.961 68.5511 142.84 69.2201C142.775 69.5471 142.669 69.8646 142.525 70.1651C142.241 70.7539 141.806 71.2574 141.265 71.6251C140.741 71.9812 140.132 72.1917 139.5 72.2351L139.245 72.2501Z" fill="#3A474E" style="fill:#3A474E;fill:color(display-p3 0.2275 0.2784 0.3059);fill-opacity:1;"/>
<path d="M120.825 73.2553H120.585C120.275 73.2327 119.969 73.1688 119.675 73.0653C119.374 72.965 119.088 72.8237 118.825 72.6453C118.279 72.2795 117.842 71.7734 117.56 71.1803C117.414 70.8808 117.31 70.5629 117.25 70.2353C117.185 69.9061 117.167 69.5695 117.195 69.2353C117.22 68.894 117.291 68.5577 117.405 68.2353C117.642 67.5662 118.05 66.9712 118.59 66.5103C118.865 66.2673 119.171 66.0622 119.5 65.9003C119.83 65.7424 120.18 65.6297 120.54 65.5653C120.906 65.4973 121.279 65.4788 121.65 65.5103C122.027 65.5403 122.398 65.6193 122.755 65.7453C123.108 65.8691 123.444 66.0371 123.755 66.2453C124.074 66.4676 124.363 66.7297 124.615 67.0253C124.663 67.086 124.686 67.1626 124.679 67.2397C124.673 67.3167 124.637 67.3884 124.58 67.4403C124.519 67.4887 124.442 67.5116 124.364 67.5041C124.287 67.4967 124.215 67.4594 124.165 67.4003C123.947 67.1436 123.697 66.9166 123.42 66.7253C123.148 66.5355 122.852 66.3825 122.54 66.2703C121.624 65.9433 120.617 65.99 119.735 66.4003C119.456 66.5344 119.194 66.7023 118.955 66.9003C118.725 67.1004 118.522 67.3289 118.35 67.5803C118.179 67.8252 118.042 68.0928 117.945 68.3753C117.75 68.9251 117.705 69.5172 117.815 70.0903C117.865 70.3696 117.955 70.6406 118.08 70.8953C118.198 71.1455 118.352 71.3778 118.535 71.5853C118.712 71.7908 118.916 71.9724 119.14 72.1253C119.362 72.2741 119.602 72.3935 119.855 72.4803C120.101 72.5646 120.356 72.6167 120.615 72.6353C120.871 72.6535 121.128 72.6367 121.38 72.5853C121.867 72.4876 122.32 72.2654 122.695 71.9403C123.051 71.6268 123.319 71.225 123.47 70.7753C123.541 70.5582 123.585 70.3332 123.6 70.1053C123.611 69.8824 123.594 69.659 123.55 69.4403C123.506 69.2266 123.434 69.0197 123.335 68.8253C123.238 68.6432 123.117 68.475 122.975 68.3253C122.84 68.1684 122.681 68.0335 122.505 67.9253C122.173 67.7056 121.788 67.5795 121.39 67.5603C121.199 67.5543 121.007 67.5711 120.82 67.6103C120.647 67.6542 120.479 67.718 120.32 67.8003C120.162 67.8837 120.015 67.988 119.885 68.1103C119.633 68.3447 119.447 68.6412 119.345 68.9703C119.296 69.1326 119.269 69.3008 119.265 69.4703C119.26 69.6285 119.276 69.7867 119.315 69.9403C119.351 70.0871 119.406 70.2284 119.48 70.3603C119.547 70.4917 119.635 70.6116 119.74 70.7153C119.837 70.8181 119.949 70.9073 120.07 70.9803C120.187 71.0476 120.311 71.1013 120.44 71.1403C120.567 71.1736 120.698 71.1921 120.83 71.1953C120.955 71.1974 121.08 71.1805 121.2 71.1453C121.305 71.1087 121.406 71.0601 121.5 71.0003C121.599 70.942 121.689 70.8714 121.77 70.7903C121.847 70.7116 121.913 70.6223 121.965 70.5253C122.062 70.3494 122.11 70.151 122.105 69.9503C122.105 69.8568 122.09 69.764 122.06 69.6753C122.037 69.5913 122 69.5118 121.95 69.4403C121.907 69.3719 121.855 69.3097 121.795 69.2553C121.737 69.2048 121.673 69.1611 121.605 69.1253C121.541 69.0962 121.474 69.0743 121.405 69.0603C121.34 69.0527 121.275 69.0527 121.21 69.0603C121.15 69.0659 121.091 69.0793 121.035 69.1003C120.984 69.122 120.936 69.1488 120.89 69.1803C120.853 69.2115 120.819 69.2468 120.79 69.2853C120.763 69.32 120.741 69.3588 120.725 69.4003C120.714 69.4362 120.705 69.473 120.7 69.5103C120.697 69.5419 120.697 69.5737 120.7 69.6053C120.708 69.6327 120.718 69.6595 120.73 69.6853L120.765 69.7253C120.769 69.6901 120.78 69.6561 120.797 69.6252C120.814 69.5942 120.837 69.5671 120.865 69.5453C120.893 69.5207 120.925 69.5019 120.96 69.49C120.995 69.4781 121.032 69.4735 121.069 69.4763C121.106 69.4791 121.142 69.4893 121.175 69.5063C121.207 69.5233 121.236 69.5468 121.26 69.5753C121.295 69.611 121.322 69.6536 121.34 69.7003C121.364 69.7642 121.374 69.8323 121.37 69.9003C121.36 69.9685 121.338 70.0345 121.305 70.0953C121.268 70.1504 121.222 70.1994 121.17 70.2403C121.111 70.2819 121.045 70.3125 120.975 70.3303C120.907 70.3406 120.838 70.3406 120.77 70.3303C120.698 70.3187 120.627 70.2985 120.56 70.2703C120.493 70.2375 120.431 70.1954 120.375 70.1453C120.315 70.0891 120.263 70.0252 120.22 69.9553C120.179 69.8815 120.149 69.8024 120.13 69.7203C120.118 69.6324 120.118 69.5432 120.13 69.4553C120.137 69.3596 120.157 69.2654 120.19 69.1753C120.263 68.9796 120.388 68.807 120.55 68.6753C120.637 68.6094 120.733 68.5556 120.835 68.5153C120.941 68.4761 121.052 68.4509 121.165 68.4403C121.283 68.4251 121.402 68.4251 121.52 68.4403C121.643 68.4644 121.763 68.5047 121.875 68.5603C121.991 68.6166 122.099 68.689 122.195 68.7753C122.295 68.8648 122.382 68.9674 122.455 69.0803C122.529 69.1989 122.588 69.3266 122.63 69.4603C122.675 69.5991 122.699 69.7442 122.7 69.8903C122.705 70.0399 122.69 70.1896 122.655 70.3353C122.616 70.4866 122.559 70.6327 122.485 70.7703C122.404 70.9098 122.307 71.0391 122.195 71.1553C122.079 71.2734 121.948 71.376 121.805 71.4603C121.655 71.5439 121.496 71.6094 121.33 71.6553C121.159 71.7012 120.982 71.7231 120.805 71.7203C120.622 71.7206 120.441 71.6954 120.265 71.6453C120.089 71.5951 119.921 71.5211 119.765 71.4253C119.598 71.3266 119.444 71.2055 119.31 71.0653C119.033 70.7723 118.836 70.4122 118.74 70.0203C118.691 69.8156 118.67 69.6055 118.675 69.3953C118.684 69.1818 118.72 68.9702 118.78 68.7653C118.845 68.554 118.937 68.3522 119.055 68.1653C119.175 67.9796 119.319 67.8114 119.485 67.6653C119.654 67.5088 119.842 67.3744 120.045 67.2653C120.256 67.1574 120.479 67.0768 120.71 67.0253C120.946 66.9731 121.188 66.9529 121.43 66.9653C121.678 66.9756 121.924 67.0194 122.16 67.0953C122.4 67.173 122.629 67.2823 122.84 67.4203C123.277 67.7058 123.632 68.1005 123.87 68.5653C123.991 68.8058 124.081 69.0614 124.135 69.3253C124.195 69.5943 124.215 69.8705 124.195 70.1453C124.179 70.4241 124.127 70.6997 124.04 70.9653C123.948 71.235 123.822 71.492 123.665 71.7303C123.417 72.0997 123.099 72.4166 122.728 72.6628C122.357 72.909 121.942 73.0798 121.505 73.1653C121.282 73.2179 121.054 73.2481 120.825 73.2553Z" fill="#3A474E" style="fill:#3A474E;fill:color(display-p3 0.2275 0.2784 0.3059);fill-opacity:1;"/>
<path d="M131.865 85.4202C131.583 85.4145 131.307 85.3353 131.065 85.1902C130.796 85.0308 130.546 84.8412 130.32 84.6252L130.185 84.5052C130.037 84.3624 129.88 84.2288 129.715 84.1052C129.594 84.004 129.446 83.9383 129.29 83.9152C129.134 83.9147 128.98 83.9562 128.845 84.0352C128.672 84.1299 128.505 84.2351 128.345 84.3502L128.185 84.4502C127.928 84.6304 127.652 84.7797 127.36 84.8952C127.062 85.015 126.734 85.0412 126.42 84.9702C126.113 84.8879 125.839 84.7134 125.635 84.4702C125.44 84.2314 125.272 83.9715 125.135 83.6952L125.05 83.5402C124.958 83.3573 124.854 83.1803 124.74 83.0102C124.657 82.8785 124.542 82.7702 124.405 82.6952C124.255 82.6472 124.095 82.6369 123.94 82.6652C123.737 82.6978 123.537 82.7428 123.34 82.8002L123.16 82.8452C123.063 82.8691 122.961 82.8535 122.876 82.8019C122.79 82.7504 122.729 82.667 122.705 82.5702C122.681 82.4734 122.697 82.3711 122.748 82.2858C122.8 82.2004 122.883 82.1391 122.98 82.1152L123.155 82.0702C123.385 82.0152 123.62 81.9552 123.835 81.9252C124.122 81.8665 124.419 81.8974 124.688 82.0137C124.956 82.13 125.182 82.326 125.335 82.5752C125.467 82.7697 125.587 82.9717 125.695 83.1802L125.78 83.3302C125.895 83.5588 126.036 83.7735 126.2 83.9702C126.305 84.1032 126.448 84.2009 126.61 84.2502C126.779 84.2803 126.952 84.2612 127.11 84.1952C127.35 84.0974 127.578 83.9733 127.79 83.8252L127.945 83.7252C128.136 83.5948 128.335 83.4763 128.54 83.3702C128.796 83.2256 129.087 83.1562 129.38 83.1702C129.673 83.2055 129.951 83.3195 130.185 83.5002C130.372 83.6418 130.55 83.7937 130.72 83.9552L130.85 84.0702C131.036 84.2573 131.24 84.4248 131.46 84.5702C131.611 84.6607 131.784 84.7058 131.96 84.7002C132.126 84.6762 132.281 84.6031 132.405 84.4902C132.59 84.3209 132.758 84.1333 132.905 83.9302L133.01 83.7902C133.149 83.6044 133.298 83.4259 133.455 83.2552C133.65 83.0357 133.903 82.8761 134.185 82.7952C134.471 82.7353 134.769 82.7543 135.045 82.8502C135.25 82.9152 135.455 83.0052 135.675 83.1002L135.855 83.1802C135.947 83.2193 136.019 83.2932 136.056 83.3856C136.093 83.4779 136.092 83.5812 136.053 83.6727C136.013 83.7642 135.94 83.8364 135.847 83.8735C135.755 83.9105 135.652 83.9093 135.56 83.8702L135.375 83.7902C135.195 83.7048 135.01 83.6313 134.82 83.5702C134.677 83.5138 134.521 83.4983 134.37 83.5252C134.223 83.5727 134.092 83.6591 133.99 83.7752C133.87 83.9052 133.74 84.0702 133.605 84.2452L133.5 84.3902C133.315 84.639 133.104 84.867 132.87 85.0702C132.63 85.2801 132.332 85.4111 132.015 85.4452L131.865 85.4202Z" fill="#A76A6A" style="fill:#A76A6A;fill:color(display-p3 0.6549 0.4157 0.4157);fill-opacity:1;"/>
<path d="M91.13 104.605C82.31 106.015 82.375 105.575 45.925 133.8L35.925 163.3C35.925 163.3 40.255 169.86 60.285 160.3C67.205 157 90.665 141.92 90.665 141.92C102.275 125.785 94.105 106.355 91.13 104.605Z" fill="#495963" style="fill:#495963;fill:color(display-p3 0.2863 0.3490 0.3882);fill-opacity:1;"/>
<path d="M75.315 87.2952C75.315 87.2952 76.015 86.9652 76.245 85.5102C76.475 84.0552 76.355 83.0102 76.58 81.4102C76.805 79.8102 77.58 77.0802 79.08 76.8152C80.58 76.5502 81.325 79.9952 81.33 82.7802C81.335 85.5652 81.33 87.2102 83.18 90.3752C85.03 93.5402 85.655 97.5802 83.65 101.08L75.315 87.2952Z" fill="#E49D80" style="fill:#E49D80;fill:color(display-p3 0.8941 0.6157 0.5020);fill-opacity:1;"/>
<path d="M83.205 102.635C81.365 105.925 77.01 109.96 74.865 114.475C73.165 118.055 71.365 122.975 66.41 135.89C62.41 146.43 61.745 148.93 59.825 152.855C57.905 156.78 56.115 158.77 52.795 160.855C49.095 163.17 46.37 164.28 42.195 164.96C40.981 165.24 39.7191 165.24 38.505 164.96C35.505 164.075 34.135 161.15 33.97 157.87C33.6592 152.227 34.4437 146.576 36.28 141.23C37.16 138.67 37.955 137.3 42.215 131.375C45.675 126.555 48.99 122.73 54.265 116.03C60.045 108.68 64.085 102.785 65.435 99.5803C66.785 96.3753 66.135 91.4653 65.505 89.1703C64.54 85.6703 64.005 85.7853 65.185 81.6703C66.07 78.9653 66.035 75.5403 66.365 73.3803C66.7443 71.2541 67.4174 69.191 68.365 67.2503C69.315 65.1103 70.07 62.3053 70.865 62.0353C71.66 61.7653 72.975 62.6503 72.865 64.3603C72.865 64.3603 73.92 63.1203 74.83 61.8303C75.74 60.5403 76.37 58.9203 77.62 58.6553C78.87 58.3903 79.425 60.3403 78.96 61.6553C78.495 62.9703 78.135 63.7653 78.135 63.7653C78.135 63.7653 79.34 64.3303 78.22 66.7653C77.7485 67.7361 77.1536 68.6419 76.45 69.4603C76 71.3203 75.905 72.2353 74.95 73.7503C74.38 75.5053 74.05 76.9903 73.205 78.4203C73.615 79.7103 74.635 81.2553 74.57 83.4753C74.505 85.6953 74.13 86.2103 76.68 88.9253C78.4 90.7553 81.355 92.8653 82.955 95.3703C84.555 97.8753 85.045 99.3503 83.205 102.635Z" fill="#F5C0AB" style="fill:#F5C0AB;fill:color(display-p3 0.9608 0.7529 0.6706);fill-opacity:1;"/>
<path d="M70.965 76.8403C70.9459 76.5048 70.9059 76.1708 70.845 75.8403C70.7889 75.5199 70.7154 75.2028 70.625 74.8903C70.5387 74.5861 70.4301 74.2886 70.3 74.0003L70.225 73.8453L70.325 73.6653C70.7133 72.9328 70.9817 72.1428 71.12 71.3253C71.1917 70.9172 71.2335 70.5045 71.245 70.0903C71.2531 69.6828 71.233 69.2751 71.185 68.8703V68.7203L71.235 68.6203C71.575 67.9503 71.9 67.2453 72.19 66.5353C72.4892 65.8224 72.7251 65.0846 72.895 64.3303C72.9462 65.0642 72.8718 65.8015 72.675 66.5103C72.4288 67.3045 72.1177 68.0771 71.745 68.8203C71.8249 69.2372 71.8635 69.6609 71.86 70.0853C71.8623 70.5464 71.8222 71.0066 71.74 71.4603C71.6155 72.2978 71.3248 73.1019 70.885 73.8253C70.97 74.1103 71.14 74.5003 71.19 74.7853C71.2732 75.1134 71.3284 75.4479 71.355 75.7853C71.3528 76.479 71.2258 77.1666 70.98 77.8153C70.97 77.5003 71 77.1703 70.965 76.8403Z" fill="#E49D80" style="fill:#E49D80;fill:color(display-p3 0.8941 0.6157 0.5020);fill-opacity:1;"/>
<path d="M72.775 75.3803C72.9031 74.8642 73.0049 74.3418 73.08 73.8153C73.1472 73.298 73.1822 72.777 73.185 72.2553C73.1896 71.7521 73.1444 71.2496 73.05 70.7553L73 70.5003L73.225 70.3253C73.9468 69.7763 74.5605 69.0981 75.035 68.3253C75.5214 67.5461 75.9014 66.7053 76.165 65.8253L76.2 65.7003L76.27 65.6503C76.6247 65.4042 76.9592 65.13 77.27 64.8303C77.5933 64.5275 77.8848 64.1924 78.14 63.8303C78.0033 64.2215 77.8041 64.588 77.55 64.9153C77.2305 65.2793 76.8791 65.6139 76.5 65.9153C76.4359 66.3886 76.3305 66.8554 76.185 67.3103C76.0307 67.7424 75.8365 68.1592 75.605 68.5553C75.3547 68.9985 75.0562 69.4127 74.715 69.7903C74.4024 70.1394 74.0538 70.4545 73.675 70.7303C73.7659 71.2888 73.8027 71.8548 73.785 72.4203C73.7748 72.9851 73.7111 73.5476 73.595 74.1003C73.4909 74.5947 73.3368 75.0772 73.135 75.5403C72.8996 76.0414 72.622 76.5215 72.305 76.9753C72.47 76.4153 72.655 75.9053 72.775 75.3803Z" fill="#E49D80" style="fill:#E49D80;fill:color(display-p3 0.8941 0.6157 0.5020);fill-opacity:1;"/>
<path d="M72.5 81.3704C72.5063 82.3701 72.746 83.3546 73.2 84.2454C73.6469 85.1369 74.2344 85.9506 74.94 86.6554C74.74 86.1954 74.495 85.7704 74.27 85.3404C74.045 84.9104 73.815 84.4854 73.605 84.0554C73.1798 83.1848 72.8107 82.288 72.5 81.3704Z" fill="#E49D80" style="fill:#E49D80;fill:color(display-p3 0.8941 0.6157 0.5020);fill-opacity:1;"/>
<path d="M80.875 92.6853C81.4229 94.3658 81.5936 96.1464 81.375 97.9003C81.2536 98.7627 81.013 99.6041 80.66 100.4C80.2799 101.219 79.8474 102.012 79.365 102.775C80.132 102.219 80.7841 101.52 81.285 100.715C82.0406 99.4981 82.4045 98.0783 82.3276 96.6477C82.2507 95.2171 81.7367 93.8445 80.855 92.7153L80.875 92.6853Z" fill="#E49D80" style="fill:#E49D80;fill:color(display-p3 0.8941 0.6157 0.5020);fill-opacity:1;"/>
<path d="M159 41.1952C157.185 36.9052 151.57 34.5452 143.22 34.5452H142.695C138.933 34.6202 135.185 35.042 131.5 35.8052C116.955 38.7252 100.725 46.3902 90.595 55.5052C89.855 56.1702 89.145 56.8402 88.475 57.5052C82.385 63.6602 80.055 69.4602 81.91 73.8402C83.445 77.4552 87.66 79.6902 93.965 80.3052C93.7318 79.9654 93.5229 79.6095 93.34 79.2402C87.84 78.5802 84.16 76.5802 82.84 73.4452C81.155 69.4702 83.41 64.0552 89.195 58.2052C89.51 57.8852 89.835 57.5702 90.165 57.2502C100.265 47.6102 117.455 39.4352 132.59 36.6002C135.915 35.9539 139.289 35.5976 142.675 35.5352C150.915 35.4502 156.36 37.5902 158.05 41.5702C159.74 45.5502 157.5 51.0002 151.7 56.8252C150.95 57.5852 150.155 58.3352 149.315 59.0752C149.441 59.3957 149.597 59.7037 149.78 59.9952C150.705 59.1852 151.585 58.3602 152.41 57.5252C158.5 51.3702 160.83 45.5702 159 41.1952Z" fill="#EB4A41" style="fill:#EB4A41;fill:color(display-p3 0.9216 0.2902 0.2549);fill-opacity:1;"/>
<path d="M152 57.3501C151.35 56.7601 150.665 56.1801 149.955 55.6101C138.64 46.4501 120.38 39.3351 104.955 37.7651C102.922 37.5489 100.879 37.4388 98.835 37.4351C98.08 37.4351 97.335 37.4351 96.6 37.4851C87.955 37.8801 82.305 40.5601 80.7 45.0351C79.095 49.5101 81.75 55.1701 88.2 60.9751C88.725 61.4751 89.265 61.9151 89.83 62.3801C89.81 61.9434 89.81 61.5034 89.83 61.0601C89.505 60.7851 89.195 60.5101 88.885 60.2301C82.775 54.7301 80.22 49.4401 81.675 45.3751C83.13 41.3101 88.465 38.8751 96.675 38.4801C98.5614 38.4 100.451 38.4217 102.335 38.5451C113.47 39.2351 126.485 43.1001 137.335 48.6901C138.835 49.4551 140.255 50.2501 141.64 51.0751C144.377 52.6881 146.991 54.5014 149.46 56.5001C150.103 57.0234 150.723 57.5551 151.32 58.0951C157.425 63.5951 159.985 68.8851 158.525 72.9501C157.245 76.5151 152.995 78.8351 146.44 79.6101C146.415 79.9551 146.385 80.2901 146.355 80.6101C153.43 79.8101 158.04 77.2551 159.465 73.2801C161.075 68.8151 158.415 63.1551 152 57.3501Z" fill="#EB4A41" style="fill:#EB4A41;fill:color(display-p3 0.9216 0.2902 0.2549);fill-opacity:1;"/>
<path d="M110.305 31.6651L107.675 31.1251L105.96 34.4451L105.535 30.6851L102.585 30.0801L105.065 28.9601L104.785 25.3201L107.02 28.0701L110.305 26.9651L108.415 29.5951L110.305 31.6651Z" fill="#EB4A41" style="fill:#EB4A41;fill:color(display-p3 0.9216 0.2902 0.2549);fill-opacity:1;"/>
<path d="M137.33 29.8102L138.615 28.6102L137.495 26.4352L139.66 27.6352L141.1 26.2952L140.76 28.0402L142.805 29.2702L140.49 29.4202L139.835 31.5902L139.15 29.5852L137.33 29.8102Z" fill="#EB4A41" style="fill:#EB4A41;fill:color(display-p3 0.9216 0.2902 0.2549);fill-opacity:1;"/>
<path d="M89.435 88.6551L90.72 87.4551L89.6 85.2801L91.765 86.4801L93.205 85.1401L92.865 86.8851L94.91 88.1151L92.595 88.2651L91.94 90.4351L91.255 88.4301L89.435 88.6551Z" fill="#EB4A41" style="fill:#EB4A41;fill:color(display-p3 0.9216 0.2902 0.2549);fill-opacity:1;"/>
<path d="M148.64 89.3201L150.305 87.7651L148.855 84.9501L151.66 86.5051L153.525 84.7651L153.085 87.0251L155.73 88.6201L152.735 88.8151L151.885 91.6251L151 89.0301L148.64 89.3201Z" fill="#EB4A41" style="fill:#EB4A41;fill:color(display-p3 0.9216 0.2902 0.2549);fill-opacity:1;"/>
<path d="M72.365 55.5001C72.1977 55.5004 72.0306 55.4887 71.865 55.4651C71.2243 55.3739 70.6179 55.1189 70.1046 54.7248C69.5913 54.3306 69.1885 53.8106 68.935 53.2151C68.7537 52.7128 68.7157 52.1699 68.8252 51.6472C68.9347 51.1245 69.1874 50.6425 69.555 50.2551C69.8194 49.9144 70.1724 49.653 70.5754 49.4995C70.9785 49.3461 71.416 49.3065 71.84 49.3851C72.3023 49.4548 72.7386 49.6435 73.1059 49.9328C73.4732 50.2221 73.7589 50.602 73.935 51.0351C74.0558 51.3969 74.073 51.7854 73.9847 52.1565C73.8963 52.5276 73.7059 52.8665 73.435 53.1351C73.2757 53.3449 73.0664 53.5115 72.8263 53.6198C72.5861 53.7281 72.3227 53.7746 72.06 53.7551C71.7737 53.7314 71.4969 53.6408 71.252 53.4905C71.0071 53.3403 70.8009 53.1346 70.65 52.8901C70.5274 52.6468 70.4782 52.3731 70.5084 52.1024C70.5386 51.8316 70.6469 51.5755 70.82 51.3651C70.9676 51.1918 71.17 51.074 71.3937 51.0312C71.6173 50.9885 71.8489 51.0234 72.05 51.1301C72.2 51.1875 72.3243 51.2967 72.4005 51.438C72.4767 51.5794 72.4995 51.7433 72.465 51.9001C72.4537 52.0165 72.4021 52.1252 72.3189 52.2074C72.2358 52.2897 72.1265 52.3401 72.01 52.3501C71.9444 52.349 71.8817 52.3231 71.8344 52.2776C71.7871 52.2322 71.7588 52.1706 71.755 52.1051C71.7548 52.0456 71.775 51.9877 71.8124 51.9413C71.8497 51.8949 71.9018 51.8627 71.96 51.8501C71.9749 51.8098 71.9749 51.7654 71.96 51.7251C71.9537 51.6948 71.9398 51.6665 71.9197 51.6429C71.8996 51.6193 71.8739 51.6012 71.845 51.5901C71.7392 51.5291 71.6158 51.5058 71.495 51.524C71.3743 51.5421 71.2632 51.6007 71.18 51.6901C71.0758 51.8229 71.0104 51.9819 70.991 52.1496C70.9716 52.3173 70.9989 52.487 71.07 52.6401C71.1788 52.8125 71.3254 52.9579 71.4986 53.0653C71.6718 53.1727 71.8672 53.2393 72.07 53.2601C72.2549 53.2716 72.4397 53.2364 72.6075 53.1578C72.7753 53.0791 72.9205 52.9596 73.03 52.8101C73.2438 52.6081 73.3966 52.35 73.4708 52.0653C73.5451 51.7807 73.5379 51.4809 73.45 51.2001C73.3009 50.8527 73.0656 50.5491 72.7664 50.3181C72.4671 50.0871 72.1138 49.9363 71.74 49.8801C71.404 49.8154 71.0566 49.8458 70.7369 49.9677C70.4171 50.0895 70.1377 50.2982 69.93 50.5701C69.6139 50.8875 69.3952 51.2887 69.2995 51.7263C69.2038 52.1639 69.2352 52.6198 69.39 53.0401C69.6137 53.5507 69.9639 53.9959 70.4074 54.3336C70.851 54.6713 71.3733 54.8904 71.925 54.9701C72.4137 55.0496 72.9149 54.9922 73.373 54.8042C73.831 54.6162 74.228 54.305 74.52 53.9051C75.0435 53.3244 75.3431 52.5762 75.3651 51.7947C75.3871 51.0132 75.13 50.2493 74.64 49.6401C73.77 48.4301 72.005 47.4751 70.2 48.2401C70.1696 48.2544 70.1365 48.2625 70.1029 48.2637C70.0693 48.265 70.0358 48.2594 70.0043 48.2474C69.9729 48.2354 69.9442 48.2172 69.92 48.1938C69.8958 48.1705 69.8765 48.1424 69.8634 48.1115C69.8503 48.0805 69.8435 48.0472 69.8436 48.0135C69.8436 47.9799 69.8505 47.9466 69.8637 47.9157C69.8769 47.8847 69.8962 47.8568 69.9205 47.8335C69.9448 47.8102 69.9735 47.792 70.005 47.7801C72.06 46.9051 74.06 47.9801 75.05 49.3501C75.6023 50.05 75.8908 50.9218 75.8652 51.813C75.8396 52.7042 75.5015 53.558 74.91 54.2251C74.6146 54.6213 74.2305 54.943 73.7887 55.1643C73.3468 55.3857 72.8592 55.5007 72.365 55.5001Z" fill="#EB4A41" style="fill:#EB4A41;fill:color(display-p3 0.9216 0.2902 0.2549);fill-opacity:1;"/>
<path d="M124.09 27.3301H124.035C123.146 27.3571 122.275 27.0718 121.575 26.5238C120.874 25.9757 120.388 25.1995 120.2 24.3301C120.032 23.773 120.02 23.1805 120.166 22.6172C120.311 22.0538 120.608 21.5412 121.025 21.1351C121.482 20.6766 122.049 20.3437 122.671 20.1685C123.294 19.9934 123.952 19.9818 124.58 20.1351C125.09 20.2894 125.547 20.5825 125.9 20.9815C126.254 21.3806 126.489 21.87 126.58 22.3951C126.697 22.8096 126.697 23.2483 126.581 23.6629C126.464 24.0776 126.236 24.452 125.92 24.7451C125.589 25.0761 125.177 25.3148 124.726 25.4376C124.274 25.5604 123.798 25.563 123.345 25.4451C122.982 25.3257 122.661 25.1067 122.417 24.8131C122.173 24.5196 122.016 24.1633 121.965 23.7851C121.891 23.532 121.882 23.2645 121.938 23.0069C121.993 22.7493 122.113 22.5097 122.285 22.3101C122.475 22.0952 122.713 21.9277 122.98 21.821C123.246 21.7142 123.534 21.6711 123.82 21.6951C124.088 21.7431 124.337 21.8671 124.536 22.0524C124.735 22.2377 124.877 22.4764 124.945 22.7401C124.992 22.9622 124.964 23.1937 124.866 23.3982C124.767 23.6027 124.603 23.7687 124.4 23.8701C124.263 23.9536 124.101 23.9868 123.943 23.964C123.784 23.9412 123.638 23.8638 123.53 23.7451C123.445 23.6662 123.39 23.5602 123.375 23.4453C123.359 23.3304 123.384 23.2136 123.445 23.1151C123.483 23.0677 123.536 23.0356 123.596 23.0248C123.656 23.0141 123.717 23.0253 123.769 23.0565C123.821 23.0876 123.86 23.1366 123.879 23.1943C123.897 23.252 123.894 23.3145 123.87 23.3701C123.894 23.4056 123.927 23.4347 123.965 23.4551C123.992 23.4695 124.022 23.4771 124.053 23.4771C124.083 23.4771 124.113 23.4695 124.14 23.4551C124.253 23.407 124.346 23.3216 124.403 23.2133C124.46 23.105 124.479 22.9803 124.455 22.8601C124.411 22.6979 124.323 22.5512 124.2 22.4363C124.077 22.3215 123.925 22.2432 123.76 22.2101C123.555 22.1946 123.35 22.2262 123.159 22.3024C122.968 22.3787 122.798 22.4976 122.66 22.6501C122.541 22.7921 122.459 22.9617 122.423 23.1434C122.386 23.325 122.395 23.513 122.45 23.6901C122.494 23.9747 122.615 24.2418 122.8 24.4623C122.985 24.6827 123.227 24.848 123.5 24.9401C123.868 25.0292 124.252 25.0223 124.617 24.9198C124.981 24.8173 125.313 24.6229 125.58 24.3551C125.83 24.1216 126.01 23.8225 126.098 23.4918C126.187 23.1612 126.18 22.8123 126.08 22.4851C126.012 22.0435 125.82 21.6304 125.526 21.294C125.232 20.9576 124.848 20.7117 124.42 20.5851C123.877 20.4614 123.311 20.4777 122.776 20.6325C122.241 20.7873 121.753 21.0755 121.36 21.4701C121.004 21.8149 120.751 22.2516 120.628 22.7318C120.505 23.212 120.518 23.7168 120.665 24.1901C120.821 24.9562 121.244 25.6422 121.858 26.1257C122.473 26.6092 123.239 26.8588 124.02 26.8301C125.49 26.8301 127.33 26.0051 127.79 24.0951C127.805 24.0309 127.846 23.9754 127.902 23.9407C127.958 23.906 128.026 23.895 128.09 23.9101C128.122 23.9171 128.153 23.9305 128.179 23.9496C128.206 23.9686 128.229 23.9928 128.246 24.0208C128.263 24.0488 128.275 24.08 128.28 24.1125C128.285 24.145 128.283 24.1782 128.275 24.2101C127.78 26.3601 125.765 27.3301 124.09 27.3301Z" fill="#EB4A41" style="fill:#EB4A41;fill:color(display-p3 0.9216 0.2902 0.2549);fill-opacity:1;"/>
<path d="M169 52.925C168.384 52.9211 167.778 52.7666 167.235 52.475C166.699 52.2496 166.236 51.8813 165.896 51.4104C165.556 50.9395 165.351 50.3842 165.305 49.805C165.241 49.16 165.346 48.5094 165.609 47.917C165.872 47.3245 166.284 46.8104 166.805 46.425C167.247 46.1334 167.761 45.9693 168.29 45.9507C168.819 45.9322 169.344 46.06 169.805 46.32C170.198 46.4936 170.536 46.7721 170.781 47.1249C171.026 47.4777 171.169 47.8912 171.195 48.32C171.238 48.7861 171.158 49.2553 170.964 49.6814C170.771 50.1075 170.469 50.4758 170.09 50.75C169.767 50.9512 169.393 51.0578 169.012 51.0578C168.632 51.0578 168.258 50.9512 167.935 50.75C167.694 50.6471 167.482 50.4858 167.319 50.2807C167.156 50.0756 167.046 49.833 167 49.575C166.954 49.2917 166.976 49.0016 167.063 48.728C167.149 48.4545 167.299 48.2051 167.5 48C167.707 47.8218 167.961 47.7075 168.232 47.6711C168.503 47.6348 168.778 47.6778 169.025 47.795C169.221 47.9051 169.375 48.0758 169.466 48.2814C169.556 48.4871 169.577 48.7165 169.525 48.935C169.503 49.0931 169.427 49.2385 169.309 49.3463C169.191 49.454 169.039 49.5172 168.88 49.525C168.764 49.5417 168.646 49.5173 168.547 49.4561C168.447 49.3949 168.372 49.3007 168.335 49.19C168.325 49.1585 168.322 49.1253 168.326 49.0925C168.329 49.0597 168.34 49.028 168.356 48.9994C168.372 48.9707 168.395 48.9458 168.421 48.9261C168.448 48.9065 168.478 48.8925 168.51 48.885C168.567 48.8687 168.628 48.8734 168.682 48.8982C168.736 48.9229 168.78 48.9661 168.805 49.02C168.845 49.0359 168.89 49.0359 168.93 49.02C168.957 49.0061 168.981 48.9855 168.998 48.9602C169.016 48.9348 169.027 48.9056 169.03 48.875C169.064 48.7581 169.058 48.6329 169.012 48.5201C168.965 48.4074 168.882 48.3138 168.775 48.255C168.622 48.1852 168.452 48.1594 168.285 48.1806C168.118 48.2018 167.961 48.2691 167.83 48.375C167.692 48.5242 167.59 48.7035 167.533 48.8987C167.475 49.0939 167.464 49.2997 167.5 49.5C167.53 49.6825 167.607 49.8543 167.722 49.9987C167.838 50.1432 167.989 50.2555 168.16 50.325C168.407 50.4854 168.694 50.5729 168.989 50.5773C169.283 50.5818 169.573 50.503 169.825 50.35C170.127 50.1236 170.366 49.8238 170.519 49.4789C170.672 49.1341 170.734 48.7558 170.7 48.38C170.684 48.0366 170.572 47.7045 170.377 47.4216C170.181 47.1387 169.911 46.9164 169.595 46.78C169.214 46.5544 168.778 46.4408 168.336 46.4523C167.893 46.4638 167.463 46.5999 167.095 46.845C166.653 47.1839 166.303 47.6296 166.08 48.1404C165.857 48.6511 165.768 49.2101 165.82 49.765C165.858 50.2589 166.033 50.7325 166.324 51.1332C166.615 51.534 167.012 51.8461 167.47 52.035C168.159 52.4057 168.957 52.5192 169.722 52.3553C170.487 52.1913 171.169 51.7605 171.645 51.14C172.615 50 173.12 48.06 171.945 46.49C171.905 46.437 171.888 46.3703 171.897 46.3046C171.907 46.239 171.942 46.1798 171.995 46.14C172.048 46.1015 172.115 46.0852 172.18 46.0945C172.245 46.1038 172.304 46.138 172.345 46.19C173.685 47.985 173.12 50.19 172.025 51.465C171.659 51.9152 171.198 52.2793 170.675 52.5316C170.152 52.7839 169.58 52.9182 169 52.925Z" fill="#EB4A41" style="fill:#EB4A41;fill:color(display-p3 0.9216 0.2902 0.2549);fill-opacity:1;"/>
</svg>
