<?xml version="1.0" ?><svg style="enable-background:new 0 0 48 48;" version="1.1" viewBox="0 0 48 48" xml:space="preserve" xmlns="http://www.w3.org/2000/svg" xmlns:xlink="http://www.w3.org/1999/xlink"><g id="Icons"><g><path d="M18.33815,22.23848c0,0-0.3011,3.8869-2.1135,5.6892l4.3344-1.0829v-1.3987    C20.55905,25.44608,18.78815,23.55898,18.33815,22.23848z" style="fill:#464747;"/><path d="M20.45935,25.36678l-0.1179,1.3657l-5.3195,1.4106c-2.8838,0.7648-5.1577,2.595-6.1361,4.9392    l-1.4261,3.4168c0,0,15.8532,5.9318,33.0805,0.0273l-1.4261-3.4168c-0.9784-2.3441-3.2523-4.1744-6.1362-4.9392l-5.3195-1.4107    l-0.1072-1.3224" style="fill:#F4F4F4;"/><path d="M29.55145,22.09548c0,0,0.3609,3.9848,2.1732,5.7871l-4.2077-1.004l-0.1387-1.4776    C27.37825,25.40098,29.10145,23.41598,29.55145,22.09548z" style="fill:#464747;"/><path d="M27.65845,26.89048c0.0001,3.849-7.3558,3.8115-7.3559-0.0323v-2.0102l7.3559,0.1393V26.89048z" style="fill:#DDBEA8;"/><path d="M29.05985,21.20768c0.8471,0.1502,1.2319-0.3868,1.4792-1.4047    c0.2474-1.0179,0.5594-1.5289,0.3141-2.3776l-0.0285-3.8233c0-6.3275-13.6995-6.3275-13.6995,0l0.1038,3.9026    c-0.7895,0.1502,0.2151,1.7058,0.4456,2.7237c0.2305,1.0178,0.7867,1.3538,1.5761,1.2036" style="fill:#464747;"/><path d="M18.73905,19.08648c-0.0319-0.0334-1.5101-1.6611-1.5101-1.6611s-1.0673,0.4847-1.0722,1.874    c-0.0048,1.3894,0.5067,2.0891,1.9069,2.2804c0,0,0.7156,3.093,3.1338,4.3078s5.0751,1.3908,6.9131-1.1528    c1.8379-2.5436,1.6661-3.1347,1.6661-3.1347s1.308,0.3062,1.8869-1.1992c0.579-1.5053-0.0026-2.1839-0.8104-2.9755l-1.8544,1.5833    v-3.2675c0-1.3719-1.1121-2.484-2.484-2.484h-5.2557c-1.3616,0-2.4694,1.096-2.4839,2.4575L18.73905,19.08648z" style="fill:#F9D9C0;"/></g></g></svg>