<svg width="250" height="250" viewBox="0 0 250 250" fill="none" xmlns="http://www.w3.org/2000/svg">
<path d="M250 191.2H0V191.325H250V191.2Z" fill="#EBEBEB" style="fill:#EBEBEB;fill:color(display-p3 0.9216 0.9216 0.9216);fill-opacity:1;"/>
<path d="M221.945 198.405H192V198.53H221.945V198.405Z" fill="#EBEBEB" style="fill:#EBEBEB;fill:color(display-p3 0.9216 0.9216 0.9216);fill-opacity:1;"/>
<path d="M169.45 195.7H143.165V195.825H169.45V195.7Z" fill="#EBEBEB" style="fill:#EBEBEB;fill:color(display-p3 0.9216 0.9216 0.9216);fill-opacity:1;"/>
<path d="M189.295 198.345H181.12V198.47H189.295V198.345Z" fill="#EBEBEB" style="fill:#EBEBEB;fill:color(display-p3 0.9216 0.9216 0.9216);fill-opacity:1;"/>
<path d="M52.39 195.64H28.055V195.765H52.39V195.64Z" fill="#EBEBEB" style="fill:#EBEBEB;fill:color(display-p3 0.9216 0.9216 0.9216);fill-opacity:1;"/>
<path d="M59.825 195.64H54.61V195.765H59.825V195.64Z" fill="#EBEBEB" style="fill:#EBEBEB;fill:color(display-p3 0.9216 0.9216 0.9216);fill-opacity:1;"/>
<path d="M101.165 196.715H84.34V196.84H101.165V196.715Z" fill="#EBEBEB" style="fill:#EBEBEB;fill:color(display-p3 0.9216 0.9216 0.9216);fill-opacity:1;"/>
<path d="M118.5 168.9H21.955C21.1987 168.899 20.4738 168.597 19.9395 168.062C19.4051 167.527 19.105 166.801 19.105 166.045V30.33C19.1116 29.578 19.4146 28.859 19.9482 28.3291C20.4819 27.7992 21.203 27.5013 21.955 27.5H118.5C119.257 27.5 119.983 27.8008 120.519 28.3362C121.054 28.8716 121.355 29.5978 121.355 30.355V166.045C121.355 166.802 121.054 167.528 120.519 168.064C119.983 168.599 119.257 168.9 118.5 168.9ZM21.955 27.6C21.2318 27.6013 20.5387 27.8895 20.0278 28.4014C19.5169 28.9132 19.23 29.6068 19.23 30.33V166.045C19.23 166.768 19.5169 167.462 20.0278 167.974C20.5387 168.485 21.2318 168.774 21.955 168.775H118.5C119.224 168.774 119.917 168.486 120.429 167.974C120.941 167.462 121.229 166.769 121.23 166.045V30.33C121.229 29.6064 120.941 28.9127 120.429 28.4011C119.917 27.8894 119.224 27.6013 118.5 27.6H21.955Z" fill="#EBEBEB" style="fill:#EBEBEB;fill:color(display-p3 0.9216 0.9216 0.9216);fill-opacity:1;"/>
<path d="M226.655 168.9H130.105C129.348 168.899 128.623 168.597 128.088 168.062C127.553 167.527 127.251 166.802 127.25 166.045V30.33C127.258 29.5776 127.562 28.8585 128.096 28.3288C128.631 27.7991 129.353 27.5013 130.105 27.5H226.655C227.406 27.5026 228.126 27.8011 228.659 28.3309C229.191 28.8606 229.493 29.5789 229.5 30.33V166.045C229.5 166.8 229.201 167.525 228.667 168.06C228.134 168.595 227.41 168.897 226.655 168.9ZM130.105 27.6C129.381 27.6013 128.688 27.8894 128.176 28.4011C127.664 28.9127 127.376 29.6064 127.375 30.33V166.045C127.376 166.769 127.664 167.462 128.176 167.974C128.688 168.486 129.381 168.774 130.105 168.775H226.655C227.379 168.774 228.072 168.486 228.584 167.974C229.096 167.462 229.384 166.769 229.385 166.045V30.33C229.384 29.6064 229.096 28.9127 228.584 28.4011C228.072 27.8894 227.379 27.6013 226.655 27.6H130.105Z" fill="#EBEBEB" style="fill:#EBEBEB;fill:color(display-p3 0.9216 0.9216 0.9216);fill-opacity:1;"/>
<path d="M226.555 141.15H23.445V144.66H226.555V141.15Z" fill="#EBEBEB" style="fill:#EBEBEB;fill:color(display-p3 0.9216 0.9216 0.9216);fill-opacity:1;"/>
<path d="M56.34 123.315L193.655 123.315V40.4749L56.34 40.4749V123.315Z" fill="#F0F0F0" style="fill:#F0F0F0;fill:color(display-p3 0.9412 0.9412 0.9412);fill-opacity:1;"/>
<path d="M189.945 119.605V44.1851L60.05 44.1851V119.605L189.945 119.605Z" fill="#FAFAFA" style="fill:#FAFAFA;fill:color(display-p3 0.9804 0.9804 0.9804);fill-opacity:1;"/>
<path d="M168.91 119.605L145.24 44.1851H121.8L145.47 119.605H168.91Z" fill="white" style="fill:white;fill-opacity:1;"/>
<path d="M138.205 119.605L114.535 44.1851H105.395L129.065 119.605H138.205Z" fill="white" style="fill:white;fill-opacity:1;"/>
<path d="M60.525 119.605L60.525 44.1851H60.055L60.055 119.605H60.525Z" fill="#E6E6E6" style="fill:#E6E6E6;fill:color(display-p3 0.9020 0.9020 0.9020);fill-opacity:1;"/>
<path d="M224.83 144.66H25.165V191.2H224.83V144.66Z" fill="#F5F5F5" style="fill:#F5F5F5;fill:color(display-p3 0.9608 0.9608 0.9608);fill-opacity:1;"/>
<path d="M142.91 144.66H129.465L107.09 191.2H120.535L142.91 144.66Z" fill="#FAFAFA" style="fill:#FAFAFA;fill:color(display-p3 0.9804 0.9804 0.9804);fill-opacity:1;"/>
<path d="M204.54 144.66H191.095L168.72 191.2H182.165L204.54 144.66Z" fill="#FAFAFA" style="fill:#FAFAFA;fill:color(display-p3 0.9804 0.9804 0.9804);fill-opacity:1;"/>
<path d="M124.415 144.66H110.97L88.6 191.2H102.045L124.415 144.66Z" fill="#FAFAFA" style="fill:#FAFAFA;fill:color(display-p3 0.9804 0.9804 0.9804);fill-opacity:1;"/>
<path d="M43.71 138L39.5 133.125V124.325C39.5818 124.322 39.6594 124.288 39.7163 124.229C39.7732 124.17 39.805 124.092 39.805 124.01C39.805 123.925 39.7713 123.844 39.7113 123.784C39.6513 123.724 39.5699 123.69 39.485 123.69H35C34.9151 123.69 34.8337 123.724 34.7737 123.784C34.7137 123.844 34.68 123.925 34.68 124.01C34.68 124.092 34.7118 124.17 34.7687 124.229C34.8256 124.288 34.9032 124.322 34.985 124.325V133.125L30.79 138C30.552 138.275 30.3981 138.613 30.3469 138.973C30.2956 139.333 30.3491 139.7 30.5009 140.031C30.6528 140.361 30.8966 140.641 31.2032 140.837C31.5098 141.033 31.8662 141.136 32.23 141.135H42.27C42.6338 141.136 42.9902 141.033 43.2969 140.837C43.6035 140.641 43.8472 140.361 43.9991 140.031C44.1509 139.7 44.2044 139.333 44.1531 138.973C44.1019 138.613 43.948 138.275 43.71 138Z" fill="#F5F5F5" style="fill:#F5F5F5;fill:color(display-p3 0.9608 0.9608 0.9608);fill-opacity:1;"/>
<path d="M150.93 138L146.72 133.11V114.61C146.805 114.61 146.886 114.576 146.946 114.516C147.006 114.456 147.04 114.375 147.04 114.29C147.04 114.205 147.006 114.124 146.946 114.064C146.886 114.004 146.805 113.97 146.72 113.97H142.255C142.17 113.97 142.089 114.004 142.029 114.064C141.969 114.124 141.935 114.205 141.935 114.29C141.935 114.375 141.969 114.456 142.029 114.516C142.089 114.576 142.17 114.61 142.255 114.61V133.11L138 138C137.762 138.275 137.608 138.613 137.557 138.973C137.506 139.333 137.559 139.7 137.711 140.031C137.863 140.362 138.107 140.641 138.413 140.837C138.72 141.033 139.076 141.136 139.44 141.135H149.5C149.863 141.134 150.218 141.03 150.523 140.833C150.828 140.637 151.071 140.357 151.221 140.026C151.372 139.696 151.424 139.33 151.373 138.97C151.321 138.611 151.167 138.274 150.93 138Z" fill="#F5F5F5" style="fill:#F5F5F5;fill:color(display-p3 0.9608 0.9608 0.9608);fill-opacity:1;"/>
<path d="M106.505 141.125H71.665L74.415 106.28H106.505V141.125Z" fill="#E0E0E0" style="fill:#E0E0E0;fill:color(display-p3 0.8784 0.8784 0.8784);fill-opacity:1;"/>
<path d="M121.84 131.78H87L83.84 106.28H118.68L121.84 131.78Z" fill="#F0F0F0" style="fill:#F0F0F0;fill:color(display-p3 0.9412 0.9412 0.9412);fill-opacity:1;"/>
<path d="M121.84 131.78H87L97.88 141.15H132.72L121.84 131.78Z" fill="#F0F0F0" style="fill:#F0F0F0;fill:color(display-p3 0.9412 0.9412 0.9412);fill-opacity:1;"/>
<path d="M88.54 128.08L86.3 110C86.2652 109.786 86.2783 109.566 86.3383 109.358C86.3984 109.149 86.5039 108.956 86.6473 108.793C86.7907 108.63 86.9685 108.501 87.1678 108.415C87.3671 108.329 87.583 108.288 87.8 108.295H115.235C115.703 108.31 116.152 108.489 116.502 108.8C116.852 109.112 117.081 109.536 117.15 110L119.39 128.095C119.424 128.309 119.41 128.528 119.35 128.736C119.289 128.944 119.184 129.136 119.041 129.298C118.897 129.461 118.72 129.59 118.521 129.675C118.322 129.761 118.107 129.802 117.89 129.795H90.455C89.9852 129.78 89.5357 129.6 89.1855 129.286C88.8353 128.972 88.6068 128.545 88.54 128.08Z" fill="#E0E0E0" style="fill:#E0E0E0;fill:color(display-p3 0.8784 0.8784 0.8784);fill-opacity:1;"/>
<path d="M180.42 141.125H209.205L206.935 112.345H180.42V141.125Z" fill="#E0E0E0" style="fill:#E0E0E0;fill:color(display-p3 0.8784 0.8784 0.8784);fill-opacity:1;"/>
<path d="M167.755 133.41H196.535L199.15 112.345H170.365L167.755 133.41Z" fill="#F0F0F0" style="fill:#F0F0F0;fill:color(display-p3 0.9412 0.9412 0.9412);fill-opacity:1;"/>
<path d="M167.755 133.41H196.535L187.55 141.15H158.765L167.755 133.41Z" fill="#F0F0F0" style="fill:#F0F0F0;fill:color(display-p3 0.9412 0.9412 0.9412);fill-opacity:1;"/>
<path d="M195.265 130.355L197.12 115.4C197.148 115.223 197.137 115.043 197.087 114.871C197.037 114.7 196.951 114.541 196.833 114.407C196.715 114.273 196.569 114.167 196.405 114.095C196.241 114.024 196.064 113.99 195.885 113.995H173.22C172.833 114.005 172.463 114.152 172.173 114.409C171.884 114.666 171.695 115.017 171.64 115.4L169.785 130.355C169.757 130.531 169.768 130.711 169.818 130.882C169.867 131.053 169.953 131.212 170.071 131.346C170.188 131.48 170.334 131.586 170.497 131.658C170.66 131.729 170.837 131.764 171.015 131.76H193.685C194.072 131.75 194.443 131.603 194.732 131.346C195.021 131.089 195.21 130.738 195.265 130.355Z" fill="#E0E0E0" style="fill:#E0E0E0;fill:color(display-p3 0.8784 0.8784 0.8784);fill-opacity:1;"/>
<path d="M125 213.78C178.541 213.78 221.945 211.246 221.945 208.12C221.945 204.994 178.541 202.46 125 202.46C71.4587 202.46 28.055 204.994 28.055 208.12C28.055 211.246 71.4587 213.78 125 213.78Z" fill="#F5F5F5" style="fill:#F5F5F5;fill:color(display-p3 0.9608 0.9608 0.9608);fill-opacity:1;"/>
<path opacity="0.2" d="M43.5 62.6598L70.33 165.16C71.1548 168.276 73.1797 170.94 75.9623 172.568C78.7448 174.197 82.0588 174.657 85.18 173.85C88.2967 173.025 90.9602 171 92.5886 168.217C94.2169 165.435 94.6776 162.121 93.87 159L67.04 56.4998L43.5 62.6598Z" fill="#EB4A41" style="fill:#EB4A41;fill:color(display-p3 0.9216 0.2902 0.2549);fill-opacity:1;"/>
<path d="M84.42 170.95C82.0683 171.562 79.5699 171.217 77.4723 169.99C75.3747 168.763 73.8491 166.755 73.23 164.405L53 87.0549C53 87.0549 57.095 84.2599 61.87 84.7349C64.9721 84.9568 68.0834 84.4571 70.96 83.2749L90.96 159.775C91.5693 162.124 91.2232 164.618 89.9975 166.713C88.7718 168.807 86.7663 170.331 84.42 170.95Z" fill="#EB4A41" style="fill:#EB4A41;fill:color(display-p3 0.9216 0.2902 0.2549);fill-opacity:1;"/>
<path opacity="0.2" d="M71.76 131.06C71.76 131.484 71.6342 131.899 71.3985 132.251C71.1628 132.604 70.8278 132.879 70.4359 133.042C70.0439 133.204 69.6126 133.246 69.1965 133.164C68.7804 133.081 68.3982 132.877 68.0983 132.577C67.7983 132.277 67.594 131.894 67.5112 131.478C67.4285 131.062 67.4709 130.631 67.6333 130.239C67.7956 129.847 68.0706 129.512 68.4233 129.276C68.776 129.041 69.1908 128.915 69.615 128.915C70.1835 128.916 70.7283 129.143 71.1303 129.545C71.5323 129.946 71.7587 130.491 71.76 131.06Z" fill="black" style="fill:black;fill-opacity:1;"/>
<path d="M70.575 131.06C70.576 131.25 70.5205 131.436 70.4156 131.595C70.3108 131.753 70.1612 131.877 69.9858 131.95C69.8105 132.024 69.6173 132.044 69.4308 132.007C69.2442 131.971 69.0727 131.88 68.938 131.746C68.8032 131.612 68.7113 131.44 68.6738 131.254C68.6364 131.068 68.6551 130.874 68.7276 130.699C68.8001 130.523 68.9231 130.373 69.0811 130.267C69.2391 130.161 69.4249 130.105 69.615 130.105C69.8687 130.105 70.1122 130.205 70.292 130.384C70.4719 130.563 70.5737 130.806 70.575 131.06Z" fill="#EB4A41" style="fill:#EB4A41;fill:color(display-p3 0.9216 0.2902 0.2549);fill-opacity:1;"/>
<path opacity="0.2" d="M72.32 108.165C72.321 108.417 72.2469 108.665 72.1072 108.875C71.9675 109.085 71.7684 109.25 71.5352 109.347C71.302 109.444 71.0453 109.47 70.7975 109.421C70.5497 109.371 70.322 109.25 70.1434 109.071C69.9648 108.893 69.8433 108.665 69.7942 108.417C69.7452 108.17 69.7709 107.913 69.868 107.68C69.9651 107.446 70.1293 107.247 70.3398 107.108C70.5502 106.968 70.7974 106.894 71.05 106.895C71.3864 106.896 71.7087 107.03 71.9466 107.268C72.1844 107.506 72.3187 107.828 72.32 108.165Z" fill="black" style="fill:black;fill-opacity:1;"/>
<path d="M71.615 108.165C71.616 108.278 71.5833 108.389 71.521 108.483C71.4588 108.578 71.3698 108.652 71.2654 108.696C71.1611 108.739 71.0461 108.751 70.935 108.729C70.824 108.707 70.722 108.653 70.642 108.573C70.5619 108.493 70.5076 108.391 70.4857 108.28C70.4639 108.169 70.4756 108.054 70.5194 107.949C70.5631 107.845 70.6369 107.756 70.7314 107.694C70.8259 107.632 70.9368 107.599 71.05 107.6C71.1994 107.601 71.3424 107.661 71.4481 107.767C71.5537 107.872 71.6137 108.015 71.615 108.165Z" fill="#EB4A41" style="fill:#EB4A41;fill:color(display-p3 0.9216 0.2902 0.2549);fill-opacity:1;"/>
<path opacity="0.2" d="M77.375 157.585C78.8938 157.585 80.125 156.354 80.125 154.835C80.125 153.316 78.8938 152.085 77.375 152.085C75.8562 152.085 74.625 153.316 74.625 154.835C74.625 156.354 75.8562 157.585 77.375 157.585Z" fill="black" style="fill:black;fill-opacity:1;"/>
<path d="M77.375 156.065C78.0543 156.065 78.605 155.514 78.605 154.835C78.605 154.156 78.0543 153.605 77.375 153.605C76.6957 153.605 76.145 154.156 76.145 154.835C76.145 155.514 76.6957 156.065 77.375 156.065Z" fill="#EB4A41" style="fill:#EB4A41;fill:color(display-p3 0.9216 0.2902 0.2549);fill-opacity:1;"/>
<path opacity="0.2" d="M80.075 144.19C80.9393 144.19 81.64 143.489 81.64 142.625C81.64 141.76 80.9393 141.06 80.075 141.06C79.2106 141.06 78.51 141.76 78.51 142.625C78.51 143.489 79.2106 144.19 80.075 144.19Z" fill="black" style="fill:black;fill-opacity:1;"/>
<path d="M80.77 142.625C80.77 142.763 80.7288 142.899 80.6517 143.014C80.5745 143.129 80.4649 143.219 80.3367 143.272C80.2085 143.325 80.0675 143.338 79.9316 143.311C79.7957 143.284 79.671 143.216 79.5733 143.118C79.4756 143.02 79.4093 142.894 79.3828 142.758C79.3564 142.622 79.371 142.481 79.4247 142.353C79.4785 142.226 79.569 142.117 79.6847 142.04C79.8005 141.964 79.9363 141.924 80.075 141.925C80.2598 141.926 80.4365 142 80.5667 142.132C80.6969 142.263 80.77 142.44 80.77 142.625Z" fill="#EB4A41" style="fill:#EB4A41;fill:color(display-p3 0.9216 0.2902 0.2549);fill-opacity:1;"/>
<path opacity="0.2" d="M84.745 164.34C85.7584 164.34 86.58 163.518 86.58 162.505C86.58 161.491 85.7584 160.67 84.745 160.67C83.7315 160.67 82.91 161.491 82.91 162.505C82.91 163.518 83.7315 164.34 84.745 164.34Z" fill="black" style="fill:black;fill-opacity:1;"/>
<path d="M85.565 162.5C85.565 162.662 85.5169 162.821 85.4268 162.956C85.3367 163.09 85.2086 163.195 85.0588 163.258C84.909 163.32 84.7441 163.336 84.585 163.304C84.426 163.273 84.2798 163.194 84.1652 163.08C84.0505 162.965 83.9724 162.819 83.9407 162.66C83.9091 162.501 83.9253 162.336 83.9874 162.186C84.0495 162.036 84.1546 161.908 84.2894 161.818C84.4243 161.728 84.5828 161.68 84.745 161.68C84.9625 161.68 85.171 161.766 85.3248 161.92C85.4786 162.074 85.565 162.282 85.565 162.5Z" fill="#EB4A41" style="fill:#EB4A41;fill:color(display-p3 0.9216 0.2902 0.2549);fill-opacity:1;"/>
<path opacity="0.2" d="M72.95 118.935C72.95 119.359 72.8242 119.774 72.5885 120.126C72.3528 120.479 72.0178 120.754 71.6259 120.917C71.2339 121.079 70.8026 121.121 70.3865 121.039C69.9704 120.956 69.5882 120.752 69.2883 120.452C68.9883 120.152 68.784 119.769 68.7012 119.353C68.6185 118.937 68.6609 118.506 68.8233 118.114C68.9856 117.722 69.2606 117.387 69.6133 117.151C69.9661 116.916 70.3808 116.79 70.805 116.79C71.3739 116.79 71.9195 117.016 72.3217 117.418C72.724 117.82 72.95 118.366 72.95 118.935Z" fill="black" style="fill:black;fill-opacity:1;"/>
<path d="M72.32 118.935C72.32 119.231 72.232 119.521 72.0672 119.768C71.9024 120.015 71.6681 120.207 71.394 120.321C71.1199 120.434 70.8183 120.464 70.5273 120.406C70.2364 120.348 69.9691 120.205 69.7593 119.995C69.5495 119.786 69.4067 119.518 69.3488 119.227C69.2909 118.936 69.3206 118.635 69.4342 118.361C69.5477 118.087 69.7399 117.852 69.9866 117.688C70.2333 117.523 70.5233 117.435 70.82 117.435C71.2178 117.435 71.5993 117.593 71.8806 117.874C72.1619 118.155 72.32 118.537 72.32 118.935Z" fill="#EB4A41" style="fill:#EB4A41;fill:color(display-p3 0.9216 0.2902 0.2549);fill-opacity:1;"/>
<path opacity="0.2" d="M77.82 127.555C77.82 127.852 77.732 128.142 77.5672 128.388C77.4024 128.635 77.1681 128.827 76.894 128.941C76.6199 129.054 76.3183 129.084 76.0273 129.026C75.7364 128.968 75.4691 128.825 75.2593 128.616C75.0495 128.406 74.9067 128.139 74.8488 127.848C74.7909 127.557 74.8206 127.255 74.9342 126.981C75.0477 126.707 75.2399 126.473 75.4866 126.308C75.7333 126.143 76.0233 126.055 76.32 126.055C76.7178 126.055 77.0993 126.213 77.3806 126.494C77.6619 126.776 77.82 127.157 77.82 127.555Z" fill="black" style="fill:black;fill-opacity:1;"/>
<path d="M77.375 127.555C77.3789 127.768 77.3193 127.978 77.2036 128.158C77.0879 128.337 76.9215 128.478 76.7254 128.562C76.5294 128.647 76.3126 128.671 76.1028 128.632C75.893 128.593 75.6995 128.492 75.5472 128.342C75.3948 128.193 75.2905 128.001 75.2473 127.792C75.2042 127.583 75.2243 127.366 75.305 127.168C75.3858 126.971 75.5235 126.802 75.7007 126.683C75.8779 126.564 76.0865 126.5 76.3 126.5C76.5817 126.5 76.8521 126.61 77.0531 126.808C77.2542 127.005 77.3697 127.273 77.375 127.555Z" fill="#EB4A41" style="fill:#EB4A41;fill:color(display-p3 0.9216 0.2902 0.2549);fill-opacity:1;"/>
<path d="M62.4865 68.7189L53.4558 71.083L61.5599 102.04L70.5906 99.6757L62.4865 68.7189Z" fill="white" style="fill:white;fill-opacity:1;"/>
<path d="M65.7795 39.5052L65.2958 39.6318L66.2556 43.2983L66.7393 43.1717L65.7795 39.5052Z" fill="#EB4A41" style="fill:#EB4A41;fill:color(display-p3 0.9216 0.2902 0.2549);fill-opacity:1;"/>
<path d="M64.68 37.2699L62.65 29.5249C62.5174 29.017 62.2203 28.5673 61.805 28.2462C61.3898 27.9251 60.8799 27.7505 60.355 27.7499C60.1506 27.7491 59.9471 27.776 59.75 27.8299L55.185 29.0249L55.06 28.5249L59.625 27.3299C59.8631 27.266 60.1085 27.2341 60.355 27.2349C60.9909 27.2353 61.6087 27.4466 62.1118 27.8357C62.6148 28.2247 62.9746 28.7695 63.135 29.3849L65.135 37.1299L64.68 37.2699Z" fill="#EB4A41" style="fill:#EB4A41;fill:color(display-p3 0.9216 0.2902 0.2549);fill-opacity:1;"/>
<path d="M36.1247 35.3032L60.0679 29.0352C60.355 28.9641 60.6586 29.009 60.9129 29.1601C61.1672 29.3111 61.3517 29.5563 61.4266 29.8424L67.9795 54.8739L41.8597 61.7117L35.3068 36.6802C35.269 36.5361 35.2603 36.3859 35.2811 36.2383C35.3019 36.0908 35.3517 35.9488 35.4278 35.8207C35.5039 35.6926 35.6047 35.5809 35.7244 35.492C35.844 35.4032 35.9801 35.339 36.1247 35.3032Z" fill="#EB4A41" style="fill:#EB4A41;fill:color(display-p3 0.9216 0.2902 0.2549);fill-opacity:1;"/>
<path opacity="0.2" d="M48.7445 31.9947L47.453 32.3328L54.2908 58.4526L55.5822 58.1145L48.7445 31.9947Z" fill="black" style="fill:black;fill-opacity:1;"/>
<path opacity="0.2" d="M53.6306 30.9958L52.3357 31.3296L59.0857 57.5196L60.3806 57.1858L53.6306 30.9958Z" fill="black" style="fill:black;fill-opacity:1;"/>
<path opacity="0.2" d="M58.4135 29.4681L57.122 29.8062L63.9598 55.926L65.2513 55.5879L58.4135 29.4681Z" fill="black" style="fill:black;fill-opacity:1;"/>
<path opacity="0.2" d="M43.9026 33.264L42.6111 33.6021L49.4489 59.7219L50.7404 59.3838L43.9026 33.264Z" fill="black" style="fill:black;fill-opacity:1;"/>
<path opacity="0.2" d="M39.0718 34.532L37.7804 34.8701L44.6182 60.9899L45.9096 60.6518L39.0718 34.532Z" fill="black" style="fill:black;fill-opacity:1;"/>
<path d="M67.5352 53.0947L41.4105 59.9338C40.521 60.1667 39.9886 61.0766 40.2215 61.9662L41.1294 65.4343C41.3623 66.3239 42.2722 66.8563 43.1618 66.6234L69.2864 59.7843C70.176 59.5514 70.7083 58.6415 70.4755 57.7519L69.5676 54.2838C69.3347 53.3942 68.4248 52.8619 67.5352 53.0947Z" fill="#EB4A41" style="fill:#EB4A41;fill:color(display-p3 0.9216 0.2902 0.2549);fill-opacity:1;"/>
<path d="M220.45 91.6803L220.177 95.0593L220.676 95.0996L220.949 91.7206L220.45 91.6803Z" fill="#EB4A41" style="fill:#EB4A41;fill:color(display-p3 0.9216 0.2902 0.2549);fill-opacity:1;"/>
<path d="M221.581 77.9657L220.77 87.998L221.268 88.0383L222.079 78.006L221.581 77.9657Z" fill="#EB4A41" style="fill:#EB4A41;fill:color(display-p3 0.9216 0.2902 0.2549);fill-opacity:1;"/>
<path d="M140.075 36.76L131.23 146.155L196.97 151.465L215.66 135.575L223.105 43.47L140.075 36.76Z" fill="white" style="fill:white;fill-opacity:1;"/>
<path d="M196.97 151.925H196.93L131.195 146.61C131.134 146.606 131.075 146.589 131.021 146.562C130.967 146.534 130.918 146.496 130.879 146.449C130.84 146.402 130.811 146.348 130.793 146.29C130.775 146.232 130.769 146.171 130.775 146.11L139.615 36.7251C139.62 36.6646 139.637 36.6057 139.665 36.5518C139.693 36.4979 139.731 36.45 139.778 36.411C139.824 36.372 139.878 36.3425 139.936 36.3243C139.994 36.3062 140.055 36.2996 140.115 36.3051L223.14 43.0001C223.201 43.0045 223.26 43.021 223.314 43.0487C223.368 43.0764 223.417 43.1147 223.456 43.1613C223.495 43.2079 223.524 43.2619 223.542 43.3201C223.56 43.3783 223.566 43.4395 223.56 43.5001L216.115 135.6C216.111 135.66 216.095 135.718 216.067 135.772C216.04 135.825 216.001 135.872 215.955 135.91L197.265 151.805C197.185 151.88 197.08 151.922 196.97 151.925ZM131.725 145.735L196.815 151L215.22 135.35L222.61 43.8901L140.5 37.2551L131.725 145.735Z" fill="#EB4A41" style="fill:#EB4A41;fill:color(display-p3 0.9216 0.2902 0.2549);fill-opacity:1;"/>
<path opacity="0.2" d="M195.11 135.21L196.97 151.465L215.66 135.575L195.11 135.21Z" fill="#EB4A41" style="fill:#EB4A41;fill:color(display-p3 0.9216 0.2902 0.2549);fill-opacity:1;"/>
<path d="M198.365 134.175L196.97 151.465L215.66 135.575L198.365 134.175Z" fill="white" style="fill:white;fill-opacity:1;"/>
<path d="M196.97 151.925C196.897 151.926 196.825 151.909 196.76 151.875C196.679 151.834 196.612 151.77 196.568 151.69C196.523 151.611 196.503 151.521 196.51 151.43L197.91 134.14C197.914 134.079 197.93 134.02 197.958 133.966C197.985 133.912 198.023 133.864 198.07 133.825C198.116 133.786 198.169 133.756 198.227 133.738C198.284 133.72 198.345 133.714 198.405 133.72L215.695 135.115C215.785 135.122 215.871 135.156 215.943 135.212C216.014 135.268 216.067 135.344 216.095 135.43C216.124 135.518 216.126 135.612 216.101 135.701C216.076 135.79 216.025 135.87 215.955 135.93L197.265 151.825C197.182 151.894 197.077 151.929 196.97 151.925ZM198.785 134.67L197.5 150.4L214.5 135.94L198.785 134.67Z" fill="#EB4A41" style="fill:#EB4A41;fill:color(display-p3 0.9216 0.2902 0.2549);fill-opacity:1;"/>
<path d="M180.47 55.7401H180.325C179.902 55.7057 179.509 55.5047 179.234 55.1814C178.958 54.858 178.822 54.4386 178.855 54.0151L179.195 49.8201C179.212 49.61 179.27 49.4052 179.366 49.2175C179.461 49.0298 179.593 48.8628 179.754 48.7261C179.914 48.5893 180.1 48.4855 180.301 48.4206C180.501 48.3557 180.712 48.3309 180.923 48.3476C181.133 48.3643 181.337 48.4223 181.525 48.5182C181.713 48.6141 181.88 48.746 182.017 48.9064C182.153 49.0668 182.257 49.2526 182.322 49.4531C182.387 49.6536 182.412 49.865 182.395 50.0751L182.055 54.2701C182.021 54.6685 181.84 55.0401 181.547 55.312C181.254 55.5839 180.87 55.7365 180.47 55.7401Z" fill="#EB4A41" style="fill:#EB4A41;fill:color(display-p3 0.9216 0.2902 0.2549);fill-opacity:1;"/>
<path d="M182.905 51.715H182.765L178.57 51.375C178.352 51.3696 178.137 51.3198 177.939 51.2286C177.741 51.1375 177.563 51.0068 177.417 50.8447C177.271 50.6826 177.16 50.4924 177.09 50.2857C177.02 50.0791 176.992 49.8603 177.01 49.6428C177.027 49.4253 177.089 49.2137 177.191 49.0207C177.293 48.8278 177.433 48.6577 177.603 48.5208C177.773 48.3839 177.969 48.2831 178.179 48.2245C178.389 48.1659 178.609 48.1508 178.825 48.18L183 48.5C183.404 48.5431 183.776 48.7377 184.042 49.0446C184.309 49.3514 184.448 49.7477 184.434 50.1536C184.419 50.5595 184.251 50.9448 183.964 51.2318C183.676 51.5187 183.291 51.6861 182.885 51.7L182.905 51.715Z" fill="#EB4A41" style="fill:#EB4A41;fill:color(display-p3 0.9216 0.2902 0.2549);fill-opacity:1;"/>
<path d="M176.83 100.74H176.69C176.48 100.724 176.275 100.666 176.088 100.57C175.9 100.475 175.733 100.343 175.597 100.183C175.46 100.023 175.357 99.837 175.292 99.6366C175.227 99.4362 175.203 99.2251 175.22 99.0152L175.56 94.8202C175.565 94.6021 175.615 94.3873 175.706 94.1891C175.798 93.9909 175.928 93.8133 176.09 93.6673C176.252 93.5213 176.443 93.4099 176.649 93.3398C176.856 93.2698 177.075 93.2426 177.292 93.26C177.51 93.2773 177.721 93.3389 177.914 93.4408C178.107 93.5427 178.277 93.6829 178.414 93.8528C178.551 94.0227 178.652 94.2187 178.711 94.4289C178.769 94.6391 178.784 94.859 178.755 95.0752L178.415 99.2702C178.382 99.6691 178.202 100.041 177.908 100.313C177.615 100.585 177.23 100.738 176.83 100.74Z" fill="#EB4A41" style="fill:#EB4A41;fill:color(display-p3 0.9216 0.2902 0.2549);fill-opacity:1;"/>
<path d="M178.93 100.91H178.785L174.59 100.57C174.372 100.564 174.158 100.513 173.96 100.422C173.763 100.33 173.586 100.199 173.44 100.037C173.295 99.8745 173.184 99.6843 173.115 99.4778C173.045 99.2713 173.019 99.0528 173.036 98.8357C173.054 98.6185 173.116 98.4072 173.218 98.2147C173.319 98.0221 173.46 97.8524 173.629 97.7157C173.799 97.5791 173.995 97.4784 174.205 97.4199C174.414 97.3613 174.634 97.3461 174.85 97.3752L179.045 97.7152C179.449 97.7583 179.821 97.9528 180.087 98.2597C180.353 98.5666 180.493 98.9629 180.479 99.3688C180.464 99.7747 180.296 100.16 180.009 100.447C179.721 100.734 179.336 100.901 178.93 100.915V100.91Z" fill="#EB4A41" style="fill:#EB4A41;fill:color(display-p3 0.9216 0.2902 0.2549);fill-opacity:1;"/>
<path d="M203.415 78.1351H203.275L199.08 77.7951C198.656 77.7606 198.262 77.559 197.987 77.2346C197.711 76.9101 197.576 76.4895 197.61 76.0651C197.644 75.6408 197.846 75.2475 198.171 74.9718C198.495 74.6961 198.916 74.5606 199.34 74.5951L203.535 74.9351C203.948 74.9677 204.332 75.1587 204.608 75.4681C204.883 75.7775 205.028 76.1813 205.012 76.5952C204.997 77.0091 204.822 77.4009 204.524 77.6888C204.227 77.9768 203.829 78.1385 203.415 78.1401V78.1351Z" fill="#EB4A41" style="fill:#EB4A41;fill:color(display-p3 0.9216 0.2902 0.2549);fill-opacity:1;"/>
<path d="M203.25 80.2302H203.105C202.895 80.2132 202.69 80.1549 202.503 80.0587C202.315 79.9626 202.148 79.8304 202.012 79.6697C201.875 79.5091 201.772 79.3231 201.707 79.1224C201.642 78.9218 201.618 78.7103 201.635 78.5002L201.975 74.3052C202.03 73.8978 202.239 73.527 202.559 73.2692C202.879 73.0114 203.286 72.8863 203.696 72.9196C204.106 72.9529 204.487 73.1422 204.761 73.4484C205.035 73.7546 205.182 74.1543 205.17 74.5652L204.835 78.7602C204.801 79.1586 204.62 79.5302 204.327 79.8021C204.034 80.074 203.65 80.2267 203.25 80.2302Z" fill="#EB4A41" style="fill:#EB4A41;fill:color(display-p3 0.9216 0.2902 0.2549);fill-opacity:1;"/>
<path d="M158.415 74.5H158.275L154.08 74.16C153.862 74.1538 153.648 74.1033 153.45 74.0116C153.253 73.9199 153.076 73.7889 152.93 73.6266C152.785 73.4643 152.674 73.2741 152.605 73.0676C152.535 72.8611 152.508 72.6427 152.526 72.4255C152.544 72.2083 152.606 71.9971 152.707 71.8045C152.809 71.612 152.95 71.4422 153.119 71.3056C153.289 71.1689 153.485 71.0683 153.695 71.0097C153.904 70.9512 154.124 70.936 154.34 70.965L158.535 71.305C158.939 71.3484 159.312 71.5435 159.577 71.8508C159.843 72.1582 159.983 72.5549 159.967 72.961C159.952 73.3671 159.784 73.7523 159.495 74.0389C159.207 74.3254 158.821 74.492 158.415 74.505V74.5Z" fill="#EB4A41" style="fill:#EB4A41;fill:color(display-p3 0.9216 0.2902 0.2549);fill-opacity:1;"/>
<path d="M154.055 76.2551H153.91C153.7 76.2381 153.495 76.1798 153.308 76.0836C153.12 75.9875 152.953 75.8553 152.817 75.6946C152.68 75.534 152.577 75.348 152.512 75.1473C152.447 74.9466 152.423 74.7352 152.44 74.5251L152.78 70.3301C152.786 70.1123 152.837 69.8981 152.928 69.7004C153.02 69.5028 153.151 69.3259 153.313 69.1805C153.476 69.0352 153.666 68.9243 153.872 68.8548C154.079 68.7853 154.297 68.7586 154.515 68.7763C154.732 68.794 154.943 68.8557 155.135 68.9576C155.328 69.0596 155.498 69.1997 155.634 69.3694C155.771 69.5391 155.872 69.7348 155.93 69.9447C155.989 70.1546 156.004 70.3742 155.975 70.5901L155.64 74.7851C155.606 75.1835 155.425 75.5551 155.132 75.827C154.839 76.0988 154.455 76.2515 154.055 76.2551Z" fill="#EB4A41" style="fill:#EB4A41;fill:color(display-p3 0.9216 0.2902 0.2549);fill-opacity:1;"/>
<path d="M165.56 60.55C165.325 60.5536 165.092 60.5047 164.879 60.407C164.665 60.3093 164.476 60.1651 164.325 59.985L161.595 56.78C161.319 56.4558 161.183 56.0353 161.218 55.611C161.252 55.1867 161.453 54.7934 161.777 54.5175C162.102 54.2417 162.522 54.106 162.947 54.1402C163.371 54.1744 163.764 54.3758 164.04 54.7L166.77 57.91C167.045 58.2344 167.18 58.6546 167.145 59.0783C167.11 59.502 166.909 59.8946 166.585 60.17C166.299 60.4146 165.936 60.5494 165.56 60.55Z" fill="#EB4A41" style="fill:#EB4A41;fill:color(display-p3 0.9216 0.2902 0.2549);fill-opacity:1;"/>
<path d="M161.23 58.7101C160.901 58.7126 160.579 58.6138 160.308 58.4272C160.037 58.2405 159.829 57.975 159.714 57.6666C159.599 57.3583 159.582 57.022 159.664 56.7033C159.746 56.3846 159.925 56.099 160.175 55.8851L163.385 53.1551C163.544 53.0076 163.731 52.8938 163.935 52.8206C164.139 52.7474 164.356 52.7163 164.572 52.7291C164.789 52.742 165 52.7986 165.194 52.8955C165.388 52.9923 165.56 53.1275 165.701 53.2928C165.841 53.4581 165.946 53.6501 166.01 53.8572C166.074 54.0643 166.096 54.2823 166.073 54.4979C166.051 54.7135 165.985 54.9223 165.88 55.1118C165.774 55.3012 165.631 55.4673 165.46 55.6001L162.255 58.3251C161.969 58.5689 161.606 58.705 161.23 58.7101Z" fill="#EB4A41" style="fill:#EB4A41;fill:color(display-p3 0.9216 0.2902 0.2549);fill-opacity:1;"/>
<path d="M194.805 94.9451C194.571 94.9459 194.339 94.8958 194.125 94.7982C193.912 94.7007 193.723 94.558 193.57 94.3801L190.845 91.1751C190.708 91.0145 190.605 90.8286 190.54 90.6281C190.475 90.4275 190.451 90.2161 190.468 90.006C190.485 89.7959 190.543 89.5912 190.639 89.4036C190.735 89.216 190.867 89.0491 191.027 88.9126C191.188 88.776 191.374 88.6724 191.574 88.6076C191.775 88.5429 191.986 88.5183 192.197 88.5352C192.407 88.5522 192.611 88.6103 192.799 88.7064C192.987 88.8024 193.153 88.9345 193.29 89.0951L196 92.3001C196.196 92.5333 196.321 92.8173 196.362 93.1191C196.403 93.4209 196.358 93.728 196.231 94.005C196.104 94.2819 195.902 94.5172 195.647 94.6836C195.392 94.85 195.094 94.9407 194.79 94.9451H194.805Z" fill="#EB4A41" style="fill:#EB4A41;fill:color(display-p3 0.9216 0.2902 0.2549);fill-opacity:1;"/>
<path d="M193.205 96.3051C192.97 96.3087 192.737 96.2598 192.524 96.1621C192.31 96.0643 192.121 95.9202 191.97 95.7401C191.833 95.5801 191.729 95.3946 191.664 95.1942C191.599 94.9939 191.574 94.7827 191.591 94.5727C191.607 94.3627 191.665 94.1581 191.761 93.9706C191.857 93.7831 191.989 93.6164 192.15 93.4801L195.355 90.7551C195.679 90.4793 196.1 90.3435 196.524 90.3778C196.948 90.412 197.342 90.6134 197.617 90.9376C197.893 91.2618 198.029 91.6823 197.995 92.1066C197.961 92.5309 197.759 92.9243 197.435 93.2001L194.23 95.9251C193.944 96.1697 193.581 96.3044 193.205 96.3051Z" fill="#EB4A41" style="fill:#EB4A41;fill:color(display-p3 0.9216 0.2902 0.2549);fill-opacity:1;"/>
<path d="M194.41 62.885C194.081 62.8865 193.76 62.787 193.49 62.5999C193.219 62.4129 193.013 62.1474 192.898 61.8392C192.784 61.5311 192.767 61.1952 192.849 60.877C192.932 60.5588 193.11 60.2736 193.36 60.06L196.565 57.33C196.889 57.0542 197.31 56.9185 197.734 56.9527C198.158 56.9869 198.552 57.1883 198.828 57.5125C199.103 57.8368 199.239 58.2573 199.205 58.6816C199.171 59.1059 198.969 59.4992 198.645 59.775L195.44 62.5C195.152 62.7449 194.788 62.8811 194.41 62.885Z" fill="#EB4A41" style="fill:#EB4A41;fill:color(display-p3 0.9216 0.2902 0.2549);fill-opacity:1;"/>
<path d="M199 61.76C198.766 61.7621 198.535 61.7126 198.322 61.6149C198.109 61.5173 197.921 61.3739 197.77 61.195L195 58C194.863 57.8395 194.76 57.6536 194.695 57.453C194.63 57.2524 194.606 57.041 194.623 56.831C194.64 56.6209 194.698 56.4162 194.794 56.2286C194.89 56.0409 195.022 55.8741 195.183 55.7375C195.343 55.6009 195.529 55.4973 195.73 55.4326C195.93 55.3678 196.141 55.3432 196.352 55.3602C196.562 55.3771 196.766 55.4353 196.954 55.5313C197.142 55.6274 197.308 55.7595 197.445 55.92L200.17 59.125C200.37 59.3569 200.499 59.6414 200.542 59.9446C200.586 60.2479 200.541 60.5571 200.413 60.8356C200.286 61.1141 200.081 61.3502 199.824 61.5159C199.566 61.6815 199.266 61.7697 198.96 61.77L199 61.76Z" fill="#EB4A41" style="fill:#EB4A41;fill:color(display-p3 0.9216 0.2902 0.2549);fill-opacity:1;"/>
<path d="M160 92.1301C159.765 92.1337 159.532 92.0848 159.319 91.9871C159.105 91.8894 158.916 91.7452 158.765 91.5651C158.628 91.4048 158.525 91.219 158.46 91.0185C158.395 90.818 158.371 90.6067 158.388 90.3967C158.405 90.1867 158.464 89.9822 158.56 89.7949C158.657 89.6075 158.789 89.4411 158.95 89.3051L162.155 86.5801C162.314 86.4326 162.501 86.3188 162.705 86.2456C162.909 86.1724 163.126 86.1413 163.342 86.1542C163.559 86.1671 163.77 86.2236 163.964 86.3205C164.158 86.4174 164.33 86.5525 164.471 86.7178C164.611 86.8831 164.716 87.0751 164.78 87.2822C164.844 87.4894 164.866 87.7073 164.843 87.9229C164.821 88.1385 164.755 88.3474 164.649 88.5368C164.544 88.7262 164.401 88.8924 164.23 89.0251L161.025 91.7501C160.74 91.9963 160.376 92.1312 160 92.1301Z" fill="#EB4A41" style="fill:#EB4A41;fill:color(display-p3 0.9216 0.2902 0.2549);fill-opacity:1;"/>
<path d="M161.385 93.7351C161.15 93.7373 160.918 93.6878 160.705 93.5901C160.491 93.4925 160.302 93.3491 160.15 93.1701L157.42 89.9651C157.144 89.6409 157.008 89.2203 157.043 88.796C157.077 88.3717 157.278 87.9784 157.603 87.7026C157.927 87.4268 158.347 87.291 158.772 87.3253C159.196 87.3595 159.589 87.5609 159.865 87.8851L162.59 91.0901C162.727 91.2505 162.831 91.4365 162.896 91.6372C162.962 91.8379 162.987 92.0495 162.97 92.2599C162.953 92.4703 162.895 92.6753 162.799 92.8633C162.703 93.0512 162.571 93.2183 162.41 93.3551C162.122 93.5956 161.76 93.7298 161.385 93.7351Z" fill="#EB4A41" style="fill:#EB4A41;fill:color(display-p3 0.9216 0.2902 0.2549);fill-opacity:1;"/>
<path d="M192.065 90.1309C200.677 82.8067 201.721 69.888 194.397 61.276C187.073 52.664 174.154 51.6201 165.542 58.9442C156.93 66.2684 155.886 79.1872 163.21 87.7991C170.534 96.4111 183.453 97.4551 192.065 90.1309Z" fill="white" style="fill:white;fill-opacity:1;"/>
<path d="M179 95.925C178.365 95.925 177.73 95.925 177.09 95.855C172.874 95.5149 168.853 93.9321 165.537 91.3068C162.22 88.6815 159.757 85.1317 158.458 81.1062C157.159 77.0808 157.083 72.7606 158.24 68.6919C159.396 64.6233 161.733 60.9891 164.956 58.2488C168.178 55.5086 172.14 53.7854 176.342 53.2972C180.543 52.809 184.795 53.5778 188.56 55.5063C192.324 57.4348 195.433 60.4364 197.491 64.1314C199.55 67.8265 200.466 72.049 200.125 76.265C199.694 81.588 197.288 86.5572 193.379 90.1954C189.469 93.8336 184.34 95.8775 179 95.925ZM178.655 55C173.558 55.0485 168.683 57.0906 165.073 60.689C161.464 64.2875 159.406 69.1563 159.342 74.2528C159.277 79.3494 161.211 84.2686 164.729 87.9571C168.247 91.6456 173.069 93.8102 178.162 93.9874C183.256 94.1646 188.217 92.3402 191.983 88.9051C195.748 85.4699 198.019 80.6969 198.309 75.6082C198.599 70.5195 196.885 65.5195 193.534 61.679C190.183 57.8384 185.461 55.4625 180.38 55.0601C179.793 55.0201 179.218 55 178.655 55Z" fill="#EB4A41" style="fill:#EB4A41;fill:color(display-p3 0.9216 0.2902 0.2549);fill-opacity:1;"/>
<path opacity="0.2" d="M186.17 77.32C185.97 77.32 185.77 77.32 185.575 77.32C183.809 77.1781 182.171 76.3403 181.022 74.991C179.874 73.6417 179.308 71.8913 179.45 70.125C179.592 68.3586 180.43 66.721 181.779 65.5724C183.128 64.4237 184.879 63.8581 186.645 64C188.361 64.1332 189.96 64.9254 191.105 66.2108C192.251 67.4961 192.854 69.1748 192.79 70.8952C192.725 72.6156 191.997 74.2443 190.759 75.4401C189.52 76.6358 187.867 77.3059 186.145 77.31L186.17 77.32ZM186.075 66.465C185.261 66.4711 184.466 66.7143 183.788 67.1648C183.11 67.6153 182.578 68.2536 182.256 69.0017C181.935 69.7498 181.839 70.5753 181.979 71.3772C182.12 72.1792 182.491 72.9229 183.047 73.5174C183.603 74.1119 184.32 74.5315 185.111 74.7249C185.902 74.9183 186.732 74.8771 187.5 74.6064C188.268 74.3356 188.94 73.847 189.435 73.2004C189.929 72.5537 190.225 71.7769 190.285 70.965C190.372 69.8591 190.016 68.764 189.296 67.9202C188.576 67.0764 187.551 66.553 186.445 66.465C186.325 66.47 186.2 66.465 186.075 66.465Z" fill="#EB4A41" style="fill:#EB4A41;fill:color(display-p3 0.9216 0.2902 0.2549);fill-opacity:1;"/>
<path opacity="0.4" d="M171.075 72.9251C171.019 73.6615 170.746 74.3647 170.29 74.9456C169.834 75.5266 169.216 75.9592 168.514 76.1886C167.812 76.418 167.058 76.4338 166.347 76.2342C165.636 76.0345 165.001 75.6283 164.521 75.067C164.041 74.5058 163.738 73.8147 163.652 73.0813C163.565 72.348 163.698 71.6054 164.033 70.9476C164.369 70.2898 164.892 69.7465 165.537 69.3865C166.182 69.0264 166.919 68.8659 167.655 68.9251C168.638 69.0043 169.55 69.4695 170.191 70.2191C170.832 70.9688 171.15 71.9417 171.075 72.9251Z" fill="#EB4A41" style="fill:#EB4A41;fill:color(display-p3 0.9216 0.2902 0.2549);fill-opacity:1;"/>
<path opacity="0.2" d="M181.145 84.9051C181.103 85.4245 180.908 85.9197 180.584 86.3281C180.26 86.7365 179.823 87.0397 179.327 87.1996C178.831 87.3594 178.299 87.3687 177.798 87.2261C177.297 87.0835 176.849 86.7956 176.511 86.3986C176.174 86.0017 175.961 85.5135 175.901 84.996C175.841 84.4784 175.936 83.9546 176.173 83.4908C176.411 83.027 176.78 82.644 177.235 82.3902C177.691 82.1365 178.211 82.0233 178.73 82.0651C179.426 82.1225 180.072 82.4537 180.524 82.986C180.977 83.5184 181.2 84.2085 181.145 84.9051Z" fill="#EB4A41" style="fill:#EB4A41;fill:color(display-p3 0.9216 0.2902 0.2549);fill-opacity:1;"/>
<path opacity="0.2" d="M157.155 119.5H157.075L145.755 118.585C145.634 118.576 145.516 118.542 145.407 118.487C145.299 118.431 145.203 118.355 145.125 118.261C145.047 118.168 144.988 118.061 144.952 117.944C144.916 117.828 144.903 117.706 144.915 117.585L145.83 106.265C145.84 106.144 145.874 106.026 145.93 105.919C145.986 105.811 146.062 105.715 146.155 105.637C146.248 105.559 146.356 105.5 146.471 105.464C146.587 105.427 146.709 105.414 146.83 105.425L158.145 106.34C158.266 106.35 158.384 106.384 158.492 106.44C158.599 106.496 158.695 106.572 158.773 106.665C158.851 106.758 158.91 106.866 158.947 106.982C158.983 107.097 158.996 107.219 158.985 107.34L158.07 118.655C158.061 118.775 158.028 118.892 157.973 119C157.918 119.107 157.842 119.202 157.75 119.28C157.584 119.421 157.373 119.499 157.155 119.5ZM146.815 116.825L156.315 117.595L157.08 108.095L147.58 107.325L146.815 116.825Z" fill="#283237" style="fill:#283237;fill:color(display-p3 0.1569 0.1961 0.2157);fill-opacity:1;"/>
<path d="M200.375 115H200.295L163.325 112C163.083 111.98 162.859 111.865 162.702 111.68C162.545 111.495 162.468 111.255 162.488 111.013C162.507 110.771 162.623 110.546 162.808 110.389C162.993 110.232 163.233 110.155 163.475 110.175L200.44 113.175C200.56 113.179 200.678 113.207 200.788 113.257C200.897 113.307 200.996 113.378 201.077 113.466C201.159 113.554 201.223 113.657 201.265 113.77C201.307 113.883 201.327 114.003 201.323 114.123C201.318 114.243 201.29 114.361 201.24 114.47C201.191 114.58 201.12 114.678 201.032 114.76C200.944 114.842 200.84 114.906 200.728 114.948C200.615 114.99 200.495 115.009 200.375 115.005V115Z" fill="#E0E0E0" style="fill:#E0E0E0;fill:color(display-p3 0.8784 0.8784 0.8784);fill-opacity:1;"/>
<path d="M174.885 117.55H174.805L162.955 116.595C162.829 116.593 162.705 116.565 162.591 116.513C162.476 116.461 162.373 116.386 162.289 116.293C162.204 116.2 162.14 116.09 162.099 115.971C162.059 115.852 162.043 115.725 162.054 115.6C162.064 115.475 162.1 115.353 162.159 115.242C162.218 115.131 162.3 115.033 162.398 114.955C162.497 114.876 162.611 114.819 162.732 114.787C162.854 114.754 162.98 114.747 163.105 114.765L174.955 115.725C175.198 115.734 175.427 115.84 175.592 116.018C175.757 116.196 175.844 116.432 175.835 116.675C175.826 116.918 175.72 117.147 175.542 117.312C175.364 117.477 175.128 117.564 174.885 117.555V117.55Z" fill="#E0E0E0" style="fill:#E0E0E0;fill:color(display-p3 0.8784 0.8784 0.8784);fill-opacity:1;"/>
<path d="M192.33 118.96H192.25L182 118.13C181.758 118.11 181.534 117.995 181.377 117.81C181.22 117.625 181.143 117.385 181.163 117.143C181.182 116.901 181.298 116.676 181.483 116.519C181.668 116.362 181.908 116.285 182.15 116.305L192.375 117.13C192.618 117.139 192.847 117.243 193.012 117.421C193.178 117.599 193.266 117.835 193.258 118.078C193.249 118.32 193.144 118.55 192.967 118.715C192.789 118.881 192.553 118.969 192.31 118.96H192.33Z" fill="#E0E0E0" style="fill:#E0E0E0;fill:color(display-p3 0.8784 0.8784 0.8784);fill-opacity:1;"/>
<path opacity="0.2" d="M155.53 139.62H155.45L144.13 138.705C144.009 138.696 143.891 138.662 143.782 138.607C143.674 138.551 143.578 138.475 143.5 138.381C143.422 138.288 143.363 138.181 143.327 138.064C143.291 137.948 143.278 137.826 143.29 137.705L144.205 126.39C144.215 126.269 144.249 126.151 144.305 126.044C144.361 125.936 144.437 125.84 144.53 125.762C144.623 125.684 144.731 125.625 144.846 125.589C144.962 125.552 145.084 125.539 145.205 125.55L156.5 126.5C156.621 126.51 156.739 126.543 156.847 126.599C156.956 126.654 157.052 126.731 157.13 126.824C157.208 126.917 157.267 127.025 157.303 127.141C157.339 127.257 157.352 127.379 157.34 127.5L156.425 138.82C156.404 139.062 156.289 139.287 156.105 139.445C155.939 139.568 155.736 139.629 155.53 139.62ZM145.19 136.95L154.69 137.72L155.455 128.22L145.955 127.45L145.19 136.95Z" fill="#283237" style="fill:#283237;fill:color(display-p3 0.1569 0.1961 0.2157);fill-opacity:1;"/>
<path d="M192.115 134.585H192.035L161.7 132.13C161.458 132.11 161.234 131.995 161.077 131.81C160.92 131.625 160.843 131.385 160.863 131.143C160.882 130.901 160.998 130.676 161.183 130.519C161.368 130.362 161.608 130.285 161.85 130.305L192.185 132.755C192.428 132.764 192.657 132.87 192.822 133.048C192.987 133.226 193.074 133.462 193.065 133.705C193.056 133.948 192.95 134.177 192.772 134.342C192.594 134.507 192.358 134.594 192.115 134.585Z" fill="#E0E0E0" style="fill:#E0E0E0;fill:color(display-p3 0.8784 0.8784 0.8784);fill-opacity:1;"/>
<path d="M179.96 138.2H179.88L161.33 136.7C161.204 136.698 161.08 136.67 160.966 136.618C160.851 136.566 160.748 136.491 160.664 136.398C160.579 136.305 160.515 136.195 160.474 136.076C160.434 135.957 160.418 135.831 160.429 135.705C160.439 135.58 160.475 135.458 160.534 135.347C160.593 135.236 160.675 135.138 160.773 135.06C160.872 134.982 160.986 134.924 161.107 134.892C161.229 134.859 161.355 134.852 161.48 134.87L180.025 136.37C180.268 136.379 180.497 136.484 180.662 136.661C180.828 136.839 180.916 137.075 180.907 137.318C180.899 137.56 180.794 137.79 180.616 137.955C180.439 138.121 180.203 138.209 179.96 138.2Z" fill="#E0E0E0" style="fill:#E0E0E0;fill:color(display-p3 0.8784 0.8784 0.8784);fill-opacity:1;"/>
<path opacity="0.3" d="M89.7279 111.555C93.613 100.11 85.7843 87.1047 72.2418 82.5076C58.6994 77.9106 44.5715 83.4622 40.6864 94.9075C36.8012 106.353 44.63 119.358 58.1724 123.955C71.7149 128.552 85.8427 123 89.7279 111.555Z" fill="#EB4A41" style="fill:#EB4A41;fill:color(display-p3 0.9216 0.2902 0.2549);fill-opacity:1;"/>
<path opacity="0.3" d="M79.7969 87.5552L74.3636 81.9309L43.3366 111.904L48.7698 117.528L79.7969 87.5552Z" fill="white" style="fill:white;fill-opacity:1;"/>
<path opacity="0.3" d="M86.8808 93.3283L82.6392 88.9375L50.8928 119.605L55.1345 123.996L86.8808 93.3283Z" fill="white" style="fill:white;fill-opacity:1;"/>
<path d="M67.825 127.34C64.3493 127.328 60.899 126.749 57.61 125.625C50.67 123.265 44.915 118.75 41.4 112.91C37.825 106.975 36.985 100.41 39.035 94.3551C41.085 88.3001 45.76 83.6051 52.21 81.0701C58.555 78.5701 65.87 78.5001 72.81 80.8601C79.75 83.2201 85.51 87.7301 89.025 93.5701C92.595 99.5051 93.435 106.095 91.39 112.13C89.345 118.165 84.66 122.88 78.215 125.41C74.9032 126.699 71.3787 127.354 67.825 127.34ZM62.595 82.6451C59.4851 82.6327 56.4003 83.2025 53.5 84.3251C48 86.5001 44.06 90.4401 42.35 95.5001C40.64 100.56 41.35 106.09 44.395 111.125C47.485 116.26 52.58 120.24 58.735 122.33C64.89 124.42 71.36 124.365 76.935 122.175C82.405 120.025 86.365 116.065 88.075 111.025C89.785 105.985 89.075 100.435 86.025 95.3951C82.935 90.2601 77.845 86.2851 71.685 84.1951C68.76 83.1853 65.6893 82.6617 62.595 82.6451Z" fill="#283237" style="fill:#283237;fill:color(display-p3 0.1569 0.1961 0.2157);fill-opacity:1;"/>
<path d="M91.605 109.205C95.0154 109.599 98.4032 110.168 101.755 110.91C105.085 111.62 108.385 112.44 111.65 113.34C114.915 114.24 118.15 115.225 121.38 116.275C122.975 116.84 124.64 117.215 126.12 118.11C126.894 118.568 127.608 119.12 128.245 119.755C128.594 120.1 128.917 120.471 129.21 120.865C129.544 121.303 129.832 121.774 130.07 122.27C130.532 123.225 130.601 124.323 130.26 125.328C129.92 126.333 129.198 127.163 128.25 127.64C127.756 127.888 127.238 128.085 126.705 128.23C126.235 128.363 125.755 128.46 125.27 128.52C124.377 128.635 123.473 128.635 122.58 128.52C120.86 128.33 119.315 127.615 117.705 127.095C114.51 125.97 111.34 124.78 108.205 123.495C105.07 122.21 101.95 120.865 98.87 119.4C95.7611 117.947 92.7288 116.334 89.785 114.57C89.2222 114.225 88.7934 113.699 88.5691 113.078C88.3447 112.457 88.3381 111.779 88.5504 111.154C88.7626 110.529 89.1811 109.994 89.737 109.638C90.293 109.282 90.9535 109.126 91.61 109.195L91.605 109.205Z" fill="#283237" style="fill:#283237;fill:color(display-p3 0.1569 0.1961 0.2157);fill-opacity:1;"/>
<path opacity="0.1" d="M122 73.7852C122.36 75.8302 121.525 77.3552 120.135 77.1902C118.745 77.0252 117.33 75.2402 116.975 73.1902C116.62 71.1402 117.475 69.6202 118.84 69.7852C120.205 69.9502 121.63 71.7402 122 73.7852Z" fill="#EB4A41" style="fill:#EB4A41;fill:color(display-p3 0.9216 0.2902 0.2549);fill-opacity:1;"/>
<path d="M129.5 206C133.635 205.68 135.735 203.03 135.41 200.05C135.23 198.405 140.495 197.87 140.495 197.87C139.72 203.065 140.855 203.9 141.05 205.235C141.245 206.57 141.135 208.02 140.05 208.045C138.74 208.08 138.15 207.83 136.52 207.895C134.615 207.965 133.33 208.04 129.95 208.045C128.605 208.055 127.675 206.15 129.5 206Z" fill="#283237" style="fill:#283237;fill:color(display-p3 0.1569 0.1961 0.2157);fill-opacity:1;"/>
<path d="M166.61 203C169.055 198.815 167.045 196.065 165.28 193.79C164.235 192.445 169.25 190.74 169.25 190.74C170.5 193.885 171.75 193.845 173 194.54C174.25 195.235 174.965 196.39 174.28 197.235C173.455 198.235 172.725 198.16 171.755 199.45C170.62 200.95 169.41 202.905 167.82 204.525C166.875 205.5 165.69 204.56 166.61 203Z" fill="#283237" style="fill:#283237;fill:color(display-p3 0.1569 0.1961 0.2157);fill-opacity:1;"/>
<path d="M118.57 118.365C118.57 118.365 119.265 139.365 124.395 156.865C126.63 171.995 135.355 200.585 135.355 200.585C137.165 201.017 139.053 201 140.855 200.535C140.855 200.535 143.65 178.465 137.78 154.535C141.595 129.01 139 115.98 139 115.98L118.57 118.365Z" fill="#EB4A41" style="fill:#EB4A41;fill:color(display-p3 0.9216 0.2902 0.2549);fill-opacity:1;"/>
<path d="M126.635 117.4C126.635 117.4 135.4 146.285 142.135 159.645C149.215 173.675 164.47 193.645 165.175 194.53C167.115 193.605 168.81 192.555 169.825 191.14C169.825 191.14 163.995 168.99 155.38 153.9C148.605 120.65 144.09 115.32 144.09 115.32L126.635 117.4Z" fill="#EB4A41" style="fill:#EB4A41;fill:color(display-p3 0.9216 0.2902 0.2549);fill-opacity:1;"/>
<path d="M131.75 75.615C131.38 78.58 131.25 83.355 132.675 85.72C132.675 85.72 128.895 86.365 123.98 91.35C120.98 87.895 123.4 86.85 123.4 86.85C125.595 86.05 125.625 83.265 125.365 81.12L131.75 75.615Z" fill="#F6C5BF" style="fill:#F6C5BF;fill:color(display-p3 0.9647 0.7725 0.7490);fill-opacity:1;"/>
<path d="M115.875 95.1601C115.31 91.7051 117.35 88.8901 121.635 87.4101C125.585 86.0501 131.255 85.0551 135.17 85.6151C139.085 86.1751 140.52 88.1151 140.26 91.0651C139.14 103.865 144.035 111.405 144.1 115.32C134.89 117.67 120.835 119.645 118.57 118.365C116.915 116.62 117.235 105.735 117.75 104.075C113.665 101.93 116.19 97.0851 115.875 95.1601Z" fill="#EB4A41" style="fill:#EB4A41;fill:color(display-p3 0.9216 0.2902 0.2549);fill-opacity:1;"/>
<path d="M119.765 73.7C119.825 74.085 119.67 74.435 119.415 74.475C119.16 74.515 118.915 74.235 118.84 73.845C118.765 73.455 118.935 73.105 119.19 73.065C119.445 73.025 119.7 73.31 119.765 73.7Z" fill="#283237" style="fill:#283237;fill:color(display-p3 0.1569 0.1961 0.2157);fill-opacity:1;"/>
<path d="M119.305 73.0702L118.305 72.9502C118.305 72.9502 118.925 73.6052 119.305 73.0702Z" fill="#283237" style="fill:#283237;fill:color(display-p3 0.1569 0.1961 0.2157);fill-opacity:1;"/>
<path d="M119.75 74.5C119.541 75.4429 119.205 76.3529 118.75 77.205C118.97 77.3157 119.212 77.3767 119.458 77.3836C119.704 77.3906 119.949 77.3432 120.175 77.245L119.75 74.5Z" fill="#DF8981" style="fill:#DF8981;fill:color(display-p3 0.8745 0.5373 0.5059);fill-opacity:1;"/>
<path d="M118.525 71.635C118.486 71.6114 118.455 71.5767 118.436 71.5355C118.417 71.4942 118.41 71.4482 118.417 71.4033C118.424 71.3583 118.444 71.3164 118.475 71.2829C118.506 71.2494 118.546 71.2258 118.59 71.215C118.944 71.1148 119.317 71.1011 119.677 71.1751C120.037 71.249 120.374 71.4085 120.66 71.64C120.703 71.6831 120.727 71.7416 120.727 71.8025C120.727 71.8634 120.703 71.9219 120.66 71.965C120.639 71.9869 120.614 72.0044 120.586 72.0163C120.558 72.0282 120.528 72.0344 120.497 72.0344C120.467 72.0344 120.437 72.0282 120.409 72.0163C120.381 72.0044 120.356 71.9869 120.335 71.965C120.106 71.7864 119.838 71.6643 119.553 71.6087C119.268 71.5531 118.974 71.5655 118.695 71.645C118.639 71.6641 118.578 71.6605 118.525 71.635Z" fill="#283237" style="fill:#283237;fill:color(display-p3 0.1569 0.1961 0.2157);fill-opacity:1;"/>
<path d="M132.42 71.03C132.89 75.855 133.19 77.89 131.21 80.72C128.235 84.975 122.315 84.47 120.44 79.875C118.755 75.74 118.27 68.545 122.555 65.915C126.84 63.285 131.95 66.205 132.42 71.03Z" fill="#F6C5BF" style="fill:#F6C5BF;fill:color(display-p3 0.9647 0.7725 0.7490);fill-opacity:1;"/>
<path d="M122.5 74.0552C120.745 74.3102 120 71.6302 120.6 70.4502C118.53 70.3852 118.17 68.5152 118.84 67.1402C119.51 65.7652 121.185 62.7152 127.215 63.6402C133.245 64.5652 135.215 69.8102 134.69 72.0152C134.165 74.2202 135.245 80.4202 129.61 81.4402C123.975 82.4602 120.545 76.8752 122.5 74.0552Z" fill="#283237" style="fill:#283237;fill:color(display-p3 0.1569 0.1961 0.2157);fill-opacity:1;"/>
<path d="M142.775 86.0001C139.695 83.0001 128.04 84.5001 119.56 87.2001C111.08 89.9001 113.195 98.4101 113.93 104.34C114.665 110.27 119.1 152.12 124.19 167.34C136.55 167.495 155.425 163.34 160.665 160.635C158.61 155.185 147.585 112.79 145.775 101.635C144.895 96.1951 146.025 89.1501 142.775 86.0001Z" fill="#EB4A41" style="fill:#EB4A41;fill:color(display-p3 0.9216 0.2902 0.2549);fill-opacity:1;"/>
<path opacity="0.6" d="M142.775 86.0001C139.695 83.0001 128.04 84.5001 119.56 87.2001C111.08 89.9001 113.195 98.4101 113.93 104.34C114.665 110.27 119.1 152.12 124.19 167.34C136.55 167.495 155.425 163.34 160.665 160.635C158.61 155.185 147.585 112.79 145.775 101.635C144.895 96.1951 146.025 89.1501 142.775 86.0001Z" fill="white" style="fill:white;fill-opacity:1;"/>
<path opacity="0.5" d="M114.67 110.635C116.37 108.435 117.835 106.305 118.295 104.99C119.935 100.285 117.72 113.13 115.77 119.81C115.335 116.32 114.965 113.19 114.67 110.635Z" fill="#EB4A41" style="fill:#EB4A41;fill:color(display-p3 0.9216 0.2902 0.2549);fill-opacity:1;"/>
<path d="M100.595 113.425L102.375 115.225C103.33 117.855 99.59 119.305 99.59 119.305L97.91 120.725C97.6588 120.961 97.3271 121.092 96.9825 121.092C96.6379 121.092 96.3062 120.961 96.055 120.725L94.805 119.475C94.527 119.176 94.3725 118.783 94.3725 118.375C94.3725 117.967 94.527 117.574 94.805 117.275L96.105 115.835C96.47 115.423 96.9182 115.092 97.42 114.865L100.595 113.425Z" fill="#EB4A41" style="fill:#EB4A41;fill:color(display-p3 0.9216 0.2902 0.2549);fill-opacity:1;"/>
<path d="M101.315 113.235C99.315 112.36 97.485 113.905 95.815 114.7C95.53 114.835 95.435 115.655 95.935 115.745C96.2572 115.822 96.5916 115.835 96.9186 115.781C97.2457 115.728 97.5589 115.61 97.84 115.435C98.26 115.975 100.005 116.89 101.745 115.31C101.88 114.589 101.726 113.843 101.315 113.235Z" fill="#EB4A41" style="fill:#EB4A41;fill:color(display-p3 0.9216 0.2902 0.2549);fill-opacity:1;"/>
<path d="M124.97 95.0301L124.725 96.1901L124.46 97.2851C124.28 98.0101 124.09 98.7301 123.9 99.4451C123.5 100.88 123.065 102.31 122.58 103.73C122.095 105.15 121.58 106.565 120.985 107.98C120.7 108.69 120.38 109.4 120.06 110.105L119.56 111.165L119.255 111.78C119.12 112.055 118.97 112.315 118.815 112.575C117.549 114.664 115.666 116.308 113.425 117.28L113.215 117.37L113.06 117.43L112.76 117.54L112.155 117.755L110.975 118.125L109.825 118.445L108.69 118.72C107.19 119.06 105.69 119.32 104.22 119.525C103.48 119.625 102.745 119.71 102.005 119.79C101.265 119.87 100.545 119.93 99.745 119.975L98.5 112.68L100.4 112.08C101.045 111.875 101.685 111.655 102.32 111.435C103.59 111.005 104.82 110.555 106.035 110.075L106.915 109.71L107.765 109.34L108.565 108.95L108.93 108.75L109.12 108.655L109.205 108.61L109.235 108.585C109.556 108.325 109.794 107.978 109.92 107.585C109.92 107.535 109.95 107.49 109.96 107.44V107.405L109.995 107.305L110.07 107.085L110.38 106.195C110.575 105.585 110.78 104.99 110.965 104.365C111.34 103.13 111.685 101.865 112.015 100.575C112.345 99.2851 112.655 98.0001 112.945 96.6951C113.095 96.0451 113.24 95.3951 113.375 94.7451L113.76 92.8601L124.97 95.0301Z" fill="#EB4A41" style="fill:#EB4A41;fill:color(display-p3 0.9216 0.2902 0.2549);fill-opacity:1;"/>
<g opacity="0.6">
<path d="M124.97 95.0301L124.725 96.1901L124.46 97.2851C124.28 98.0101 124.09 98.7301 123.9 99.4451C123.5 100.88 123.065 102.31 122.58 103.73C122.095 105.15 121.58 106.565 120.985 107.98C120.7 108.69 120.38 109.4 120.06 110.105L119.56 111.165L119.255 111.78C119.12 112.055 118.97 112.315 118.815 112.575C117.549 114.664 115.666 116.308 113.425 117.28L113.215 117.37L113.06 117.43L112.76 117.54L112.155 117.755L110.975 118.125L109.825 118.445L108.69 118.72C107.19 119.06 105.69 119.32 104.22 119.525C103.48 119.625 102.745 119.71 102.005 119.79C101.265 119.87 100.545 119.93 99.745 119.975L98.5 112.68L100.4 112.08C101.045 111.875 101.685 111.655 102.32 111.435C103.59 111.005 104.82 110.555 106.035 110.075L106.915 109.71L107.765 109.34L108.565 108.95L108.93 108.75L109.12 108.655L109.205 108.61L109.235 108.585C109.556 108.325 109.794 107.978 109.92 107.585C109.92 107.535 109.95 107.49 109.96 107.44V107.405L109.995 107.305L110.07 107.085L110.38 106.195C110.575 105.585 110.78 104.99 110.965 104.365C111.34 103.13 111.685 101.865 112.015 100.575C112.345 99.2851 112.655 98.0001 112.945 96.6951C113.095 96.0451 113.24 95.3951 113.375 94.7451L113.76 92.8601L124.97 95.0301Z" fill="white" style="fill:white;fill-opacity:1;"/>
</g>
<path opacity="0.5" d="M133.085 115.365C133.085 115.365 141.315 114.21 143.735 112.625C140.805 115.19 136.84 115.735 133.085 115.365Z" fill="#EB4A41" style="fill:#EB4A41;fill:color(display-p3 0.9216 0.2902 0.2549);fill-opacity:1;"/>
<path opacity="0.5" d="M134 116.29C134 116.29 140.045 116.335 141.95 115.435C139.575 117 136.66 116.97 134 116.29Z" fill="#EB4A41" style="fill:#EB4A41;fill:color(display-p3 0.9216 0.2902 0.2549);fill-opacity:1;"/>
<path d="M119.305 75.2052C118.72 76.7752 118.075 78.4952 118.51 80.4002C118.945 82.3052 120.88 83.3052 123.87 83.2802C123.55 82.0352 122.195 81.2802 121.12 79.3652C120.045 77.4502 121.12 73.1102 121.12 73.1102L120.745 72.7852C120.302 73.8761 119.949 75.0015 119.69 76.1502C119.19 75.4002 119.305 75.2052 119.305 75.2052Z" fill="#EB4A41" style="fill:#EB4A41;fill:color(display-p3 0.9216 0.2902 0.2549);fill-opacity:1;"/>
<path opacity="0.3" d="M119.305 75.2052C118.72 76.7752 118.075 78.4952 118.51 80.4002C118.945 82.3052 120.88 83.3052 123.87 83.2802C123.55 82.0352 122.195 81.2802 121.12 79.3652C120.045 77.4502 121.12 73.1102 121.12 73.1102L120.745 72.7852C120.302 73.8761 119.949 75.0015 119.69 76.1502C119.19 75.4002 119.305 75.2052 119.305 75.2052Z" fill="white" style="fill:white;fill-opacity:1;"/>
<path d="M123.83 75.3351C123.769 75.7958 123.607 76.2373 123.356 76.6281C123.104 77.0188 122.769 77.349 122.375 77.5951C121.375 78.1301 120.57 76.9151 120.575 75.5251C120.575 74.2701 121.075 72.4851 122.215 72.5251C123.355 72.5651 124.06 74.0651 123.83 75.3351Z" fill="#F6C5BF" style="fill:#F6C5BF;fill:color(display-p3 0.9647 0.7725 0.7490);fill-opacity:1;"/>
<path d="M118.585 67.7951C118.93 70.0551 121.465 76.4801 125.325 79.0351C128.825 81.3651 132.47 81.6451 133.65 79.1201C133.65 79.1201 137.97 80.5851 139 72.2901C139.885 65.2001 134.745 60.1651 129.165 59.2901C124.09 58.5001 114.115 60.8251 118.585 67.7951Z" fill="#EB4A41" style="fill:#EB4A41;fill:color(display-p3 0.9216 0.2902 0.2549);fill-opacity:1;"/>
<path opacity="0.2" d="M119.03 68C119.03 68 122.945 75.305 133.22 78.78C127.22 78.25 122.39 73.64 119.03 68Z" fill="black" style="fill:black;fill-opacity:1;"/>
</svg>
