<svg width="20" height="20" viewBox="0 0 20 20" fill="none" xmlns="http://www.w3.org/2000/svg">
<g clip-path="url(#clip0_147_7585)">
<path d="M10 20C15.5228 20 20 15.5228 20 10C20 4.47715 15.5228 0 10 0C4.47715 0 0 4.47715 0 10C0 15.5228 4.47715 20 10 20Z" fill="#F04242" fill-opacity="0.3" style="fill:#F04242;fill:color(display-p3 0.9400 0.2600 0.2600);fill-opacity:0.3;"/>
<g clip-path="url(#clip1_147_7585)">
<path d="M11.3877 3.23161H15.5635C15.6384 3.23161 15.6096 3.27188 15.6096 3.34681V7.47634C15.6096 7.55127 15.6384 7.62822 15.5635 7.62822H14.3574C14.2823 7.62822 14.222 7.55138 14.222 7.47634V5.80111L13.0428 6.97696C12.9524 7.06729 12.8855 7.12782 12.8453 7.16731C12.8346 7.17788 12.8327 7.18137 12.8265 7.18879C12.8439 7.21726 12.8707 7.25866 12.9068 7.32728C13.7818 8.99251 13.0579 10.9102 11.5897 11.7025C11.7852 11.326 11.9143 10.9151 11.9575 10.4874C11.9875 10.2494 11.9915 10.0093 11.9727 9.77089C12.1156 9.46186 12.1945 9.09657 12.1808 8.67908C12.1677 8.26722 11.9644 7.83038 11.7227 7.52112C11.3369 7.02634 10.7487 6.76309 10.1412 6.73126C10.0978 6.72927 10.0543 6.7284 10.0108 6.72867C9.9673 6.72867 9.92398 6.72991 9.88045 6.73227C9.83826 6.73463 9.79618 6.73846 9.75456 6.74386C9.74533 6.74509 9.6883 6.74599 9.67907 6.74746C9.50481 6.76973 9.3652 6.81653 9.1339 6.88414V6.89393C8.9026 7.02274 8.62596 7.21681 8.41547 7.44428C8.04861 7.84129 7.84093 8.52957 7.91428 9.04448C8.08922 10.2688 8.98978 10.9066 9.9043 10.9672C9.65185 11.3786 9.24403 11.694 8.78065 11.8151C8.39691 11.6462 7.99787 11.3993 7.67275 11.0807C6.90988 10.3327 6.58993 9.14911 6.82112 8.13053V8.12974C7.05242 7.17428 7.71595 6.39342 8.58658 5.95681C9.12782 5.68478 9.6514 5.61109 10.2422 5.62797C10.6937 5.64091 11.364 5.83429 11.7434 6.10058C11.7582 6.11093 11.7641 6.10947 11.7734 6.11487C11.7896 6.09799 11.814 6.07572 11.8432 6.04613C12.0613 5.82361 12.3945 5.49837 12.7091 5.19102C12.9167 4.98829 13.114 4.85149 13.266 4.62008H11.4011C11.3262 4.62008 11.2154 4.57711 11.2154 4.50218V3.34692C11.2154 3.27694 11.2931 3.22846 11.3627 3.22148L11.3877 3.23161ZM10.8535 14.339H9.13378V13.1712C10.5215 12.8159 11.5711 11.5611 11.5711 10.057C11.5711 8.78213 10.8422 7.62822 9.76806 7.16539H9.76356C9.30512 7.16539 8.91115 7.49389 8.65048 7.86706C9.73363 8.00869 10.5666 8.90307 10.5666 10.025C10.5666 11.2459 9.57636 12.2467 8.35607 12.2467C7.1359 12.2467 6.1441 11.2632 6.1441 10.0424C6.1441 9.64894 6.24377 9.28084 6.42355 8.95932C6.41005 8.35677 6.52637 7.75343 6.79153 7.21602C5.79152 7.76457 5.13452 8.82657 5.13452 10.0474C5.13452 11.5358 6.12688 12.7911 7.51457 13.1598V14.3388H5.8669C5.79276 14.3388 5.72537 14.4638 5.72537 14.5381L5.72312 15.923C5.72312 15.9971 5.79276 16.0847 5.8669 16.0847L7.52087 16.1059L7.51862 17.3947C7.51862 17.4688 7.58601 17.5784 7.66015 17.5784H9.01746C9.0916 17.5784 9.13367 17.4383 9.13367 17.3641V15.9585H10.8533C10.9275 15.9585 10.984 16.0196 10.984 15.9453V14.5896C10.984 14.5157 10.9276 14.339 10.8535 14.339Z" fill="#F04242" style="fill:#F04242;fill:color(display-p3 0.9400 0.2600 0.2600);fill-opacity:1;"/>
</g>
</g>
<defs>
<clipPath id="clip0_147_7585">
<rect width="20" height="20" fill="white" style="fill:white;fill-opacity:1;"/>
</clipPath>
<clipPath id="clip1_147_7585">
<rect width="14.4" height="14.4" fill="white" style="fill:white;fill-opacity:1;" transform="translate(3.19995 3.2)"/>
</clipPath>
</defs>
</svg>
