<svg width="30" height="30" viewBox="0 0 30 30" fill="none" xmlns="http://www.w3.org/2000/svg">
<g clip-path="url(#clip0_126_1793)">
<path d="M27.7157 16.4265C27.6579 16.4264 27.6008 16.4377 27.5474 16.4597C27.4941 16.4817 27.4456 16.514 27.4047 16.5547C27.3638 16.5954 27.3314 16.6438 27.3092 16.6971C27.2871 16.7504 27.2756 16.8075 27.2755 16.8652C27.2647 23.6126 21.8152 29.1209 14.9804 29.1209C8.21174 29.1101 2.71377 23.5945 2.72461 16.8259C2.73527 10.2188 7.99119 4.82351 14.5375 4.5797L13.8103 5.19376C13.7224 5.26932 13.668 5.37651 13.6587 5.49201C13.6495 5.60752 13.6863 5.72198 13.761 5.81051C13.8358 5.89904 13.9425 5.95448 14.0579 5.96475C14.1733 5.97502 14.2881 5.9393 14.3773 5.86536L16.0329 4.46755C16.2403 4.29247 16.2407 3.97255 16.0339 3.79689L14.3828 2.39386C14.3389 2.35646 14.288 2.3281 14.233 2.31038C14.1781 2.29267 14.1202 2.28596 14.0627 2.29062C14.0051 2.29529 13.9491 2.31125 13.8977 2.33759C13.8463 2.36393 13.8007 2.40014 13.7633 2.44413C13.7259 2.48811 13.6976 2.53902 13.6799 2.59395C13.6622 2.64888 13.6555 2.70676 13.6602 2.76428C13.6649 2.82181 13.6808 2.87784 13.7071 2.9292C13.7335 2.98055 13.7697 3.02622 13.8136 3.06359L14.5614 3.69898C7.52168 3.92474 1.85713 9.69253 1.84558 16.8245C1.83996 20.3381 3.20302 23.6436 5.68359 26.1322C8.09162 28.548 11.3706 30 15.0006 30C22.1883 30 28.1427 24.1992 28.1544 16.8666C28.1545 16.8089 28.1432 16.7518 28.1212 16.6984C28.0992 16.6451 28.0669 16.5966 28.0262 16.5557C27.9855 16.5148 27.9371 16.4824 27.8838 16.4602C27.8305 16.438 27.7734 16.4266 27.7157 16.4265Z" fill="#F04242" style="fill:#F04242;fill:color(display-p3 0.9400 0.2600 0.2600);fill-opacity:1;"/>
<path d="M17.7537 6.20276C18.2984 6.55069 19.0244 6.39062 19.3723 5.84616L19.7006 5.33229H20.5159C20.3691 7.2046 20.377 7.08431 20.377 7.1494C20.377 7.78813 20.8997 8.32069 21.5477 8.32069C22.0352 8.32063 22.4866 8.01372 22.6541 7.53882L23.4329 5.33229H25.2114C25.8576 5.33229 26.3833 4.80653 26.3833 4.16036C26.3833 3.51419 25.8575 2.98843 25.2114 2.98843H23.4329L22.6541 0.781787C22.459 0.228955 21.8794 -0.0960647 21.306 0.0253415C20.7373 0.145869 20.3341 0.676728 20.3806 1.26349L20.5158 2.98837H19.7005L19.3723 2.47456C18.7428 1.48948 17.2127 1.94153 17.2127 3.1062C17.2127 3.52011 17.3952 3.73356 17.6679 4.16024L17.3971 4.58411C17.0524 5.12423 17.2017 5.84991 17.7537 6.20276ZM18.5596 3.92376L18.1378 3.26347C18.117 3.23106 18.1029 3.19487 18.0961 3.15698C18.0893 3.11909 18.0901 3.08023 18.0984 3.04264C18.1067 3.00504 18.1223 2.96945 18.1443 2.9379C18.1664 2.90635 18.1944 2.87945 18.2269 2.85876C18.2924 2.81702 18.3718 2.80297 18.4476 2.81967C18.5235 2.83638 18.5896 2.88249 18.6315 2.94788L19.0894 3.66448C19.1291 3.72666 19.1839 3.77783 19.2486 3.81328C19.3133 3.84873 19.3859 3.86732 19.4597 3.86733H20.9911C21.247 3.86733 21.4493 3.64901 21.4292 3.39349C21.4278 3.37597 21.2559 1.1889 21.2559 1.17132C21.2559 0.844599 21.7165 0.766318 21.8252 1.07429L22.7075 3.57407C22.7378 3.6598 22.7939 3.73404 22.8681 3.78655C22.9423 3.83907 23.031 3.86727 23.1219 3.86728H25.2112C25.3728 3.86728 25.5042 3.9987 25.5042 4.16024C25.5042 4.32179 25.3728 4.45321 25.2112 4.45321H23.1219C23.031 4.45321 22.9423 4.48141 22.8681 4.53392C22.7939 4.58644 22.7378 4.66068 22.7075 4.74642L21.8252 7.24626C21.712 7.56735 21.2307 7.46499 21.2569 7.12579C21.4426 4.75755 21.4878 4.78245 21.3138 4.59431C21.2727 4.54981 21.2228 4.51431 21.1672 4.49003C21.1117 4.46575 21.0518 4.45322 20.9911 4.45321H19.4597C19.386 4.45321 19.3133 4.4718 19.2486 4.50725C19.1839 4.5427 19.1292 4.59388 19.0894 4.65606L18.6316 5.37272C18.4742 5.61905 18.0916 5.50614 18.0916 5.21429C18.0916 5.10149 18.1073 5.10495 18.5597 4.39685C18.6048 4.32621 18.6288 4.24413 18.6288 4.16029C18.6288 4.07646 18.6048 3.99439 18.5596 3.92376ZM22.3045 11.2445C22.376 11.3366 22.481 11.3965 22.5967 11.4112C22.7123 11.4258 22.829 11.3939 22.9211 11.3225C23.0133 11.2511 23.0732 11.146 23.0879 11.0303C23.1025 10.9147 23.0706 10.798 22.9992 10.7059C21.0748 8.22436 18.1648 6.78313 14.9998 6.78325C9.42134 6.78349 4.88297 11.3219 4.88297 16.9005C4.88297 22.4743 9.41683 27.0175 15.0002 27.0175C22.4228 27.0175 27.3417 19.2341 24.1276 12.5313C24.1027 12.4793 24.0677 12.4326 24.0247 12.3941C23.9818 12.3556 23.9316 12.3259 23.8772 12.3068C23.8227 12.2876 23.765 12.2794 23.7074 12.2825C23.6498 12.2857 23.5933 12.3001 23.5413 12.3251C23.4893 12.35 23.4426 12.385 23.4041 12.428C23.3656 12.4709 23.3359 12.5211 23.3168 12.5755C23.2976 12.63 23.2894 12.6877 23.2925 12.7453C23.2957 12.8029 23.3101 12.8594 23.3351 12.9114C23.8714 14.0298 24.1703 15.2219 24.2275 16.4609H20.5197C20.4241 12.2766 19.0494 9.4294 17.7264 8.06933C19.52 8.61958 21.1157 9.71153 22.3045 11.2445ZM15.4395 26.0962V17.3399H19.6406C19.5321 21.8919 17.6999 25.6591 15.4395 26.0962ZM14.5605 26.0962C12.3011 25.6594 10.468 21.8956 10.3594 17.3399H14.5605V26.0962ZM10.3595 16.4609C10.4679 11.9088 12.3 8.14157 14.5606 7.70458V16.4609H10.3595ZM12.2688 8.07442C10.9414 9.44229 9.57568 12.2931 9.48041 16.4609H5.77254C5.95851 12.51 8.63783 9.20036 12.2688 8.07442ZM5.77254 17.3399H9.48041C9.57562 21.505 10.9397 24.3567 12.2688 25.7264C8.63783 24.6004 5.95851 21.2909 5.77254 17.3399ZM17.7311 25.7265C19.0592 24.3579 20.4244 21.5053 20.5196 17.34H24.2276C24.0417 21.291 21.3622 24.6006 17.7311 25.7265ZM19.6406 16.4609H15.4395V7.70458C17.6978 8.14128 19.532 11.903 19.6406 16.4609Z" fill="#F04242" style="fill:#F04242;fill:color(display-p3 0.9400 0.2600 0.2600);fill-opacity:1;"/>
</g>
<defs>
<clipPath id="clip0_126_1793">
<rect width="30" height="30" fill="white" style="fill:white;fill-opacity:1;"/>
</clipPath>
</defs>
</svg>
