<svg width="30" height="30" viewBox="0 0 30 30" fill="none" xmlns="http://www.w3.org/2000/svg">
<g clip-path="url(#clip0_126_1667)">
<path d="M12.705 3.42857L11.5425 0.927359C10.998 -0.223195 10.0068 -0.223195 9.67032 0.489649L8.29983 3.3973C6.71976 6.63888 4.75531 9.66936 2.45077 12.4204C0.808523 14.4101 -0.0622785 16.9466 0.00346886 19.5488C0.138071 24.9014 4.84913 29.785 10.0864 29.9914C12.1616 30.0765 14.2149 29.5303 15.9862 28.4219C17.7575 27.3135 19.1671 25.6928 20.0365 23.7651C20.9058 21.8373 21.1959 19.6893 20.8699 17.5929C20.544 15.4966 19.6166 13.5462 18.2053 11.9889C15.9658 9.43071 14.112 6.54554 12.705 3.42857Z" fill="#F04242" style="fill:#F04242;fill:color(display-p3 0.9400 0.2600 0.2600);fill-opacity:1;"/>
<path d="M29.5 22.5C29.5 26.366 26.366 29.5 22.5 29.5C18.634 29.5 15.5 26.366 15.5 22.5C15.5 18.634 18.634 15.5 22.5 15.5C26.366 15.5 29.5 18.634 29.5 22.5Z" fill="#F04242" stroke="#FBFBFB" style="fill:#F04242;fill:color(display-p3 0.9400 0.2600 0.2600);fill-opacity:1;stroke:#FBFBFB;stroke:color(display-p3 0.9843 0.9843 0.9843);stroke-opacity:1;"/>
<path d="M6.4606 14.4147C6.22216 14.4111 5.98953 14.3436 5.78917 14.2197C5.58881 14.0958 5.42875 13.9206 5.32717 13.7139C5.2256 13.5073 5.18659 13.2774 5.21458 13.0506C5.24257 12.8238 5.33644 12.609 5.48552 12.4307C6.24112 11.5869 6.88343 10.6559 7.39745 9.65922C7.55015 9.37694 7.81178 9.16285 8.1267 9.06246C8.44163 8.96208 8.78502 8.98332 9.08385 9.12167C9.38268 9.26002 9.61339 9.50456 9.72691 9.80331C9.84044 10.1021 9.82783 10.4314 9.69177 10.7214C9.08142 11.8987 8.31918 12.998 7.42294 13.9935C7.30338 14.1256 7.15558 14.2316 6.98956 14.3042C6.82353 14.3769 6.64314 14.4146 6.4606 14.4147ZM4.27462 17.644C3.93657 17.644 3.61237 17.5154 3.37333 17.2864C3.13429 17.0574 3 16.7469 3 16.4231C2.99973 16.1007 3.13261 15.7912 3.36964 15.5623C3.61481 15.3444 3.93694 15.2232 4.27144 15.2232C4.60593 15.2232 4.92807 15.3444 5.17323 15.5623C5.41026 15.7912 5.54314 16.1007 5.54287 16.4231C5.54287 16.7469 5.40858 17.0574 5.16955 17.2864C4.93051 17.5154 4.6063 17.644 4.26825 17.644H4.27462ZM25 25H23.7254V20.6169H22.1066V25H20.832V20.0065L21.4693 19.396H24.3627L25 20.0065V25Z" fill="#FBFBFB" style="fill:#FBFBFB;fill:color(display-p3 0.9843 0.9843 0.9843);fill-opacity:1;"/>
<path d="M21 22H24V23H21V22Z" fill="#FBFBFB" style="fill:#FBFBFB;fill:color(display-p3 0.9843 0.9843 0.9843);fill-opacity:1;"/>
</g>
<defs>
<clipPath id="clip0_126_1667">
<rect width="30" height="30" fill="white" style="fill:white;fill-opacity:1;"/>
</clipPath>
</defs>
</svg>
