<svg width="30" height="31" viewBox="0 0 30 31" fill="none" xmlns="http://www.w3.org/2000/svg">
<g clip-path="url(#clip0_126_1676)">
<path d="M12.705 4.07128L11.5425 1.57051C10.998 0.420154 10.0068 0.420154 9.67032 1.13287L8.29983 4.04002C6.71976 7.28104 4.7553 10.311 2.45077 13.0616C0.808523 15.051 -0.0622785 17.587 0.00346886 20.1888C0.138071 25.5404 4.84913 30.4232 10.0864 30.6295C12.1616 30.7146 14.2149 30.1685 15.9862 29.0603C17.7575 27.9521 19.1671 26.3317 20.0365 24.4043C20.9058 22.4769 21.1959 20.3292 20.8699 18.2332C20.544 16.1372 19.6166 14.1872 18.2053 12.6302C15.9658 10.0724 14.112 7.18772 12.705 4.07128Z" fill="#F04242" style="fill:#F04242;fill:color(display-p3 0.9400 0.2600 0.2600);fill-opacity:1;"/>
<path d="M29.5 23.1393C29.5 27.0045 26.3661 30.138 22.5 30.138C18.6339 30.138 15.5 27.0045 15.5 23.1393C15.5 19.2741 18.6339 16.1406 22.5 16.1406C26.3661 16.1406 29.5 19.2741 29.5 23.1393Z" fill="#F04242" stroke="#FBFBFB" style="fill:#F04242;fill:color(display-p3 0.9400 0.2600 0.2600);fill-opacity:1;stroke:#FBFBFB;stroke:color(display-p3 0.9843 0.9843 0.9843);stroke-opacity:1;"/>
<path d="M6.37488 15.0556C6.14234 15.052 5.91548 14.9845 5.72008 14.8606C5.52468 14.7368 5.36858 14.5616 5.26952 14.355C5.17047 14.1483 5.13243 13.9186 5.15972 13.6917C5.18702 13.4649 5.27856 13.2502 5.42395 13.0719C6.16083 12.2283 6.78723 11.2974 7.28852 10.3009C7.43743 10.0187 7.69258 9.80466 7.99971 9.7043C8.30683 9.60393 8.64171 9.62517 8.93314 9.76349C9.22457 9.90182 9.44956 10.1463 9.56028 10.445C9.67099 10.7437 9.6587 11.073 9.52601 11.363C8.93077 12.5401 8.18741 13.6392 7.31338 14.6344C7.19678 14.7665 7.05264 14.8725 6.89073 14.9452C6.72881 15.0178 6.5529 15.0555 6.37488 15.0556ZM4.24305 18.2843C3.91337 18.2843 3.5972 18.1557 3.36408 17.9268C3.13096 17.6979 3 17.3874 3 17.0636C2.99974 16.7413 3.12933 16.4319 3.36048 16.203C3.59958 15.9851 3.91373 15.864 4.23994 15.864C4.56615 15.864 4.8803 15.9851 5.1194 16.203C5.35056 16.4319 5.48014 16.7413 5.47988 17.0636C5.47988 17.3874 5.34892 17.6979 5.1158 17.9268C4.88268 18.1557 4.56651 18.2843 4.23683 18.2843H4.24305ZM22 25.6391H20.757V21.2568H19.1845V25.6391H17.9414V20.6464L18.563 20.036H21.3785L22 20.6464V25.6391Z" fill="#FBFBFB" style="fill:#FBFBFB;fill:color(display-p3 0.9843 0.9843 0.9843);fill-opacity:1;"/>
<path d="M19 22.5942H21.7434V23.683H19V22.5942ZM26.3944 25.6373H23.6147L23.0091 25.0929V21.1843L23.6147 20.6399H26.3944L27 21.1843V25.0929L26.3944 25.6373ZM24.2506 24.5485H25.7888V21.7287H24.2203L24.2506 24.5485Z" fill="#FBFBFB" style="fill:#FBFBFB;fill:color(display-p3 0.9843 0.9843 0.9843);fill-opacity:1;"/>
<path d="M23 22.6394H26V23.641H23V22.6394Z" fill="#FBFBFB" style="fill:#FBFBFB;fill:color(display-p3 0.9843 0.9843 0.9843);fill-opacity:1;"/>
<path d="M26.1086 23.1379L27.0373 22.2094L27.966 23.1379L27.0373 24.0665L26.1086 23.1379Z" fill="#F04242" style="fill:#F04242;fill:color(display-p3 0.9400 0.2600 0.2600);fill-opacity:1;"/>
</g>
<defs>
<clipPath id="clip0_126_1676">
<rect width="30" height="29.9948" fill="white" style="fill:white;fill-opacity:1;" transform="translate(0 0.643311)"/>
</clipPath>
</defs>
</svg>
