<svg width="20" height="20" viewBox="0 0 20 20" fill="none" xmlns="http://www.w3.org/2000/svg">
<path opacity="0.4" d="M14.1871 0H5.81289C2.17107 0 0 2.16565 0 5.79835V14.1516C0 17.7843 2.17107 19.9499 5.81289 19.9499H14.1871C17.8289 19.9499 20 17.7843 20 14.1516V5.79835C20 2.16565 17.8289 0 14.1871 0Z" fill="#F04242" fill-opacity="0.3" style="fill:#F04242;fill:color(display-p3 0.9400 0.2600 0.2600);fill-opacity:0.3;"/>
<path d="M11.9167 7.2657L11.9667 10.2098L14.598 10.1699C14.7881 10.1699 14.9282 10.3395 14.8982 10.5192L14.5479 12.4253C14.5179 12.5651 14.3979 12.6649 14.2578 12.6748L12.0067 12.7148L12.1268 19.9502L9.12528 20.0001L9.00522 12.7647L7.30434 12.7946C7.13425 12.7946 7.0042 12.6649 7.0042 12.4952L6.97418 10.599C6.97418 10.4293 7.10424 10.2996 7.27432 10.2996L8.97521 10.2697L8.92518 7.02618C8.89517 5.36951 10.2158 4.01224 11.8767 3.9823L14.5779 3.94238C14.748 3.94238 14.8782 4.07212 14.8782 4.24178L14.9182 6.63697C14.9182 6.80663 14.7881 6.93636 14.618 6.93636L12.2168 6.97628C12.0467 6.9663 11.9167 7.10602 11.9167 7.2657Z" fill="#EB4A41" style="fill:#EB4A41;fill:color(display-p3 0.9216 0.2902 0.2549);fill-opacity:1;"/>
</svg>
