<svg width="20" height="20" viewBox="0 0 20 20" fill="none" xmlns="http://www.w3.org/2000/svg">
<g clip-path="url(#clip0_295_68)">
<path d="M19.4996 10.2323C19.4996 9.57778 19.4362 8.90215 19.3307 8.26874H10.1885V12.0058H15.4246C15.2135 13.2093 14.5168 14.265 13.4822 14.9406L16.607 17.3687C18.4439 15.6585 19.4996 13.1671 19.4996 10.2323Z" fill="#517FE7" style="fill:#517FE7;fill:color(display-p3 0.3176 0.4980 0.9059);fill-opacity:1;"/>
<path d="M10.1888 19.6912C12.8069 19.6912 15.0027 18.8255 16.6073 17.3476L13.4825 14.9406C12.6169 15.5318 11.4978 15.8696 10.1888 15.8696C7.65517 15.8696 5.52269 14.1594 4.74149 11.8792L1.53223 14.3494C3.17909 17.622 6.51503 19.6912 10.1888 19.6912Z" fill="#56A15C" style="fill:#56A15C;fill:color(display-p3 0.3373 0.6314 0.3608);fill-opacity:1;"/>
<path d="M4.74148 11.8581C4.34032 10.6546 4.34032 9.34557 4.74148 8.1421L1.53222 5.6507C0.159834 8.39546 0.159834 11.6258 1.53222 14.3495L4.74148 11.8581Z" fill="#ECBA40" style="fill:#ECBA40;fill:color(display-p3 0.9255 0.7294 0.2510);fill-opacity:1;"/>
<path d="M10.1888 4.15164C11.5612 4.13052 12.9125 4.65836 13.9048 5.60847L16.6707 2.82148C14.9182 1.17462 12.5957 0.287849 10.1888 0.308962C6.51503 0.308962 3.17909 2.37809 1.53223 5.6507L4.74149 8.1421C5.52269 5.84072 7.65517 4.15164 10.1888 4.15164Z" fill="#D3503F" style="fill:#D3503F;fill:color(display-p3 0.8275 0.3137 0.2471);fill-opacity:1;"/>
</g>
<defs>
<clipPath id="clip0_295_68">
<rect width="20" height="20" fill="white" style="fill:white;fill-opacity:1;"/>
</clipPath>
</defs>
</svg>
