<svg width="30" height="30" viewBox="0 0 30 30" fill="none" xmlns="http://www.w3.org/2000/svg">
<path d="M3.18844 10.1654C2.76036 10.0239 2.31833 9.90027 2.07001 8.83105C1.84137 9.8159 1.47516 9.99238 0.951569 10.1654C1.8054 10.4475 1.93419 10.9146 2.07001 11.4996C2.30403 10.4912 2.69098 10.3296 3.18844 10.1654ZM29.0484 10.1654C28.6204 10.0239 28.1783 9.90027 27.93 8.83105C27.7014 9.8159 27.3352 9.99238 26.8116 10.1654C27.6654 10.4475 27.7942 10.9146 27.93 11.4996C28.164 10.4912 28.551 10.3296 29.0484 10.1654ZM15.9625 4.54035C15.5344 4.39891 15.0923 4.27527 14.844 3.20605C14.6154 4.1909 14.2492 4.36738 13.7256 4.54035C14.5794 4.82254 14.7082 5.28965 14.844 5.87465C15.0781 4.86625 15.465 4.70465 15.9625 4.54035Z" fill="#F04242" style="fill:#F04242;fill:color(display-p3 0.9400 0.2600 0.2600);fill-opacity:1;"/>
<path d="M10.582 16.0318C10.5043 16.0318 10.4298 16.0009 10.3749 15.946C10.3199 15.891 10.2891 15.8165 10.2891 15.7388V15.1713C10.2891 15.0936 10.3199 15.019 10.3749 14.9641C10.4298 14.9092 10.5043 14.8783 10.582 14.8783C10.6597 14.8783 10.7342 14.9092 10.7892 14.9641C10.8441 15.019 10.875 15.0936 10.875 15.1713V15.7388C10.875 15.8165 10.8441 15.891 10.7892 15.946C10.7342 16.0009 10.6597 16.0318 10.582 16.0318ZM10.2123 14.0747C10.0676 13.4672 9.72196 12.9263 9.23137 12.5398C8.74079 12.1533 8.13404 11.9438 7.50949 11.9453C7.43179 11.9453 7.35727 11.9145 7.30233 11.8595C7.24739 11.8046 7.21652 11.7301 7.21652 11.6524C7.21652 11.5747 7.24739 11.5001 7.30233 11.4452C7.35727 11.3903 7.43179 11.3594 7.50949 11.3594C8.26571 11.3575 9.00038 11.6112 9.59438 12.0792C10.1884 12.5472 10.6069 13.2021 10.7821 13.9377C10.8002 14.0133 10.7876 14.093 10.7471 14.1592C10.7065 14.2255 10.6412 14.273 10.5657 14.2911C10.4901 14.3093 10.4104 14.2967 10.3442 14.2561C10.2779 14.2155 10.2305 14.1503 10.2123 14.0747Z" fill="#F04242" style="fill:#F04242;fill:color(display-p3 0.9400 0.2600 0.2600);fill-opacity:1;"/>
<path d="M25.5633 18.8219C25.4856 18.8219 25.4111 18.791 25.3561 18.7361C25.3012 18.6811 25.2703 18.6066 25.2703 18.5289V18.2181C25.2703 18.1404 25.3012 18.0659 25.3561 18.011C25.4111 17.956 25.4856 17.9252 25.5633 17.9252C25.641 17.9252 25.7155 17.956 25.7704 18.011C25.8254 18.0659 25.8563 18.1404 25.8563 18.2181V18.5289C25.8563 18.6066 25.8254 18.6811 25.7704 18.7361C25.7155 18.791 25.641 18.8219 25.5633 18.8219ZM25.5633 17.3391C25.4856 17.3391 25.4111 17.3082 25.3561 17.2533C25.3012 17.1983 25.2703 17.1238 25.2703 17.0461V14.7249C25.2703 13.1922 24.0233 11.9452 22.4906 11.9452C22.4129 11.9452 22.3384 11.9143 22.2835 11.8594C22.2285 11.8044 22.1977 11.7299 22.1977 11.6522C22.1977 11.5745 22.2285 11.5 22.2835 11.4451C22.3384 11.3901 22.4129 11.3593 22.4906 11.3593C24.3464 11.3593 25.8563 12.8691 25.8563 14.7249V17.0461C25.8563 17.1238 25.8254 17.1983 25.7704 17.2533C25.7155 17.3082 25.641 17.3391 25.5633 17.3391Z" fill="#F04242" style="fill:#F04242;fill:color(display-p3 0.9400 0.2600 0.2600);fill-opacity:1;"/>
<path d="M17.4016 17.2659C17.3738 17.2161 17.3437 17.1676 17.3115 17.1204C17.2677 17.0563 17.2512 16.9773 17.2656 16.901C17.28 16.8246 17.3241 16.7571 17.3883 16.7133C17.4525 16.6695 17.5314 16.653 17.6077 16.6674C17.6841 16.6818 17.7516 16.7259 17.7954 16.7901C17.8369 16.8509 17.8764 16.9147 17.9127 16.9794C17.9496 17.047 17.9583 17.1265 17.937 17.2006C17.9156 17.2747 17.866 17.3374 17.7987 17.3751C17.7315 17.4128 17.6521 17.4224 17.5778 17.402C17.5034 17.3816 17.4402 17.3327 17.4016 17.2659ZM16.5483 16.4728C16.3016 16.3594 16.0333 16.3012 15.7618 16.3022C15.6841 16.3022 15.6096 16.2714 15.5547 16.2164C15.4997 16.1615 15.4689 16.087 15.4689 16.0093C15.4689 15.9316 15.4997 15.8571 15.5547 15.8021C15.6096 15.7472 15.6841 15.7163 15.7618 15.7163C16.1232 15.7163 16.4702 15.7918 16.7933 15.9405C16.8639 15.973 16.9187 16.0322 16.9456 16.1051C16.9726 16.178 16.9694 16.2586 16.9369 16.3291C16.9044 16.3997 16.8452 16.4545 16.7724 16.4814C16.6995 16.5084 16.6189 16.5052 16.5483 16.4728Z" fill="#F04242" style="fill:#F04242;fill:color(display-p3 0.9400 0.2600 0.2600);fill-opacity:1;"/>
<path d="M28.047 26.0077H3.94195C3.86425 26.0077 3.78974 25.9768 3.73479 25.9219C3.67985 25.8669 3.64898 25.7924 3.64898 25.7147C3.64898 25.637 3.67985 25.5625 3.73479 25.5075C3.78974 25.4526 3.86425 25.4217 3.94195 25.4217H27.754V20.9916C27.754 20.9139 27.7849 20.8394 27.8398 20.7844C27.8947 20.7295 27.9693 20.6986 28.047 20.6986C28.1247 20.6986 28.1992 20.7295 28.2541 20.7844C28.3091 20.8394 28.3399 20.9139 28.3399 20.9916V25.7147C28.3399 25.7924 28.3091 25.8669 28.2541 25.9219C28.1992 25.9768 28.1247 26.0077 28.047 26.0077ZM2.77008 26.0077H1.875C1.7973 26.0077 1.72278 25.9768 1.66784 25.9219C1.6129 25.8669 1.58203 25.7924 1.58203 25.7147C1.58203 25.637 1.6129 25.5625 1.66784 25.5075C1.72278 25.4526 1.7973 25.4217 1.875 25.4217H2.77008C2.84778 25.4217 2.9223 25.4526 2.97724 25.5075C3.03218 25.5625 3.06305 25.637 3.06305 25.7147C3.06305 25.7924 3.03218 25.8669 2.97724 25.9219C2.9223 25.9768 2.84778 26.0077 2.77008 26.0077Z" fill="#F04242" style="fill:#F04242;fill:color(display-p3 0.9400 0.2600 0.2600);fill-opacity:1;"/>
<path d="M1.79005 11.5646C1.85895 11.861 2.2813 11.8609 2.35008 11.5646C2.55598 10.677 2.85903 10.5768 3.27856 10.4383C3.54059 10.3517 3.54118 9.97901 3.27856 9.89229C2.87555 9.75952 2.56079 9.67374 2.34997 8.76588C2.28141 8.4701 1.85837 8.47081 1.78993 8.76588C1.5838 9.65346 1.29645 9.7485 0.861334 9.89229C0.599303 9.97889 0.598717 10.3514 0.861334 10.4381C1.58415 10.677 1.66606 11.0301 1.79005 11.5646ZM2.07118 9.67069C2.2009 9.90424 2.34856 10.0588 2.50102 10.168C2.34188 10.2798 2.19903 10.4298 2.07575 10.6478C1.97391 10.4762 1.83258 10.3139 1.62575 10.1719C1.79309 10.0571 1.94286 9.90131 2.07118 9.67069ZM27.6499 11.5646C27.7188 11.861 28.1412 11.8609 28.21 11.5646C28.4159 10.677 28.719 10.5768 29.1384 10.4383C29.4005 10.3517 29.4011 9.97901 29.1384 9.89229C28.7354 9.75952 28.4207 9.67374 28.2099 8.76588C28.1413 8.4701 27.7183 8.47081 27.6498 8.76588C27.4437 9.65346 27.1563 9.7485 26.7212 9.89229C26.4592 9.97889 26.4586 10.3514 26.7212 10.4381C27.4441 10.677 27.5261 11.0301 27.6499 11.5646ZM27.9311 9.67069C28.0608 9.90424 28.2084 10.0588 28.3609 10.168C28.2018 10.2798 28.0589 10.4298 27.9356 10.6478C27.8338 10.4762 27.6925 10.3139 27.4856 10.1719C27.6531 10.0571 27.8029 9.90131 27.9311 9.67069ZM14.5641 5.93956C14.633 6.23604 15.0553 6.23592 15.1241 5.93956C15.33 5.05198 15.6331 4.95178 16.0526 4.81327C16.3146 4.72667 16.3152 4.35401 16.0526 4.26729C15.6496 4.13452 15.3348 4.04874 15.124 3.14088C15.0554 2.8451 14.6324 2.84581 14.564 3.14088C14.3578 4.02846 14.0705 4.1235 13.6354 4.26729C13.3733 4.35389 13.3727 4.72643 13.6354 4.81315C14.3582 5.05198 14.4401 5.40506 14.5641 5.93956ZM14.8452 4.04569C14.9749 4.27924 15.1226 4.43381 15.275 4.54303C15.1159 4.65483 14.9731 4.80483 14.8498 5.0228C14.7479 4.85124 14.6066 4.68893 14.3998 4.5469C14.5671 4.43206 14.7169 4.27631 14.8452 4.04569ZM5.70938 7.62167C5.70938 8.61424 6.5168 9.42167 7.50938 9.42167C8.50196 9.42167 9.30938 8.61424 9.30938 7.62167C9.30938 7.45995 9.17813 7.3287 9.01758 7.3287C8.93978 7.3287 8.86514 7.35952 8.81001 7.41443C8.75488 7.46934 8.72375 7.54386 8.72344 7.62167C8.72344 8.28963 8.17852 8.83456 7.50938 8.83573C6.84141 8.83456 6.29649 8.28963 6.29532 7.62167C6.29532 7.54397 6.26445 7.46945 6.20951 7.41451C6.15457 7.35956 6.08005 7.3287 6.00235 7.3287C5.92465 7.3287 5.85013 7.35956 5.79519 7.41451C5.74025 7.46945 5.70938 7.54397 5.70938 7.62167ZM5.69298 5.04588H5.6918C5.66039 5.06818 5.63367 5.09645 5.61319 5.12908C5.59271 5.16171 5.57886 5.19806 5.57244 5.23604C5.56602 5.27403 5.56715 5.31291 5.57577 5.35045C5.58439 5.388 5.60032 5.42348 5.62266 5.45487C5.71196 5.58307 5.89594 5.61893 6.03048 5.52518C6.09363 5.47996 6.13642 5.41167 6.14958 5.33512C6.16274 5.25857 6.14521 5.17991 6.10079 5.1162C6.01055 4.98952 5.82071 4.95565 5.69298 5.04588ZM15.8883 9.87284C15.8106 9.87284 15.7361 9.9037 15.6811 9.95865C15.6262 10.0136 15.5953 10.0881 15.5953 10.1658C15.5953 10.4939 15.3281 10.7611 15 10.7611C14.6719 10.7611 14.4047 10.4939 14.4047 10.1658C14.4047 10.0881 14.3738 10.0136 14.3189 9.95865C14.2639 9.9037 14.1894 9.87284 14.1117 9.87284C14.034 9.87284 13.9595 9.9037 13.9046 9.95865C13.8496 10.0136 13.8188 10.0881 13.8188 10.1658C13.8188 10.8162 14.3484 11.3471 15 11.3471C15.6516 11.3471 16.1813 10.8162 16.1813 10.1658C16.1813 10.0881 16.1504 10.0136 16.0954 9.95865C16.0405 9.9037 15.966 9.87284 15.8883 9.87284ZM24.1219 7.62167C24.1219 7.54397 24.091 7.46945 24.0361 7.41451C23.9811 7.35956 23.9066 7.3287 23.8289 7.3287C23.7512 7.3287 23.6767 7.35956 23.6218 7.41451C23.5668 7.46945 23.5359 7.54397 23.5359 7.62167C23.5348 8.19706 23.066 8.66581 22.4906 8.66698C21.9152 8.66581 21.4465 8.19706 21.4453 7.62167C21.4453 7.54397 21.4145 7.46945 21.3595 7.41451C21.3046 7.35956 21.2301 7.3287 21.1523 7.3287C21.0746 7.3287 21.0001 7.35956 20.9452 7.41451C20.8902 7.46945 20.8594 7.54397 20.8594 7.62167C20.8594 8.52049 21.5918 9.25292 22.4906 9.25292C23.3895 9.25292 24.1219 8.52049 24.1219 7.62167ZM26.584 13.5607C26.5463 13.5687 26.5105 13.584 26.4787 13.6058C26.4469 13.6276 26.4197 13.6555 26.3987 13.6878C26.3777 13.7202 26.3633 13.7563 26.3563 13.7942C26.3492 13.8321 26.3498 13.8711 26.3578 13.9088C26.3877 14.0523 26.5273 14.1665 26.7047 14.1349C26.7805 14.1186 26.8468 14.073 26.8892 14.0081C26.9315 13.9431 26.9465 13.864 26.9309 13.7881C26.8981 13.6334 26.7399 13.5279 26.584 13.5607ZM0.781647 24.151C0.703947 24.151 0.629429 24.1818 0.574487 24.2368C0.519544 24.2917 0.488678 24.3662 0.488678 24.4439V26.7865C0.488678 26.8642 0.519544 26.9387 0.574487 26.9937C0.629429 27.0486 0.703947 27.0795 0.781647 27.0795C0.859347 27.0795 0.933865 27.0486 0.988807 26.9937C1.04375 26.9387 1.07462 26.8642 1.07462 26.7865V24.4439C1.07462 24.3662 1.04375 24.2917 0.988807 24.2368C0.933865 24.1818 0.859347 24.151 0.781647 24.151Z" fill="#F04242" style="fill:#F04242;fill:color(display-p3 0.9400 0.2600 0.2600);fill-opacity:1;"/>
<path d="M0.781647 23.5649C0.943449 23.5649 1.07462 23.4338 1.07462 23.272C1.07462 23.1102 0.943449 22.979 0.781647 22.979C0.619845 22.979 0.488678 23.1102 0.488678 23.272C0.488678 23.4338 0.619845 23.5649 0.781647 23.5649Z" fill="#F04242" style="fill:#F04242;fill:color(display-p3 0.9400 0.2600 0.2600);fill-opacity:1;"/>
<path d="M0.488678 22.1002C0.488678 22.2608 0.619928 22.3932 0.781647 22.3932C0.943365 22.3932 1.07462 22.2608 1.07462 22.1002V20.2862C1.07462 20.1256 1.20587 19.9944 1.36758 19.9932H28.6324C28.7941 19.9944 28.9254 20.1256 28.9254 20.2862V26.7865C28.9254 26.8644 28.9562 26.939 29.0111 26.9941C29.066 27.0492 29.1406 27.0804 29.2184 27.0807C29.3801 27.0807 29.5113 26.9483 29.5113 26.7865V20.2862C29.5113 19.8022 29.1164 19.4084 28.6324 19.4072H27.0281V15.0127C27.0281 14.8522 26.8969 14.7197 26.7352 14.7197C26.5734 14.7197 26.4422 14.8522 26.4422 15.0127V19.4072H19.7422C20.0418 19.0833 20.2266 18.6517 20.2266 18.1768C20.2266 18.0159 20.094 17.8838 19.9336 17.8838H19.2649C19.2081 17.206 18.956 16.5592 18.5391 16.0217V14.7244C18.5426 12.5506 20.3156 10.7776 22.4906 10.7729C23.9613 10.7729 25.302 11.5826 25.9887 12.8858C26.0066 12.9199 26.031 12.9501 26.0606 12.9748C26.0902 12.9994 26.1244 13.018 26.1612 13.0294C26.198 13.0409 26.2367 13.0449 26.275 13.0414C26.3134 13.0379 26.3507 13.0268 26.3848 13.0088C26.4188 12.9908 26.4489 12.9663 26.4735 12.9367C26.498 12.907 26.5165 12.8728 26.5278 12.836C26.5391 12.7992 26.5431 12.7606 26.5395 12.7223C26.5358 12.6839 26.5247 12.6467 26.5066 12.6127C25.9632 11.5783 25.0409 10.794 23.9325 10.424C24.9432 9.90205 25.6418 8.85064 25.6418 7.6217C25.6418 5.88557 24.2414 4.47182 22.4906 4.46936C20.7423 4.47182 19.3395 5.88158 19.3395 7.6217C19.3395 8.85029 20.0351 9.90018 21.0454 10.4228C19.5495 10.9229 18.3776 12.1966 18.0473 13.8008C17.6397 13.1121 17.0119 12.5809 16.2652 12.293C16.9902 11.86 17.4785 11.0697 17.4785 10.1657C17.4785 8.79932 16.3664 7.68721 15 7.68721C13.6336 7.68721 12.5215 8.79932 12.5215 10.1657C12.5215 11.0696 13.0098 11.86 13.7348 12.293C12.9882 12.5809 12.3603 13.1121 11.9527 13.8008C11.6245 12.2056 10.4603 10.9274 8.9543 10.4228C9.96446 9.90041 10.6606 8.85053 10.6606 7.62158C10.6606 5.88053 9.25665 4.4717 7.50938 4.46924C7.29376 4.46924 7.07813 4.4915 6.86954 4.53486C6.79335 4.55077 6.72656 4.59618 6.68375 4.66118C6.64093 4.72617 6.62557 4.80546 6.64102 4.88174C6.67383 5.03643 6.83086 5.14072 6.9879 5.10908C7.15782 5.07393 7.3336 5.05518 7.50938 5.05518C8.92149 5.05869 10.0723 6.20947 10.0758 7.62158C10.0723 9.03369 8.92149 10.1845 7.50938 10.1868C6.09727 10.1845 4.94649 9.03369 4.94415 7.62158C4.94415 7.14932 5.07305 6.68877 5.3168 6.28799C5.40118 6.14971 5.35782 5.96924 5.21954 5.88486C5.15296 5.84471 5.07321 5.83253 4.99768 5.85097C4.92215 5.86941 4.85699 5.91698 4.81641 5.9833C4.51641 6.47549 4.35821 7.0415 4.35821 7.62158C4.35821 8.84256 5.04985 9.8976 6.06446 10.4226C4.28122 11.0197 2.97188 12.7053 2.97188 14.7254V19.407H1.36758C0.8836 19.4082 0.488678 19.8019 0.488678 20.2859V22.1002ZM19.9242 7.6217C19.9277 6.20959 21.0785 5.05881 22.4906 5.05529C23.9027 5.05881 25.0535 6.20959 25.0559 7.6217C25.0535 9.03381 23.9027 10.1846 22.4906 10.1869C21.0785 10.1846 19.9277 9.03381 19.9242 7.6217ZM18.4361 19.4072H11.5677C11.2961 19.4024 11.0337 19.3078 10.8215 19.1382C10.6093 18.9686 10.4592 18.7336 10.3945 18.4697H19.6055C19.5412 18.7331 19.3917 18.9678 19.1802 19.1373C18.9687 19.3069 18.7071 19.4018 18.4361 19.4072ZM11.3227 17.8838C11.4701 16.398 12.725 15.2471 14.2383 15.2471H15.7629C17.3106 15.2471 18.5329 16.4275 18.6773 17.8838H11.3227ZM15.3469 14.6612H14.6531V14.6213C14.6531 14.4303 14.809 14.2756 15 14.2744C15.191 14.2756 15.3469 14.4303 15.3469 14.6213V14.6612ZM13.1074 10.1658C13.1086 9.12404 13.9582 8.27443 15 8.27209C16.0418 8.27443 16.8914 9.12404 16.8926 10.1658C16.8914 11.2076 16.0418 12.0572 15 12.0584C13.9582 12.0572 13.1086 11.2076 13.1074 10.1658ZM15 12.6444C16.5696 12.6444 17.8567 13.8754 17.9475 15.4226C17.372 14.9651 16.6672 14.7003 15.9328 14.6658V14.6213C15.9328 14.108 15.5145 13.6897 15 13.6885C14.4856 13.6897 14.0672 14.108 14.0672 14.6213V14.6658C13.3327 14.7007 12.6277 14.966 12.0524 15.4239C12.1426 13.8761 13.4299 12.6444 15 12.6444ZM3.55782 14.7256C3.55782 12.5449 5.31997 10.7753 7.50938 10.7729C9.68145 10.7729 11.4609 12.5299 11.4609 14.7256V16.0217C11.0441 16.5592 10.7921 17.206 10.7352 17.8838H10.0664C9.98883 17.8842 9.91452 17.9152 9.85966 17.97C9.8048 18.0249 9.77381 18.0992 9.77344 18.1768C9.77344 18.6374 9.94536 19.0715 10.2565 19.4072H3.55782V14.7256Z" fill="#F04242" style="fill:#F04242;fill:color(display-p3 0.9400 0.2600 0.2600);fill-opacity:1;"/>
</svg>
