<svg width="20" height="20" viewBox="0 0 20 20" fill="none" xmlns="http://www.w3.org/2000/svg">
<path fill-rule="evenodd" clip-rule="evenodd" d="M15.0328 2.0822C14.3777 1.41223 13.5934 0.882273 12.7274 0.524454C11.8614 0.166635 10.9317 -0.0115897 9.99475 0.00058414C8.03029 0.00058414 6.34703 0.70357 4.9684 2.0822C4.28976 2.73074 3.75406 3.51387 3.39561 4.38143C3.03715 5.24899 2.86384 6.18186 2.88678 7.12027C2.88678 8.43642 3.20312 9.61978 3.82019 10.6821L3.95297 10.8812L9.85806 19.9966L16.1303 10.768C16.7867 9.66699 17.126 8.40593 17.1105 7.12418C17.1105 5.1441 16.4115 3.46084 15.0328 2.0822Z" fill="#F04242" fill-opacity="0.3" style="fill:#F04242;fill:color(display-p3 0.9400 0.2600 0.2600);fill-opacity:0.3;"/>
<path fill-rule="evenodd" clip-rule="evenodd" d="M9.99085 3.9295C9.54078 3.91366 9.09253 3.99434 8.67623 4.16612C8.25992 4.3379 7.88521 4.59679 7.57726 4.9254C7.25471 5.23797 6.99985 5.61351 6.82853 6.02871C6.65721 6.44392 6.57308 6.88991 6.58137 7.33899C6.58137 8.28802 6.91333 9.08474 7.57726 9.76819C7.88997 10.0906 8.26554 10.3453 8.68071 10.5166C9.09588 10.6879 9.5418 10.7721 9.99085 10.7641C10.442 10.7706 10.8898 10.6857 11.3073 10.5146C11.7248 10.3434 12.1033 10.0895 12.4201 9.76819C12.7421 9.45178 12.9967 9.07341 13.1686 8.65591C13.3404 8.23841 13.4259 7.79043 13.4199 7.33899C13.4274 6.88965 13.3426 6.44356 13.1706 6.02838C12.9986 5.61319 12.7431 5.23777 12.4201 4.9254C12.1082 4.59759 11.7306 4.3394 11.3119 4.16777C10.8933 3.99614 10.4431 3.91494 9.99085 3.9295Z" fill="#F04242" style="fill:#F04242;fill:color(display-p3 0.9400 0.2600 0.2600);fill-opacity:1;"/>
</svg>
