<svg width="20" height="20" viewBox="0 0 20 20" fill="none" xmlns="http://www.w3.org/2000/svg">
<g clip-path="url(#clip0_126_44)">
<path d="M3.4875 5.2832H16.5125C17.4374 5.2832 18.3245 5.67648 18.9785 6.3765C19.6326 7.07653 20 8.02598 20 9.01597V18.7158C20 19.0564 19.8736 19.3831 19.6485 19.624C19.4235 19.8649 19.1183 20.0002 18.8 20.0002H1.2C1.04241 20.0002 0.886371 19.967 0.74078 19.9024C0.595189 19.8379 0.462902 19.7433 0.351472 19.624C0.126428 19.3831 0 19.0564 0 18.7158V9.01597C0 8.02598 0.367432 7.07653 1.02147 6.3765C1.6755 5.67648 2.56256 5.2832 3.4875 5.2832Z" fill="#EB4A41" style="fill:#EB4A41;fill:color(display-p3 0.9216 0.2902 0.2549);fill-opacity:1;"/>
<path d="M20 8.41118C20.0003 7.66096 19.813 6.92386 19.4568 6.27405C19.1006 5.62424 18.588 5.08463 17.9708 4.70952L10.4166 0.117519C10.29 0.0405308 10.1463 0 9.99998 0C9.8537 0 9.71 0.0405308 9.58332 0.117519L2.02916 4.70952C1.41192 5.08463 0.899412 5.62424 0.543201 6.27405C0.186991 6.92386 -0.000358912 7.66096 5.16196e-07 8.41118V8.49013C-0.00010474 8.68853 0.0495392 8.88343 0.143916 9.05517C0.238294 9.2269 0.37406 9.36937 0.537499 9.46818L9.58332 14.9768C9.71 15.0538 9.8537 15.0943 9.99998 15.0943C10.1463 15.0943 10.29 15.0538 10.4166 14.9768L19.4625 9.47695C19.6271 9.3774 19.7637 9.23355 19.8581 9.06014C19.9526 8.88674 20.0015 8.69001 20 8.49013V8.41118Z" fill="#F2ACA9" style="fill:#F2ACA9;fill:color(display-p3 0.9490 0.6745 0.6627);fill-opacity:1;"/>
<path d="M16.6038 7.83422C16.6038 7.69742 16.5787 7.56195 16.5299 7.43556C16.4812 7.30918 16.4098 7.19434 16.3197 7.0976C16.2296 7.00087 16.1227 6.92414 16.005 6.87179C15.8873 6.81943 15.7612 6.79249 15.6338 6.79249H4.37028C4.24256 6.79191 4.11599 6.81842 3.99784 6.87051C3.87968 6.9226 3.77227 6.99924 3.68177 7.09603C3.59126 7.19282 3.51945 7.30786 3.47045 7.43454C3.42145 7.56122 3.39622 7.69704 3.39622 7.83422V11.1367L9.58726 14.9756C9.71275 15.0534 9.8551 15.0944 10 15.0944C10.1449 15.0944 10.2872 15.0534 10.4127 14.9756L16.6038 11.1367V7.83422Z" fill="#F04242" fill-opacity="0.3" style="fill:#F04242;fill:color(display-p3 0.9400 0.2600 0.2600);fill-opacity:0.3;"/>
<path d="M10.8029 8.30176H9.19712C9.11952 8.30176 9.05661 8.37099 9.05661 8.45638V12.6754C9.05661 12.7608 9.11952 12.8301 9.19712 12.8301H10.8029C10.8805 12.8301 10.9434 12.7608 10.9434 12.6754V8.45638C10.9434 8.37099 10.8805 8.30176 10.8029 8.30176Z" fill="#FBFBFB" style="fill:#FBFBFB;fill:color(display-p3 0.9843 0.9843 0.9843);fill-opacity:1;"/>
<path d="M12.0755 11.5296V9.60269C12.0755 9.50957 12.012 9.43408 11.9337 9.43408H8.06627C7.98799 9.43408 7.92453 9.50957 7.92453 9.60269V11.5296C7.92453 11.6227 7.98799 11.6982 8.06627 11.6982H11.9337C12.012 11.6982 12.0755 11.6227 12.0755 11.5296Z" fill="#FBFBFB" style="fill:#FBFBFB;fill:color(display-p3 0.9843 0.9843 0.9843);fill-opacity:1;"/>
</g>
<defs>
<clipPath id="clip0_126_44">
<rect width="20" height="20" fill="white" style="fill:white;fill-opacity:1;"/>
</clipPath>
</defs>
</svg>
