<svg width="40" height="40" viewBox="0 0 40 40" fill="none" xmlns="http://www.w3.org/2000/svg">
<circle cx="20" cy="20" r="20" fill="#F04242" fill-opacity="0.1" style="fill:#F04242;fill:color(display-p3 0.9400 0.2600 0.2600);fill-opacity:0.1;"/>
<g clip-path="url(#clip0_126_510)">
<path d="M22.544 10.25H9.956C8.87573 10.25 8 11.1214 8 12.1962V27.0538C8 28.1286 8.87573 29 9.956 29H22.544C23.6243 29 24.5 28.1286 24.5 27.0538V12.1962C24.5 11.1214 23.6243 10.25 22.544 10.25Z" fill="#F7CECD" style="fill:#F7CECD;fill:color(display-p3 0.9686 0.8078 0.8039);fill-opacity:1;"/>
<path d="M11.75 10.625H20.75V11.4187C20.75 11.7054 20.6359 11.9805 20.4329 12.1833C20.2298 12.3861 19.9544 12.5 19.6672 12.5H12.8328C12.5456 12.5 12.2702 12.3861 12.0671 12.1833C11.8641 11.9805 11.75 11.7054 11.75 11.4187V10.625Z" fill="#F7CECD" style="fill:#F7CECD;fill:color(display-p3 0.9686 0.8078 0.8039);fill-opacity:1;"/>
<path d="M19.6672 9.35194H18.5596C18.3406 9.34774 18.1266 9.28444 17.9398 9.16856C17.753 9.05268 17.6 8.88841 17.4967 8.69269C17.3788 8.48236 17.2079 8.30746 17.0016 8.18578C16.7952 8.0641 16.5608 8 16.322 8C16.0833 8 15.8488 8.0641 15.6425 8.18578C15.4361 8.30746 15.2653 8.48236 15.1474 8.69269C15.0453 8.88836 14.8933 9.05273 14.7072 9.16867C14.5212 9.28462 14.3078 9.34791 14.0894 9.35194H12.9818C12.8287 9.3367 12.6743 9.35348 12.5279 9.40125C12.3815 9.44901 12.2464 9.52674 12.1309 9.6296C12.0154 9.73247 11.922 9.85828 11.8565 9.99924C11.7909 10.1402 11.7547 10.2933 11.75 10.449V10.8214C11.75 10.8941 11.7641 10.9661 11.7916 11.0333C11.819 11.1004 11.8593 11.1615 11.91 11.2129C11.9608 11.2643 12.021 11.305 12.0873 11.3329C12.1536 11.3607 12.2246 11.375 12.2964 11.375H20.1987C20.344 11.375 20.4835 11.3168 20.5868 11.2132C20.69 11.1095 20.7487 10.9687 20.75 10.8214V10.449C20.7487 10.1585 20.6342 9.88019 20.4314 9.67473C20.2286 9.46928 19.954 9.35327 19.6672 9.35194Z" fill="#EB4A41" style="fill:#EB4A41;fill:color(display-p3 0.9216 0.2902 0.2549);fill-opacity:1;"/>
<path d="M17.43 8.76855C17.3113 8.53519 17.1393 8.34113 16.9316 8.20612C16.7239 8.07112 16.4878 8 16.2475 8C16.0072 8 15.7711 8.07112 15.5634 8.20612C15.3557 8.34113 15.1837 8.53519 15.065 8.76855C14.9622 8.98565 14.8092 9.16802 14.6219 9.29666C14.4346 9.4253 14.2199 9.49552 14 9.5H18.5C18.2795 9.49534 18.0641 9.42511 17.8761 9.29654C17.688 9.16796 17.534 8.98571 17.43 8.76855Z" fill="#363636" style="fill:#363636;fill:color(display-p3 0.2125 0.2125 0.2125);fill-opacity:1;"/>
<path d="M17.4987 14H14.6263C14.4875 14 14.375 14.1147 14.375 14.2562V21.2438C14.375 21.3853 14.4875 21.5 14.6263 21.5H17.4987C17.6375 21.5 17.75 21.3853 17.75 21.2438V14.2562C17.75 14.1147 17.6375 14 17.4987 14Z" fill="#EB4A41" style="fill:#EB4A41;fill:color(display-p3 0.9216 0.2902 0.2549);fill-opacity:1;"/>
<path d="M20 18.9987V16.1263C20 15.9875 19.8853 15.875 19.7438 15.875H12.7562C12.6147 15.875 12.5 15.9875 12.5 16.1263V18.9987C12.5 19.1375 12.6147 19.25 12.7562 19.25H19.7438C19.8853 19.25 20 19.1375 20 18.9987Z" fill="#EB4A41" style="fill:#EB4A41;fill:color(display-p3 0.9216 0.2902 0.2549);fill-opacity:1;"/>
<path d="M12.5 22.625H20V23.1519H12.5V22.625ZM12.5 23.674H20V24.201H12.5V23.674ZM12.5 24.7231H16.2525V25.25H12.5V24.7231Z" fill="#F7CECD" style="fill:#F7CECD;fill:color(display-p3 0.9686 0.8078 0.8039);fill-opacity:1;"/>
<path d="M23.6188 28.8503L31.2816 21.1867C31.5864 20.882 31.8055 20.5024 31.9168 20.086C32.0281 19.6697 32.0277 19.2313 31.9156 18.8152C31.8042 18.3998 31.5855 18.0211 31.2814 17.717C30.9774 17.4129 30.5987 17.1942 30.1834 17.0828C29.768 16.9721 29.3308 16.9724 28.9156 17.0837C28.5003 17.195 28.1216 17.4133 27.8172 17.7168L20.1544 25.3804C19.2362 26.2988 18.5173 27.3968 18.0427 28.6057L17.0443 31.1569C16.9994 31.2685 16.9883 31.391 17.0124 31.5089C17.0365 31.6268 17.0947 31.735 17.1798 31.8201C17.2649 31.9052 17.3732 31.9635 17.4911 31.9876C17.609 32.0117 17.7314 32.0006 17.843 31.9557L20.394 30.9572C21.6034 30.4862 22.7017 29.7687 23.6188 28.8503Z" fill="#EB4A41" style="fill:#EB4A41;fill:color(display-p3 0.9216 0.2902 0.2549);fill-opacity:1;"/>
<path d="M31.9103 18.8154C31.7988 18.4 31.5801 18.0212 31.2761 17.7171C30.9721 17.413 30.5934 17.1942 30.1781 17.0828C29.7627 16.9721 29.3256 16.9724 28.9104 17.0837C28.4952 17.195 28.1164 17.4133 27.812 17.7169L25.3411 20.2135C25.5685 19.9856 25.8386 19.8048 26.136 19.6814C26.4333 19.5579 26.752 19.4943 27.0739 19.4941C27.3959 19.4938 27.7147 19.557 28.0122 19.68C28.3097 19.803 28.5801 19.9835 28.8079 20.211C29.0357 20.4385 29.2164 20.7087 29.3398 21.0061C29.4632 21.3036 29.5269 21.6224 29.5271 21.9444C29.5273 22.2664 29.4642 22.5853 29.3412 22.8829C29.2182 23.1805 29.0378 23.4509 28.8104 23.6788L31.2763 21.2121C31.5854 20.905 31.807 20.5211 31.9185 20.0998C32.0299 19.6786 32.0271 19.2352 31.9103 18.8154ZM17.8384 31.9575L19.4657 31.3184C19.4685 31.3019 19.4685 31.285 19.4657 31.2685C19.3555 30.8519 19.1373 30.4718 18.8332 30.1667C18.529 29.8616 18.1497 29.6422 17.7336 29.5308H17.6836L17.0397 31.1686C16.9977 31.2798 16.9888 31.4008 17.0141 31.5169C17.0395 31.633 17.098 31.7393 17.1826 31.8228C17.2671 31.9064 17.3741 31.9635 17.4905 31.9875C17.6069 32.0114 17.7278 32.001 17.8384 31.9575Z" fill="#363636" style="fill:#363636;fill:color(display-p3 0.2125 0.2125 0.2125);fill-opacity:1;"/>
</g>
<defs>
<clipPath id="clip0_126_510">
<rect width="24" height="24" fill="white" style="fill:white;fill-opacity:1;" transform="translate(8 8)"/>
</clipPath>
</defs>
</svg>
