<svg width="30" height="30" viewBox="0 0 30 30" fill="none" xmlns="http://www.w3.org/2000/svg">
<path d="M13.2942 9.58716C13.6988 9.58714 14.0868 9.42639 14.373 9.14026C14.6591 8.85413 14.8198 8.46607 14.8198 8.06143V7.28507C14.8173 6.88207 14.6555 6.49642 14.3696 6.21233C14.0838 5.92825 13.6971 5.7688 13.2941 5.7688C12.8911 5.7688 12.5045 5.92825 12.2186 6.21233C11.9328 6.49642 11.7709 6.88207 11.7684 7.28507V8.06143C11.7684 8.2618 11.8079 8.4602 11.8846 8.64532C11.9612 8.83044 12.0736 8.99864 12.2153 9.14032C12.357 9.282 12.5252 9.39439 12.7103 9.47107C12.8954 9.54775 13.0938 9.58716 13.2942 9.58716Z" fill="#F04242" style="fill:#F04242;fill:color(display-p3 0.9400 0.2600 0.2600);fill-opacity:1;"/>
<path d="M15.5271 16.6362C15.2856 15.6403 15.2473 14.606 15.4146 13.5949L15.4512 13.3739C15.5004 13.0769 15.6268 12.798 15.8179 12.5652C16.0089 12.3325 16.2577 12.1541 16.5395 12.048L19.5448 10.9157C19.5982 10.8955 19.6443 10.8596 19.6768 10.8126C19.7093 10.7656 19.7267 10.7098 19.7267 10.6527V9.84184C19.7267 9.79867 19.7168 9.75608 19.6976 9.71737C19.6785 9.67867 19.6507 9.64489 19.6165 9.61865C19.5822 9.59242 19.5423 9.57443 19.5 9.56609C19.4576 9.55775 19.4139 9.55927 19.3722 9.57055L15.9263 10.5037L15.9267 10.5016L14.0318 11.0118C13.5487 11.1418 13.0398 11.1418 12.5567 11.0118L10.6617 10.5016L10.6621 10.5037L7.21619 9.57055C7.17452 9.55927 7.13081 9.55775 7.08845 9.56609C7.0461 9.57443 7.00623 9.59242 6.97195 9.61865C6.93767 9.64489 6.90989 9.67867 6.89077 9.71737C6.87165 9.75608 6.8617 9.79867 6.86169 9.84184V10.6527C6.86169 10.7098 6.87911 10.7656 6.91161 10.8126C6.94411 10.8596 6.99017 10.8955 7.04363 10.9157L10.0488 12.048C10.3306 12.1541 10.5795 12.3325 10.7705 12.5652C10.9615 12.798 11.0879 13.0769 11.1371 13.3739L11.1737 13.5949C11.341 14.6059 11.3027 15.6403 11.0612 16.6362L9.49349 23.1008C9.48868 23.1207 9.48844 23.1414 9.49279 23.1614C9.49714 23.1814 9.50598 23.2002 9.51863 23.2162C9.53128 23.2323 9.54741 23.2453 9.56581 23.2542C9.58421 23.2632 9.6044 23.2678 9.62486 23.2678H10.3074C10.5267 23.2678 10.7405 23.1987 10.9183 23.0702C11.0961 22.9417 11.2289 22.7604 11.2978 22.5521L12.9282 17.6187C12.9536 17.5417 13.0027 17.4747 13.0684 17.4272C13.1341 17.3797 13.2131 17.3542 13.2942 17.3542C13.3752 17.3542 13.4543 17.3797 13.52 17.4272C13.5857 17.4747 13.6347 17.5417 13.6602 17.6187L15.2906 22.5521C15.3594 22.7604 15.4922 22.9417 15.67 23.0702C15.8478 23.1987 16.0616 23.2679 16.281 23.2679H16.9635C16.984 23.2679 17.0042 23.2632 17.0226 23.2543C17.041 23.2454 17.0571 23.2324 17.0698 23.2163C17.0824 23.2002 17.0912 23.1814 17.0956 23.1614C17.0999 23.1415 17.0997 23.1207 17.0949 23.1008L15.5271 16.6362Z" fill="#F04242" style="fill:#F04242;fill:color(display-p3 0.9400 0.2600 0.2600);fill-opacity:1;"/>
<path d="M27.9687 18.197C27.9691 17.1837 27.6401 16.1977 27.0314 15.3876C26.4227 14.5776 25.5672 13.9872 24.5939 13.7057C23.6205 13.4241 22.582 13.4665 21.6348 13.8264C20.6876 14.1864 19.8831 14.8445 19.3424 15.7015C18.8017 16.5585 18.5543 17.568 18.6372 18.5778C18.7202 19.5877 19.1292 20.5433 19.8025 21.3005C20.4757 22.0578 21.3769 22.5757 22.3701 22.7762C23.3634 22.9768 24.3949 22.8491 25.3093 22.4124L27.1519 25.2449L27.7904 24.8296L25.9672 22.027C26.5848 21.5971 27.0892 21.0243 27.4377 20.3575C27.7862 19.6906 27.9684 18.9494 27.9687 18.197ZM19.387 18.197C19.387 17.4237 19.6163 16.6677 20.046 16.0247C20.4756 15.3817 21.0862 14.8806 21.8007 14.5846C22.5151 14.2887 23.3013 14.2113 24.0598 14.3621C24.8182 14.513 25.5149 14.8854 26.0617 15.4322C26.6086 15.979 26.9809 16.6757 27.1318 17.4342C27.2827 18.1926 27.2052 18.9788 26.9093 19.6932C26.6134 20.4077 26.1122 21.0184 25.4692 21.448C24.8262 21.8776 24.0703 22.1069 23.297 22.1069C22.2603 22.1058 21.2665 21.6934 20.5335 20.9604C19.8005 20.2274 19.3882 19.2336 19.387 18.197ZM19.042 5.3408C18.3636 4.9375 17.6446 4.60685 16.897 4.35432L16.6534 5.07607C17.3503 5.31144 18.0204 5.61963 18.6527 5.99553L19.042 5.3408ZM3.73299 10.6795L3.03983 10.3637C2.71274 11.0819 2.46242 11.8327 2.29305 12.6035L3.03713 12.7668C3.19491 12.0484 3.42816 11.3488 3.73299 10.6795V10.6795ZM21.8693 8.96564L22.4908 8.52537C22.0347 7.88186 21.5128 7.28767 20.9334 6.75244L20.4166 7.31201C20.957 7.81121 21.4439 8.36542 21.8693 8.96564ZM2.79303 15.0285L2.79332 14.9537L2.0316 14.9487L2.03131 15.0284C2.03115 15.7904 2.10777 16.5504 2.26 17.297L3.00625 17.1444C2.86429 16.448 2.79285 15.7391 2.79303 15.0285ZM24.1215 12.8821L24.344 12.8383C24.1912 12.0641 23.9572 11.3083 23.6457 10.5833L22.9459 10.8841C23.2143 11.5096 23.421 12.1599 23.5629 12.8256C23.75 12.8347 23.9364 12.8536 24.1215 12.8821ZM13.2924 4.52734H13.2941C13.6991 4.52738 14.1036 4.55046 14.5059 4.59648L14.5929 3.8398C14.1617 3.79042 13.7282 3.76565 13.2942 3.76562H13.2923C12.9398 3.76562 12.5836 3.78227 12.2339 3.8149L12.3048 4.57334C12.631 4.54281 12.9633 4.52734 13.2924 4.52734ZM14.3576 25.4764L14.4339 26.2343C15.2188 26.1554 15.9934 25.994 16.7446 25.7529L16.5114 25.0277C15.8112 25.2524 15.0893 25.4028 14.3576 25.4764ZM18.5233 24.1371L18.9033 24.7973C19.5867 24.4037 20.2272 23.9398 20.8142 23.413L20.3055 22.8461C19.758 23.3373 19.1607 23.77 18.5233 24.1371ZM2.97444 19.5469C3.29141 20.2692 3.68334 20.9562 4.14379 21.5966L4.76225 21.1519C4.33299 20.5549 3.9676 19.9144 3.67211 19.2411L2.97444 19.5469ZM9.76715 25.7279C10.5168 25.9746 11.2903 26.1415 12.0749 26.226L12.1564 25.4686C11.4251 25.3899 10.7042 25.2343 10.0055 25.0044L9.76715 25.7279ZM6.33836 7.16131L5.83364 6.59084C5.24294 7.11359 4.70841 7.69656 4.23871 8.33025L4.85078 8.78371C5.28887 8.19265 5.78743 7.64891 6.33836 7.16131ZM5.71369 23.3586C6.29707 23.8897 6.93436 24.3583 7.61518 24.7568L7.99973 24.0994C7.36481 23.7277 6.77051 23.2906 6.22651 22.7953L5.71369 23.3586ZM10.1478 5.00676L9.91985 4.2799C9.16702 4.51628 8.44122 4.83136 7.75446 5.21992L8.12957 5.88291C8.76964 5.52074 9.44612 5.22706 10.1478 5.00676H10.1478Z" fill="#F04242" style="fill:#F04242;fill:color(display-p3 0.9400 0.2600 0.2600);fill-opacity:1;"/>
<path d="M25.4491 18.197C25.4485 18.7676 25.2215 19.3146 24.8181 19.7181C24.4146 20.1216 23.8676 20.3485 23.297 20.3492V21.1109C24.0695 21.11 24.8102 20.8027 25.3564 20.2565C25.9027 19.7102 26.21 18.9696 26.2109 18.197H25.4491Z" fill="#F04242" style="fill:#F04242;fill:color(display-p3 0.9400 0.2600 0.2600);fill-opacity:1;"/>
</svg>
