<svg width="414" height="565" viewBox="0 0 414 565" fill="none" xmlns="http://www.w3.org/2000/svg">
<path fill-rule="evenodd" clip-rule="evenodd" d="M33.2979 2.16002C32.632 3.40221 32.0868 5.33089 32.0868 6.447C32.0868 7.56195 31.284 9.3587 30.3035 10.441C29.3229 11.522 28.8525 13.2709 29.2585 14.3263C30.0882 16.4827 32.838 16.9158 33.4816 14.9918C34.2761 12.6125 40.4521 15.3093 42.7245 19.0278C45.6229 23.7701 45.5398 24.4192 42.0329 24.4192C39.3638 24.4192 38.1024 25.2423 31.7942 31.0983C30.6674 32.1444 29.7465 33.9458 29.7465 35.1005C29.7465 37.1295 24.4364 40.7231 21.3215 40.8024C17.1453 40.9099 10.6498 50.7646 13.5693 52.5648C14.7172 53.2723 14.4598 54.3009 12.4589 57.0012C11.0266 58.9346 9.85413 61.3326 9.85413 62.3308C9.85413 63.329 9.25268 65.1047 8.519 66.278C6.73922 69.122 8.09541 75.8852 11.0886 79.0911C13.3236 81.4833 13.67 81.5288 16.9358 79.843C20.3444 78.0848 20.4872 78.1326 24.7851 82.4897C27.1921 84.9297 31.1366 88.4228 33.5494 90.2522C36.3835 92.4004 37.9374 94.5287 37.9374 96.2648C37.9374 99.9657 46.5251 108.393 51.1939 109.274C53.2347 109.659 55.8593 110.462 57.0271 111.058C58.3903 111.755 59.6845 111.699 60.6451 110.904C61.4678 110.223 62.4741 109.999 62.8825 110.405C63.2897 110.813 64.296 110.589 65.1186 109.908C67.5068 107.93 70.926 111.15 70.6229 115.092C70.2298 120.212 71.8059 123.431 75.5071 125.065C77.3688 125.887 78.8923 126.957 78.8923 127.442C78.8923 127.928 80.472 128.325 82.4027 128.325C86.4327 128.325 86.992 130.001 83.5728 131.827C82.2857 132.515 81.2326 133.884 81.2326 134.871C81.2326 138.51 78.3213 140.023 74.262 138.494C71.0278 137.276 70.3807 137.359 69.3919 139.122C68.347 140.985 67.9047 141.008 64.069 139.409C59.3545 137.444 53.416 137.163 50.8487 138.783C49.7734 139.462 48.6021 139.426 47.7116 138.69C46.9311 138.043 44.2808 137.679 41.8223 137.881C37.3524 138.249 37.3524 138.249 37.7186 143.502C38.0123 147.698 37.2459 150.359 33.918 156.718C31.6257 161.097 28.9601 165.467 27.996 166.429C25.837 168.584 21.9335 167.544 20.9845 164.562C19.4001 159.581 15.6089 158.933 10.534 162.778C8.37975 164.409 8.37273 164.574 10.362 166.768C12.3652 168.975 12.3021 169.218 8.51314 173.769C6.35424 176.363 4.193 178.494 3.7109 178.506C3.2288 178.517 2.8333 179.797 2.8333 181.348C2.8333 182.9 2.17568 184.388 1.37296 184.655C0.323349 185.004 0.794915 186.921 3.04626 191.466C4.76988 194.944 6.35308 198.828 6.56487 200.098C6.83166 201.692 10.7809 204.4 19.3276 208.854C26.1354 212.4 33.6945 216.96 36.1249 218.987C40.3819 222.536 44.5604 223.776 54.3194 224.386C57.7069 224.598 58.7636 225.34 60.4357 228.682C62.3968 232.601 62.3828 232.799 59.9852 235.346C57.9468 237.511 57.6239 238.943 58.1422 243.526C58.4874 246.583 59.2808 249.253 59.9056 249.46C60.5457 249.673 60.7739 252.24 60.4275 255.336C59.7746 261.188 57.4507 263.83 51.9931 264.927C49.9594 265.337 48.9286 266.416 48.6489 268.43C48.4266 270.031 47.8427 271.867 47.3512 272.509C46.8597 273.151 46.3858 275.956 46.2969 278.743C46.2092 281.529 45.8803 284.223 45.5667 284.73C44.6435 286.221 48.4921 292.94 50.2684 292.94C51.1635 292.94 52.5291 294.121 53.3025 295.566C54.8927 298.537 61.0945 304.614 62.5361 304.614C63.058 304.614 63.7203 303.958 64.0081 303.155C64.2948 302.353 64.8881 302.025 65.3257 302.427C66.1214 303.159 64.1064 308.473 60.0109 316.448C56.1553 323.954 57.673 326.62 66.2092 327.336C69.0023 327.571 73.5085 328.479 76.2255 329.355C80.7856 330.826 80.9868 331.058 78.8583 332.384C77.5899 333.174 76.552 334.44 76.552 335.195C76.552 335.951 75.5644 337.654 74.3568 338.98C71.1038 342.552 70.4743 351.499 73.1879 355.605C74.3861 357.418 75.3702 359.839 75.3737 360.982C75.3784 362.126 76.2162 363.381 77.2365 363.772C78.6782 364.324 78.9134 365.42 78.292 368.697C77.1523 374.703 76.9616 394.512 78.0439 394.512C79.6107 394.51 81.1191 399.965 82.4027 410.27C83.3552 417.916 84.4458 421.487 87.1102 425.679C90.3163 430.723 90.4462 431.336 88.8303 433.796C86.6281 437.151 86.6327 439.736 88.8502 443.979C90.2859 446.725 90.355 448.155 89.2316 451.897C88.1855 455.377 88.1855 456.786 89.227 457.825C89.9782 458.575 90.5937 460.378 90.5937 461.833C90.5937 464.605 94.4762 467.525 96.5017 466.275C97.15 465.876 98.7156 466.77 99.9805 468.265C101.738 470.338 102.121 472.016 101.6 475.358C100.976 479.366 101.151 479.735 103.655 479.719C105.16 479.708 107.18 479.183 108.146 478.551C109.661 477.558 109.672 477.254 108.221 476.323C106.832 475.431 106.805 474.928 108.066 473.411C108.905 472.402 109.324 470.181 108.996 468.474C108.618 466.5 109.42 463.459 111.199 460.12C112.737 457.233 114.032 454.031 114.076 453.002C114.13 451.725 114.566 451.987 115.456 453.83C116.42 455.829 116.4 457.511 115.376 460.334C113.387 465.825 113.661 468.213 116.723 472.031C119.439 475.417 119.439 475.417 121.983 471.85C123.41 469.85 124.528 466.521 124.528 464.269C124.528 461.734 125.391 459.471 126.868 458.138C129.433 455.823 129.926 450.711 127.974 446.678C126.814 444.282 126.845 444.259 128.48 446.288C129.439 447.477 130.681 448.165 131.242 447.82C131.802 447.474 132.859 448.774 133.59 450.707C134.732 453.727 134.683 454.026 133.235 452.827C131.823 451.659 131.551 452.072 131.566 455.369C131.58 458.34 131.862 458.876 132.719 457.554C133.342 456.591 133.861 456.389 133.871 457.105C133.881 457.821 132.794 459.796 131.456 461.493C129.083 464.503 129.072 464.711 131.049 469.875C132.45 473.531 133.654 475.05 134.945 474.784C135.973 474.572 136.662 473.511 136.477 472.427C136.204 470.832 136.977 470.506 140.527 470.719C146.22 471.059 146.783 468.717 142.208 463.721C139.676 460.954 138.963 459.26 139.502 457.3C140.184 454.819 140.279 454.875 140.875 458.126C141.613 462.159 147.519 465.946 149.096 463.399C149.725 462.383 150.208 462.345 150.779 463.267C152.052 465.323 153.329 464.828 157.941 460.488C162.149 456.528 162.225 456.311 160.681 452.608C159.809 450.512 159.256 447.834 159.454 446.655C159.652 445.477 158.881 443.484 157.74 442.227C155.894 440.192 155.882 440.023 157.623 440.69C160.968 441.971 162.645 436.445 160.925 429.813C159.199 423.163 159.19 419.699 160.889 416.53C162.692 413.17 163.298 414.417 162.02 418.859C161.248 421.547 161.421 423.987 162.625 427.394C163.553 430.017 164.312 435.133 164.312 438.761C164.312 443.929 164.824 445.797 166.666 447.372C170.03 450.245 171.333 449.868 171.333 446.022C171.333 444.175 172.123 442.009 173.088 441.21C175.217 439.447 175.35 440.432 173.404 443.541C172.216 445.439 172.308 446.185 173.93 447.804C175.555 449.425 176.212 449.505 177.71 448.264C178.707 447.437 179.524 447.224 179.524 447.791C179.524 448.357 178.442 449.495 177.12 450.319C175.197 451.517 174.786 452.803 175.072 456.729C175.368 460.802 175.878 461.705 178.062 462.014C179.51 462.218 180.694 462.792 180.694 463.285C180.694 464.578 186.196 466.894 189.264 466.894C190.7 466.894 193.485 465.427 195.453 463.632C198.255 461.08 199.188 459.062 199.748 454.355C200.443 448.496 202.246 444.087 205.791 439.577C207.232 437.745 207.845 437.618 209.326 438.844C211.575 440.706 213.758 439.12 215.837 434.111C216.641 432.176 218.733 429.852 220.486 428.948C226.681 425.751 228.696 417.784 227.248 402.206C226.828 397.684 225.973 395.814 223.19 393.334C219.018 389.614 216.932 381.213 219.9 380.076C220.995 379.657 221.649 377.866 221.649 375.283C221.649 371.86 222.07 371.161 224.132 371.161C225.947 371.161 226.31 371.554 225.477 372.62C224.851 373.423 223.746 377.122 223.023 380.84C221.709 387.601 221.709 387.601 226.832 392.515C231.366 396.864 232.053 398.212 232.802 404.251C233.729 411.73 232.744 423.363 231.008 425.452C230.402 426.181 229.659 429.104 229.358 431.95C229.057 434.795 228.45 438.83 228.009 440.918C227.48 443.424 227.654 444.712 228.524 444.712C229.248 444.712 229.84 445.462 229.84 446.378C229.84 447.293 230.762 448.283 231.888 448.578C233.526 449.005 233.566 449.138 232.084 449.247C230.091 449.392 226.898 457.554 228.835 457.554C230.671 457.554 235.78 451.438 235.594 449.463C235.499 448.455 235.483 447.054 235.556 446.35C235.743 444.572 239.986 439.839 241.143 440.118C242.08 440.343 245.209 435.818 247.248 431.286C249.184 426.984 251.1 416.817 250.394 414.597C250.009 413.387 250.433 410.606 251.336 408.416C253.225 403.832 252.514 401.202 248.111 396.493C246.428 394.695 245.052 392.281 245.052 391.128C245.052 388.874 241.59 385.171 239.481 385.171C238.771 385.171 237.872 383.988 237.484 382.544C234.686 372.115 234.159 371.162 231.116 371.002C228.484 370.864 228.421 370.778 230.632 370.348C232.034 370.076 233.831 369.07 234.627 368.114C236.963 365.306 233.469 362.883 226.714 362.627C222.955 362.483 220.883 361.886 220.878 360.945C220.873 360.143 221.804 359.486 222.946 359.486C224.088 359.486 225.293 359.048 225.624 358.513C226.359 357.327 221.125 349.429 219.048 348.591C217.898 348.128 217.957 347.7 219.309 346.732C220.869 345.616 220.869 345.341 219.309 344.256C217.87 343.257 217.996 343.099 220.006 343.381C223.497 343.87 226.33 341.083 226.33 337.161C226.33 335.313 226.856 333.801 227.5 333.801C229.427 333.801 228.828 329.532 226.302 325.261C224.267 321.818 223.163 321.17 218.442 320.639C214.518 320.198 212.227 319.182 210.416 317.081C209.021 315.464 205.662 313.011 202.95 311.631C196.247 308.22 197.936 307.195 205.156 310.293C212.708 313.534 221.105 313.647 222.778 310.529C223.444 309.287 223.989 307.185 223.989 305.859C223.989 304.533 224.59 303.447 225.323 303.447C226.234 303.447 226.455 305.401 226.021 309.601C225.356 316.022 226.828 319.792 230 319.792C231.786 319.792 231.793 321.328 230.078 337.304C229.149 345.967 229.18 346.12 233 351.594C235.123 354.637 236.861 357.89 236.861 358.822C236.861 359.753 237.347 360.816 237.941 361.181C238.535 361.548 239.391 363.528 239.844 365.583C241.69 373.972 245.639 379.096 256.753 387.521C259.649 389.717 264.476 393.831 267.479 396.666C274.128 402.94 276.889 402.71 282.912 395.378C287.828 389.392 289.037 385.385 286.836 382.386C284.08 378.629 285.673 375.133 290.846 373.586C293.39 372.826 296.403 372.499 297.543 372.859C299.136 373.364 300.344 372.105 302.757 367.433C306.127 360.907 306.595 361.026 304.676 367.92C303.684 371.482 303.829 372.822 305.478 375.332C306.585 377.017 308.43 378.744 309.578 379.167C314.757 381.079 330.161 407.834 331.319 416.93C331.67 419.689 332.546 422.67 333.263 423.556C333.98 424.441 335.142 427.331 335.844 429.977C336.546 432.623 337.732 434.658 338.477 434.497C339.263 434.327 339.833 435.644 339.833 437.631C339.833 439.516 340.288 442.274 340.844 443.761C341.4 445.247 342.183 449.09 342.585 452.301C343.156 456.87 343.056 457.522 342.12 455.301C340.995 452.636 340.803 452.584 338.943 454.44C337.391 455.988 337.039 458.116 337.316 464.267C337.51 468.586 338.025 472.388 338.459 472.718C338.892 473.046 339.337 474.629 339.447 476.234C339.556 477.839 340.112 480.992 340.68 483.239C341.31 485.724 341.271 488.515 340.583 490.364C339.96 492.035 339.783 494.267 340.19 495.326C341.112 497.723 344.514 497.869 344.514 495.511C344.514 494.413 345.466 493.876 347.103 494.052C349.123 494.269 349.865 493.559 350.476 490.828C351.257 487.325 351.257 487.325 351.396 490.745C351.472 492.625 350.909 495.89 350.144 497.999C348.986 501.197 349.06 502.18 350.594 503.92C354.164 507.97 357.385 515.893 357.385 520.629C357.385 526.564 358.397 528.486 365.209 535.478C368.183 538.531 372.066 544.251 373.836 548.189C375.608 552.126 377.618 555.695 378.305 556.119C378.992 556.543 380.115 558.968 380.801 561.509C381.488 564.051 382.622 566.13 383.322 566.13C385.339 566.13 383.388 556.854 380.249 551.51C378.215 548.047 377.539 545.248 377.677 540.861C377.825 536.098 377.239 534.035 374.733 530.518C372.257 527.044 371.822 525.548 372.655 523.363C373.235 521.843 373.399 519.05 373.019 517.158C372.212 513.135 376.549 503.086 379.091 503.086C379.975 503.086 381.74 501.968 383.017 500.602C385.901 497.513 388.979 498.473 388.979 502.463C388.979 506.072 395.215 509.298 398.724 507.503C402.1 505.776 403.799 507.176 404.631 512.371C405.553 518.119 408.108 519.543 411.475 516.184C414.064 513.602 414.165 514.683 409.923 499.584C409.291 497.336 408.585 484.99 408.351 472.148C408.065 456.416 407.336 446.351 406.114 441.297C404.563 434.874 404.538 433.616 405.946 432.541C407.345 431.472 407.358 429.817 406.033 421.362C405.176 415.904 404.151 410.651 403.754 409.688C402.799 407.368 400.917 394.589 400.174 385.38C399.72 379.748 398.877 377.169 396.619 374.49C394.991 372.561 393.602 370.366 393.531 369.612C393.461 368.859 393.26 366.563 393.086 364.512C392.883 362.115 391.57 359.752 389.412 357.898C386.476 355.376 386.035 354.159 385.9 348.202C385.816 344.456 385.105 338.843 384.318 335.729C383.264 331.554 383.217 328.794 384.137 325.222C385.804 318.749 385.521 317.003 381.248 307.357C380.352 305.334 379.618 302.558 379.618 301.19C379.618 299.822 378.923 297.012 378.072 294.945C377.223 292.879 376.683 289.01 376.875 286.347C377.106 283.154 376.636 281.02 375.498 280.078C374.063 278.889 373.485 279.309 372.061 282.584C370.693 285.726 370.339 286.003 370.302 283.958C370.253 281.18 366.127 277.605 363.979 278.479C363.249 278.776 361.334 280.824 359.725 283.029C358.117 285.234 356.165 287.052 355.388 287.07C354.611 287.088 352.531 285.297 350.767 283.091C349.002 280.884 347.137 279.34 346.621 279.657C345.333 280.451 345.494 287.784 346.936 294.028C348.45 300.582 346.91 304.546 341.884 307.03C338.216 308.843 335.621 312.184 332.225 319.462C330.052 324.12 330.024 326.163 332.089 329.464C334.158 332.772 335.582 341.974 334.026 341.974C333.392 341.974 332.094 343.476 331.143 345.312C330.177 347.174 327.707 349.281 325.554 350.08C323.432 350.865 320.666 352.062 319.408 352.738C317.766 353.621 316.997 353.593 316.678 352.64C316.435 351.91 315.514 351.314 314.633 351.314C312.846 351.314 310.423 346.403 308.293 338.471C305.391 327.659 297.857 320.473 296.169 326.91C295.816 328.256 296.007 332.295 296.592 335.887C297.178 339.477 297.418 342.652 297.125 342.944C295.674 344.393 293.142 340.044 292.43 334.879C291.99 331.685 290.939 326.458 290.095 323.266C289.252 320.074 289.02 317.18 289.58 316.833C290.142 316.488 289.57 314.516 288.308 312.453C287.047 310.389 286.014 307.862 286.011 306.838C286.009 305.815 284.954 304.025 283.667 302.863C282.379 301.702 281.326 300.025 281.326 299.139C281.326 298.253 280.591 296.364 279.693 294.942C276.846 290.434 276.263 287.102 278.323 287.102C280.662 287.102 280.725 283.745 278.401 282.855C275.911 281.901 276.226 279.312 278.917 278.61C281.811 277.855 285.048 270.255 284.094 266.459C282.879 261.63 287.502 254.413 291.811 254.413C294.47 254.413 295.286 253.098 295.869 247.863C296.275 244.214 297.424 243.962 305.955 245.649C308.705 246.193 311.544 245.869 314.369 244.692C317.893 243.223 318.775 242.15 319.463 238.49C320.281 234.141 320.325 234.109 322.017 236.65C323.026 238.168 324.941 239.236 326.652 239.236C329.226 239.236 329.507 238.825 329.053 235.733C328.617 232.774 328.925 232.231 331.04 232.231C332.464 232.231 334.661 233.74 336.138 235.733C337.565 237.659 339.376 239.234 340.161 239.233C342.303 239.23 345.864 226.265 344.254 224.329C342.281 221.958 345 219.704 347.418 221.706C349.615 223.526 351.387 222.277 349.408 220.303C346.925 217.825 347.93 217.053 353.641 217.053C360.594 217.053 362.066 215.658 362.066 209.074C362.066 205.049 362.718 203.292 364.991 201.19C366.746 199.567 367.927 197.179 367.942 195.219C367.956 193.422 369.049 189.588 370.371 186.699C372.596 181.835 373.366 175.433 372.407 169.77C371.818 166.291 376.017 166.219 381.043 169.623C385.225 172.455 385.339 172.465 389.179 170.413C394.308 167.671 394.578 165.352 390.22 161.478C388.251 159.727 386.639 157.303 386.639 156.092C386.639 154.688 385.184 153.285 382.623 152.216C380.415 151.296 378.277 150.009 377.873 149.357C377.469 148.706 376.145 148.172 374.929 148.172C373.712 148.172 371.307 146.868 369.585 145.276C367.861 143.682 365.959 142.683 365.355 143.055C364.752 143.426 363.177 142.76 361.855 141.574C359.735 139.669 357.577 139.444 343.516 139.659C333.652 139.808 327.424 140.367 327.171 141.125C326.945 141.799 326.334 142.086 325.814 141.765C325.292 141.443 323.428 141.924 321.673 142.832C318.538 144.455 315.375 144.126 313.959 142.029C313.532 141.396 311.62 141.416 309.216 142.078C304.632 143.341 292.12 141.494 289.289 139.136C287.384 137.549 269.991 138.685 255.699 141.328C250.163 142.352 247.314 142.377 244.779 141.422C242.792 140.673 240.282 140.527 238.813 141.075C237.418 141.595 235.223 141.62 233.936 141.13C231.104 140.052 217.211 141.064 214.291 142.56C212.796 143.326 210.326 142.777 205.648 140.64C202.045 138.995 196.14 137.305 192.528 136.888C188.596 136.433 182.048 134.27 176.213 131.498C167.99 127.592 166.029 127.066 163.676 128.136C161.783 128.996 160.648 129.02 160.144 128.207C158.773 125.995 158.903 117.602 160.419 110.384C162.364 101.124 162.356 93.478 160.395 89.7292C157.431 84.0611 157.2 77.9365 159.739 72.3069C161.104 69.2843 161.607 66.9108 160.932 66.6867C160.289 66.473 160.03 65.6056 160.355 64.7591C160.68 63.9139 159.598 61.7692 157.949 59.9947C156.3 58.2201 154.951 55.8746 154.951 54.783C154.951 53.6903 154.123 51.1405 153.111 49.1161C151.441 45.7759 150.179 44.8956 147.638 45.2961C147.156 45.372 146.76 43.8577 146.76 41.9314C146.76 40.0051 146.277 38.429 145.686 38.429C143.07 38.429 140.91 40.0121 140.91 41.9314C140.91 43.0779 140.06 44.3411 139.022 44.7392C137.411 45.3556 137.369 45.7421 138.73 47.3882C139.976 48.8942 140.004 49.4231 138.862 49.8072C136.545 50.5859 137.163 52.4387 139.739 52.4387C142.838 52.4387 142.691 53.3739 139.154 56.1501C137.545 57.4122 136.229 59.4576 136.229 60.6963C136.229 63.0885 134.509 63.7248 133.304 61.7786C132.906 61.1364 130.8 60.6111 128.623 60.6111C126.447 60.6111 124.322 60.0554 123.9 59.3747C123.479 58.6952 121.711 58.4512 119.97 58.833C117.335 59.4109 115.911 58.6462 111.449 54.2565C108.503 51.3588 104.739 48.474 103.086 47.847C100.855 47.0006 99.8717 45.5658 99.2667 42.2758C98.8186 39.8393 97.7374 36.8085 96.8633 35.5418C94.6868 32.3896 94.8705 30.2648 97.322 30.2181C99.0725 30.1842 98.9882 29.8608 96.7369 27.987C95.2883 26.7822 94.1041 25.2236 94.1041 24.5243C94.1041 23.8238 93.471 23.2517 92.6976 23.2517C91.923 23.2517 89.6189 21.6348 87.5759 19.6594C83.8607 16.067 83.8607 16.067 81.201 19.7936C78.5413 23.5202 78.5413 23.5202 85.4451 29.841C91.0477 34.9697 92.0177 36.3719 90.5937 37.2778C87.8907 38.9963 86.5181 38.673 83.0989 35.5103C79.248 31.9494 77.2178 31.8327 74.9653 35.0409C73.2452 37.4903 73.2452 37.4903 71.1858 34.3544C69.083 31.1521 66.5906 30.8742 60.7551 33.1905C58.8864 33.9318 59.083 33.403 61.7252 30.5683C64.9396 27.1196 64.97 26.9701 62.7713 25.4256C61.5251 24.5511 60.1315 22.654 59.6739 21.2086C59.2164 19.7633 58.1141 18.5818 57.2237 18.5818C56.3344 18.5818 55.1127 17.7015 54.5089 16.6263C53.9063 15.551 52.6309 14.5563 51.676 14.4174C49.3404 14.0753 43.7881 10.3826 43.7881 9.1719C43.7881 8.63836 42.3407 7.51174 40.5703 6.66766C38.7542 5.80255 37.1897 3.99413 36.9779 2.51843C36.5192 -0.696808 34.9138 -0.852083 33.2979 2.16002ZM211.456 371.161C210.735 372.857 210.646 374.613 211.242 375.354C211.806 376.056 211.922 376.975 211.498 377.397C211.075 377.82 211.343 378.166 212.093 378.166C212.844 378.166 213.458 377.584 213.458 376.873C213.458 376.162 214.221 375.873 215.154 376.23C216.288 376.664 216.634 376.319 216.199 375.187C215.841 374.257 215.114 373.496 214.585 373.496C214.055 373.496 213.413 372.314 213.157 370.869C212.695 368.251 212.689 368.253 211.456 371.161ZM288.786 377.541C287.938 379.748 292.304 385.877 295.279 386.653C300.036 387.894 300.222 383.389 295.596 378.968C291.921 375.454 289.763 375.002 288.786 377.541ZM301.277 387.427C298.692 389.085 299.682 397.758 303.126 403.627C305.591 407.827 306.595 408.598 309.207 408.297C311.902 407.987 312.385 407.327 312.699 403.537C313.062 399.162 312.526 398.124 305.314 389.226C303.623 387.141 302.503 386.642 301.277 387.427ZM248.562 391.004C248.562 393.554 255.346 399.18 258.418 399.18C262.154 399.18 262.313 396.89 258.801 393.672C255.681 390.814 248.562 388.959 248.562 391.004ZM287.19 393.911C286.395 394.866 286.078 396.515 286.485 397.573C287.163 399.336 287.421 399.322 289.542 397.407C290.815 396.257 291.857 394.61 291.857 393.746C291.857 391.645 288.989 391.747 287.19 393.911ZM261.773 403.85C261.436 405.134 260.432 406.185 259.542 406.185C257.722 406.185 257.451 408.304 258.965 410.688C259.634 411.741 260.229 411.856 260.74 411.03C261.162 410.348 262.269 410.081 263.2 410.437C265.232 411.215 267.926 406.035 266.89 403.341C265.891 400.742 262.499 401.08 261.773 403.85ZM269.232 405.893C268.939 406.376 268.317 411.933 267.846 418.244C267.249 426.259 266.509 429.905 265.39 430.333C264.509 430.671 264.164 431.549 264.623 432.284C265.081 433.02 265.304 434.802 265.117 436.248C264.652 439.841 266.455 439.542 270.399 435.372C272.221 433.446 274.386 431.87 275.209 431.87C277.294 431.87 278.986 426.848 278.986 420.656C278.986 414.919 275.495 406.89 272.505 405.745C270.092 404.822 269.876 404.832 269.232 405.893ZM162.881 411.152C163.188 412.324 163.521 413.131 163.622 412.945C163.723 412.758 164.417 411.8 165.164 410.813C166.263 409.363 166.121 409.021 164.422 409.021C162.966 409.021 162.493 409.672 162.881 411.152ZM255.862 413.38C255.065 414.174 254.413 415.62 254.413 416.592C254.413 418.123 254.668 418.106 256.304 416.474C257.344 415.436 257.996 413.99 257.753 413.261C257.432 412.304 256.907 412.337 255.862 413.38ZM259.098 415.817C259.101 417.262 257.688 422.788 255.96 428.096C253.6 435.347 253.15 438.082 254.157 439.086C255.163 440.09 255.781 439.721 256.64 437.606C257.269 436.056 258.865 433.212 260.186 431.286C262.648 427.697 263.163 423.278 261.873 416.838C261.03 412.634 259.091 411.921 259.098 415.817ZM263.774 416.555C263.774 417.839 264.301 419.214 264.944 419.611C265.588 420.008 266.114 419.282 266.114 417.998C266.114 416.714 265.588 415.338 264.944 414.941C264.301 414.544 263.774 415.271 263.774 416.555ZM134.123 425.098C133.351 425.869 132.779 427.576 132.854 428.893C132.988 431.237 133.002 431.238 133.566 428.951C133.882 427.667 134.675 425.96 135.328 425.157C136.843 423.295 135.973 423.253 134.123 425.098ZM220.495 433.913C218.326 436.964 216.621 440.509 216.708 441.793C216.989 445.978 218.159 449.382 219.317 449.382C221.464 449.382 226.124 440.404 226.34 435.85C226.787 426.413 226.013 426.156 220.495 433.913ZM188.3 435.372C186.044 436.34 186.052 436.379 188.524 436.458C189.934 436.502 191.413 436.014 191.811 435.372C192.666 433.991 191.52 433.991 188.3 435.372ZM261.044 438.486C259.933 439.594 260.078 443.292 261.262 444.022C261.811 444.361 263.238 443.923 264.435 443.05C266.282 441.702 266.375 441.178 265.05 439.585C263.365 437.559 262.273 437.26 261.044 438.486ZM204.082 445.917C203.273 447.864 202.901 449.745 203.255 450.099C203.609 450.451 203.153 452.519 202.242 454.693C200.15 459.689 200.137 462.224 202.203 462.224C203.127 462.224 204.357 460.101 205.074 457.262C206.522 451.541 209.848 446.273 209.91 449.605C209.931 450.691 209.421 451.904 208.778 452.301C208.134 452.698 207.608 453.816 207.608 454.786C207.608 457.71 212.606 456.139 214.59 452.593C216.188 449.732 216.193 449.042 214.628 446.265C212.278 442.09 210.179 441.597 208.85 444.906C207.756 447.631 207.756 447.631 207.681 445.004C207.577 441.297 205.814 441.744 204.082 445.917ZM221.305 451.553C219.372 453.448 218.312 455.48 218.713 456.522C219.092 457.509 218.342 459.233 217.01 460.436C214.145 463.023 213.785 466.3 216.48 465.268C217.498 464.878 218.551 464.559 218.82 464.559C219.089 464.559 219.319 463.903 219.331 463.1C219.344 462.298 221.124 459.617 223.286 457.146C225.808 454.263 227.011 451.855 226.639 450.433C225.885 447.558 225.243 447.693 221.305 451.553ZM238.131 456.679C237.583 458.124 237.418 459.78 237.762 460.357C238.506 461.609 241.542 457.773 241.542 455.58C241.542 453.088 239.206 453.841 238.131 456.679ZM242.712 456.689C242.712 457.498 243.707 458.78 244.923 459.539C246.875 460.754 247.116 460.582 246.971 458.069C246.801 455.121 242.712 453.796 242.712 456.689ZM211.655 461.135C211.23 461.819 211.165 462.66 211.508 463.003C212.347 463.839 214.628 462.366 214.628 460.988C214.628 459.496 212.609 459.595 211.655 461.135ZM341.801 464.138C340.072 470.273 339.768 472.031 340.633 470.881C341.159 470.184 342.412 469.133 343.418 468.546C344.936 467.66 345.006 467.007 343.83 464.722C342.546 462.223 342.356 462.169 341.801 464.138Z" fill="#F04242" style="fill:#F04242;fill:color(display-p3 0.9400 0.2600 0.2600);fill-opacity:1;"/>
</svg>
