<svg width="40" height="40" viewBox="0 0 40 40" fill="none" xmlns="http://www.w3.org/2000/svg">
<path d="M39 19.9285C39.0028 22.583 38.4438 25.2082 37.3593 27.6328C36.2748 30.0575 34.6893 32.2271 32.7062 34C31.514 31.6638 29.6958 29.702 27.4531 28.332C25.2104 26.9619 22.6308 26.2371 20 26.2377C21.5658 26.2377 23.0964 25.7752 24.3983 24.9086C25.7001 24.042 26.7148 22.8103 27.314 21.3693C27.9132 19.9282 28.07 18.3425 27.7645 16.8127C27.4591 15.2828 26.7051 13.8776 25.5979 12.7746C24.4908 11.6717 23.0801 10.9206 21.5445 10.6163C20.0088 10.312 18.417 10.4682 16.9704 11.0651C15.5238 11.662 14.2874 12.6728 13.4175 13.9697C12.5476 15.2667 12.0833 16.7914 12.0833 18.3512C12.0833 20.4429 12.9174 22.4488 14.4021 23.9278C15.8867 25.4068 17.9004 26.2377 20 26.2377C17.3692 26.2371 14.7896 26.9619 12.5469 28.332C10.3042 29.702 8.48601 31.6638 7.29375 34C4.93904 31.8901 3.15114 29.2272 2.09262 26.2536C1.0341 23.28 0.738539 20.09 1.23282 16.9736C1.7271 13.8572 2.99555 10.9134 4.9228 8.40973C6.85006 5.90609 9.37499 3.9221 12.268 2.63816C15.161 1.35422 18.3303 0.811078 21.4877 1.05811C24.6451 1.30515 27.6904 2.33453 30.3467 4.05265C33.003 5.77076 35.1861 8.12311 36.6973 10.8958C38.2086 13.6685 39.0001 16.7735 39 19.9285Z" fill="#F04242" fill-opacity="0.1" style="fill:#F04242;fill:color(display-p3 0.9400 0.2600 0.2600);fill-opacity:0.1;"/>
<path d="M20 0C16.0444 0 12.1776 1.17298 8.8886 3.37061C5.59962 5.56823 3.03617 8.69181 1.52242 12.3463C0.00866534 16.0009 -0.387401 20.0222 0.384303 23.9018C1.15601 27.7814 3.06082 31.3451 5.85787 34.1421C8.65492 36.9392 12.2186 38.844 16.0982 39.6157C19.9778 40.3874 23.9991 39.9913 27.6537 38.4776C31.3082 36.9638 34.4318 34.4004 36.6294 31.1114C38.827 27.8224 40 23.9556 40 20C39.9938 14.6976 37.8846 9.61412 34.1353 5.86474C30.3859 2.11536 25.3024 0.00622716 20 0ZM8.90981 33.7255C10.0604 31.8123 11.6863 30.2293 13.6296 29.1303C15.5729 28.0313 17.7675 27.4538 20 27.4538C22.2325 27.4538 24.4271 28.0313 26.3704 29.1303C28.3137 30.2293 29.9396 31.8123 31.0902 33.7255C27.9537 36.2689 24.0382 37.6569 20 37.6569C15.9618 37.6569 12.0464 36.2689 8.90981 33.7255ZM13.3333 18.4314C13.3333 17.1128 13.7243 15.8239 14.4569 14.7276C15.1894 13.6312 16.2306 12.7768 17.4488 12.2722C18.667 11.7676 20.0074 11.6356 21.3006 11.8928C22.5938 12.15 23.7817 12.785 24.714 13.7173C25.6464 14.6497 26.2813 15.8376 26.5386 17.1308C26.7958 18.424 26.6638 19.7644 26.1592 20.9826C25.6546 22.2008 24.8001 23.242 23.7038 23.9745C22.6075 24.707 21.3185 25.098 20 25.098C18.2319 25.098 16.5362 24.3957 15.286 23.1454C14.0357 21.8952 13.3333 20.1995 13.3333 18.4314ZM32.8451 32.0863C30.9966 29.212 28.2336 27.0445 25.002 25.9333C26.6134 24.86 27.8367 23.2967 28.491 21.4744C29.1452 19.6522 29.1958 17.6677 28.6351 15.8145C28.0744 13.9613 26.9323 12.3377 25.3776 11.1838C23.8229 10.0299 21.9381 9.40684 20.002 9.40684C18.0658 9.40684 16.181 10.0299 14.6263 11.1838C13.0716 12.3377 11.9295 13.9613 11.3688 15.8145C10.8081 17.6677 10.8587 19.6522 11.513 21.4744C12.1672 23.2967 13.3905 24.86 15.002 25.9333C11.7703 27.0445 9.00732 29.212 7.15883 32.0863C4.79575 29.5786 3.21849 26.434 2.62166 23.0404C2.02482 19.6468 2.43452 16.1527 3.80021 12.9893C5.16591 9.82581 7.42783 7.13136 10.3069 5.23836C13.186 3.34536 16.5563 2.33663 20.002 2.33663C23.4476 2.33663 26.8179 3.34536 29.697 5.23836C32.5761 7.13136 34.838 9.82581 36.2037 12.9893C37.5694 16.1527 37.9791 19.6468 37.3823 23.0404C36.7854 26.434 35.2082 29.5786 32.8451 32.0863Z" fill="#888888" style="fill:#888888;fill:color(display-p3 0.5333 0.5333 0.5333);fill-opacity:1;"/>
</svg>
